M48
; DRILL file {KiCad (6.0.7-1)-1} date 2022 October 03, Monday 10:16:18
; FORMAT={-:-/ absolute / metric / decimal}
; #@! TF.CreationDate,2022-10-03T10:16:18+02:00
; #@! TF.GenerationSoftware,Kicad,Pcbnew,(6.0.7-1)-1
; #@! TF.FileFunction,NonPlated,1,2,NPTH
FMAT,2
METRIC
; #@! TA.AperFunction,NonPlated,NPTH,ComponentDrill
T1C1.750
; #@! TA.AperFunction,NonPlated,NPTH,ComponentDrill
T2C2.200
; #@! TA.AperFunction,NonPlated,NPTH,ComponentDrill
T3C3.000
; #@! TA.AperFunction,NonPlated,NPTH,ComponentDrill
T4C3.048
; #@! TA.AperFunction,NonPlated,NPTH,ComponentDrill
T5C3.988
%
G90
G05
T1
X90.13Y-149.22
X90.17Y-225.425
X92.551Y-206.375
X94.895Y-168.25
X97.314Y-187.325
X100.29Y-149.22
X100.33Y-225.425
X102.711Y-206.375
X105.055Y-168.25
X107.474Y-187.325
X109.14Y-149.21
X111.601Y-225.425
X114.0Y-206.39
X118.697Y-168.257
X119.3Y-149.21
X121.761Y-225.425
X123.46Y-187.308
X124.16Y-206.39
X128.222Y-149.207
X128.857Y-168.257
X132.985Y-206.357
X133.62Y-187.308
X135.414Y-225.425
X137.748Y-168.257
X138.382Y-149.207
X142.51Y-187.308
X143.145Y-206.357
X145.574Y-225.425
X147.272Y-149.207
X147.907Y-168.257
X152.035Y-206.357
X152.67Y-187.308
X156.797Y-168.257
X157.433Y-149.207
X159.226Y-225.425
X161.56Y-187.308
X162.195Y-206.357
X166.322Y-149.207
X166.957Y-168.257
X169.386Y-225.425
X171.085Y-206.357
X171.72Y-187.308
X175.847Y-168.257
X176.482Y-149.207
X180.61Y-187.308
X181.245Y-206.357
X185.373Y-149.207
X186.007Y-168.257
X190.135Y-206.357
X190.77Y-187.308
X194.897Y-168.257
X195.532Y-149.207
X197.326Y-225.425
X199.66Y-187.308
X200.295Y-206.357
X204.422Y-149.207
X205.058Y-168.257
X207.486Y-225.425
X209.185Y-206.357
X209.82Y-187.308
X213.947Y-168.257
X214.582Y-149.207
X218.71Y-187.308
X219.345Y-206.357
X223.472Y-149.207
X224.107Y-168.257
X228.235Y-206.357
X228.87Y-187.308
X232.998Y-168.257
X233.632Y-149.207
X237.76Y-187.308
X238.395Y-206.357
X242.522Y-149.207
X243.157Y-168.257
X247.285Y-206.357
X247.92Y-187.308
X249.714Y-225.425
X252.047Y-168.257
X252.682Y-149.207
X256.81Y-187.308
X257.445Y-206.357
X259.874Y-225.425
X261.572Y-149.207
X262.207Y-168.257
X266.335Y-206.357
X266.97Y-187.308
X271.097Y-168.257
X271.733Y-149.207
X275.86Y-187.308
X276.495Y-206.357
X280.623Y-149.207
X281.257Y-168.257
X285.385Y-206.357
X286.02Y-187.308
X287.814Y-225.425
X290.147Y-168.257
X290.782Y-149.207
X294.91Y-187.308
X295.545Y-206.357
X297.974Y-225.425
X299.673Y-149.207
X300.308Y-168.257
X304.435Y-206.357
X305.07Y-187.308
X309.197Y-168.257
X309.832Y-149.207
X311.626Y-225.425
X313.96Y-187.308
X314.595Y-206.357
X318.722Y-149.207
X319.357Y-168.257
X321.786Y-225.425
X324.12Y-187.308
X328.248Y-168.257
X328.882Y-149.207
X333.01Y-187.308
X335.439Y-225.425
X338.407Y-168.257
X340.201Y-206.375
X343.17Y-187.308
X345.599Y-225.425
X347.282Y-149.213
X350.361Y-206.375
X354.441Y-177.782
X356.87Y-225.425
X357.442Y-149.213
X364.601Y-177.782
X367.03Y-225.425
T2
X77.1Y-151.2
X77.25Y-223.45
X219.0Y-157.55
X228.6Y-217.05
X351.2Y-215.9
X351.25Y-158.75
T3
X91.4Y-146.68
X91.44Y-222.885
X93.821Y-203.835
X96.165Y-165.71
X97.75Y-144.14
X97.79Y-220.345
X98.584Y-184.785
X100.171Y-201.295
X102.515Y-163.17
X104.934Y-182.245
X110.41Y-146.67
X112.871Y-222.885
X115.27Y-203.85
X116.76Y-144.13
X119.221Y-220.345
X119.968Y-165.718
X121.62Y-201.31
X124.73Y-184.767
X126.317Y-163.177
X129.493Y-146.667
X131.08Y-182.227
X134.255Y-203.817
X135.843Y-144.127
X136.684Y-222.885
X139.017Y-165.718
X140.605Y-201.278
X143.034Y-220.345
X143.78Y-184.767
X145.368Y-163.177
X148.542Y-146.667
X150.13Y-182.227
X153.305Y-203.817
X154.892Y-144.127
X158.067Y-165.718
X159.655Y-201.278
X160.496Y-222.885
X162.83Y-184.767
X164.417Y-163.177
X166.846Y-220.345
X167.593Y-146.667
X169.18Y-182.227
X172.355Y-203.817
X173.942Y-144.127
X177.117Y-165.718
X178.705Y-201.278
X181.88Y-184.767
X183.468Y-163.177
X186.642Y-146.667
X188.23Y-182.227
X191.405Y-203.817
X192.992Y-144.127
X196.167Y-165.718
X197.755Y-201.278
X198.596Y-222.885
X200.93Y-184.767
X202.517Y-163.177
X204.946Y-220.345
X205.692Y-146.667
X207.28Y-182.227
X210.455Y-203.817
X212.042Y-144.127
X215.218Y-165.718
X216.805Y-201.278
X219.98Y-184.767
X221.567Y-163.177
X224.742Y-146.667
X226.33Y-182.227
X229.505Y-203.817
X231.093Y-144.127
X234.267Y-165.718
X235.855Y-201.278
X239.03Y-184.767
X240.617Y-163.177
X243.792Y-146.667
X245.38Y-182.227
X248.555Y-203.817
X250.142Y-144.127
X250.984Y-222.885
X253.317Y-165.718
X254.905Y-201.278
X257.334Y-220.345
X258.08Y-184.767
X259.667Y-163.177
X262.842Y-146.667
X264.43Y-182.227
X267.605Y-203.817
X269.192Y-144.127
X272.368Y-165.718
X273.955Y-201.278
X277.13Y-184.767
X278.717Y-163.177
X281.892Y-146.667
X283.48Y-182.227
X286.655Y-203.817
X288.243Y-144.127
X289.084Y-222.885
X291.417Y-165.718
X293.005Y-201.278
X295.434Y-220.345
X296.18Y-184.767
X297.767Y-163.177
X300.942Y-146.667
X302.53Y-182.227
X305.705Y-203.817
X307.292Y-144.127
X310.467Y-165.718
X312.055Y-201.278
X312.896Y-222.885
X315.23Y-184.767
X316.817Y-163.177
X319.246Y-220.345
X319.993Y-146.667
X321.58Y-182.227
X326.342Y-144.127
X329.517Y-165.718
X334.28Y-184.767
X335.868Y-163.177
X336.709Y-222.885
X340.63Y-182.227
X341.471Y-203.835
X343.059Y-220.345
X347.821Y-201.295
X348.553Y-146.672
X354.902Y-144.132
X355.711Y-175.242
X358.14Y-222.885
X362.061Y-172.702
X364.49Y-220.345
T4
X190.468Y-232.41
X214.344Y-232.41
X242.856Y-232.41
X266.732Y-232.41
X333.343Y-199.39
X340.424Y-142.227
X357.219Y-199.39
X364.3Y-142.227
X366.506Y-165.844
X366.506Y-189.72
T5
X95.21Y-149.22
X95.25Y-225.425
X97.631Y-206.375
X99.975Y-168.25
X102.394Y-187.325
X114.22Y-149.21
X116.681Y-225.425
X119.08Y-206.39
X123.777Y-168.257
X128.54Y-187.308
X133.302Y-149.207
X138.065Y-206.357
X140.494Y-225.425
X142.827Y-168.257
X147.59Y-187.308
X152.352Y-149.207
X157.115Y-206.357
X161.877Y-168.257
X164.306Y-225.425
X166.64Y-187.308
X171.403Y-149.207
X176.165Y-206.357
X180.927Y-168.257
X185.69Y-187.308
X190.452Y-149.207
X190.468Y-217.17
X195.215Y-206.357
X199.977Y-168.257
X202.406Y-225.425
X204.74Y-187.308
X209.502Y-149.207
X214.265Y-206.357
X214.344Y-217.17
X219.028Y-168.257
X223.79Y-187.308
X228.552Y-149.207
X233.315Y-206.357
X238.077Y-168.257
X242.84Y-187.308
X242.856Y-217.17
X247.602Y-149.207
X252.365Y-206.357
X254.794Y-225.425
X257.127Y-168.257
X261.89Y-187.308
X266.652Y-149.207
X266.732Y-217.17
X271.415Y-206.357
X276.178Y-168.257
X280.94Y-187.308
X285.702Y-149.207
X290.465Y-206.357
X292.894Y-225.425
X295.227Y-168.257
X299.99Y-187.308
X304.752Y-149.207
X309.515Y-206.357
X314.277Y-168.257
X316.706Y-225.425
X319.04Y-187.308
X323.803Y-149.207
X333.327Y-168.257
X333.343Y-214.63
X338.09Y-187.308
X340.424Y-157.468
X340.519Y-225.425
X345.281Y-206.375
X351.266Y-165.844
X351.266Y-189.72
X352.363Y-149.213
X357.219Y-214.63
X359.521Y-177.782
X361.95Y-225.425
X364.3Y-157.468
T0
M30
