G04 #@! TF.GenerationSoftware,KiCad,Pcbnew,(6.0.7-1)-1*
G04 #@! TF.CreationDate,2022-10-03T10:16:15+02:00*
G04 #@! TF.ProjectId,staggered-keyboard,73746167-6765-4726-9564-2d6b6579626f,rev?*
G04 #@! TF.SameCoordinates,Original*
G04 #@! TF.FileFunction,Copper,L2,Bot*
G04 #@! TF.FilePolarity,Positive*
%FSLAX46Y46*%
G04 Gerber Fmt 4.6, Leading zero omitted, Abs format (unit mm)*
G04 Created by KiCad (PCBNEW (6.0.7-1)-1) date 2022-10-03 10:16:15*
%MOMM*%
%LPD*%
G01*
G04 APERTURE LIST*
G04 #@! TA.AperFunction,SMDPad,CuDef*
%ADD10R,2.550000X2.500000*%
G04 #@! TD*
G04 #@! TA.AperFunction,ComponentPad*
%ADD11R,1.600000X1.600000*%
G04 #@! TD*
G04 #@! TA.AperFunction,ComponentPad*
%ADD12C,1.600000*%
G04 #@! TD*
G04 #@! TA.AperFunction,SMDPad,CuDef*
%ADD13R,1.200000X0.900000*%
G04 #@! TD*
G04 #@! TA.AperFunction,SMDPad,CuDef*
%ADD14R,0.900000X1.200000*%
G04 #@! TD*
G04 #@! TA.AperFunction,ViaPad*
%ADD15C,0.800000*%
G04 #@! TD*
G04 #@! TA.AperFunction,Conductor*
%ADD16C,0.250000*%
G04 #@! TD*
G04 APERTURE END LIST*
D10*
X192892500Y-165717500D03*
X205819500Y-163177500D03*
X245280000Y-203817500D03*
X258207000Y-201277500D03*
X302430000Y-203817500D03*
X315357000Y-201277500D03*
X326242500Y-165717500D03*
X339169500Y-163177500D03*
X292905000Y-184767500D03*
X305832000Y-182227500D03*
X345277500Y-146672500D03*
X358204500Y-144132500D03*
X211942500Y-165717500D03*
X224869500Y-163177500D03*
X354865000Y-222885000D03*
X367792000Y-220345000D03*
X88125000Y-146680000D03*
X101052000Y-144140000D03*
X202417500Y-146667500D03*
X215344500Y-144127500D03*
X259567500Y-146667500D03*
X272494500Y-144127500D03*
X264330000Y-203817500D03*
X277257000Y-201277500D03*
X135742500Y-165717500D03*
X148669500Y-163177500D03*
X288142500Y-165717500D03*
X301069500Y-163177500D03*
X230992500Y-165717500D03*
X243919500Y-163177500D03*
X221467500Y-146667500D03*
X234394500Y-144127500D03*
X130980000Y-203817500D03*
X143907000Y-201277500D03*
X111995000Y-203850000D03*
X124922000Y-201310000D03*
X88165000Y-222885000D03*
X101092000Y-220345000D03*
X126217500Y-146667500D03*
X139144500Y-144127500D03*
X250042500Y-165717500D03*
X262969500Y-163177500D03*
X145267500Y-146667500D03*
X158194500Y-144127500D03*
X226230000Y-203817500D03*
X239157000Y-201277500D03*
X285808750Y-222885000D03*
X298735750Y-220345000D03*
X338196250Y-203835000D03*
X351123250Y-201295000D03*
X109596250Y-222885000D03*
X122523250Y-220345000D03*
X247708750Y-222885000D03*
X260635750Y-220345000D03*
X278617500Y-146667500D03*
X291544500Y-144127500D03*
X216705000Y-184767500D03*
X229632000Y-182227500D03*
X316717500Y-146667500D03*
X329644500Y-144127500D03*
X331005000Y-184767500D03*
X343932000Y-182227500D03*
X235755000Y-184767500D03*
X248682000Y-182227500D03*
X352436250Y-175242500D03*
X365363250Y-172702500D03*
X164317500Y-146667500D03*
X177244500Y-144127500D03*
X159555000Y-184767500D03*
X172482000Y-182227500D03*
X311955000Y-184767500D03*
X324882000Y-182227500D03*
X107135000Y-146670000D03*
X120062000Y-144130000D03*
X157221250Y-222885000D03*
X170148250Y-220345000D03*
X92890000Y-165710000D03*
X105817000Y-163170000D03*
X133408750Y-222885000D03*
X146335750Y-220345000D03*
X307192500Y-165717500D03*
X320119500Y-163177500D03*
X309621250Y-222885000D03*
X322548250Y-220345000D03*
X240517500Y-146667500D03*
X253444500Y-144127500D03*
X197655000Y-184767500D03*
X210582000Y-182227500D03*
X95308750Y-184785000D03*
X108235750Y-182245000D03*
X154792500Y-165717500D03*
X167719500Y-163177500D03*
X169080000Y-203817500D03*
X182007000Y-201277500D03*
X178605000Y-184767500D03*
X191532000Y-182227500D03*
X297667500Y-146667500D03*
X310594500Y-144127500D03*
X207180000Y-203817500D03*
X220107000Y-201277500D03*
X90546250Y-203835000D03*
X103473250Y-201295000D03*
X333433750Y-222885000D03*
X346360750Y-220345000D03*
X254805000Y-184767500D03*
X267732000Y-182227500D03*
X283380000Y-203817500D03*
X296307000Y-201277500D03*
X183367500Y-146667500D03*
X196294500Y-144127500D03*
X269092500Y-165717500D03*
X282019500Y-163177500D03*
X121455000Y-184767500D03*
X134382000Y-182227500D03*
X188130000Y-203817500D03*
X201057000Y-201277500D03*
X150030000Y-203817500D03*
X162957000Y-201277500D03*
X173842500Y-165717500D03*
X186769500Y-163177500D03*
X273855000Y-184767500D03*
X286782000Y-182227500D03*
X116692500Y-165717500D03*
X129619500Y-163177500D03*
X195321250Y-222885000D03*
X208248250Y-220345000D03*
X140505000Y-184767500D03*
X153432000Y-182227500D03*
D11*
X68060000Y-141940000D03*
D12*
X68060000Y-144480000D03*
X68060000Y-147020000D03*
X68060000Y-149560000D03*
X68060000Y-152100000D03*
X68060000Y-154640000D03*
X68060000Y-157180000D03*
X68060000Y-159720000D03*
X68060000Y-162260000D03*
X68060000Y-164800000D03*
X68060000Y-167340000D03*
X68060000Y-169880000D03*
X83300000Y-169880000D03*
X83300000Y-167340000D03*
X83300000Y-164800000D03*
X83300000Y-162260000D03*
X83300000Y-159720000D03*
X83300000Y-157180000D03*
X83300000Y-154640000D03*
X83300000Y-152100000D03*
X83300000Y-149560000D03*
X83300000Y-147020000D03*
X83300000Y-144480000D03*
X83300000Y-141940000D03*
D13*
X170070000Y-172490000D03*
X170070000Y-169190000D03*
X327190000Y-191520000D03*
X327190000Y-188220000D03*
X331950000Y-153500000D03*
X331950000Y-150200000D03*
D14*
X365010000Y-169000000D03*
X361710000Y-169000000D03*
D13*
X251050000Y-191600000D03*
X251050000Y-188300000D03*
X210880000Y-229570000D03*
X210880000Y-226270000D03*
X317760000Y-210490000D03*
X317760000Y-207190000D03*
X274860000Y-153450000D03*
X274860000Y-150150000D03*
X260550000Y-210550000D03*
X260550000Y-207250000D03*
X231990000Y-191550000D03*
X231990000Y-188250000D03*
X322420000Y-172520000D03*
X322420000Y-169220000D03*
X227180000Y-172420000D03*
X227180000Y-169120000D03*
X165330000Y-210580000D03*
X165330000Y-207280000D03*
X265330000Y-172450000D03*
X265330000Y-169150000D03*
X284400000Y-172520000D03*
X284400000Y-169220000D03*
X108210000Y-172550000D03*
X108210000Y-169250000D03*
X246250000Y-172500000D03*
X246250000Y-169200000D03*
X174900000Y-191550000D03*
X174900000Y-188250000D03*
X312950000Y-153460000D03*
X312950000Y-150160000D03*
X122430000Y-153420000D03*
X122430000Y-150120000D03*
X217680000Y-153430000D03*
X217680000Y-150130000D03*
X160570000Y-153530000D03*
X160570000Y-150230000D03*
X303530000Y-172490000D03*
X303530000Y-169190000D03*
X103480000Y-229730000D03*
X103480000Y-226430000D03*
X301440000Y-229630000D03*
X301440000Y-226330000D03*
X236760000Y-153400000D03*
X236760000Y-150100000D03*
X105800000Y-210580000D03*
X105800000Y-207280000D03*
X131950000Y-172490000D03*
X131950000Y-169190000D03*
X198600000Y-153430000D03*
X198600000Y-150130000D03*
X193810000Y-191550000D03*
X193810000Y-188250000D03*
X263130000Y-229700000D03*
X263130000Y-226400000D03*
X148950000Y-229660000D03*
X148950000Y-226360000D03*
X103470000Y-153450000D03*
X103470000Y-150150000D03*
X212850000Y-191550000D03*
X212850000Y-188250000D03*
X289130000Y-191400000D03*
X289130000Y-188100000D03*
X127220000Y-210630000D03*
X127220000Y-207330000D03*
X125040000Y-229440000D03*
X125040000Y-226140000D03*
X279730000Y-210550000D03*
X279730000Y-207250000D03*
X341530000Y-172520000D03*
X341530000Y-169220000D03*
X360610000Y-153300000D03*
X360610000Y-150000000D03*
X184410000Y-210580000D03*
X184410000Y-207280000D03*
X241570000Y-210610000D03*
X241570000Y-207310000D03*
X179620000Y-153490000D03*
X179620000Y-150190000D03*
X136770000Y-191600000D03*
X136770000Y-188300000D03*
X151010000Y-172490000D03*
X151010000Y-169190000D03*
X110650000Y-191600000D03*
X110650000Y-188300000D03*
X208190000Y-172550000D03*
X208190000Y-169250000D03*
X255760000Y-153470000D03*
X255760000Y-150170000D03*
X325130000Y-229780000D03*
X325130000Y-226480000D03*
X172500000Y-229440000D03*
X172500000Y-226140000D03*
X353560000Y-210540000D03*
X353560000Y-207240000D03*
X141460000Y-153450000D03*
X141460000Y-150150000D03*
X348840000Y-229700000D03*
X348840000Y-226400000D03*
X146310000Y-210580000D03*
X146310000Y-207280000D03*
X298600000Y-210490000D03*
X298600000Y-207190000D03*
X308150000Y-191520000D03*
X308150000Y-188220000D03*
X203480000Y-210610000D03*
X203480000Y-207310000D03*
X270120000Y-191500000D03*
X270120000Y-188200000D03*
X346280000Y-191570000D03*
X346280000Y-188270000D03*
X222490000Y-210500000D03*
X222490000Y-207200000D03*
X189130000Y-172450000D03*
X189130000Y-169150000D03*
X155880000Y-191600000D03*
X155880000Y-188300000D03*
D14*
X361180000Y-215580000D03*
X364480000Y-215580000D03*
D13*
X293930000Y-153430000D03*
X293930000Y-150130000D03*
D15*
X79625500Y-172550000D03*
X80355500Y-191600000D03*
X81070000Y-210570000D03*
X81800000Y-229650000D03*
X88125000Y-217800000D03*
X88125000Y-184800000D03*
X88100000Y-152140000D03*
X88125000Y-203850000D03*
X88125000Y-158680000D03*
X88125000Y-165725000D03*
X114250000Y-165725000D03*
X114250000Y-184775000D03*
X109500000Y-203850000D03*
X107130000Y-152110000D03*
X106700000Y-222875000D03*
X114250000Y-158725000D03*
X126220000Y-152150000D03*
X138075000Y-184775000D03*
X128550000Y-203825000D03*
X133325000Y-165725000D03*
X128550000Y-222875000D03*
X133325000Y-158725000D03*
X152400000Y-222875000D03*
X147600000Y-203825000D03*
X145270000Y-152150000D03*
X152375000Y-165725000D03*
X157125000Y-184775000D03*
X166625000Y-203850000D03*
X164350000Y-152130000D03*
X171400000Y-165700000D03*
X176175000Y-184775000D03*
X183370000Y-152170000D03*
X195225000Y-184850000D03*
X190450000Y-165725000D03*
X185700000Y-203825000D03*
X190450000Y-157950000D03*
X185700000Y-222875000D03*
X228780000Y-230580000D03*
X204750000Y-203825000D03*
X209500000Y-165725000D03*
X214275000Y-184775000D03*
X202420000Y-152160000D03*
X209500000Y-158750000D03*
X233325000Y-177800000D03*
X233325000Y-184775000D03*
X223800000Y-203825000D03*
X221500000Y-152180000D03*
X228550000Y-165700000D03*
X247600000Y-165725000D03*
X252375000Y-177800000D03*
X242850000Y-203825000D03*
X240550000Y-152230000D03*
X237750000Y-222875000D03*
X252375000Y-184825000D03*
X271425000Y-184775000D03*
X261900000Y-211900000D03*
X261900000Y-203825000D03*
X266650000Y-165725000D03*
X266650000Y-158750000D03*
X259580000Y-152290000D03*
X290475000Y-184775000D03*
X280925000Y-212650000D03*
X278680000Y-152280000D03*
X280925000Y-222900000D03*
X280925000Y-203825000D03*
X285725000Y-165725000D03*
X297670000Y-152330000D03*
X309525000Y-184775000D03*
X300000000Y-203825000D03*
X304800000Y-222875000D03*
X300000000Y-214250000D03*
X304750000Y-165725000D03*
X316720000Y-152360000D03*
X323825000Y-165725000D03*
X328625000Y-222900000D03*
X328625000Y-215900000D03*
X328575000Y-203850000D03*
X328575000Y-184775000D03*
D16*
X141460000Y-153450000D02*
X331900000Y-153450000D01*
X103470000Y-153450000D02*
X88025000Y-153450000D01*
X103470000Y-153450000D02*
X141460000Y-153450000D01*
X331900000Y-153450000D02*
X331950000Y-153500000D01*
X88025000Y-153450000D02*
X86675000Y-152100000D01*
X86675000Y-152100000D02*
X83300000Y-152100000D01*
X101052000Y-147732000D02*
X103470000Y-150150000D01*
X101052000Y-144140000D02*
X101052000Y-147732000D01*
X120062000Y-144130000D02*
X120062000Y-147752000D01*
X120062000Y-147752000D02*
X122430000Y-150120000D01*
X139144500Y-144127500D02*
X139144500Y-147834500D01*
X139144500Y-147834500D02*
X141460000Y-150150000D01*
X158194500Y-147854500D02*
X160570000Y-150230000D01*
X158194500Y-144127500D02*
X158194500Y-147854500D01*
X177244500Y-144127500D02*
X177244500Y-147814500D01*
X177244500Y-147814500D02*
X179620000Y-150190000D01*
X196294500Y-144127500D02*
X196294500Y-147824500D01*
X196294500Y-147824500D02*
X198600000Y-150130000D01*
X215344500Y-147794500D02*
X217680000Y-150130000D01*
X215344500Y-144127500D02*
X215344500Y-147794500D01*
X234394500Y-144127500D02*
X234394500Y-147734500D01*
X234394500Y-147734500D02*
X236760000Y-150100000D01*
X253444500Y-147854500D02*
X255760000Y-150170000D01*
X253444500Y-144127500D02*
X253444500Y-147854500D01*
X272494500Y-147784500D02*
X274860000Y-150150000D01*
X272494500Y-144127500D02*
X272494500Y-147784500D01*
X291544500Y-147744500D02*
X293930000Y-150130000D01*
X291544500Y-144127500D02*
X291544500Y-147744500D01*
X310594500Y-144127500D02*
X310594500Y-147804500D01*
X310594500Y-147804500D02*
X312950000Y-150160000D01*
X329644500Y-144127500D02*
X329644500Y-147894500D01*
X329644500Y-147894500D02*
X331950000Y-150200000D01*
X358204500Y-144132500D02*
X358204500Y-147594500D01*
X358204500Y-147594500D02*
X360610000Y-150000000D01*
X341530000Y-172520000D02*
X79655500Y-172520000D01*
X79655500Y-172520000D02*
X79625500Y-172550000D01*
X105817000Y-166857000D02*
X108210000Y-169250000D01*
X105817000Y-163170000D02*
X105817000Y-166857000D01*
X129619500Y-163177500D02*
X129619500Y-166859500D01*
X129619500Y-166859500D02*
X131950000Y-169190000D01*
X148669500Y-166849500D02*
X151010000Y-169190000D01*
X148669500Y-163177500D02*
X148669500Y-166849500D01*
X167719500Y-166839500D02*
X170070000Y-169190000D01*
X167719500Y-163177500D02*
X167719500Y-166839500D01*
X186769500Y-166789500D02*
X189130000Y-169150000D01*
X186769500Y-163177500D02*
X186769500Y-166789500D01*
X205819500Y-163177500D02*
X205819500Y-166879500D01*
X205819500Y-166879500D02*
X208190000Y-169250000D01*
X224869500Y-163177500D02*
X224869500Y-166809500D01*
X224869500Y-166809500D02*
X227180000Y-169120000D01*
X243919500Y-163177500D02*
X243919500Y-166869500D01*
X243919500Y-166869500D02*
X246250000Y-169200000D01*
X262969500Y-166789500D02*
X265330000Y-169150000D01*
X262969500Y-163177500D02*
X262969500Y-166789500D01*
X282019500Y-166839500D02*
X284400000Y-169220000D01*
X282019500Y-163177500D02*
X282019500Y-166839500D01*
X301069500Y-166729500D02*
X303530000Y-169190000D01*
X301069500Y-163177500D02*
X301069500Y-166729500D01*
X320119500Y-163177500D02*
X320119500Y-166919500D01*
X320119500Y-166919500D02*
X322420000Y-169220000D01*
X339169500Y-166859500D02*
X341530000Y-169220000D01*
X339169500Y-163177500D02*
X339169500Y-166859500D01*
X365363250Y-172653250D02*
X365363250Y-172702500D01*
X361710000Y-169000000D02*
X365363250Y-172653250D01*
X80355500Y-191600000D02*
X110650000Y-191600000D01*
X110650000Y-191600000D02*
X346250000Y-191600000D01*
X346250000Y-191600000D02*
X346280000Y-191570000D01*
X108235750Y-182245000D02*
X108235750Y-185885750D01*
X108235750Y-185885750D02*
X110650000Y-188300000D01*
X134382000Y-182227500D02*
X134382000Y-185912000D01*
X134382000Y-185912000D02*
X136770000Y-188300000D01*
X153432000Y-182227500D02*
X153432000Y-185852000D01*
X153432000Y-185852000D02*
X155880000Y-188300000D01*
X172482000Y-185832000D02*
X174900000Y-188250000D01*
X172482000Y-182227500D02*
X172482000Y-185832000D01*
X191532000Y-185972000D02*
X193810000Y-188250000D01*
X191532000Y-182227500D02*
X191532000Y-185972000D01*
X210582000Y-182227500D02*
X210582000Y-185982000D01*
X210582000Y-185982000D02*
X212850000Y-188250000D01*
X229632000Y-185892000D02*
X231990000Y-188250000D01*
X229632000Y-182227500D02*
X229632000Y-185892000D01*
X248682000Y-182227500D02*
X248682000Y-185932000D01*
X248682000Y-185932000D02*
X251050000Y-188300000D01*
X267732000Y-185812000D02*
X270120000Y-188200000D01*
X267732000Y-182227500D02*
X267732000Y-185812000D01*
X286782000Y-182227500D02*
X286782000Y-185752000D01*
X286782000Y-185752000D02*
X289130000Y-188100000D01*
X305832000Y-182227500D02*
X305832000Y-185902000D01*
X305832000Y-185902000D02*
X308150000Y-188220000D01*
X324882000Y-182227500D02*
X324882000Y-185912000D01*
X324882000Y-185912000D02*
X327190000Y-188220000D01*
X343932000Y-185922000D02*
X346280000Y-188270000D01*
X343932000Y-182227500D02*
X343932000Y-185922000D01*
X353520000Y-210580000D02*
X353560000Y-210540000D01*
X81070000Y-210570000D02*
X81080000Y-210580000D01*
X81080000Y-210580000D02*
X105800000Y-210580000D01*
X105800000Y-210580000D02*
X353520000Y-210580000D01*
X103473250Y-204953250D02*
X105800000Y-207280000D01*
X103473250Y-201295000D02*
X103473250Y-204953250D01*
X124922000Y-205032000D02*
X127220000Y-207330000D01*
X124922000Y-201310000D02*
X124922000Y-205032000D01*
X143907000Y-201277500D02*
X143907000Y-204877000D01*
X143907000Y-204877000D02*
X146310000Y-207280000D01*
X162957000Y-201277500D02*
X162957000Y-204907000D01*
X162957000Y-204907000D02*
X165330000Y-207280000D01*
X182007000Y-201277500D02*
X182007000Y-204877000D01*
X182007000Y-204877000D02*
X184410000Y-207280000D01*
X201057000Y-201277500D02*
X201057000Y-204887000D01*
X201057000Y-204887000D02*
X203480000Y-207310000D01*
X220107000Y-201277500D02*
X220107000Y-204817000D01*
X220107000Y-204817000D02*
X222490000Y-207200000D01*
X239157000Y-204897000D02*
X241570000Y-207310000D01*
X239157000Y-201277500D02*
X239157000Y-204897000D01*
X258207000Y-201277500D02*
X258207000Y-204907000D01*
X258207000Y-204907000D02*
X260550000Y-207250000D01*
X277257000Y-204777000D02*
X279730000Y-207250000D01*
X277257000Y-201277500D02*
X277257000Y-204777000D01*
X296307000Y-201277500D02*
X296307000Y-204897000D01*
X296307000Y-204897000D02*
X298600000Y-207190000D01*
X315357000Y-204787000D02*
X317760000Y-207190000D01*
X315357000Y-201277500D02*
X315357000Y-204787000D01*
X351123250Y-204803250D02*
X353560000Y-207240000D01*
X351123250Y-201295000D02*
X351123250Y-204803250D01*
X365010000Y-169000000D02*
X366440000Y-169000000D01*
X348840000Y-229700000D02*
X351370000Y-229700000D01*
X358490000Y-217760000D02*
X354940000Y-217760000D01*
X351370000Y-229700000D02*
X352415000Y-228655000D01*
X348810000Y-229730000D02*
X348840000Y-229700000D01*
X361180000Y-215580000D02*
X360670000Y-215580000D01*
X366440000Y-169000000D02*
X367490000Y-170050000D01*
X81800000Y-229650000D02*
X81880000Y-229730000D01*
X354940000Y-217760000D02*
X352415000Y-220285000D01*
X352415000Y-220285000D02*
X352415000Y-228655000D01*
X81880000Y-229730000D02*
X103480000Y-229730000D01*
X360670000Y-215580000D02*
X358490000Y-217760000D01*
X367490000Y-184870000D02*
X361180000Y-191180000D01*
X367490000Y-170050000D02*
X367490000Y-184870000D01*
X360610000Y-153300000D02*
X360610000Y-164600000D01*
X360610000Y-164600000D02*
X365010000Y-169000000D01*
X361180000Y-191180000D02*
X361180000Y-215580000D01*
X103480000Y-229730000D02*
X348810000Y-229730000D01*
X101092000Y-224042000D02*
X103480000Y-226430000D01*
X101092000Y-220345000D02*
X101092000Y-224042000D01*
X122523250Y-220345000D02*
X122523250Y-223623250D01*
X122523250Y-223623250D02*
X125040000Y-226140000D01*
X146335750Y-220345000D02*
X146335750Y-223745750D01*
X146335750Y-223745750D02*
X148950000Y-226360000D01*
X170148250Y-223788250D02*
X172500000Y-226140000D01*
X170148250Y-220345000D02*
X170148250Y-223788250D01*
X208248250Y-220345000D02*
X208248250Y-223638250D01*
X208248250Y-223638250D02*
X210880000Y-226270000D01*
X260635750Y-220345000D02*
X260635750Y-223905750D01*
X260635750Y-223905750D02*
X263130000Y-226400000D01*
X298735750Y-220345000D02*
X298735750Y-223625750D01*
X298735750Y-223625750D02*
X301440000Y-226330000D01*
X322548250Y-220345000D02*
X322548250Y-223898250D01*
X322548250Y-223898250D02*
X325130000Y-226480000D01*
X346360750Y-220345000D02*
X346360750Y-223920750D01*
X346360750Y-223920750D02*
X348840000Y-226400000D01*
X364480000Y-215580000D02*
X364480000Y-217033000D01*
X364480000Y-217033000D02*
X367792000Y-220345000D01*
X88140000Y-165710000D02*
X92890000Y-165710000D01*
X88125000Y-203850000D02*
X90531250Y-203850000D01*
X86525000Y-158700000D02*
X85625000Y-159600000D01*
X83300000Y-164800000D02*
X85625000Y-162475000D01*
X88105000Y-158700000D02*
X86525000Y-158700000D01*
X88140000Y-184785000D02*
X95308750Y-184785000D01*
X88165000Y-217840000D02*
X88165000Y-222885000D01*
X90531250Y-203850000D02*
X90546250Y-203835000D01*
X88125000Y-165725000D02*
X88140000Y-165710000D01*
X85625000Y-162475000D02*
X85625000Y-159600000D01*
X88125000Y-152115000D02*
X88125000Y-146680000D01*
X88125000Y-184800000D02*
X88140000Y-184785000D01*
X88125000Y-217800000D02*
X88165000Y-217840000D01*
X88125000Y-158680000D02*
X88105000Y-158700000D01*
X88100000Y-152140000D02*
X88125000Y-152115000D01*
X107135000Y-152105000D02*
X107130000Y-152110000D01*
X107135000Y-146670000D02*
X107135000Y-152105000D01*
X114257500Y-184767500D02*
X121455000Y-184767500D01*
X114250000Y-158725000D02*
X95465000Y-158725000D01*
X109500000Y-203850000D02*
X111995000Y-203850000D01*
X114250000Y-165725000D02*
X116685000Y-165725000D01*
X114250000Y-184775000D02*
X114257500Y-184767500D01*
X116685000Y-165725000D02*
X116692500Y-165717500D01*
X106700000Y-222875000D02*
X106710000Y-222885000D01*
X106710000Y-222885000D02*
X109596250Y-222885000D01*
X91170000Y-159480000D02*
X83310000Y-167340000D01*
X94710000Y-159480000D02*
X91170000Y-159480000D01*
X95465000Y-158725000D02*
X94710000Y-159480000D01*
X83310000Y-167340000D02*
X83300000Y-167340000D01*
X135742500Y-165717500D02*
X133332500Y-165717500D01*
X92205000Y-160220000D02*
X83300000Y-169125000D01*
X133325000Y-158725000D02*
X115850000Y-158725000D01*
X140497500Y-184775000D02*
X140505000Y-184767500D01*
X133332500Y-165717500D02*
X133325000Y-165725000D01*
X130972500Y-203825000D02*
X130980000Y-203817500D01*
X115125000Y-159450000D02*
X96530000Y-159450000D01*
X128550000Y-203825000D02*
X130972500Y-203825000D01*
X126217500Y-152147500D02*
X126217500Y-146667500D01*
X128550000Y-222875000D02*
X128560000Y-222885000D01*
X83300000Y-169125000D02*
X83300000Y-169880000D01*
X138075000Y-184775000D02*
X140497500Y-184775000D01*
X126220000Y-152150000D02*
X126217500Y-152147500D01*
X95760000Y-160220000D02*
X92205000Y-160220000D01*
X115850000Y-158725000D02*
X115125000Y-159450000D01*
X128560000Y-222885000D02*
X133408750Y-222885000D01*
X96530000Y-159450000D02*
X95760000Y-160220000D01*
X152400000Y-222875000D02*
X152410000Y-222885000D01*
X147607500Y-203817500D02*
X147600000Y-203825000D01*
X145267500Y-152147500D02*
X145270000Y-152150000D01*
X152382500Y-165717500D02*
X152375000Y-165725000D01*
X150030000Y-203817500D02*
X147607500Y-203817500D01*
X85675000Y-143175000D02*
X87000000Y-141850000D01*
X70450000Y-143175000D02*
X85675000Y-143175000D01*
X69215000Y-141940000D02*
X70450000Y-143175000D01*
X159547500Y-184775000D02*
X159555000Y-184767500D01*
X154792500Y-165717500D02*
X152382500Y-165717500D01*
X87000000Y-141850000D02*
X142825000Y-141850000D01*
X145267500Y-146667500D02*
X145267500Y-152147500D01*
X157125000Y-184775000D02*
X159547500Y-184775000D01*
X145267500Y-144292500D02*
X145267500Y-146667500D01*
X152410000Y-222885000D02*
X157221250Y-222885000D01*
X68060000Y-141940000D02*
X69215000Y-141940000D01*
X142825000Y-141850000D02*
X145267500Y-144292500D01*
X66935000Y-141005000D02*
X67320000Y-140620000D01*
X66935000Y-143355000D02*
X66935000Y-141005000D01*
X171400000Y-165700000D02*
X173825000Y-165700000D01*
X164317500Y-152097500D02*
X164350000Y-152130000D01*
X178605000Y-184767500D02*
X176182500Y-184767500D01*
X169047500Y-203850000D02*
X169080000Y-203817500D01*
X164317500Y-146667500D02*
X164317500Y-152097500D01*
X67320000Y-140620000D02*
X161550000Y-140620000D01*
X176182500Y-184767500D02*
X176175000Y-184775000D01*
X161550000Y-140620000D02*
X164317500Y-143387500D01*
X166625000Y-203850000D02*
X169047500Y-203850000D01*
X68060000Y-144480000D02*
X66935000Y-143355000D01*
X173825000Y-165700000D02*
X173842500Y-165717500D01*
X164317500Y-143387500D02*
X164317500Y-146667500D01*
X188122500Y-203825000D02*
X188130000Y-203817500D01*
X185700000Y-203825000D02*
X188122500Y-203825000D01*
X195225000Y-184850000D02*
X197572500Y-184850000D01*
X183367500Y-146667500D02*
X183367500Y-152167500D01*
X185710000Y-222885000D02*
X195321250Y-222885000D01*
X87450000Y-156900000D02*
X83975000Y-153425000D01*
X190450000Y-165725000D02*
X192885000Y-165725000D01*
X192885000Y-165725000D02*
X192892500Y-165717500D01*
X185700000Y-222875000D02*
X185710000Y-222885000D01*
X135100000Y-156900000D02*
X87450000Y-156900000D01*
X136150000Y-157950000D02*
X135100000Y-156900000D01*
X83975000Y-153425000D02*
X69385000Y-153425000D01*
X183367500Y-152167500D02*
X183370000Y-152170000D01*
X197572500Y-184850000D02*
X197655000Y-184767500D01*
X69385000Y-153425000D02*
X68060000Y-152100000D01*
X190450000Y-157950000D02*
X136150000Y-157950000D01*
X229180000Y-230180000D02*
X260730000Y-230180000D01*
X300290000Y-230180000D02*
X300665000Y-230555000D01*
X135100000Y-158750000D02*
X209500000Y-158750000D01*
X260730000Y-230180000D02*
X261325000Y-230775000D01*
X84325000Y-155900000D02*
X86225000Y-157800000D01*
X204750000Y-203825000D02*
X207172500Y-203825000D01*
X134150000Y-157800000D02*
X135100000Y-158750000D01*
X207172500Y-203825000D02*
X207180000Y-203817500D01*
X261325000Y-230775000D02*
X264832749Y-230775000D01*
X202417500Y-146667500D02*
X202417500Y-152167500D01*
X264832749Y-230775000D02*
X265427749Y-230180000D01*
X228780000Y-230580000D02*
X229180000Y-230180000D01*
X214275000Y-184775000D02*
X216697500Y-184775000D01*
X86225000Y-157800000D02*
X134150000Y-157800000D01*
X352735000Y-230555000D02*
X354865000Y-228425000D01*
X300665000Y-230555000D02*
X352735000Y-230555000D01*
X209500000Y-165725000D02*
X211935000Y-165725000D01*
X202420000Y-152165000D02*
X202420000Y-152160000D01*
X68060000Y-154640000D02*
X69320000Y-155900000D01*
X202417500Y-152167500D02*
X202420000Y-152165000D01*
X265427749Y-230180000D02*
X300290000Y-230180000D01*
X211935000Y-165725000D02*
X211942500Y-165717500D01*
X216697500Y-184775000D02*
X216705000Y-184767500D01*
X69320000Y-155900000D02*
X84325000Y-155900000D01*
X354865000Y-228425000D02*
X354865000Y-222885000D01*
X351178750Y-176500000D02*
X352436250Y-175242500D01*
X230975000Y-165700000D02*
X230992500Y-165717500D01*
X233325000Y-184775000D02*
X235747500Y-184775000D01*
X235747500Y-184775000D02*
X235755000Y-184767500D01*
X77050000Y-177875000D02*
X72625000Y-173450000D01*
X228550000Y-165700000D02*
X230975000Y-165700000D01*
X221467500Y-146667500D02*
X221467500Y-152147500D01*
X226222500Y-203825000D02*
X226230000Y-203817500D01*
X233250000Y-177875000D02*
X77050000Y-177875000D01*
X221467500Y-152147500D02*
X221500000Y-152180000D01*
X72625000Y-161745000D02*
X68060000Y-157180000D01*
X233325000Y-177800000D02*
X233250000Y-177875000D01*
X72625000Y-173450000D02*
X72625000Y-161745000D01*
X223800000Y-203825000D02*
X226222500Y-203825000D01*
X233325000Y-177800000D02*
X234625000Y-176500000D01*
X234625000Y-176500000D02*
X351178750Y-176500000D01*
X71875000Y-163535000D02*
X68060000Y-159720000D01*
X76684695Y-178525000D02*
X71875000Y-173715305D01*
X71875000Y-173715305D02*
X71875000Y-163535000D01*
X252375000Y-177800000D02*
X251650000Y-178525000D01*
X251650000Y-178525000D02*
X76684695Y-178525000D01*
X240517500Y-152197500D02*
X240550000Y-152230000D01*
X242850000Y-203825000D02*
X245272500Y-203825000D01*
X254747500Y-184825000D02*
X254805000Y-184767500D01*
X245272500Y-203825000D02*
X245280000Y-203817500D01*
X240517500Y-146667500D02*
X240517500Y-152197500D01*
X247600000Y-165725000D02*
X250035000Y-165725000D01*
X250035000Y-165725000D02*
X250042500Y-165717500D01*
X237760000Y-222885000D02*
X247708750Y-222885000D01*
X237750000Y-222875000D02*
X237760000Y-222885000D01*
X252375000Y-184825000D02*
X254747500Y-184825000D01*
X259567500Y-146667500D02*
X259567500Y-152277500D01*
X266650000Y-165725000D02*
X269085000Y-165725000D01*
X76725000Y-211900000D02*
X261900000Y-211900000D01*
X267800000Y-157600000D02*
X334375000Y-157600000D01*
X264322500Y-203825000D02*
X264330000Y-203817500D01*
X273847500Y-184775000D02*
X273855000Y-184767500D01*
X68060000Y-162260000D02*
X71125000Y-165325000D01*
X71125000Y-165325000D02*
X71125000Y-206300000D01*
X345277500Y-146697500D02*
X345277500Y-146672500D01*
X266650000Y-158750000D02*
X267800000Y-157600000D01*
X259567500Y-152277500D02*
X259580000Y-152290000D01*
X269085000Y-165725000D02*
X269092500Y-165717500D01*
X71125000Y-206300000D02*
X76725000Y-211900000D01*
X271425000Y-184775000D02*
X273847500Y-184775000D01*
X261900000Y-203825000D02*
X264322500Y-203825000D01*
X334375000Y-157600000D02*
X345277500Y-146697500D01*
X292897500Y-184775000D02*
X292905000Y-184767500D01*
X70375000Y-167115000D02*
X70375000Y-207400000D01*
X290475000Y-184775000D02*
X292897500Y-184775000D01*
X280925000Y-222900000D02*
X280940000Y-222885000D01*
X68060000Y-164800000D02*
X70375000Y-167115000D01*
X285725000Y-165725000D02*
X288135000Y-165725000D01*
X288135000Y-165725000D02*
X288142500Y-165717500D01*
X280900000Y-212675000D02*
X280925000Y-212650000D01*
X280940000Y-222885000D02*
X285808750Y-222885000D01*
X278617500Y-152217500D02*
X278680000Y-152280000D01*
X278617500Y-146667500D02*
X278617500Y-152217500D01*
X75650000Y-212675000D02*
X280900000Y-212675000D01*
X280925000Y-203825000D02*
X283372500Y-203825000D01*
X70375000Y-207400000D02*
X75650000Y-212675000D01*
X283372500Y-203825000D02*
X283380000Y-203817500D01*
X304810000Y-222885000D02*
X309621250Y-222885000D01*
X297667500Y-152327500D02*
X297667500Y-146667500D01*
X302422500Y-203825000D02*
X302430000Y-203817500D01*
X262103299Y-214300000D02*
X299950000Y-214300000D01*
X68060000Y-167340000D02*
X69625000Y-168905000D01*
X69625000Y-208575000D02*
X74750000Y-213700000D01*
X74750000Y-213700000D02*
X261503299Y-213700000D01*
X261503299Y-213700000D02*
X262103299Y-214300000D01*
X311947500Y-184775000D02*
X311955000Y-184767500D01*
X304800000Y-222875000D02*
X304810000Y-222885000D01*
X299950000Y-214300000D02*
X300000000Y-214250000D01*
X297670000Y-152330000D02*
X297667500Y-152327500D01*
X309525000Y-184775000D02*
X311947500Y-184775000D01*
X304750000Y-165725000D02*
X307185000Y-165725000D01*
X307185000Y-165725000D02*
X307192500Y-165717500D01*
X69625000Y-168905000D02*
X69625000Y-208575000D01*
X300000000Y-203825000D02*
X302422500Y-203825000D01*
X328640000Y-222885000D02*
X333433750Y-222885000D01*
X316717500Y-152357500D02*
X316720000Y-152360000D01*
X330997500Y-184775000D02*
X331005000Y-184767500D01*
X268013604Y-214750000D02*
X73850000Y-214750000D01*
X328625000Y-222900000D02*
X328640000Y-222885000D01*
X328625000Y-215900000D02*
X269163604Y-215900000D01*
X326235000Y-165725000D02*
X326242500Y-165717500D01*
X323825000Y-165725000D02*
X326235000Y-165725000D01*
X316717500Y-146667500D02*
X316717500Y-152357500D01*
X328575000Y-203850000D02*
X328590000Y-203835000D01*
X328575000Y-184775000D02*
X330997500Y-184775000D01*
X73850000Y-214750000D02*
X68060000Y-208960000D01*
X68060000Y-208960000D02*
X68060000Y-169880000D01*
X269163604Y-215900000D02*
X268013604Y-214750000D01*
X328590000Y-203835000D02*
X338196250Y-203835000D01*
M02*
