%TF.GenerationSoftware,KiCad,Pcbnew,(6.0.7-1)-1*%
%TF.CreationDate,2022-10-03T10:16:21+02:00*%
%TF.ProjectId,staggered-keyboard,73746167-6765-4726-9564-2d6b6579626f,rev?*%
%TF.SameCoordinates,Original*%
%TF.FileFunction,Drillmap*%
%TF.FilePolarity,Positive*%
%FSLAX45Y45*%
G04 Gerber Fmt 4.5, Leading zero omitted, Abs format (unit mm)*
G04 Created by KiCad (PCBNEW (6.0.7-1)-1) date 2022-10-03 10:16:21*
%MOMM*%
%LPD*%
G01*
G04 APERTURE LIST*
%ADD10C,0.100000*%
%ADD11C,0.200000*%
%ADD12C,0.175000*%
%ADD13C,0.220000*%
%ADD14C,0.300000*%
%ADD15C,0.304800*%
%ADD16C,0.398780*%
G04 APERTURE END LIST*
D10*
X6500000Y-23200000D02*
X6500000Y-14200000D01*
X6500000Y-23200000D02*
G75*
G03*
X6800000Y-23500000I300000J0D01*
G01*
X37200000Y-14200000D02*
X37200000Y-23200000D01*
X36900000Y-23500000D02*
X6800000Y-23500000D01*
X6800000Y-13900000D02*
X36900000Y-13900000D01*
X36900000Y-23500000D02*
G75*
G03*
X37200000Y-23200000I0J300000D01*
G01*
X37200000Y-14200000D02*
G75*
G03*
X36900000Y-13900000I-300000J0D01*
G01*
X6800000Y-13900000D02*
G75*
G03*
X6500000Y-14200000I0J-300000D01*
G01*
D11*
D12*
X8925500Y-14834500D02*
X9100500Y-15009500D01*
X9100500Y-14834500D02*
X8925500Y-15009500D01*
X8929500Y-22455000D02*
X9104500Y-22630000D01*
X9104500Y-22455000D02*
X8929500Y-22630000D01*
X9167625Y-20550000D02*
X9342625Y-20725000D01*
X9342625Y-20550000D02*
X9167625Y-20725000D01*
X9402000Y-16737500D02*
X9577000Y-16912500D01*
X9577000Y-16737500D02*
X9402000Y-16912500D01*
X9643875Y-18645000D02*
X9818875Y-18820000D01*
X9818875Y-18645000D02*
X9643875Y-18820000D01*
X9941500Y-14834500D02*
X10116500Y-15009500D01*
X10116500Y-14834500D02*
X9941500Y-15009500D01*
X9945500Y-22455000D02*
X10120500Y-22630000D01*
X10120500Y-22455000D02*
X9945500Y-22630000D01*
X10183625Y-20550000D02*
X10358625Y-20725000D01*
X10358625Y-20550000D02*
X10183625Y-20725000D01*
X10418000Y-16737500D02*
X10593000Y-16912500D01*
X10593000Y-16737500D02*
X10418000Y-16912500D01*
X10659875Y-18645000D02*
X10834875Y-18820000D01*
X10834875Y-18645000D02*
X10659875Y-18820000D01*
X10826500Y-14833500D02*
X11001500Y-15008500D01*
X11001500Y-14833500D02*
X10826500Y-15008500D01*
X11072625Y-22455000D02*
X11247625Y-22630000D01*
X11247625Y-22455000D02*
X11072625Y-22630000D01*
X11312500Y-20551500D02*
X11487500Y-20726500D01*
X11487500Y-20551500D02*
X11312500Y-20726500D01*
X11782250Y-16738250D02*
X11957250Y-16913250D01*
X11957250Y-16738250D02*
X11782250Y-16913250D01*
X11842500Y-14833500D02*
X12017500Y-15008500D01*
X12017500Y-14833500D02*
X11842500Y-15008500D01*
X12088625Y-22455000D02*
X12263625Y-22630000D01*
X12263625Y-22455000D02*
X12088625Y-22630000D01*
X12258500Y-18643250D02*
X12433500Y-18818250D01*
X12433500Y-18643250D02*
X12258500Y-18818250D01*
X12328500Y-20551500D02*
X12503500Y-20726500D01*
X12503500Y-20551500D02*
X12328500Y-20726500D01*
X12734750Y-14833250D02*
X12909750Y-15008250D01*
X12909750Y-14833250D02*
X12734750Y-15008250D01*
X12798250Y-16738250D02*
X12973250Y-16913250D01*
X12973250Y-16738250D02*
X12798250Y-16913250D01*
X13211000Y-20548250D02*
X13386000Y-20723250D01*
X13386000Y-20548250D02*
X13211000Y-20723250D01*
X13274500Y-18643250D02*
X13449500Y-18818250D01*
X13449500Y-18643250D02*
X13274500Y-18818250D01*
X13453875Y-22455000D02*
X13628875Y-22630000D01*
X13628875Y-22455000D02*
X13453875Y-22630000D01*
X13687250Y-16738250D02*
X13862250Y-16913250D01*
X13862250Y-16738250D02*
X13687250Y-16913250D01*
X13750750Y-14833250D02*
X13925750Y-15008250D01*
X13925750Y-14833250D02*
X13750750Y-15008250D01*
X14163500Y-18643250D02*
X14338500Y-18818250D01*
X14338500Y-18643250D02*
X14163500Y-18818250D01*
X14227000Y-20548250D02*
X14402000Y-20723250D01*
X14402000Y-20548250D02*
X14227000Y-20723250D01*
X14469875Y-22455000D02*
X14644875Y-22630000D01*
X14644875Y-22455000D02*
X14469875Y-22630000D01*
X14639750Y-14833250D02*
X14814750Y-15008250D01*
X14814750Y-14833250D02*
X14639750Y-15008250D01*
X14703250Y-16738250D02*
X14878250Y-16913250D01*
X14878250Y-16738250D02*
X14703250Y-16913250D01*
X15116000Y-20548250D02*
X15291000Y-20723250D01*
X15291000Y-20548250D02*
X15116000Y-20723250D01*
X15179500Y-18643250D02*
X15354500Y-18818250D01*
X15354500Y-18643250D02*
X15179500Y-18818250D01*
X15592250Y-16738250D02*
X15767250Y-16913250D01*
X15767250Y-16738250D02*
X15592250Y-16913250D01*
X15655750Y-14833250D02*
X15830750Y-15008250D01*
X15830750Y-14833250D02*
X15655750Y-15008250D01*
X15835125Y-22455000D02*
X16010125Y-22630000D01*
X16010125Y-22455000D02*
X15835125Y-22630000D01*
X16068500Y-18643250D02*
X16243500Y-18818250D01*
X16243500Y-18643250D02*
X16068500Y-18818250D01*
X16132000Y-20548250D02*
X16307000Y-20723250D01*
X16307000Y-20548250D02*
X16132000Y-20723250D01*
X16544750Y-14833250D02*
X16719750Y-15008250D01*
X16719750Y-14833250D02*
X16544750Y-15008250D01*
X16608250Y-16738250D02*
X16783250Y-16913250D01*
X16783250Y-16738250D02*
X16608250Y-16913250D01*
X16851125Y-22455000D02*
X17026125Y-22630000D01*
X17026125Y-22455000D02*
X16851125Y-22630000D01*
X17021000Y-20548250D02*
X17196000Y-20723250D01*
X17196000Y-20548250D02*
X17021000Y-20723250D01*
X17084500Y-18643250D02*
X17259500Y-18818250D01*
X17259500Y-18643250D02*
X17084500Y-18818250D01*
X17497250Y-16738250D02*
X17672250Y-16913250D01*
X17672250Y-16738250D02*
X17497250Y-16913250D01*
X17560750Y-14833250D02*
X17735750Y-15008250D01*
X17735750Y-14833250D02*
X17560750Y-15008250D01*
X17973500Y-18643250D02*
X18148500Y-18818250D01*
X18148500Y-18643250D02*
X17973500Y-18818250D01*
X18037000Y-20548250D02*
X18212000Y-20723250D01*
X18212000Y-20548250D02*
X18037000Y-20723250D01*
X18449750Y-14833250D02*
X18624750Y-15008250D01*
X18624750Y-14833250D02*
X18449750Y-15008250D01*
X18513250Y-16738250D02*
X18688250Y-16913250D01*
X18688250Y-16738250D02*
X18513250Y-16913250D01*
X18926000Y-20548250D02*
X19101000Y-20723250D01*
X19101000Y-20548250D02*
X18926000Y-20723250D01*
X18989500Y-18643250D02*
X19164500Y-18818250D01*
X19164500Y-18643250D02*
X18989500Y-18818250D01*
X19402250Y-16738250D02*
X19577250Y-16913250D01*
X19577250Y-16738250D02*
X19402250Y-16913250D01*
X19465750Y-14833250D02*
X19640750Y-15008250D01*
X19640750Y-14833250D02*
X19465750Y-15008250D01*
X19645125Y-22455000D02*
X19820125Y-22630000D01*
X19820125Y-22455000D02*
X19645125Y-22630000D01*
X19878500Y-18643250D02*
X20053500Y-18818250D01*
X20053500Y-18643250D02*
X19878500Y-18818250D01*
X19942000Y-20548250D02*
X20117000Y-20723250D01*
X20117000Y-20548250D02*
X19942000Y-20723250D01*
X20354750Y-14833250D02*
X20529750Y-15008250D01*
X20529750Y-14833250D02*
X20354750Y-15008250D01*
X20418250Y-16738250D02*
X20593250Y-16913250D01*
X20593250Y-16738250D02*
X20418250Y-16913250D01*
X20661125Y-22455000D02*
X20836125Y-22630000D01*
X20836125Y-22455000D02*
X20661125Y-22630000D01*
X20831000Y-20548250D02*
X21006000Y-20723250D01*
X21006000Y-20548250D02*
X20831000Y-20723250D01*
X20894500Y-18643250D02*
X21069500Y-18818250D01*
X21069500Y-18643250D02*
X20894500Y-18818250D01*
X21307250Y-16738250D02*
X21482250Y-16913250D01*
X21482250Y-16738250D02*
X21307250Y-16913250D01*
X21370750Y-14833250D02*
X21545750Y-15008250D01*
X21545750Y-14833250D02*
X21370750Y-15008250D01*
X21783500Y-18643250D02*
X21958500Y-18818250D01*
X21958500Y-18643250D02*
X21783500Y-18818250D01*
X21847000Y-20548250D02*
X22022000Y-20723250D01*
X22022000Y-20548250D02*
X21847000Y-20723250D01*
X22259750Y-14833250D02*
X22434750Y-15008250D01*
X22434750Y-14833250D02*
X22259750Y-15008250D01*
X22323250Y-16738250D02*
X22498250Y-16913250D01*
X22498250Y-16738250D02*
X22323250Y-16913250D01*
X22736000Y-20548250D02*
X22911000Y-20723250D01*
X22911000Y-20548250D02*
X22736000Y-20723250D01*
X22799500Y-18643250D02*
X22974500Y-18818250D01*
X22974500Y-18643250D02*
X22799500Y-18818250D01*
X23212250Y-16738250D02*
X23387250Y-16913250D01*
X23387250Y-16738250D02*
X23212250Y-16913250D01*
X23275750Y-14833250D02*
X23450750Y-15008250D01*
X23450750Y-14833250D02*
X23275750Y-15008250D01*
X23688500Y-18643250D02*
X23863500Y-18818250D01*
X23863500Y-18643250D02*
X23688500Y-18818250D01*
X23752000Y-20548250D02*
X23927000Y-20723250D01*
X23927000Y-20548250D02*
X23752000Y-20723250D01*
X24164750Y-14833250D02*
X24339750Y-15008250D01*
X24339750Y-14833250D02*
X24164750Y-15008250D01*
X24228250Y-16738250D02*
X24403250Y-16913250D01*
X24403250Y-16738250D02*
X24228250Y-16913250D01*
X24641000Y-20548250D02*
X24816000Y-20723250D01*
X24816000Y-20548250D02*
X24641000Y-20723250D01*
X24704500Y-18643250D02*
X24879500Y-18818250D01*
X24879500Y-18643250D02*
X24704500Y-18818250D01*
X24883875Y-22455000D02*
X25058875Y-22630000D01*
X25058875Y-22455000D02*
X24883875Y-22630000D01*
X25117250Y-16738250D02*
X25292250Y-16913250D01*
X25292250Y-16738250D02*
X25117250Y-16913250D01*
X25180750Y-14833250D02*
X25355750Y-15008250D01*
X25355750Y-14833250D02*
X25180750Y-15008250D01*
X25593500Y-18643250D02*
X25768500Y-18818250D01*
X25768500Y-18643250D02*
X25593500Y-18818250D01*
X25657000Y-20548250D02*
X25832000Y-20723250D01*
X25832000Y-20548250D02*
X25657000Y-20723250D01*
X25899875Y-22455000D02*
X26074875Y-22630000D01*
X26074875Y-22455000D02*
X25899875Y-22630000D01*
X26069750Y-14833250D02*
X26244750Y-15008250D01*
X26244750Y-14833250D02*
X26069750Y-15008250D01*
X26133250Y-16738250D02*
X26308250Y-16913250D01*
X26308250Y-16738250D02*
X26133250Y-16913250D01*
X26546000Y-20548250D02*
X26721000Y-20723250D01*
X26721000Y-20548250D02*
X26546000Y-20723250D01*
X26609500Y-18643250D02*
X26784500Y-18818250D01*
X26784500Y-18643250D02*
X26609500Y-18818250D01*
X27022250Y-16738250D02*
X27197250Y-16913250D01*
X27197250Y-16738250D02*
X27022250Y-16913250D01*
X27085750Y-14833250D02*
X27260750Y-15008250D01*
X27260750Y-14833250D02*
X27085750Y-15008250D01*
X27498500Y-18643250D02*
X27673500Y-18818250D01*
X27673500Y-18643250D02*
X27498500Y-18818250D01*
X27562000Y-20548250D02*
X27737000Y-20723250D01*
X27737000Y-20548250D02*
X27562000Y-20723250D01*
X27974750Y-14833250D02*
X28149750Y-15008250D01*
X28149750Y-14833250D02*
X27974750Y-15008250D01*
X28038250Y-16738250D02*
X28213250Y-16913250D01*
X28213250Y-16738250D02*
X28038250Y-16913250D01*
X28451000Y-20548250D02*
X28626000Y-20723250D01*
X28626000Y-20548250D02*
X28451000Y-20723250D01*
X28514500Y-18643250D02*
X28689500Y-18818250D01*
X28689500Y-18643250D02*
X28514500Y-18818250D01*
X28693875Y-22455000D02*
X28868875Y-22630000D01*
X28868875Y-22455000D02*
X28693875Y-22630000D01*
X28927250Y-16738250D02*
X29102250Y-16913250D01*
X29102250Y-16738250D02*
X28927250Y-16913250D01*
X28990750Y-14833250D02*
X29165750Y-15008250D01*
X29165750Y-14833250D02*
X28990750Y-15008250D01*
X29403500Y-18643250D02*
X29578500Y-18818250D01*
X29578500Y-18643250D02*
X29403500Y-18818250D01*
X29467000Y-20548250D02*
X29642000Y-20723250D01*
X29642000Y-20548250D02*
X29467000Y-20723250D01*
X29709875Y-22455000D02*
X29884875Y-22630000D01*
X29884875Y-22455000D02*
X29709875Y-22630000D01*
X29879750Y-14833250D02*
X30054750Y-15008250D01*
X30054750Y-14833250D02*
X29879750Y-15008250D01*
X29943250Y-16738250D02*
X30118250Y-16913250D01*
X30118250Y-16738250D02*
X29943250Y-16913250D01*
X30356000Y-20548250D02*
X30531000Y-20723250D01*
X30531000Y-20548250D02*
X30356000Y-20723250D01*
X30419500Y-18643250D02*
X30594500Y-18818250D01*
X30594500Y-18643250D02*
X30419500Y-18818250D01*
X30832250Y-16738250D02*
X31007250Y-16913250D01*
X31007250Y-16738250D02*
X30832250Y-16913250D01*
X30895750Y-14833250D02*
X31070750Y-15008250D01*
X31070750Y-14833250D02*
X30895750Y-15008250D01*
X31075125Y-22455000D02*
X31250125Y-22630000D01*
X31250125Y-22455000D02*
X31075125Y-22630000D01*
X31308500Y-18643250D02*
X31483500Y-18818250D01*
X31483500Y-18643250D02*
X31308500Y-18818250D01*
X31372000Y-20548250D02*
X31547000Y-20723250D01*
X31547000Y-20548250D02*
X31372000Y-20723250D01*
X31784750Y-14833250D02*
X31959750Y-15008250D01*
X31959750Y-14833250D02*
X31784750Y-15008250D01*
X31848250Y-16738250D02*
X32023250Y-16913250D01*
X32023250Y-16738250D02*
X31848250Y-16913250D01*
X32091125Y-22455000D02*
X32266125Y-22630000D01*
X32266125Y-22455000D02*
X32091125Y-22630000D01*
X32324500Y-18643250D02*
X32499500Y-18818250D01*
X32499500Y-18643250D02*
X32324500Y-18818250D01*
X32737250Y-16738250D02*
X32912250Y-16913250D01*
X32912250Y-16738250D02*
X32737250Y-16913250D01*
X32800750Y-14833250D02*
X32975750Y-15008250D01*
X32975750Y-14833250D02*
X32800750Y-15008250D01*
X33213500Y-18643250D02*
X33388500Y-18818250D01*
X33388500Y-18643250D02*
X33213500Y-18818250D01*
X33456375Y-22455000D02*
X33631375Y-22630000D01*
X33631375Y-22455000D02*
X33456375Y-22630000D01*
X33753250Y-16738250D02*
X33928250Y-16913250D01*
X33928250Y-16738250D02*
X33753250Y-16913250D01*
X33932625Y-20550000D02*
X34107625Y-20725000D01*
X34107625Y-20550000D02*
X33932625Y-20725000D01*
X34229500Y-18643250D02*
X34404500Y-18818250D01*
X34404500Y-18643250D02*
X34229500Y-18818250D01*
X34472375Y-22455000D02*
X34647375Y-22630000D01*
X34647375Y-22455000D02*
X34472375Y-22630000D01*
X34640750Y-14833750D02*
X34815750Y-15008750D01*
X34815750Y-14833750D02*
X34640750Y-15008750D01*
X34948625Y-20550000D02*
X35123625Y-20725000D01*
X35123625Y-20550000D02*
X34948625Y-20725000D01*
X35356625Y-17690750D02*
X35531625Y-17865750D01*
X35531625Y-17690750D02*
X35356625Y-17865750D01*
X35599500Y-22455000D02*
X35774500Y-22630000D01*
X35774500Y-22455000D02*
X35599500Y-22630000D01*
X35656750Y-14833750D02*
X35831750Y-15008750D01*
X35831750Y-14833750D02*
X35656750Y-15008750D01*
X36372625Y-17690750D02*
X36547625Y-17865750D01*
X36547625Y-17690750D02*
X36372625Y-17865750D01*
X36615500Y-22455000D02*
X36790500Y-22630000D01*
X36790500Y-22455000D02*
X36615500Y-22630000D01*
D13*
X7820000Y-15120000D02*
G75*
G03*
X7820000Y-15120000I-110000J0D01*
G01*
X7835000Y-22345000D02*
G75*
G03*
X7835000Y-22345000I-110000J0D01*
G01*
X22010000Y-15755000D02*
G75*
G03*
X22010000Y-15755000I-110000J0D01*
G01*
X22970000Y-21705000D02*
G75*
G03*
X22970000Y-21705000I-110000J0D01*
G01*
X35230000Y-21590000D02*
G75*
G03*
X35230000Y-21590000I-110000J0D01*
G01*
X35235000Y-15875000D02*
G75*
G03*
X35235000Y-15875000I-110000J0D01*
G01*
D14*
X9140000Y-14518000D02*
X9140000Y-14818000D01*
X8990000Y-14668000D02*
X9290000Y-14668000D01*
X9144000Y-22138500D02*
X9144000Y-22438500D01*
X8994000Y-22288500D02*
X9294000Y-22288500D01*
X9382125Y-20233500D02*
X9382125Y-20533500D01*
X9232125Y-20383500D02*
X9532125Y-20383500D01*
X9616500Y-16421000D02*
X9616500Y-16721000D01*
X9466500Y-16571000D02*
X9766500Y-16571000D01*
X9775000Y-14264000D02*
X9775000Y-14564000D01*
X9625000Y-14414000D02*
X9925000Y-14414000D01*
X9779000Y-21884500D02*
X9779000Y-22184500D01*
X9629000Y-22034500D02*
X9929000Y-22034500D01*
X9858375Y-18328500D02*
X9858375Y-18628500D01*
X9708375Y-18478500D02*
X10008375Y-18478500D01*
X10017125Y-19979500D02*
X10017125Y-20279500D01*
X9867125Y-20129500D02*
X10167125Y-20129500D01*
X10251500Y-16167000D02*
X10251500Y-16467000D01*
X10101500Y-16317000D02*
X10401500Y-16317000D01*
X10493375Y-18074500D02*
X10493375Y-18374500D01*
X10343375Y-18224500D02*
X10643375Y-18224500D01*
X11041000Y-14517000D02*
X11041000Y-14817000D01*
X10891000Y-14667000D02*
X11191000Y-14667000D01*
X11287125Y-22138500D02*
X11287125Y-22438500D01*
X11137125Y-22288500D02*
X11437125Y-22288500D01*
X11527000Y-20235000D02*
X11527000Y-20535000D01*
X11377000Y-20385000D02*
X11677000Y-20385000D01*
X11676000Y-14263000D02*
X11676000Y-14563000D01*
X11526000Y-14413000D02*
X11826000Y-14413000D01*
X11922125Y-21884500D02*
X11922125Y-22184500D01*
X11772125Y-22034500D02*
X12072125Y-22034500D01*
X11996750Y-16421750D02*
X11996750Y-16721750D01*
X11846750Y-16571750D02*
X12146750Y-16571750D01*
X12162000Y-19981000D02*
X12162000Y-20281000D01*
X12012000Y-20131000D02*
X12312000Y-20131000D01*
X12473000Y-18326750D02*
X12473000Y-18626750D01*
X12323000Y-18476750D02*
X12623000Y-18476750D01*
X12631750Y-16167750D02*
X12631750Y-16467750D01*
X12481750Y-16317750D02*
X12781750Y-16317750D01*
X12949250Y-14516750D02*
X12949250Y-14816750D01*
X12799250Y-14666750D02*
X13099250Y-14666750D01*
X13108000Y-18072750D02*
X13108000Y-18372750D01*
X12958000Y-18222750D02*
X13258000Y-18222750D01*
X13425500Y-20231750D02*
X13425500Y-20531750D01*
X13275500Y-20381750D02*
X13575500Y-20381750D01*
X13584250Y-14262750D02*
X13584250Y-14562750D01*
X13434250Y-14412750D02*
X13734250Y-14412750D01*
X13668375Y-22138500D02*
X13668375Y-22438500D01*
X13518375Y-22288500D02*
X13818375Y-22288500D01*
X13901750Y-16421750D02*
X13901750Y-16721750D01*
X13751750Y-16571750D02*
X14051750Y-16571750D01*
X14060500Y-19977750D02*
X14060500Y-20277750D01*
X13910500Y-20127750D02*
X14210500Y-20127750D01*
X14303375Y-21884500D02*
X14303375Y-22184500D01*
X14153375Y-22034500D02*
X14453375Y-22034500D01*
X14378000Y-18326750D02*
X14378000Y-18626750D01*
X14228000Y-18476750D02*
X14528000Y-18476750D01*
X14536750Y-16167750D02*
X14536750Y-16467750D01*
X14386750Y-16317750D02*
X14686750Y-16317750D01*
X14854250Y-14516750D02*
X14854250Y-14816750D01*
X14704250Y-14666750D02*
X15004250Y-14666750D01*
X15013000Y-18072750D02*
X15013000Y-18372750D01*
X14863000Y-18222750D02*
X15163000Y-18222750D01*
X15330500Y-20231750D02*
X15330500Y-20531750D01*
X15180500Y-20381750D02*
X15480500Y-20381750D01*
X15489250Y-14262750D02*
X15489250Y-14562750D01*
X15339250Y-14412750D02*
X15639250Y-14412750D01*
X15806750Y-16421750D02*
X15806750Y-16721750D01*
X15656750Y-16571750D02*
X15956750Y-16571750D01*
X15965500Y-19977750D02*
X15965500Y-20277750D01*
X15815500Y-20127750D02*
X16115500Y-20127750D01*
X16049625Y-22138500D02*
X16049625Y-22438500D01*
X15899625Y-22288500D02*
X16199625Y-22288500D01*
X16283000Y-18326750D02*
X16283000Y-18626750D01*
X16133000Y-18476750D02*
X16433000Y-18476750D01*
X16441750Y-16167750D02*
X16441750Y-16467750D01*
X16291750Y-16317750D02*
X16591750Y-16317750D01*
X16684625Y-21884500D02*
X16684625Y-22184500D01*
X16534625Y-22034500D02*
X16834625Y-22034500D01*
X16759250Y-14516750D02*
X16759250Y-14816750D01*
X16609250Y-14666750D02*
X16909250Y-14666750D01*
X16918000Y-18072750D02*
X16918000Y-18372750D01*
X16768000Y-18222750D02*
X17068000Y-18222750D01*
X17235500Y-20231750D02*
X17235500Y-20531750D01*
X17085500Y-20381750D02*
X17385500Y-20381750D01*
X17394250Y-14262750D02*
X17394250Y-14562750D01*
X17244250Y-14412750D02*
X17544250Y-14412750D01*
X17711750Y-16421750D02*
X17711750Y-16721750D01*
X17561750Y-16571750D02*
X17861750Y-16571750D01*
X17870500Y-19977750D02*
X17870500Y-20277750D01*
X17720500Y-20127750D02*
X18020500Y-20127750D01*
X18188000Y-18326750D02*
X18188000Y-18626750D01*
X18038000Y-18476750D02*
X18338000Y-18476750D01*
X18346750Y-16167750D02*
X18346750Y-16467750D01*
X18196750Y-16317750D02*
X18496750Y-16317750D01*
X18664250Y-14516750D02*
X18664250Y-14816750D01*
X18514250Y-14666750D02*
X18814250Y-14666750D01*
X18823000Y-18072750D02*
X18823000Y-18372750D01*
X18673000Y-18222750D02*
X18973000Y-18222750D01*
X19140500Y-20231750D02*
X19140500Y-20531750D01*
X18990500Y-20381750D02*
X19290500Y-20381750D01*
X19299250Y-14262750D02*
X19299250Y-14562750D01*
X19149250Y-14412750D02*
X19449250Y-14412750D01*
X19616750Y-16421750D02*
X19616750Y-16721750D01*
X19466750Y-16571750D02*
X19766750Y-16571750D01*
X19775500Y-19977750D02*
X19775500Y-20277750D01*
X19625500Y-20127750D02*
X19925500Y-20127750D01*
X19859625Y-22138500D02*
X19859625Y-22438500D01*
X19709625Y-22288500D02*
X20009625Y-22288500D01*
X20093000Y-18326750D02*
X20093000Y-18626750D01*
X19943000Y-18476750D02*
X20243000Y-18476750D01*
X20251750Y-16167750D02*
X20251750Y-16467750D01*
X20101750Y-16317750D02*
X20401750Y-16317750D01*
X20494625Y-21884500D02*
X20494625Y-22184500D01*
X20344625Y-22034500D02*
X20644625Y-22034500D01*
X20569250Y-14516750D02*
X20569250Y-14816750D01*
X20419250Y-14666750D02*
X20719250Y-14666750D01*
X20728000Y-18072750D02*
X20728000Y-18372750D01*
X20578000Y-18222750D02*
X20878000Y-18222750D01*
X21045500Y-20231750D02*
X21045500Y-20531750D01*
X20895500Y-20381750D02*
X21195500Y-20381750D01*
X21204250Y-14262750D02*
X21204250Y-14562750D01*
X21054250Y-14412750D02*
X21354250Y-14412750D01*
X21521750Y-16421750D02*
X21521750Y-16721750D01*
X21371750Y-16571750D02*
X21671750Y-16571750D01*
X21680500Y-19977750D02*
X21680500Y-20277750D01*
X21530500Y-20127750D02*
X21830500Y-20127750D01*
X21998000Y-18326750D02*
X21998000Y-18626750D01*
X21848000Y-18476750D02*
X22148000Y-18476750D01*
X22156750Y-16167750D02*
X22156750Y-16467750D01*
X22006750Y-16317750D02*
X22306750Y-16317750D01*
X22474250Y-14516750D02*
X22474250Y-14816750D01*
X22324250Y-14666750D02*
X22624250Y-14666750D01*
X22633000Y-18072750D02*
X22633000Y-18372750D01*
X22483000Y-18222750D02*
X22783000Y-18222750D01*
X22950500Y-20231750D02*
X22950500Y-20531750D01*
X22800500Y-20381750D02*
X23100500Y-20381750D01*
X23109250Y-14262750D02*
X23109250Y-14562750D01*
X22959250Y-14412750D02*
X23259250Y-14412750D01*
X23426750Y-16421750D02*
X23426750Y-16721750D01*
X23276750Y-16571750D02*
X23576750Y-16571750D01*
X23585500Y-19977750D02*
X23585500Y-20277750D01*
X23435500Y-20127750D02*
X23735500Y-20127750D01*
X23903000Y-18326750D02*
X23903000Y-18626750D01*
X23753000Y-18476750D02*
X24053000Y-18476750D01*
X24061750Y-16167750D02*
X24061750Y-16467750D01*
X23911750Y-16317750D02*
X24211750Y-16317750D01*
X24379250Y-14516750D02*
X24379250Y-14816750D01*
X24229250Y-14666750D02*
X24529250Y-14666750D01*
X24538000Y-18072750D02*
X24538000Y-18372750D01*
X24388000Y-18222750D02*
X24688000Y-18222750D01*
X24855500Y-20231750D02*
X24855500Y-20531750D01*
X24705500Y-20381750D02*
X25005500Y-20381750D01*
X25014250Y-14262750D02*
X25014250Y-14562750D01*
X24864250Y-14412750D02*
X25164250Y-14412750D01*
X25098375Y-22138500D02*
X25098375Y-22438500D01*
X24948375Y-22288500D02*
X25248375Y-22288500D01*
X25331750Y-16421750D02*
X25331750Y-16721750D01*
X25181750Y-16571750D02*
X25481750Y-16571750D01*
X25490500Y-19977750D02*
X25490500Y-20277750D01*
X25340500Y-20127750D02*
X25640500Y-20127750D01*
X25733375Y-21884500D02*
X25733375Y-22184500D01*
X25583375Y-22034500D02*
X25883375Y-22034500D01*
X25808000Y-18326750D02*
X25808000Y-18626750D01*
X25658000Y-18476750D02*
X25958000Y-18476750D01*
X25966750Y-16167750D02*
X25966750Y-16467750D01*
X25816750Y-16317750D02*
X26116750Y-16317750D01*
X26284250Y-14516750D02*
X26284250Y-14816750D01*
X26134250Y-14666750D02*
X26434250Y-14666750D01*
X26443000Y-18072750D02*
X26443000Y-18372750D01*
X26293000Y-18222750D02*
X26593000Y-18222750D01*
X26760500Y-20231750D02*
X26760500Y-20531750D01*
X26610500Y-20381750D02*
X26910500Y-20381750D01*
X26919250Y-14262750D02*
X26919250Y-14562750D01*
X26769250Y-14412750D02*
X27069250Y-14412750D01*
X27236750Y-16421750D02*
X27236750Y-16721750D01*
X27086750Y-16571750D02*
X27386750Y-16571750D01*
X27395500Y-19977750D02*
X27395500Y-20277750D01*
X27245500Y-20127750D02*
X27545500Y-20127750D01*
X27713000Y-18326750D02*
X27713000Y-18626750D01*
X27563000Y-18476750D02*
X27863000Y-18476750D01*
X27871750Y-16167750D02*
X27871750Y-16467750D01*
X27721750Y-16317750D02*
X28021750Y-16317750D01*
X28189250Y-14516750D02*
X28189250Y-14816750D01*
X28039250Y-14666750D02*
X28339250Y-14666750D01*
X28348000Y-18072750D02*
X28348000Y-18372750D01*
X28198000Y-18222750D02*
X28498000Y-18222750D01*
X28665500Y-20231750D02*
X28665500Y-20531750D01*
X28515500Y-20381750D02*
X28815500Y-20381750D01*
X28824250Y-14262750D02*
X28824250Y-14562750D01*
X28674250Y-14412750D02*
X28974250Y-14412750D01*
X28908375Y-22138500D02*
X28908375Y-22438500D01*
X28758375Y-22288500D02*
X29058375Y-22288500D01*
X29141750Y-16421750D02*
X29141750Y-16721750D01*
X28991750Y-16571750D02*
X29291750Y-16571750D01*
X29300500Y-19977750D02*
X29300500Y-20277750D01*
X29150500Y-20127750D02*
X29450500Y-20127750D01*
X29543375Y-21884500D02*
X29543375Y-22184500D01*
X29393375Y-22034500D02*
X29693375Y-22034500D01*
X29618000Y-18326750D02*
X29618000Y-18626750D01*
X29468000Y-18476750D02*
X29768000Y-18476750D01*
X29776750Y-16167750D02*
X29776750Y-16467750D01*
X29626750Y-16317750D02*
X29926750Y-16317750D01*
X30094250Y-14516750D02*
X30094250Y-14816750D01*
X29944250Y-14666750D02*
X30244250Y-14666750D01*
X30253000Y-18072750D02*
X30253000Y-18372750D01*
X30103000Y-18222750D02*
X30403000Y-18222750D01*
X30570500Y-20231750D02*
X30570500Y-20531750D01*
X30420500Y-20381750D02*
X30720500Y-20381750D01*
X30729250Y-14262750D02*
X30729250Y-14562750D01*
X30579250Y-14412750D02*
X30879250Y-14412750D01*
X31046750Y-16421750D02*
X31046750Y-16721750D01*
X30896750Y-16571750D02*
X31196750Y-16571750D01*
X31205500Y-19977750D02*
X31205500Y-20277750D01*
X31055500Y-20127750D02*
X31355500Y-20127750D01*
X31289625Y-22138500D02*
X31289625Y-22438500D01*
X31139625Y-22288500D02*
X31439625Y-22288500D01*
X31523000Y-18326750D02*
X31523000Y-18626750D01*
X31373000Y-18476750D02*
X31673000Y-18476750D01*
X31681750Y-16167750D02*
X31681750Y-16467750D01*
X31531750Y-16317750D02*
X31831750Y-16317750D01*
X31924625Y-21884500D02*
X31924625Y-22184500D01*
X31774625Y-22034500D02*
X32074625Y-22034500D01*
X31999250Y-14516750D02*
X31999250Y-14816750D01*
X31849250Y-14666750D02*
X32149250Y-14666750D01*
X32158000Y-18072750D02*
X32158000Y-18372750D01*
X32008000Y-18222750D02*
X32308000Y-18222750D01*
X32634250Y-14262750D02*
X32634250Y-14562750D01*
X32484250Y-14412750D02*
X32784250Y-14412750D01*
X32951750Y-16421750D02*
X32951750Y-16721750D01*
X32801750Y-16571750D02*
X33101750Y-16571750D01*
X33428000Y-18326750D02*
X33428000Y-18626750D01*
X33278000Y-18476750D02*
X33578000Y-18476750D01*
X33586750Y-16167750D02*
X33586750Y-16467750D01*
X33436750Y-16317750D02*
X33736750Y-16317750D01*
X33670875Y-22138500D02*
X33670875Y-22438500D01*
X33520875Y-22288500D02*
X33820875Y-22288500D01*
X34063000Y-18072750D02*
X34063000Y-18372750D01*
X33913000Y-18222750D02*
X34213000Y-18222750D01*
X34147125Y-20233500D02*
X34147125Y-20533500D01*
X33997125Y-20383500D02*
X34297125Y-20383500D01*
X34305875Y-21884500D02*
X34305875Y-22184500D01*
X34155875Y-22034500D02*
X34455875Y-22034500D01*
X34782125Y-19979500D02*
X34782125Y-20279500D01*
X34632125Y-20129500D02*
X34932125Y-20129500D01*
X34855250Y-14517250D02*
X34855250Y-14817250D01*
X34705250Y-14667250D02*
X35005250Y-14667250D01*
X35490250Y-14263250D02*
X35490250Y-14563250D01*
X35340250Y-14413250D02*
X35640250Y-14413250D01*
X35571125Y-17374250D02*
X35571125Y-17674250D01*
X35421125Y-17524250D02*
X35721125Y-17524250D01*
X35814000Y-22138500D02*
X35814000Y-22438500D01*
X35664000Y-22288500D02*
X35964000Y-22288500D01*
X36206125Y-17120250D02*
X36206125Y-17420250D01*
X36056125Y-17270250D02*
X36356125Y-17270250D01*
X36449000Y-21884500D02*
X36449000Y-22184500D01*
X36299000Y-22034500D02*
X36599000Y-22034500D01*
D15*
X19154589Y-23348764D02*
X19154589Y-23133236D01*
X18939061Y-23133236D01*
X18939061Y-23348764D01*
X19154589Y-23348764D01*
X21542189Y-23348764D02*
X21542189Y-23133236D01*
X21326661Y-23133236D01*
X21326661Y-23348764D01*
X21542189Y-23348764D01*
X24393339Y-23348764D02*
X24393339Y-23133236D01*
X24177811Y-23133236D01*
X24177811Y-23348764D01*
X24393339Y-23348764D01*
X26780939Y-23348764D02*
X26780939Y-23133236D01*
X26565411Y-23133236D01*
X26565411Y-23348764D01*
X26780939Y-23348764D01*
X33442089Y-20046764D02*
X33442089Y-19831236D01*
X33226561Y-19831236D01*
X33226561Y-20046764D01*
X33442089Y-20046764D01*
X34150214Y-14330514D02*
X34150214Y-14114986D01*
X33934686Y-14114986D01*
X33934686Y-14330514D01*
X34150214Y-14330514D01*
X35829689Y-20046764D02*
X35829689Y-19831236D01*
X35614161Y-19831236D01*
X35614161Y-20046764D01*
X35829689Y-20046764D01*
X36537814Y-14330514D02*
X36537814Y-14114986D01*
X36322286Y-14114986D01*
X36322286Y-14330514D01*
X36537814Y-14330514D01*
X36758389Y-16692214D02*
X36758389Y-16476686D01*
X36542861Y-16476686D01*
X36542861Y-16692214D01*
X36758389Y-16692214D01*
X36758389Y-19079814D02*
X36758389Y-18864286D01*
X36542861Y-18864286D01*
X36542861Y-19079814D01*
X36758389Y-19079814D01*
D16*
X9521000Y-15121390D02*
X9720390Y-14922000D01*
X9521000Y-14722610D01*
X9321610Y-14922000D01*
X9521000Y-15121390D01*
X9525000Y-22741890D02*
X9724390Y-22542500D01*
X9525000Y-22343110D01*
X9325610Y-22542500D01*
X9525000Y-22741890D01*
X9763125Y-20836890D02*
X9962515Y-20637500D01*
X9763125Y-20438110D01*
X9563735Y-20637500D01*
X9763125Y-20836890D01*
X9997500Y-17024390D02*
X10196890Y-16825000D01*
X9997500Y-16625610D01*
X9798110Y-16825000D01*
X9997500Y-17024390D01*
X10239375Y-18931890D02*
X10438765Y-18732500D01*
X10239375Y-18533110D01*
X10039985Y-18732500D01*
X10239375Y-18931890D01*
X11422000Y-15120390D02*
X11621390Y-14921000D01*
X11422000Y-14721610D01*
X11222610Y-14921000D01*
X11422000Y-15120390D01*
X11668125Y-22741890D02*
X11867515Y-22542500D01*
X11668125Y-22343110D01*
X11468735Y-22542500D01*
X11668125Y-22741890D01*
X11908000Y-20838390D02*
X12107390Y-20639000D01*
X11908000Y-20439610D01*
X11708610Y-20639000D01*
X11908000Y-20838390D01*
X12377750Y-17025140D02*
X12577140Y-16825750D01*
X12377750Y-16626360D01*
X12178360Y-16825750D01*
X12377750Y-17025140D01*
X12854000Y-18930140D02*
X13053390Y-18730750D01*
X12854000Y-18531360D01*
X12654610Y-18730750D01*
X12854000Y-18930140D01*
X13330250Y-15120140D02*
X13529640Y-14920750D01*
X13330250Y-14721360D01*
X13130860Y-14920750D01*
X13330250Y-15120140D01*
X13806500Y-20835140D02*
X14005890Y-20635750D01*
X13806500Y-20436360D01*
X13607110Y-20635750D01*
X13806500Y-20835140D01*
X14049375Y-22741890D02*
X14248765Y-22542500D01*
X14049375Y-22343110D01*
X13849985Y-22542500D01*
X14049375Y-22741890D01*
X14282750Y-17025140D02*
X14482140Y-16825750D01*
X14282750Y-16626360D01*
X14083360Y-16825750D01*
X14282750Y-17025140D01*
X14759000Y-18930140D02*
X14958390Y-18730750D01*
X14759000Y-18531360D01*
X14559610Y-18730750D01*
X14759000Y-18930140D01*
X15235250Y-15120140D02*
X15434640Y-14920750D01*
X15235250Y-14721360D01*
X15035860Y-14920750D01*
X15235250Y-15120140D01*
X15711500Y-20835140D02*
X15910890Y-20635750D01*
X15711500Y-20436360D01*
X15512110Y-20635750D01*
X15711500Y-20835140D01*
X16187750Y-17025140D02*
X16387140Y-16825750D01*
X16187750Y-16626360D01*
X15988360Y-16825750D01*
X16187750Y-17025140D01*
X16430625Y-22741890D02*
X16630015Y-22542500D01*
X16430625Y-22343110D01*
X16231235Y-22542500D01*
X16430625Y-22741890D01*
X16664000Y-18930140D02*
X16863390Y-18730750D01*
X16664000Y-18531360D01*
X16464610Y-18730750D01*
X16664000Y-18930140D01*
X17140250Y-15120140D02*
X17339640Y-14920750D01*
X17140250Y-14721360D01*
X16940860Y-14920750D01*
X17140250Y-15120140D01*
X17616500Y-20835140D02*
X17815890Y-20635750D01*
X17616500Y-20436360D01*
X17417110Y-20635750D01*
X17616500Y-20835140D01*
X18092750Y-17025140D02*
X18292140Y-16825750D01*
X18092750Y-16626360D01*
X17893360Y-16825750D01*
X18092750Y-17025140D01*
X18569000Y-18930140D02*
X18768390Y-18730750D01*
X18569000Y-18531360D01*
X18369610Y-18730750D01*
X18569000Y-18930140D01*
X19045250Y-15120140D02*
X19244640Y-14920750D01*
X19045250Y-14721360D01*
X18845860Y-14920750D01*
X19045250Y-15120140D01*
X19046825Y-21916390D02*
X19246215Y-21717000D01*
X19046825Y-21517610D01*
X18847435Y-21717000D01*
X19046825Y-21916390D01*
X19521500Y-20835140D02*
X19720890Y-20635750D01*
X19521500Y-20436360D01*
X19322110Y-20635750D01*
X19521500Y-20835140D01*
X19997750Y-17025140D02*
X20197140Y-16825750D01*
X19997750Y-16626360D01*
X19798360Y-16825750D01*
X19997750Y-17025140D01*
X20240625Y-22741890D02*
X20440015Y-22542500D01*
X20240625Y-22343110D01*
X20041235Y-22542500D01*
X20240625Y-22741890D01*
X20474000Y-18930140D02*
X20673390Y-18730750D01*
X20474000Y-18531360D01*
X20274610Y-18730750D01*
X20474000Y-18930140D01*
X20950250Y-15120140D02*
X21149640Y-14920750D01*
X20950250Y-14721360D01*
X20750860Y-14920750D01*
X20950250Y-15120140D01*
X21426500Y-20835140D02*
X21625890Y-20635750D01*
X21426500Y-20436360D01*
X21227110Y-20635750D01*
X21426500Y-20835140D01*
X21434425Y-21916390D02*
X21633815Y-21717000D01*
X21434425Y-21517610D01*
X21235035Y-21717000D01*
X21434425Y-21916390D01*
X21902750Y-17025140D02*
X22102140Y-16825750D01*
X21902750Y-16626360D01*
X21703360Y-16825750D01*
X21902750Y-17025140D01*
X22379000Y-18930140D02*
X22578390Y-18730750D01*
X22379000Y-18531360D01*
X22179610Y-18730750D01*
X22379000Y-18930140D01*
X22855250Y-15120140D02*
X23054640Y-14920750D01*
X22855250Y-14721360D01*
X22655860Y-14920750D01*
X22855250Y-15120140D01*
X23331500Y-20835140D02*
X23530890Y-20635750D01*
X23331500Y-20436360D01*
X23132110Y-20635750D01*
X23331500Y-20835140D01*
X23807750Y-17025140D02*
X24007140Y-16825750D01*
X23807750Y-16626360D01*
X23608360Y-16825750D01*
X23807750Y-17025140D01*
X24284000Y-18930140D02*
X24483390Y-18730750D01*
X24284000Y-18531360D01*
X24084610Y-18730750D01*
X24284000Y-18930140D01*
X24285575Y-21916390D02*
X24484965Y-21717000D01*
X24285575Y-21517610D01*
X24086185Y-21717000D01*
X24285575Y-21916390D01*
X24760250Y-15120140D02*
X24959640Y-14920750D01*
X24760250Y-14721360D01*
X24560860Y-14920750D01*
X24760250Y-15120140D01*
X25236500Y-20835140D02*
X25435890Y-20635750D01*
X25236500Y-20436360D01*
X25037110Y-20635750D01*
X25236500Y-20835140D01*
X25479375Y-22741890D02*
X25678765Y-22542500D01*
X25479375Y-22343110D01*
X25279985Y-22542500D01*
X25479375Y-22741890D01*
X25712750Y-17025140D02*
X25912140Y-16825750D01*
X25712750Y-16626360D01*
X25513360Y-16825750D01*
X25712750Y-17025140D01*
X26189000Y-18930140D02*
X26388390Y-18730750D01*
X26189000Y-18531360D01*
X25989610Y-18730750D01*
X26189000Y-18930140D01*
X26665250Y-15120140D02*
X26864640Y-14920750D01*
X26665250Y-14721360D01*
X26465860Y-14920750D01*
X26665250Y-15120140D01*
X26673175Y-21916390D02*
X26872565Y-21717000D01*
X26673175Y-21517610D01*
X26473785Y-21717000D01*
X26673175Y-21916390D01*
X27141500Y-20835140D02*
X27340890Y-20635750D01*
X27141500Y-20436360D01*
X26942110Y-20635750D01*
X27141500Y-20835140D01*
X27617750Y-17025140D02*
X27817140Y-16825750D01*
X27617750Y-16626360D01*
X27418360Y-16825750D01*
X27617750Y-17025140D01*
X28094000Y-18930140D02*
X28293390Y-18730750D01*
X28094000Y-18531360D01*
X27894610Y-18730750D01*
X28094000Y-18930140D01*
X28570250Y-15120140D02*
X28769640Y-14920750D01*
X28570250Y-14721360D01*
X28370860Y-14920750D01*
X28570250Y-15120140D01*
X29046500Y-20835140D02*
X29245890Y-20635750D01*
X29046500Y-20436360D01*
X28847110Y-20635750D01*
X29046500Y-20835140D01*
X29289375Y-22741890D02*
X29488765Y-22542500D01*
X29289375Y-22343110D01*
X29089985Y-22542500D01*
X29289375Y-22741890D01*
X29522750Y-17025140D02*
X29722140Y-16825750D01*
X29522750Y-16626360D01*
X29323360Y-16825750D01*
X29522750Y-17025140D01*
X29999000Y-18930140D02*
X30198390Y-18730750D01*
X29999000Y-18531360D01*
X29799610Y-18730750D01*
X29999000Y-18930140D01*
X30475250Y-15120140D02*
X30674640Y-14920750D01*
X30475250Y-14721360D01*
X30275860Y-14920750D01*
X30475250Y-15120140D01*
X30951500Y-20835140D02*
X31150890Y-20635750D01*
X30951500Y-20436360D01*
X30752110Y-20635750D01*
X30951500Y-20835140D01*
X31427750Y-17025140D02*
X31627140Y-16825750D01*
X31427750Y-16626360D01*
X31228360Y-16825750D01*
X31427750Y-17025140D01*
X31670625Y-22741890D02*
X31870015Y-22542500D01*
X31670625Y-22343110D01*
X31471235Y-22542500D01*
X31670625Y-22741890D01*
X31904000Y-18930140D02*
X32103390Y-18730750D01*
X31904000Y-18531360D01*
X31704610Y-18730750D01*
X31904000Y-18930140D01*
X32380250Y-15120140D02*
X32579640Y-14920750D01*
X32380250Y-14721360D01*
X32180860Y-14920750D01*
X32380250Y-15120140D01*
X33332750Y-17025140D02*
X33532140Y-16825750D01*
X33332750Y-16626360D01*
X33133360Y-16825750D01*
X33332750Y-17025140D01*
X33334325Y-21662390D02*
X33533715Y-21463000D01*
X33334325Y-21263610D01*
X33134935Y-21463000D01*
X33334325Y-21662390D01*
X33809000Y-18930140D02*
X34008390Y-18730750D01*
X33809000Y-18531360D01*
X33609610Y-18730750D01*
X33809000Y-18930140D01*
X34042450Y-15946140D02*
X34241840Y-15746750D01*
X34042450Y-15547360D01*
X33843060Y-15746750D01*
X34042450Y-15946140D01*
X34051875Y-22741890D02*
X34251265Y-22542500D01*
X34051875Y-22343110D01*
X33852485Y-22542500D01*
X34051875Y-22741890D01*
X34528125Y-20836890D02*
X34727515Y-20637500D01*
X34528125Y-20438110D01*
X34328735Y-20637500D01*
X34528125Y-20836890D01*
X35126625Y-16783840D02*
X35326015Y-16584450D01*
X35126625Y-16385060D01*
X34927235Y-16584450D01*
X35126625Y-16783840D01*
X35126625Y-19171440D02*
X35326015Y-18972050D01*
X35126625Y-18772660D01*
X34927235Y-18972050D01*
X35126625Y-19171440D01*
X35236250Y-15120640D02*
X35435640Y-14921250D01*
X35236250Y-14721860D01*
X35036860Y-14921250D01*
X35236250Y-15120640D01*
X35721925Y-21662390D02*
X35921315Y-21463000D01*
X35721925Y-21263610D01*
X35522535Y-21463000D01*
X35721925Y-21662390D01*
X35952125Y-17977640D02*
X36151515Y-17778250D01*
X35952125Y-17578860D01*
X35752735Y-17778250D01*
X35952125Y-17977640D01*
X36195000Y-22741890D02*
X36394390Y-22542500D01*
X36195000Y-22343110D01*
X35995610Y-22542500D01*
X36195000Y-22741890D01*
X36430050Y-15946140D02*
X36629440Y-15746750D01*
X36430050Y-15547360D01*
X36230660Y-15746750D01*
X36430050Y-15946140D01*
D11*
X6752619Y-23815476D02*
X6752619Y-23615476D01*
X6800238Y-23615476D01*
X6828809Y-23625000D01*
X6847857Y-23644048D01*
X6857381Y-23663095D01*
X6866905Y-23701190D01*
X6866905Y-23729762D01*
X6857381Y-23767857D01*
X6847857Y-23786905D01*
X6828809Y-23805952D01*
X6800238Y-23815476D01*
X6752619Y-23815476D01*
X6952619Y-23815476D02*
X6952619Y-23682143D01*
X6952619Y-23720238D02*
X6962143Y-23701190D01*
X6971667Y-23691667D01*
X6990714Y-23682143D01*
X7009762Y-23682143D01*
X7076428Y-23815476D02*
X7076428Y-23682143D01*
X7076428Y-23615476D02*
X7066905Y-23625000D01*
X7076428Y-23634524D01*
X7085952Y-23625000D01*
X7076428Y-23615476D01*
X7076428Y-23634524D01*
X7200238Y-23815476D02*
X7181190Y-23805952D01*
X7171667Y-23786905D01*
X7171667Y-23615476D01*
X7305000Y-23815476D02*
X7285952Y-23805952D01*
X7276428Y-23786905D01*
X7276428Y-23615476D01*
X7533571Y-23815476D02*
X7533571Y-23615476D01*
X7600238Y-23758333D01*
X7666905Y-23615476D01*
X7666905Y-23815476D01*
X7847857Y-23815476D02*
X7847857Y-23710714D01*
X7838333Y-23691667D01*
X7819286Y-23682143D01*
X7781190Y-23682143D01*
X7762143Y-23691667D01*
X7847857Y-23805952D02*
X7828809Y-23815476D01*
X7781190Y-23815476D01*
X7762143Y-23805952D01*
X7752619Y-23786905D01*
X7752619Y-23767857D01*
X7762143Y-23748809D01*
X7781190Y-23739286D01*
X7828809Y-23739286D01*
X7847857Y-23729762D01*
X7943095Y-23682143D02*
X7943095Y-23882143D01*
X7943095Y-23691667D02*
X7962143Y-23682143D01*
X8000238Y-23682143D01*
X8019286Y-23691667D01*
X8028809Y-23701190D01*
X8038333Y-23720238D01*
X8038333Y-23777381D01*
X8028809Y-23796428D01*
X8019286Y-23805952D01*
X8000238Y-23815476D01*
X7962143Y-23815476D01*
X7943095Y-23805952D01*
X8124048Y-23796428D02*
X8133571Y-23805952D01*
X8124048Y-23815476D01*
X8114524Y-23805952D01*
X8124048Y-23796428D01*
X8124048Y-23815476D01*
X8124048Y-23691667D02*
X8133571Y-23701190D01*
X8124048Y-23710714D01*
X8114524Y-23701190D01*
X8124048Y-23691667D01*
X8124048Y-23710714D01*
D12*
X6320000Y-24057500D02*
X6495000Y-24232500D01*
X6495000Y-24057500D02*
X6320000Y-24232500D01*
D11*
X6857381Y-24235476D02*
X6743095Y-24235476D01*
X6800238Y-24235476D02*
X6800238Y-24035476D01*
X6781190Y-24064048D01*
X6762143Y-24083095D01*
X6743095Y-24092619D01*
X6943095Y-24216428D02*
X6952619Y-24225952D01*
X6943095Y-24235476D01*
X6933571Y-24225952D01*
X6943095Y-24216428D01*
X6943095Y-24235476D01*
X7019286Y-24035476D02*
X7152619Y-24035476D01*
X7066905Y-24235476D01*
X7324048Y-24035476D02*
X7228809Y-24035476D01*
X7219286Y-24130714D01*
X7228809Y-24121190D01*
X7247857Y-24111667D01*
X7295476Y-24111667D01*
X7314524Y-24121190D01*
X7324048Y-24130714D01*
X7333571Y-24149762D01*
X7333571Y-24197381D01*
X7324048Y-24216428D01*
X7314524Y-24225952D01*
X7295476Y-24235476D01*
X7247857Y-24235476D01*
X7228809Y-24225952D01*
X7219286Y-24216428D01*
X7457381Y-24035476D02*
X7476428Y-24035476D01*
X7495476Y-24045000D01*
X7505000Y-24054524D01*
X7514524Y-24073571D01*
X7524048Y-24111667D01*
X7524048Y-24159286D01*
X7514524Y-24197381D01*
X7505000Y-24216428D01*
X7495476Y-24225952D01*
X7476428Y-24235476D01*
X7457381Y-24235476D01*
X7438333Y-24225952D01*
X7428809Y-24216428D01*
X7419286Y-24197381D01*
X7409762Y-24159286D01*
X7409762Y-24111667D01*
X7419286Y-24073571D01*
X7428809Y-24054524D01*
X7438333Y-24045000D01*
X7457381Y-24035476D01*
X7609762Y-24235476D02*
X7609762Y-24102143D01*
X7609762Y-24121190D02*
X7619286Y-24111667D01*
X7638333Y-24102143D01*
X7666905Y-24102143D01*
X7685952Y-24111667D01*
X7695476Y-24130714D01*
X7695476Y-24235476D01*
X7695476Y-24130714D02*
X7705000Y-24111667D01*
X7724048Y-24102143D01*
X7752619Y-24102143D01*
X7771667Y-24111667D01*
X7781190Y-24130714D01*
X7781190Y-24235476D01*
X7876428Y-24235476D02*
X7876428Y-24102143D01*
X7876428Y-24121190D02*
X7885952Y-24111667D01*
X7905000Y-24102143D01*
X7933571Y-24102143D01*
X7952619Y-24111667D01*
X7962143Y-24130714D01*
X7962143Y-24235476D01*
X7962143Y-24130714D02*
X7971667Y-24111667D01*
X7990714Y-24102143D01*
X8019286Y-24102143D01*
X8038333Y-24111667D01*
X8047857Y-24130714D01*
X8047857Y-24235476D01*
X8438333Y-24025952D02*
X8266905Y-24283095D01*
X8695476Y-24035476D02*
X8714524Y-24035476D01*
X8733571Y-24045000D01*
X8743095Y-24054524D01*
X8752619Y-24073571D01*
X8762143Y-24111667D01*
X8762143Y-24159286D01*
X8752619Y-24197381D01*
X8743095Y-24216428D01*
X8733571Y-24225952D01*
X8714524Y-24235476D01*
X8695476Y-24235476D01*
X8676429Y-24225952D01*
X8666905Y-24216428D01*
X8657381Y-24197381D01*
X8647857Y-24159286D01*
X8647857Y-24111667D01*
X8657381Y-24073571D01*
X8666905Y-24054524D01*
X8676429Y-24045000D01*
X8695476Y-24035476D01*
X8847857Y-24216428D02*
X8857381Y-24225952D01*
X8847857Y-24235476D01*
X8838333Y-24225952D01*
X8847857Y-24216428D01*
X8847857Y-24235476D01*
X8981190Y-24035476D02*
X9000238Y-24035476D01*
X9019286Y-24045000D01*
X9028810Y-24054524D01*
X9038333Y-24073571D01*
X9047857Y-24111667D01*
X9047857Y-24159286D01*
X9038333Y-24197381D01*
X9028810Y-24216428D01*
X9019286Y-24225952D01*
X9000238Y-24235476D01*
X8981190Y-24235476D01*
X8962143Y-24225952D01*
X8952619Y-24216428D01*
X8943095Y-24197381D01*
X8933571Y-24159286D01*
X8933571Y-24111667D01*
X8943095Y-24073571D01*
X8952619Y-24054524D01*
X8962143Y-24045000D01*
X8981190Y-24035476D01*
X9219286Y-24035476D02*
X9181190Y-24035476D01*
X9162143Y-24045000D01*
X9152619Y-24054524D01*
X9133571Y-24083095D01*
X9124048Y-24121190D01*
X9124048Y-24197381D01*
X9133571Y-24216428D01*
X9143095Y-24225952D01*
X9162143Y-24235476D01*
X9200238Y-24235476D01*
X9219286Y-24225952D01*
X9228810Y-24216428D01*
X9238333Y-24197381D01*
X9238333Y-24149762D01*
X9228810Y-24130714D01*
X9219286Y-24121190D01*
X9200238Y-24111667D01*
X9162143Y-24111667D01*
X9143095Y-24121190D01*
X9133571Y-24130714D01*
X9124048Y-24149762D01*
X9352619Y-24121190D02*
X9333571Y-24111667D01*
X9324048Y-24102143D01*
X9314524Y-24083095D01*
X9314524Y-24073571D01*
X9324048Y-24054524D01*
X9333571Y-24045000D01*
X9352619Y-24035476D01*
X9390714Y-24035476D01*
X9409762Y-24045000D01*
X9419286Y-24054524D01*
X9428810Y-24073571D01*
X9428810Y-24083095D01*
X9419286Y-24102143D01*
X9409762Y-24111667D01*
X9390714Y-24121190D01*
X9352619Y-24121190D01*
X9333571Y-24130714D01*
X9324048Y-24140238D01*
X9314524Y-24159286D01*
X9314524Y-24197381D01*
X9324048Y-24216428D01*
X9333571Y-24225952D01*
X9352619Y-24235476D01*
X9390714Y-24235476D01*
X9409762Y-24225952D01*
X9419286Y-24216428D01*
X9428810Y-24197381D01*
X9428810Y-24159286D01*
X9419286Y-24140238D01*
X9409762Y-24130714D01*
X9390714Y-24121190D01*
X9524048Y-24235476D02*
X9562143Y-24235476D01*
X9581190Y-24225952D01*
X9590714Y-24216428D01*
X9609762Y-24187857D01*
X9619286Y-24149762D01*
X9619286Y-24073571D01*
X9609762Y-24054524D01*
X9600238Y-24045000D01*
X9581190Y-24035476D01*
X9543095Y-24035476D01*
X9524048Y-24045000D01*
X9514524Y-24054524D01*
X9505000Y-24073571D01*
X9505000Y-24121190D01*
X9514524Y-24140238D01*
X9524048Y-24149762D01*
X9543095Y-24159286D01*
X9581190Y-24159286D01*
X9600238Y-24149762D01*
X9609762Y-24140238D01*
X9619286Y-24121190D01*
X9695476Y-24035476D02*
X9695476Y-24073571D01*
X9771667Y-24035476D02*
X9771667Y-24073571D01*
X10066905Y-24311667D02*
X10057381Y-24302143D01*
X10038333Y-24273571D01*
X10028810Y-24254524D01*
X10019286Y-24225952D01*
X10009762Y-24178333D01*
X10009762Y-24140238D01*
X10019286Y-24092619D01*
X10028810Y-24064048D01*
X10038333Y-24045000D01*
X10057381Y-24016428D01*
X10066905Y-24006905D01*
X10247857Y-24235476D02*
X10133571Y-24235476D01*
X10190714Y-24235476D02*
X10190714Y-24035476D01*
X10171667Y-24064048D01*
X10152619Y-24083095D01*
X10133571Y-24092619D01*
X10324048Y-24054524D02*
X10333571Y-24045000D01*
X10352619Y-24035476D01*
X10400238Y-24035476D01*
X10419286Y-24045000D01*
X10428810Y-24054524D01*
X10438333Y-24073571D01*
X10438333Y-24092619D01*
X10428810Y-24121190D01*
X10314524Y-24235476D01*
X10438333Y-24235476D01*
X10552619Y-24121190D02*
X10533571Y-24111667D01*
X10524048Y-24102143D01*
X10514524Y-24083095D01*
X10514524Y-24073571D01*
X10524048Y-24054524D01*
X10533571Y-24045000D01*
X10552619Y-24035476D01*
X10590714Y-24035476D01*
X10609762Y-24045000D01*
X10619286Y-24054524D01*
X10628810Y-24073571D01*
X10628810Y-24083095D01*
X10619286Y-24102143D01*
X10609762Y-24111667D01*
X10590714Y-24121190D01*
X10552619Y-24121190D01*
X10533571Y-24130714D01*
X10524048Y-24140238D01*
X10514524Y-24159286D01*
X10514524Y-24197381D01*
X10524048Y-24216428D01*
X10533571Y-24225952D01*
X10552619Y-24235476D01*
X10590714Y-24235476D01*
X10609762Y-24225952D01*
X10619286Y-24216428D01*
X10628810Y-24197381D01*
X10628810Y-24159286D01*
X10619286Y-24140238D01*
X10609762Y-24130714D01*
X10590714Y-24121190D01*
X10866905Y-24235476D02*
X10866905Y-24035476D01*
X10952619Y-24235476D02*
X10952619Y-24130714D01*
X10943095Y-24111667D01*
X10924048Y-24102143D01*
X10895476Y-24102143D01*
X10876429Y-24111667D01*
X10866905Y-24121190D01*
X11076429Y-24235476D02*
X11057381Y-24225952D01*
X11047857Y-24216428D01*
X11038333Y-24197381D01*
X11038333Y-24140238D01*
X11047857Y-24121190D01*
X11057381Y-24111667D01*
X11076429Y-24102143D01*
X11105000Y-24102143D01*
X11124048Y-24111667D01*
X11133571Y-24121190D01*
X11143095Y-24140238D01*
X11143095Y-24197381D01*
X11133571Y-24216428D01*
X11124048Y-24225952D01*
X11105000Y-24235476D01*
X11076429Y-24235476D01*
X11257381Y-24235476D02*
X11238333Y-24225952D01*
X11228809Y-24206905D01*
X11228809Y-24035476D01*
X11409762Y-24225952D02*
X11390714Y-24235476D01*
X11352619Y-24235476D01*
X11333571Y-24225952D01*
X11324048Y-24206905D01*
X11324048Y-24130714D01*
X11333571Y-24111667D01*
X11352619Y-24102143D01*
X11390714Y-24102143D01*
X11409762Y-24111667D01*
X11419286Y-24130714D01*
X11419286Y-24149762D01*
X11324048Y-24168809D01*
X11495476Y-24225952D02*
X11514524Y-24235476D01*
X11552619Y-24235476D01*
X11571667Y-24225952D01*
X11581190Y-24206905D01*
X11581190Y-24197381D01*
X11571667Y-24178333D01*
X11552619Y-24168809D01*
X11524048Y-24168809D01*
X11505000Y-24159286D01*
X11495476Y-24140238D01*
X11495476Y-24130714D01*
X11505000Y-24111667D01*
X11524048Y-24102143D01*
X11552619Y-24102143D01*
X11571667Y-24111667D01*
X11647857Y-24311667D02*
X11657381Y-24302143D01*
X11676428Y-24273571D01*
X11685952Y-24254524D01*
X11695476Y-24225952D01*
X11705000Y-24178333D01*
X11705000Y-24140238D01*
X11695476Y-24092619D01*
X11685952Y-24064048D01*
X11676428Y-24045000D01*
X11657381Y-24016428D01*
X11647857Y-24006905D01*
X12009762Y-24311667D02*
X12000238Y-24302143D01*
X11981190Y-24273571D01*
X11971667Y-24254524D01*
X11962143Y-24225952D01*
X11952619Y-24178333D01*
X11952619Y-24140238D01*
X11962143Y-24092619D01*
X11971667Y-24064048D01*
X11981190Y-24045000D01*
X12000238Y-24016428D01*
X12009762Y-24006905D01*
X12085952Y-24102143D02*
X12085952Y-24235476D01*
X12085952Y-24121190D02*
X12095476Y-24111667D01*
X12114524Y-24102143D01*
X12143095Y-24102143D01*
X12162143Y-24111667D01*
X12171667Y-24130714D01*
X12171667Y-24235476D01*
X12295476Y-24235476D02*
X12276428Y-24225952D01*
X12266905Y-24216428D01*
X12257381Y-24197381D01*
X12257381Y-24140238D01*
X12266905Y-24121190D01*
X12276428Y-24111667D01*
X12295476Y-24102143D01*
X12324048Y-24102143D01*
X12343095Y-24111667D01*
X12352619Y-24121190D01*
X12362143Y-24140238D01*
X12362143Y-24197381D01*
X12352619Y-24216428D01*
X12343095Y-24225952D01*
X12324048Y-24235476D01*
X12295476Y-24235476D01*
X12419286Y-24102143D02*
X12495476Y-24102143D01*
X12447857Y-24035476D02*
X12447857Y-24206905D01*
X12457381Y-24225952D01*
X12476428Y-24235476D01*
X12495476Y-24235476D01*
X12714524Y-24102143D02*
X12714524Y-24302143D01*
X12714524Y-24111667D02*
X12733571Y-24102143D01*
X12771667Y-24102143D01*
X12790714Y-24111667D01*
X12800238Y-24121190D01*
X12809762Y-24140238D01*
X12809762Y-24197381D01*
X12800238Y-24216428D01*
X12790714Y-24225952D01*
X12771667Y-24235476D01*
X12733571Y-24235476D01*
X12714524Y-24225952D01*
X12924048Y-24235476D02*
X12905000Y-24225952D01*
X12895476Y-24206905D01*
X12895476Y-24035476D01*
X13085952Y-24235476D02*
X13085952Y-24130714D01*
X13076428Y-24111667D01*
X13057381Y-24102143D01*
X13019286Y-24102143D01*
X13000238Y-24111667D01*
X13085952Y-24225952D02*
X13066905Y-24235476D01*
X13019286Y-24235476D01*
X13000238Y-24225952D01*
X12990714Y-24206905D01*
X12990714Y-24187857D01*
X13000238Y-24168809D01*
X13019286Y-24159286D01*
X13066905Y-24159286D01*
X13085952Y-24149762D01*
X13152619Y-24102143D02*
X13228809Y-24102143D01*
X13181190Y-24035476D02*
X13181190Y-24206905D01*
X13190714Y-24225952D01*
X13209762Y-24235476D01*
X13228809Y-24235476D01*
X13371667Y-24225952D02*
X13352619Y-24235476D01*
X13314524Y-24235476D01*
X13295476Y-24225952D01*
X13285952Y-24206905D01*
X13285952Y-24130714D01*
X13295476Y-24111667D01*
X13314524Y-24102143D01*
X13352619Y-24102143D01*
X13371667Y-24111667D01*
X13381190Y-24130714D01*
X13381190Y-24149762D01*
X13285952Y-24168809D01*
X13552619Y-24235476D02*
X13552619Y-24035476D01*
X13552619Y-24225952D02*
X13533571Y-24235476D01*
X13495476Y-24235476D01*
X13476428Y-24225952D01*
X13466905Y-24216428D01*
X13457381Y-24197381D01*
X13457381Y-24140238D01*
X13466905Y-24121190D01*
X13476428Y-24111667D01*
X13495476Y-24102143D01*
X13533571Y-24102143D01*
X13552619Y-24111667D01*
X13628809Y-24311667D02*
X13638333Y-24302143D01*
X13657381Y-24273571D01*
X13666905Y-24254524D01*
X13676428Y-24225952D01*
X13685952Y-24178333D01*
X13685952Y-24140238D01*
X13676428Y-24092619D01*
X13666905Y-24064048D01*
X13657381Y-24045000D01*
X13638333Y-24016428D01*
X13628809Y-24006905D01*
X6495000Y-24440000D02*
G75*
G03*
X6495000Y-24440000I-100000J0D01*
G01*
X6743095Y-24349524D02*
X6752619Y-24340000D01*
X6771667Y-24330476D01*
X6819286Y-24330476D01*
X6838333Y-24340000D01*
X6847857Y-24349524D01*
X6857381Y-24368571D01*
X6857381Y-24387619D01*
X6847857Y-24416190D01*
X6733571Y-24530476D01*
X6857381Y-24530476D01*
X6943095Y-24511428D02*
X6952619Y-24520952D01*
X6943095Y-24530476D01*
X6933571Y-24520952D01*
X6943095Y-24511428D01*
X6943095Y-24530476D01*
X7028809Y-24349524D02*
X7038333Y-24340000D01*
X7057381Y-24330476D01*
X7105000Y-24330476D01*
X7124048Y-24340000D01*
X7133571Y-24349524D01*
X7143095Y-24368571D01*
X7143095Y-24387619D01*
X7133571Y-24416190D01*
X7019286Y-24530476D01*
X7143095Y-24530476D01*
X7266905Y-24330476D02*
X7285952Y-24330476D01*
X7305000Y-24340000D01*
X7314524Y-24349524D01*
X7324048Y-24368571D01*
X7333571Y-24406667D01*
X7333571Y-24454286D01*
X7324048Y-24492381D01*
X7314524Y-24511428D01*
X7305000Y-24520952D01*
X7285952Y-24530476D01*
X7266905Y-24530476D01*
X7247857Y-24520952D01*
X7238333Y-24511428D01*
X7228809Y-24492381D01*
X7219286Y-24454286D01*
X7219286Y-24406667D01*
X7228809Y-24368571D01*
X7238333Y-24349524D01*
X7247857Y-24340000D01*
X7266905Y-24330476D01*
X7457381Y-24330476D02*
X7476428Y-24330476D01*
X7495476Y-24340000D01*
X7505000Y-24349524D01*
X7514524Y-24368571D01*
X7524048Y-24406667D01*
X7524048Y-24454286D01*
X7514524Y-24492381D01*
X7505000Y-24511428D01*
X7495476Y-24520952D01*
X7476428Y-24530476D01*
X7457381Y-24530476D01*
X7438333Y-24520952D01*
X7428809Y-24511428D01*
X7419286Y-24492381D01*
X7409762Y-24454286D01*
X7409762Y-24406667D01*
X7419286Y-24368571D01*
X7428809Y-24349524D01*
X7438333Y-24340000D01*
X7457381Y-24330476D01*
X7609762Y-24530476D02*
X7609762Y-24397143D01*
X7609762Y-24416190D02*
X7619286Y-24406667D01*
X7638333Y-24397143D01*
X7666905Y-24397143D01*
X7685952Y-24406667D01*
X7695476Y-24425714D01*
X7695476Y-24530476D01*
X7695476Y-24425714D02*
X7705000Y-24406667D01*
X7724048Y-24397143D01*
X7752619Y-24397143D01*
X7771667Y-24406667D01*
X7781190Y-24425714D01*
X7781190Y-24530476D01*
X7876428Y-24530476D02*
X7876428Y-24397143D01*
X7876428Y-24416190D02*
X7885952Y-24406667D01*
X7905000Y-24397143D01*
X7933571Y-24397143D01*
X7952619Y-24406667D01*
X7962143Y-24425714D01*
X7962143Y-24530476D01*
X7962143Y-24425714D02*
X7971667Y-24406667D01*
X7990714Y-24397143D01*
X8019286Y-24397143D01*
X8038333Y-24406667D01*
X8047857Y-24425714D01*
X8047857Y-24530476D01*
X8438333Y-24320952D02*
X8266905Y-24578095D01*
X8695476Y-24330476D02*
X8714524Y-24330476D01*
X8733571Y-24340000D01*
X8743095Y-24349524D01*
X8752619Y-24368571D01*
X8762143Y-24406667D01*
X8762143Y-24454286D01*
X8752619Y-24492381D01*
X8743095Y-24511428D01*
X8733571Y-24520952D01*
X8714524Y-24530476D01*
X8695476Y-24530476D01*
X8676429Y-24520952D01*
X8666905Y-24511428D01*
X8657381Y-24492381D01*
X8647857Y-24454286D01*
X8647857Y-24406667D01*
X8657381Y-24368571D01*
X8666905Y-24349524D01*
X8676429Y-24340000D01*
X8695476Y-24330476D01*
X8847857Y-24511428D02*
X8857381Y-24520952D01*
X8847857Y-24530476D01*
X8838333Y-24520952D01*
X8847857Y-24511428D01*
X8847857Y-24530476D01*
X8981190Y-24330476D02*
X9000238Y-24330476D01*
X9019286Y-24340000D01*
X9028810Y-24349524D01*
X9038333Y-24368571D01*
X9047857Y-24406667D01*
X9047857Y-24454286D01*
X9038333Y-24492381D01*
X9028810Y-24511428D01*
X9019286Y-24520952D01*
X9000238Y-24530476D01*
X8981190Y-24530476D01*
X8962143Y-24520952D01*
X8952619Y-24511428D01*
X8943095Y-24492381D01*
X8933571Y-24454286D01*
X8933571Y-24406667D01*
X8943095Y-24368571D01*
X8952619Y-24349524D01*
X8962143Y-24340000D01*
X8981190Y-24330476D01*
X9162143Y-24416190D02*
X9143095Y-24406667D01*
X9133571Y-24397143D01*
X9124048Y-24378095D01*
X9124048Y-24368571D01*
X9133571Y-24349524D01*
X9143095Y-24340000D01*
X9162143Y-24330476D01*
X9200238Y-24330476D01*
X9219286Y-24340000D01*
X9228810Y-24349524D01*
X9238333Y-24368571D01*
X9238333Y-24378095D01*
X9228810Y-24397143D01*
X9219286Y-24406667D01*
X9200238Y-24416190D01*
X9162143Y-24416190D01*
X9143095Y-24425714D01*
X9133571Y-24435238D01*
X9124048Y-24454286D01*
X9124048Y-24492381D01*
X9133571Y-24511428D01*
X9143095Y-24520952D01*
X9162143Y-24530476D01*
X9200238Y-24530476D01*
X9219286Y-24520952D01*
X9228810Y-24511428D01*
X9238333Y-24492381D01*
X9238333Y-24454286D01*
X9228810Y-24435238D01*
X9219286Y-24425714D01*
X9200238Y-24416190D01*
X9409762Y-24330476D02*
X9371667Y-24330476D01*
X9352619Y-24340000D01*
X9343095Y-24349524D01*
X9324048Y-24378095D01*
X9314524Y-24416190D01*
X9314524Y-24492381D01*
X9324048Y-24511428D01*
X9333571Y-24520952D01*
X9352619Y-24530476D01*
X9390714Y-24530476D01*
X9409762Y-24520952D01*
X9419286Y-24511428D01*
X9428810Y-24492381D01*
X9428810Y-24444762D01*
X9419286Y-24425714D01*
X9409762Y-24416190D01*
X9390714Y-24406667D01*
X9352619Y-24406667D01*
X9333571Y-24416190D01*
X9324048Y-24425714D01*
X9314524Y-24444762D01*
X9600238Y-24330476D02*
X9562143Y-24330476D01*
X9543095Y-24340000D01*
X9533571Y-24349524D01*
X9514524Y-24378095D01*
X9505000Y-24416190D01*
X9505000Y-24492381D01*
X9514524Y-24511428D01*
X9524048Y-24520952D01*
X9543095Y-24530476D01*
X9581190Y-24530476D01*
X9600238Y-24520952D01*
X9609762Y-24511428D01*
X9619286Y-24492381D01*
X9619286Y-24444762D01*
X9609762Y-24425714D01*
X9600238Y-24416190D01*
X9581190Y-24406667D01*
X9543095Y-24406667D01*
X9524048Y-24416190D01*
X9514524Y-24425714D01*
X9505000Y-24444762D01*
X9695476Y-24330476D02*
X9695476Y-24368571D01*
X9771667Y-24330476D02*
X9771667Y-24368571D01*
X10066905Y-24606667D02*
X10057381Y-24597143D01*
X10038333Y-24568571D01*
X10028810Y-24549524D01*
X10019286Y-24520952D01*
X10009762Y-24473333D01*
X10009762Y-24435238D01*
X10019286Y-24387619D01*
X10028810Y-24359048D01*
X10038333Y-24340000D01*
X10057381Y-24311428D01*
X10066905Y-24301905D01*
X10228810Y-24330476D02*
X10190714Y-24330476D01*
X10171667Y-24340000D01*
X10162143Y-24349524D01*
X10143095Y-24378095D01*
X10133571Y-24416190D01*
X10133571Y-24492381D01*
X10143095Y-24511428D01*
X10152619Y-24520952D01*
X10171667Y-24530476D01*
X10209762Y-24530476D01*
X10228810Y-24520952D01*
X10238333Y-24511428D01*
X10247857Y-24492381D01*
X10247857Y-24444762D01*
X10238333Y-24425714D01*
X10228810Y-24416190D01*
X10209762Y-24406667D01*
X10171667Y-24406667D01*
X10152619Y-24416190D01*
X10143095Y-24425714D01*
X10133571Y-24444762D01*
X10485952Y-24530476D02*
X10485952Y-24330476D01*
X10571667Y-24530476D02*
X10571667Y-24425714D01*
X10562143Y-24406667D01*
X10543095Y-24397143D01*
X10514524Y-24397143D01*
X10495476Y-24406667D01*
X10485952Y-24416190D01*
X10695476Y-24530476D02*
X10676429Y-24520952D01*
X10666905Y-24511428D01*
X10657381Y-24492381D01*
X10657381Y-24435238D01*
X10666905Y-24416190D01*
X10676429Y-24406667D01*
X10695476Y-24397143D01*
X10724048Y-24397143D01*
X10743095Y-24406667D01*
X10752619Y-24416190D01*
X10762143Y-24435238D01*
X10762143Y-24492381D01*
X10752619Y-24511428D01*
X10743095Y-24520952D01*
X10724048Y-24530476D01*
X10695476Y-24530476D01*
X10876429Y-24530476D02*
X10857381Y-24520952D01*
X10847857Y-24501905D01*
X10847857Y-24330476D01*
X11028810Y-24520952D02*
X11009762Y-24530476D01*
X10971667Y-24530476D01*
X10952619Y-24520952D01*
X10943095Y-24501905D01*
X10943095Y-24425714D01*
X10952619Y-24406667D01*
X10971667Y-24397143D01*
X11009762Y-24397143D01*
X11028810Y-24406667D01*
X11038333Y-24425714D01*
X11038333Y-24444762D01*
X10943095Y-24463809D01*
X11114524Y-24520952D02*
X11133571Y-24530476D01*
X11171667Y-24530476D01*
X11190714Y-24520952D01*
X11200238Y-24501905D01*
X11200238Y-24492381D01*
X11190714Y-24473333D01*
X11171667Y-24463809D01*
X11143095Y-24463809D01*
X11124048Y-24454286D01*
X11114524Y-24435238D01*
X11114524Y-24425714D01*
X11124048Y-24406667D01*
X11143095Y-24397143D01*
X11171667Y-24397143D01*
X11190714Y-24406667D01*
X11266905Y-24606667D02*
X11276428Y-24597143D01*
X11295476Y-24568571D01*
X11305000Y-24549524D01*
X11314524Y-24520952D01*
X11324048Y-24473333D01*
X11324048Y-24435238D01*
X11314524Y-24387619D01*
X11305000Y-24359048D01*
X11295476Y-24340000D01*
X11276428Y-24311428D01*
X11266905Y-24301905D01*
X11628809Y-24606667D02*
X11619286Y-24597143D01*
X11600238Y-24568571D01*
X11590714Y-24549524D01*
X11581190Y-24520952D01*
X11571667Y-24473333D01*
X11571667Y-24435238D01*
X11581190Y-24387619D01*
X11590714Y-24359048D01*
X11600238Y-24340000D01*
X11619286Y-24311428D01*
X11628809Y-24301905D01*
X11705000Y-24397143D02*
X11705000Y-24530476D01*
X11705000Y-24416190D02*
X11714524Y-24406667D01*
X11733571Y-24397143D01*
X11762143Y-24397143D01*
X11781190Y-24406667D01*
X11790714Y-24425714D01*
X11790714Y-24530476D01*
X11914524Y-24530476D02*
X11895476Y-24520952D01*
X11885952Y-24511428D01*
X11876428Y-24492381D01*
X11876428Y-24435238D01*
X11885952Y-24416190D01*
X11895476Y-24406667D01*
X11914524Y-24397143D01*
X11943095Y-24397143D01*
X11962143Y-24406667D01*
X11971667Y-24416190D01*
X11981190Y-24435238D01*
X11981190Y-24492381D01*
X11971667Y-24511428D01*
X11962143Y-24520952D01*
X11943095Y-24530476D01*
X11914524Y-24530476D01*
X12038333Y-24397143D02*
X12114524Y-24397143D01*
X12066905Y-24330476D02*
X12066905Y-24501905D01*
X12076428Y-24520952D01*
X12095476Y-24530476D01*
X12114524Y-24530476D01*
X12333571Y-24397143D02*
X12333571Y-24597143D01*
X12333571Y-24406667D02*
X12352619Y-24397143D01*
X12390714Y-24397143D01*
X12409762Y-24406667D01*
X12419286Y-24416190D01*
X12428809Y-24435238D01*
X12428809Y-24492381D01*
X12419286Y-24511428D01*
X12409762Y-24520952D01*
X12390714Y-24530476D01*
X12352619Y-24530476D01*
X12333571Y-24520952D01*
X12543095Y-24530476D02*
X12524048Y-24520952D01*
X12514524Y-24501905D01*
X12514524Y-24330476D01*
X12705000Y-24530476D02*
X12705000Y-24425714D01*
X12695476Y-24406667D01*
X12676428Y-24397143D01*
X12638333Y-24397143D01*
X12619286Y-24406667D01*
X12705000Y-24520952D02*
X12685952Y-24530476D01*
X12638333Y-24530476D01*
X12619286Y-24520952D01*
X12609762Y-24501905D01*
X12609762Y-24482857D01*
X12619286Y-24463809D01*
X12638333Y-24454286D01*
X12685952Y-24454286D01*
X12705000Y-24444762D01*
X12771667Y-24397143D02*
X12847857Y-24397143D01*
X12800238Y-24330476D02*
X12800238Y-24501905D01*
X12809762Y-24520952D01*
X12828809Y-24530476D01*
X12847857Y-24530476D01*
X12990714Y-24520952D02*
X12971667Y-24530476D01*
X12933571Y-24530476D01*
X12914524Y-24520952D01*
X12905000Y-24501905D01*
X12905000Y-24425714D01*
X12914524Y-24406667D01*
X12933571Y-24397143D01*
X12971667Y-24397143D01*
X12990714Y-24406667D01*
X13000238Y-24425714D01*
X13000238Y-24444762D01*
X12905000Y-24463809D01*
X13171667Y-24530476D02*
X13171667Y-24330476D01*
X13171667Y-24520952D02*
X13152619Y-24530476D01*
X13114524Y-24530476D01*
X13095476Y-24520952D01*
X13085952Y-24511428D01*
X13076428Y-24492381D01*
X13076428Y-24435238D01*
X13085952Y-24416190D01*
X13095476Y-24406667D01*
X13114524Y-24397143D01*
X13152619Y-24397143D01*
X13171667Y-24406667D01*
X13247857Y-24606667D02*
X13257381Y-24597143D01*
X13276428Y-24568571D01*
X13285952Y-24549524D01*
X13295476Y-24520952D01*
X13305000Y-24473333D01*
X13305000Y-24435238D01*
X13295476Y-24387619D01*
X13285952Y-24359048D01*
X13276428Y-24340000D01*
X13257381Y-24311428D01*
X13247857Y-24301905D01*
X6395000Y-24660000D02*
X6395000Y-24860000D01*
X6295000Y-24760000D02*
X6495000Y-24760000D01*
X6733571Y-24650476D02*
X6857381Y-24650476D01*
X6790714Y-24726667D01*
X6819286Y-24726667D01*
X6838333Y-24736190D01*
X6847857Y-24745714D01*
X6857381Y-24764762D01*
X6857381Y-24812381D01*
X6847857Y-24831428D01*
X6838333Y-24840952D01*
X6819286Y-24850476D01*
X6762143Y-24850476D01*
X6743095Y-24840952D01*
X6733571Y-24831428D01*
X6943095Y-24831428D02*
X6952619Y-24840952D01*
X6943095Y-24850476D01*
X6933571Y-24840952D01*
X6943095Y-24831428D01*
X6943095Y-24850476D01*
X7076428Y-24650476D02*
X7095476Y-24650476D01*
X7114524Y-24660000D01*
X7124048Y-24669524D01*
X7133571Y-24688571D01*
X7143095Y-24726667D01*
X7143095Y-24774286D01*
X7133571Y-24812381D01*
X7124048Y-24831428D01*
X7114524Y-24840952D01*
X7095476Y-24850476D01*
X7076428Y-24850476D01*
X7057381Y-24840952D01*
X7047857Y-24831428D01*
X7038333Y-24812381D01*
X7028809Y-24774286D01*
X7028809Y-24726667D01*
X7038333Y-24688571D01*
X7047857Y-24669524D01*
X7057381Y-24660000D01*
X7076428Y-24650476D01*
X7266905Y-24650476D02*
X7285952Y-24650476D01*
X7305000Y-24660000D01*
X7314524Y-24669524D01*
X7324048Y-24688571D01*
X7333571Y-24726667D01*
X7333571Y-24774286D01*
X7324048Y-24812381D01*
X7314524Y-24831428D01*
X7305000Y-24840952D01*
X7285952Y-24850476D01*
X7266905Y-24850476D01*
X7247857Y-24840952D01*
X7238333Y-24831428D01*
X7228809Y-24812381D01*
X7219286Y-24774286D01*
X7219286Y-24726667D01*
X7228809Y-24688571D01*
X7238333Y-24669524D01*
X7247857Y-24660000D01*
X7266905Y-24650476D01*
X7457381Y-24650476D02*
X7476428Y-24650476D01*
X7495476Y-24660000D01*
X7505000Y-24669524D01*
X7514524Y-24688571D01*
X7524048Y-24726667D01*
X7524048Y-24774286D01*
X7514524Y-24812381D01*
X7505000Y-24831428D01*
X7495476Y-24840952D01*
X7476428Y-24850476D01*
X7457381Y-24850476D01*
X7438333Y-24840952D01*
X7428809Y-24831428D01*
X7419286Y-24812381D01*
X7409762Y-24774286D01*
X7409762Y-24726667D01*
X7419286Y-24688571D01*
X7428809Y-24669524D01*
X7438333Y-24660000D01*
X7457381Y-24650476D01*
X7609762Y-24850476D02*
X7609762Y-24717143D01*
X7609762Y-24736190D02*
X7619286Y-24726667D01*
X7638333Y-24717143D01*
X7666905Y-24717143D01*
X7685952Y-24726667D01*
X7695476Y-24745714D01*
X7695476Y-24850476D01*
X7695476Y-24745714D02*
X7705000Y-24726667D01*
X7724048Y-24717143D01*
X7752619Y-24717143D01*
X7771667Y-24726667D01*
X7781190Y-24745714D01*
X7781190Y-24850476D01*
X7876428Y-24850476D02*
X7876428Y-24717143D01*
X7876428Y-24736190D02*
X7885952Y-24726667D01*
X7905000Y-24717143D01*
X7933571Y-24717143D01*
X7952619Y-24726667D01*
X7962143Y-24745714D01*
X7962143Y-24850476D01*
X7962143Y-24745714D02*
X7971667Y-24726667D01*
X7990714Y-24717143D01*
X8019286Y-24717143D01*
X8038333Y-24726667D01*
X8047857Y-24745714D01*
X8047857Y-24850476D01*
X8438333Y-24640952D02*
X8266905Y-24898095D01*
X8695476Y-24650476D02*
X8714524Y-24650476D01*
X8733571Y-24660000D01*
X8743095Y-24669524D01*
X8752619Y-24688571D01*
X8762143Y-24726667D01*
X8762143Y-24774286D01*
X8752619Y-24812381D01*
X8743095Y-24831428D01*
X8733571Y-24840952D01*
X8714524Y-24850476D01*
X8695476Y-24850476D01*
X8676429Y-24840952D01*
X8666905Y-24831428D01*
X8657381Y-24812381D01*
X8647857Y-24774286D01*
X8647857Y-24726667D01*
X8657381Y-24688571D01*
X8666905Y-24669524D01*
X8676429Y-24660000D01*
X8695476Y-24650476D01*
X8847857Y-24831428D02*
X8857381Y-24840952D01*
X8847857Y-24850476D01*
X8838333Y-24840952D01*
X8847857Y-24831428D01*
X8847857Y-24850476D01*
X9047857Y-24850476D02*
X8933571Y-24850476D01*
X8990714Y-24850476D02*
X8990714Y-24650476D01*
X8971667Y-24679048D01*
X8952619Y-24698095D01*
X8933571Y-24707619D01*
X9238333Y-24850476D02*
X9124048Y-24850476D01*
X9181190Y-24850476D02*
X9181190Y-24650476D01*
X9162143Y-24679048D01*
X9143095Y-24698095D01*
X9124048Y-24707619D01*
X9352619Y-24736190D02*
X9333571Y-24726667D01*
X9324048Y-24717143D01*
X9314524Y-24698095D01*
X9314524Y-24688571D01*
X9324048Y-24669524D01*
X9333571Y-24660000D01*
X9352619Y-24650476D01*
X9390714Y-24650476D01*
X9409762Y-24660000D01*
X9419286Y-24669524D01*
X9428810Y-24688571D01*
X9428810Y-24698095D01*
X9419286Y-24717143D01*
X9409762Y-24726667D01*
X9390714Y-24736190D01*
X9352619Y-24736190D01*
X9333571Y-24745714D01*
X9324048Y-24755238D01*
X9314524Y-24774286D01*
X9314524Y-24812381D01*
X9324048Y-24831428D01*
X9333571Y-24840952D01*
X9352619Y-24850476D01*
X9390714Y-24850476D01*
X9409762Y-24840952D01*
X9419286Y-24831428D01*
X9428810Y-24812381D01*
X9428810Y-24774286D01*
X9419286Y-24755238D01*
X9409762Y-24745714D01*
X9390714Y-24736190D01*
X9619286Y-24850476D02*
X9505000Y-24850476D01*
X9562143Y-24850476D02*
X9562143Y-24650476D01*
X9543095Y-24679048D01*
X9524048Y-24698095D01*
X9505000Y-24707619D01*
X9695476Y-24650476D02*
X9695476Y-24688571D01*
X9771667Y-24650476D02*
X9771667Y-24688571D01*
X10066905Y-24926667D02*
X10057381Y-24917143D01*
X10038333Y-24888571D01*
X10028810Y-24869524D01*
X10019286Y-24840952D01*
X10009762Y-24793333D01*
X10009762Y-24755238D01*
X10019286Y-24707619D01*
X10028810Y-24679048D01*
X10038333Y-24660000D01*
X10057381Y-24631428D01*
X10066905Y-24621905D01*
X10247857Y-24850476D02*
X10133571Y-24850476D01*
X10190714Y-24850476D02*
X10190714Y-24650476D01*
X10171667Y-24679048D01*
X10152619Y-24698095D01*
X10133571Y-24707619D01*
X10324048Y-24669524D02*
X10333571Y-24660000D01*
X10352619Y-24650476D01*
X10400238Y-24650476D01*
X10419286Y-24660000D01*
X10428810Y-24669524D01*
X10438333Y-24688571D01*
X10438333Y-24707619D01*
X10428810Y-24736190D01*
X10314524Y-24850476D01*
X10438333Y-24850476D01*
X10552619Y-24736190D02*
X10533571Y-24726667D01*
X10524048Y-24717143D01*
X10514524Y-24698095D01*
X10514524Y-24688571D01*
X10524048Y-24669524D01*
X10533571Y-24660000D01*
X10552619Y-24650476D01*
X10590714Y-24650476D01*
X10609762Y-24660000D01*
X10619286Y-24669524D01*
X10628810Y-24688571D01*
X10628810Y-24698095D01*
X10619286Y-24717143D01*
X10609762Y-24726667D01*
X10590714Y-24736190D01*
X10552619Y-24736190D01*
X10533571Y-24745714D01*
X10524048Y-24755238D01*
X10514524Y-24774286D01*
X10514524Y-24812381D01*
X10524048Y-24831428D01*
X10533571Y-24840952D01*
X10552619Y-24850476D01*
X10590714Y-24850476D01*
X10609762Y-24840952D01*
X10619286Y-24831428D01*
X10628810Y-24812381D01*
X10628810Y-24774286D01*
X10619286Y-24755238D01*
X10609762Y-24745714D01*
X10590714Y-24736190D01*
X10866905Y-24850476D02*
X10866905Y-24650476D01*
X10952619Y-24850476D02*
X10952619Y-24745714D01*
X10943095Y-24726667D01*
X10924048Y-24717143D01*
X10895476Y-24717143D01*
X10876429Y-24726667D01*
X10866905Y-24736190D01*
X11076429Y-24850476D02*
X11057381Y-24840952D01*
X11047857Y-24831428D01*
X11038333Y-24812381D01*
X11038333Y-24755238D01*
X11047857Y-24736190D01*
X11057381Y-24726667D01*
X11076429Y-24717143D01*
X11105000Y-24717143D01*
X11124048Y-24726667D01*
X11133571Y-24736190D01*
X11143095Y-24755238D01*
X11143095Y-24812381D01*
X11133571Y-24831428D01*
X11124048Y-24840952D01*
X11105000Y-24850476D01*
X11076429Y-24850476D01*
X11257381Y-24850476D02*
X11238333Y-24840952D01*
X11228809Y-24821905D01*
X11228809Y-24650476D01*
X11409762Y-24840952D02*
X11390714Y-24850476D01*
X11352619Y-24850476D01*
X11333571Y-24840952D01*
X11324048Y-24821905D01*
X11324048Y-24745714D01*
X11333571Y-24726667D01*
X11352619Y-24717143D01*
X11390714Y-24717143D01*
X11409762Y-24726667D01*
X11419286Y-24745714D01*
X11419286Y-24764762D01*
X11324048Y-24783809D01*
X11495476Y-24840952D02*
X11514524Y-24850476D01*
X11552619Y-24850476D01*
X11571667Y-24840952D01*
X11581190Y-24821905D01*
X11581190Y-24812381D01*
X11571667Y-24793333D01*
X11552619Y-24783809D01*
X11524048Y-24783809D01*
X11505000Y-24774286D01*
X11495476Y-24755238D01*
X11495476Y-24745714D01*
X11505000Y-24726667D01*
X11524048Y-24717143D01*
X11552619Y-24717143D01*
X11571667Y-24726667D01*
X11647857Y-24926667D02*
X11657381Y-24917143D01*
X11676428Y-24888571D01*
X11685952Y-24869524D01*
X11695476Y-24840952D01*
X11705000Y-24793333D01*
X11705000Y-24755238D01*
X11695476Y-24707619D01*
X11685952Y-24679048D01*
X11676428Y-24660000D01*
X11657381Y-24631428D01*
X11647857Y-24621905D01*
X12009762Y-24926667D02*
X12000238Y-24917143D01*
X11981190Y-24888571D01*
X11971667Y-24869524D01*
X11962143Y-24840952D01*
X11952619Y-24793333D01*
X11952619Y-24755238D01*
X11962143Y-24707619D01*
X11971667Y-24679048D01*
X11981190Y-24660000D01*
X12000238Y-24631428D01*
X12009762Y-24621905D01*
X12085952Y-24717143D02*
X12085952Y-24850476D01*
X12085952Y-24736190D02*
X12095476Y-24726667D01*
X12114524Y-24717143D01*
X12143095Y-24717143D01*
X12162143Y-24726667D01*
X12171667Y-24745714D01*
X12171667Y-24850476D01*
X12295476Y-24850476D02*
X12276428Y-24840952D01*
X12266905Y-24831428D01*
X12257381Y-24812381D01*
X12257381Y-24755238D01*
X12266905Y-24736190D01*
X12276428Y-24726667D01*
X12295476Y-24717143D01*
X12324048Y-24717143D01*
X12343095Y-24726667D01*
X12352619Y-24736190D01*
X12362143Y-24755238D01*
X12362143Y-24812381D01*
X12352619Y-24831428D01*
X12343095Y-24840952D01*
X12324048Y-24850476D01*
X12295476Y-24850476D01*
X12419286Y-24717143D02*
X12495476Y-24717143D01*
X12447857Y-24650476D02*
X12447857Y-24821905D01*
X12457381Y-24840952D01*
X12476428Y-24850476D01*
X12495476Y-24850476D01*
X12714524Y-24717143D02*
X12714524Y-24917143D01*
X12714524Y-24726667D02*
X12733571Y-24717143D01*
X12771667Y-24717143D01*
X12790714Y-24726667D01*
X12800238Y-24736190D01*
X12809762Y-24755238D01*
X12809762Y-24812381D01*
X12800238Y-24831428D01*
X12790714Y-24840952D01*
X12771667Y-24850476D01*
X12733571Y-24850476D01*
X12714524Y-24840952D01*
X12924048Y-24850476D02*
X12905000Y-24840952D01*
X12895476Y-24821905D01*
X12895476Y-24650476D01*
X13085952Y-24850476D02*
X13085952Y-24745714D01*
X13076428Y-24726667D01*
X13057381Y-24717143D01*
X13019286Y-24717143D01*
X13000238Y-24726667D01*
X13085952Y-24840952D02*
X13066905Y-24850476D01*
X13019286Y-24850476D01*
X13000238Y-24840952D01*
X12990714Y-24821905D01*
X12990714Y-24802857D01*
X13000238Y-24783809D01*
X13019286Y-24774286D01*
X13066905Y-24774286D01*
X13085952Y-24764762D01*
X13152619Y-24717143D02*
X13228809Y-24717143D01*
X13181190Y-24650476D02*
X13181190Y-24821905D01*
X13190714Y-24840952D01*
X13209762Y-24850476D01*
X13228809Y-24850476D01*
X13371667Y-24840952D02*
X13352619Y-24850476D01*
X13314524Y-24850476D01*
X13295476Y-24840952D01*
X13285952Y-24821905D01*
X13285952Y-24745714D01*
X13295476Y-24726667D01*
X13314524Y-24717143D01*
X13352619Y-24717143D01*
X13371667Y-24726667D01*
X13381190Y-24745714D01*
X13381190Y-24764762D01*
X13285952Y-24783809D01*
X13552619Y-24850476D02*
X13552619Y-24650476D01*
X13552619Y-24840952D02*
X13533571Y-24850476D01*
X13495476Y-24850476D01*
X13476428Y-24840952D01*
X13466905Y-24831428D01*
X13457381Y-24812381D01*
X13457381Y-24755238D01*
X13466905Y-24736190D01*
X13476428Y-24726667D01*
X13495476Y-24717143D01*
X13533571Y-24717143D01*
X13552619Y-24726667D01*
X13628809Y-24926667D02*
X13638333Y-24917143D01*
X13657381Y-24888571D01*
X13666905Y-24869524D01*
X13676428Y-24840952D01*
X13685952Y-24793333D01*
X13685952Y-24755238D01*
X13676428Y-24707619D01*
X13666905Y-24679048D01*
X13657381Y-24660000D01*
X13638333Y-24631428D01*
X13628809Y-24621905D01*
X6465711Y-25150711D02*
X6465711Y-25009289D01*
X6324289Y-25009289D01*
X6324289Y-25150711D01*
X6465711Y-25150711D01*
X6733571Y-24970476D02*
X6857381Y-24970476D01*
X6790714Y-25046667D01*
X6819286Y-25046667D01*
X6838333Y-25056190D01*
X6847857Y-25065714D01*
X6857381Y-25084762D01*
X6857381Y-25132381D01*
X6847857Y-25151428D01*
X6838333Y-25160952D01*
X6819286Y-25170476D01*
X6762143Y-25170476D01*
X6743095Y-25160952D01*
X6733571Y-25151428D01*
X6943095Y-25151428D02*
X6952619Y-25160952D01*
X6943095Y-25170476D01*
X6933571Y-25160952D01*
X6943095Y-25151428D01*
X6943095Y-25170476D01*
X7076428Y-24970476D02*
X7095476Y-24970476D01*
X7114524Y-24980000D01*
X7124048Y-24989524D01*
X7133571Y-25008571D01*
X7143095Y-25046667D01*
X7143095Y-25094286D01*
X7133571Y-25132381D01*
X7124048Y-25151428D01*
X7114524Y-25160952D01*
X7095476Y-25170476D01*
X7076428Y-25170476D01*
X7057381Y-25160952D01*
X7047857Y-25151428D01*
X7038333Y-25132381D01*
X7028809Y-25094286D01*
X7028809Y-25046667D01*
X7038333Y-25008571D01*
X7047857Y-24989524D01*
X7057381Y-24980000D01*
X7076428Y-24970476D01*
X7314524Y-25037143D02*
X7314524Y-25170476D01*
X7266905Y-24960952D02*
X7219286Y-25103809D01*
X7343095Y-25103809D01*
X7447857Y-25056190D02*
X7428809Y-25046667D01*
X7419286Y-25037143D01*
X7409762Y-25018095D01*
X7409762Y-25008571D01*
X7419286Y-24989524D01*
X7428809Y-24980000D01*
X7447857Y-24970476D01*
X7485952Y-24970476D01*
X7505000Y-24980000D01*
X7514524Y-24989524D01*
X7524048Y-25008571D01*
X7524048Y-25018095D01*
X7514524Y-25037143D01*
X7505000Y-25046667D01*
X7485952Y-25056190D01*
X7447857Y-25056190D01*
X7428809Y-25065714D01*
X7419286Y-25075238D01*
X7409762Y-25094286D01*
X7409762Y-25132381D01*
X7419286Y-25151428D01*
X7428809Y-25160952D01*
X7447857Y-25170476D01*
X7485952Y-25170476D01*
X7505000Y-25160952D01*
X7514524Y-25151428D01*
X7524048Y-25132381D01*
X7524048Y-25094286D01*
X7514524Y-25075238D01*
X7505000Y-25065714D01*
X7485952Y-25056190D01*
X7609762Y-25170476D02*
X7609762Y-25037143D01*
X7609762Y-25056190D02*
X7619286Y-25046667D01*
X7638333Y-25037143D01*
X7666905Y-25037143D01*
X7685952Y-25046667D01*
X7695476Y-25065714D01*
X7695476Y-25170476D01*
X7695476Y-25065714D02*
X7705000Y-25046667D01*
X7724048Y-25037143D01*
X7752619Y-25037143D01*
X7771667Y-25046667D01*
X7781190Y-25065714D01*
X7781190Y-25170476D01*
X7876428Y-25170476D02*
X7876428Y-25037143D01*
X7876428Y-25056190D02*
X7885952Y-25046667D01*
X7905000Y-25037143D01*
X7933571Y-25037143D01*
X7952619Y-25046667D01*
X7962143Y-25065714D01*
X7962143Y-25170476D01*
X7962143Y-25065714D02*
X7971667Y-25046667D01*
X7990714Y-25037143D01*
X8019286Y-25037143D01*
X8038333Y-25046667D01*
X8047857Y-25065714D01*
X8047857Y-25170476D01*
X8438333Y-24960952D02*
X8266905Y-25218095D01*
X8695476Y-24970476D02*
X8714524Y-24970476D01*
X8733571Y-24980000D01*
X8743095Y-24989524D01*
X8752619Y-25008571D01*
X8762143Y-25046667D01*
X8762143Y-25094286D01*
X8752619Y-25132381D01*
X8743095Y-25151428D01*
X8733571Y-25160952D01*
X8714524Y-25170476D01*
X8695476Y-25170476D01*
X8676429Y-25160952D01*
X8666905Y-25151428D01*
X8657381Y-25132381D01*
X8647857Y-25094286D01*
X8647857Y-25046667D01*
X8657381Y-25008571D01*
X8666905Y-24989524D01*
X8676429Y-24980000D01*
X8695476Y-24970476D01*
X8847857Y-25151428D02*
X8857381Y-25160952D01*
X8847857Y-25170476D01*
X8838333Y-25160952D01*
X8847857Y-25151428D01*
X8847857Y-25170476D01*
X9047857Y-25170476D02*
X8933571Y-25170476D01*
X8990714Y-25170476D02*
X8990714Y-24970476D01*
X8971667Y-24999048D01*
X8952619Y-25018095D01*
X8933571Y-25027619D01*
X9124048Y-24989524D02*
X9133571Y-24980000D01*
X9152619Y-24970476D01*
X9200238Y-24970476D01*
X9219286Y-24980000D01*
X9228810Y-24989524D01*
X9238333Y-25008571D01*
X9238333Y-25027619D01*
X9228810Y-25056190D01*
X9114524Y-25170476D01*
X9238333Y-25170476D01*
X9362143Y-24970476D02*
X9381190Y-24970476D01*
X9400238Y-24980000D01*
X9409762Y-24989524D01*
X9419286Y-25008571D01*
X9428810Y-25046667D01*
X9428810Y-25094286D01*
X9419286Y-25132381D01*
X9409762Y-25151428D01*
X9400238Y-25160952D01*
X9381190Y-25170476D01*
X9362143Y-25170476D01*
X9343095Y-25160952D01*
X9333571Y-25151428D01*
X9324048Y-25132381D01*
X9314524Y-25094286D01*
X9314524Y-25046667D01*
X9324048Y-25008571D01*
X9333571Y-24989524D01*
X9343095Y-24980000D01*
X9362143Y-24970476D01*
X9552619Y-24970476D02*
X9571667Y-24970476D01*
X9590714Y-24980000D01*
X9600238Y-24989524D01*
X9609762Y-25008571D01*
X9619286Y-25046667D01*
X9619286Y-25094286D01*
X9609762Y-25132381D01*
X9600238Y-25151428D01*
X9590714Y-25160952D01*
X9571667Y-25170476D01*
X9552619Y-25170476D01*
X9533571Y-25160952D01*
X9524048Y-25151428D01*
X9514524Y-25132381D01*
X9505000Y-25094286D01*
X9505000Y-25046667D01*
X9514524Y-25008571D01*
X9524048Y-24989524D01*
X9533571Y-24980000D01*
X9552619Y-24970476D01*
X9695476Y-24970476D02*
X9695476Y-25008571D01*
X9771667Y-24970476D02*
X9771667Y-25008571D01*
X10066905Y-25246667D02*
X10057381Y-25237143D01*
X10038333Y-25208571D01*
X10028810Y-25189524D01*
X10019286Y-25160952D01*
X10009762Y-25113333D01*
X10009762Y-25075238D01*
X10019286Y-25027619D01*
X10028810Y-24999048D01*
X10038333Y-24980000D01*
X10057381Y-24951428D01*
X10066905Y-24941905D01*
X10247857Y-25170476D02*
X10133571Y-25170476D01*
X10190714Y-25170476D02*
X10190714Y-24970476D01*
X10171667Y-24999048D01*
X10152619Y-25018095D01*
X10133571Y-25027619D01*
X10371667Y-24970476D02*
X10390714Y-24970476D01*
X10409762Y-24980000D01*
X10419286Y-24989524D01*
X10428810Y-25008571D01*
X10438333Y-25046667D01*
X10438333Y-25094286D01*
X10428810Y-25132381D01*
X10419286Y-25151428D01*
X10409762Y-25160952D01*
X10390714Y-25170476D01*
X10371667Y-25170476D01*
X10352619Y-25160952D01*
X10343095Y-25151428D01*
X10333571Y-25132381D01*
X10324048Y-25094286D01*
X10324048Y-25046667D01*
X10333571Y-25008571D01*
X10343095Y-24989524D01*
X10352619Y-24980000D01*
X10371667Y-24970476D01*
X10676429Y-25170476D02*
X10676429Y-24970476D01*
X10762143Y-25170476D02*
X10762143Y-25065714D01*
X10752619Y-25046667D01*
X10733571Y-25037143D01*
X10705000Y-25037143D01*
X10685952Y-25046667D01*
X10676429Y-25056190D01*
X10885952Y-25170476D02*
X10866905Y-25160952D01*
X10857381Y-25151428D01*
X10847857Y-25132381D01*
X10847857Y-25075238D01*
X10857381Y-25056190D01*
X10866905Y-25046667D01*
X10885952Y-25037143D01*
X10914524Y-25037143D01*
X10933571Y-25046667D01*
X10943095Y-25056190D01*
X10952619Y-25075238D01*
X10952619Y-25132381D01*
X10943095Y-25151428D01*
X10933571Y-25160952D01*
X10914524Y-25170476D01*
X10885952Y-25170476D01*
X11066905Y-25170476D02*
X11047857Y-25160952D01*
X11038333Y-25141905D01*
X11038333Y-24970476D01*
X11219286Y-25160952D02*
X11200238Y-25170476D01*
X11162143Y-25170476D01*
X11143095Y-25160952D01*
X11133571Y-25141905D01*
X11133571Y-25065714D01*
X11143095Y-25046667D01*
X11162143Y-25037143D01*
X11200238Y-25037143D01*
X11219286Y-25046667D01*
X11228809Y-25065714D01*
X11228809Y-25084762D01*
X11133571Y-25103809D01*
X11305000Y-25160952D02*
X11324048Y-25170476D01*
X11362143Y-25170476D01*
X11381190Y-25160952D01*
X11390714Y-25141905D01*
X11390714Y-25132381D01*
X11381190Y-25113333D01*
X11362143Y-25103809D01*
X11333571Y-25103809D01*
X11314524Y-25094286D01*
X11305000Y-25075238D01*
X11305000Y-25065714D01*
X11314524Y-25046667D01*
X11333571Y-25037143D01*
X11362143Y-25037143D01*
X11381190Y-25046667D01*
X11457381Y-25246667D02*
X11466905Y-25237143D01*
X11485952Y-25208571D01*
X11495476Y-25189524D01*
X11505000Y-25160952D01*
X11514524Y-25113333D01*
X11514524Y-25075238D01*
X11505000Y-25027619D01*
X11495476Y-24999048D01*
X11485952Y-24980000D01*
X11466905Y-24951428D01*
X11457381Y-24941905D01*
X11819286Y-25246667D02*
X11809762Y-25237143D01*
X11790714Y-25208571D01*
X11781190Y-25189524D01*
X11771667Y-25160952D01*
X11762143Y-25113333D01*
X11762143Y-25075238D01*
X11771667Y-25027619D01*
X11781190Y-24999048D01*
X11790714Y-24980000D01*
X11809762Y-24951428D01*
X11819286Y-24941905D01*
X11895476Y-25037143D02*
X11895476Y-25170476D01*
X11895476Y-25056190D02*
X11905000Y-25046667D01*
X11924048Y-25037143D01*
X11952619Y-25037143D01*
X11971667Y-25046667D01*
X11981190Y-25065714D01*
X11981190Y-25170476D01*
X12105000Y-25170476D02*
X12085952Y-25160952D01*
X12076428Y-25151428D01*
X12066905Y-25132381D01*
X12066905Y-25075238D01*
X12076428Y-25056190D01*
X12085952Y-25046667D01*
X12105000Y-25037143D01*
X12133571Y-25037143D01*
X12152619Y-25046667D01*
X12162143Y-25056190D01*
X12171667Y-25075238D01*
X12171667Y-25132381D01*
X12162143Y-25151428D01*
X12152619Y-25160952D01*
X12133571Y-25170476D01*
X12105000Y-25170476D01*
X12228809Y-25037143D02*
X12305000Y-25037143D01*
X12257381Y-24970476D02*
X12257381Y-25141905D01*
X12266905Y-25160952D01*
X12285952Y-25170476D01*
X12305000Y-25170476D01*
X12524048Y-25037143D02*
X12524048Y-25237143D01*
X12524048Y-25046667D02*
X12543095Y-25037143D01*
X12581190Y-25037143D01*
X12600238Y-25046667D01*
X12609762Y-25056190D01*
X12619286Y-25075238D01*
X12619286Y-25132381D01*
X12609762Y-25151428D01*
X12600238Y-25160952D01*
X12581190Y-25170476D01*
X12543095Y-25170476D01*
X12524048Y-25160952D01*
X12733571Y-25170476D02*
X12714524Y-25160952D01*
X12705000Y-25141905D01*
X12705000Y-24970476D01*
X12895476Y-25170476D02*
X12895476Y-25065714D01*
X12885952Y-25046667D01*
X12866905Y-25037143D01*
X12828809Y-25037143D01*
X12809762Y-25046667D01*
X12895476Y-25160952D02*
X12876428Y-25170476D01*
X12828809Y-25170476D01*
X12809762Y-25160952D01*
X12800238Y-25141905D01*
X12800238Y-25122857D01*
X12809762Y-25103809D01*
X12828809Y-25094286D01*
X12876428Y-25094286D01*
X12895476Y-25084762D01*
X12962143Y-25037143D02*
X13038333Y-25037143D01*
X12990714Y-24970476D02*
X12990714Y-25141905D01*
X13000238Y-25160952D01*
X13019286Y-25170476D01*
X13038333Y-25170476D01*
X13181190Y-25160952D02*
X13162143Y-25170476D01*
X13124048Y-25170476D01*
X13105000Y-25160952D01*
X13095476Y-25141905D01*
X13095476Y-25065714D01*
X13105000Y-25046667D01*
X13124048Y-25037143D01*
X13162143Y-25037143D01*
X13181190Y-25046667D01*
X13190714Y-25065714D01*
X13190714Y-25084762D01*
X13095476Y-25103809D01*
X13362143Y-25170476D02*
X13362143Y-24970476D01*
X13362143Y-25160952D02*
X13343095Y-25170476D01*
X13305000Y-25170476D01*
X13285952Y-25160952D01*
X13276428Y-25151428D01*
X13266905Y-25132381D01*
X13266905Y-25075238D01*
X13276428Y-25056190D01*
X13285952Y-25046667D01*
X13305000Y-25037143D01*
X13343095Y-25037143D01*
X13362143Y-25046667D01*
X13438333Y-25246667D02*
X13447857Y-25237143D01*
X13466905Y-25208571D01*
X13476428Y-25189524D01*
X13485952Y-25160952D01*
X13495476Y-25113333D01*
X13495476Y-25075238D01*
X13485952Y-25027619D01*
X13476428Y-24999048D01*
X13466905Y-24980000D01*
X13447857Y-24951428D01*
X13438333Y-24941905D01*
X6395000Y-25500000D02*
X6495000Y-25400000D01*
X6395000Y-25300000D01*
X6295000Y-25400000D01*
X6395000Y-25500000D01*
X6733571Y-25290476D02*
X6857381Y-25290476D01*
X6790714Y-25366667D01*
X6819286Y-25366667D01*
X6838333Y-25376190D01*
X6847857Y-25385714D01*
X6857381Y-25404762D01*
X6857381Y-25452381D01*
X6847857Y-25471428D01*
X6838333Y-25480952D01*
X6819286Y-25490476D01*
X6762143Y-25490476D01*
X6743095Y-25480952D01*
X6733571Y-25471428D01*
X6943095Y-25471428D02*
X6952619Y-25480952D01*
X6943095Y-25490476D01*
X6933571Y-25480952D01*
X6943095Y-25471428D01*
X6943095Y-25490476D01*
X7047857Y-25490476D02*
X7085952Y-25490476D01*
X7105000Y-25480952D01*
X7114524Y-25471428D01*
X7133571Y-25442857D01*
X7143095Y-25404762D01*
X7143095Y-25328571D01*
X7133571Y-25309524D01*
X7124048Y-25300000D01*
X7105000Y-25290476D01*
X7066905Y-25290476D01*
X7047857Y-25300000D01*
X7038333Y-25309524D01*
X7028809Y-25328571D01*
X7028809Y-25376190D01*
X7038333Y-25395238D01*
X7047857Y-25404762D01*
X7066905Y-25414286D01*
X7105000Y-25414286D01*
X7124048Y-25404762D01*
X7133571Y-25395238D01*
X7143095Y-25376190D01*
X7257381Y-25376190D02*
X7238333Y-25366667D01*
X7228809Y-25357143D01*
X7219286Y-25338095D01*
X7219286Y-25328571D01*
X7228809Y-25309524D01*
X7238333Y-25300000D01*
X7257381Y-25290476D01*
X7295476Y-25290476D01*
X7314524Y-25300000D01*
X7324048Y-25309524D01*
X7333571Y-25328571D01*
X7333571Y-25338095D01*
X7324048Y-25357143D01*
X7314524Y-25366667D01*
X7295476Y-25376190D01*
X7257381Y-25376190D01*
X7238333Y-25385714D01*
X7228809Y-25395238D01*
X7219286Y-25414286D01*
X7219286Y-25452381D01*
X7228809Y-25471428D01*
X7238333Y-25480952D01*
X7257381Y-25490476D01*
X7295476Y-25490476D01*
X7314524Y-25480952D01*
X7324048Y-25471428D01*
X7333571Y-25452381D01*
X7333571Y-25414286D01*
X7324048Y-25395238D01*
X7314524Y-25385714D01*
X7295476Y-25376190D01*
X7447857Y-25376190D02*
X7428809Y-25366667D01*
X7419286Y-25357143D01*
X7409762Y-25338095D01*
X7409762Y-25328571D01*
X7419286Y-25309524D01*
X7428809Y-25300000D01*
X7447857Y-25290476D01*
X7485952Y-25290476D01*
X7505000Y-25300000D01*
X7514524Y-25309524D01*
X7524048Y-25328571D01*
X7524048Y-25338095D01*
X7514524Y-25357143D01*
X7505000Y-25366667D01*
X7485952Y-25376190D01*
X7447857Y-25376190D01*
X7428809Y-25385714D01*
X7419286Y-25395238D01*
X7409762Y-25414286D01*
X7409762Y-25452381D01*
X7419286Y-25471428D01*
X7428809Y-25480952D01*
X7447857Y-25490476D01*
X7485952Y-25490476D01*
X7505000Y-25480952D01*
X7514524Y-25471428D01*
X7524048Y-25452381D01*
X7524048Y-25414286D01*
X7514524Y-25395238D01*
X7505000Y-25385714D01*
X7485952Y-25376190D01*
X7609762Y-25490476D02*
X7609762Y-25357143D01*
X7609762Y-25376190D02*
X7619286Y-25366667D01*
X7638333Y-25357143D01*
X7666905Y-25357143D01*
X7685952Y-25366667D01*
X7695476Y-25385714D01*
X7695476Y-25490476D01*
X7695476Y-25385714D02*
X7705000Y-25366667D01*
X7724048Y-25357143D01*
X7752619Y-25357143D01*
X7771667Y-25366667D01*
X7781190Y-25385714D01*
X7781190Y-25490476D01*
X7876428Y-25490476D02*
X7876428Y-25357143D01*
X7876428Y-25376190D02*
X7885952Y-25366667D01*
X7905000Y-25357143D01*
X7933571Y-25357143D01*
X7952619Y-25366667D01*
X7962143Y-25385714D01*
X7962143Y-25490476D01*
X7962143Y-25385714D02*
X7971667Y-25366667D01*
X7990714Y-25357143D01*
X8019286Y-25357143D01*
X8038333Y-25366667D01*
X8047857Y-25385714D01*
X8047857Y-25490476D01*
X8438333Y-25280952D02*
X8266905Y-25538095D01*
X8695476Y-25290476D02*
X8714524Y-25290476D01*
X8733571Y-25300000D01*
X8743095Y-25309524D01*
X8752619Y-25328571D01*
X8762143Y-25366667D01*
X8762143Y-25414286D01*
X8752619Y-25452381D01*
X8743095Y-25471428D01*
X8733571Y-25480952D01*
X8714524Y-25490476D01*
X8695476Y-25490476D01*
X8676429Y-25480952D01*
X8666905Y-25471428D01*
X8657381Y-25452381D01*
X8647857Y-25414286D01*
X8647857Y-25366667D01*
X8657381Y-25328571D01*
X8666905Y-25309524D01*
X8676429Y-25300000D01*
X8695476Y-25290476D01*
X8847857Y-25471428D02*
X8857381Y-25480952D01*
X8847857Y-25490476D01*
X8838333Y-25480952D01*
X8847857Y-25471428D01*
X8847857Y-25490476D01*
X9047857Y-25490476D02*
X8933571Y-25490476D01*
X8990714Y-25490476D02*
X8990714Y-25290476D01*
X8971667Y-25319048D01*
X8952619Y-25338095D01*
X8933571Y-25347619D01*
X9228810Y-25290476D02*
X9133571Y-25290476D01*
X9124048Y-25385714D01*
X9133571Y-25376190D01*
X9152619Y-25366667D01*
X9200238Y-25366667D01*
X9219286Y-25376190D01*
X9228810Y-25385714D01*
X9238333Y-25404762D01*
X9238333Y-25452381D01*
X9228810Y-25471428D01*
X9219286Y-25480952D01*
X9200238Y-25490476D01*
X9152619Y-25490476D01*
X9133571Y-25480952D01*
X9124048Y-25471428D01*
X9305000Y-25290476D02*
X9438333Y-25290476D01*
X9352619Y-25490476D01*
X9552619Y-25290476D02*
X9571667Y-25290476D01*
X9590714Y-25300000D01*
X9600238Y-25309524D01*
X9609762Y-25328571D01*
X9619286Y-25366667D01*
X9619286Y-25414286D01*
X9609762Y-25452381D01*
X9600238Y-25471428D01*
X9590714Y-25480952D01*
X9571667Y-25490476D01*
X9552619Y-25490476D01*
X9533571Y-25480952D01*
X9524048Y-25471428D01*
X9514524Y-25452381D01*
X9505000Y-25414286D01*
X9505000Y-25366667D01*
X9514524Y-25328571D01*
X9524048Y-25309524D01*
X9533571Y-25300000D01*
X9552619Y-25290476D01*
X9695476Y-25290476D02*
X9695476Y-25328571D01*
X9771667Y-25290476D02*
X9771667Y-25328571D01*
X10066905Y-25566667D02*
X10057381Y-25557143D01*
X10038333Y-25528571D01*
X10028810Y-25509524D01*
X10019286Y-25480952D01*
X10009762Y-25433333D01*
X10009762Y-25395238D01*
X10019286Y-25347619D01*
X10028810Y-25319048D01*
X10038333Y-25300000D01*
X10057381Y-25271428D01*
X10066905Y-25261905D01*
X10124048Y-25290476D02*
X10257381Y-25290476D01*
X10171667Y-25490476D01*
X10419286Y-25357143D02*
X10419286Y-25490476D01*
X10371667Y-25280952D02*
X10324048Y-25423809D01*
X10447857Y-25423809D01*
X10676429Y-25490476D02*
X10676429Y-25290476D01*
X10762143Y-25490476D02*
X10762143Y-25385714D01*
X10752619Y-25366667D01*
X10733571Y-25357143D01*
X10705000Y-25357143D01*
X10685952Y-25366667D01*
X10676429Y-25376190D01*
X10885952Y-25490476D02*
X10866905Y-25480952D01*
X10857381Y-25471428D01*
X10847857Y-25452381D01*
X10847857Y-25395238D01*
X10857381Y-25376190D01*
X10866905Y-25366667D01*
X10885952Y-25357143D01*
X10914524Y-25357143D01*
X10933571Y-25366667D01*
X10943095Y-25376190D01*
X10952619Y-25395238D01*
X10952619Y-25452381D01*
X10943095Y-25471428D01*
X10933571Y-25480952D01*
X10914524Y-25490476D01*
X10885952Y-25490476D01*
X11066905Y-25490476D02*
X11047857Y-25480952D01*
X11038333Y-25461905D01*
X11038333Y-25290476D01*
X11219286Y-25480952D02*
X11200238Y-25490476D01*
X11162143Y-25490476D01*
X11143095Y-25480952D01*
X11133571Y-25461905D01*
X11133571Y-25385714D01*
X11143095Y-25366667D01*
X11162143Y-25357143D01*
X11200238Y-25357143D01*
X11219286Y-25366667D01*
X11228809Y-25385714D01*
X11228809Y-25404762D01*
X11133571Y-25423809D01*
X11305000Y-25480952D02*
X11324048Y-25490476D01*
X11362143Y-25490476D01*
X11381190Y-25480952D01*
X11390714Y-25461905D01*
X11390714Y-25452381D01*
X11381190Y-25433333D01*
X11362143Y-25423809D01*
X11333571Y-25423809D01*
X11314524Y-25414286D01*
X11305000Y-25395238D01*
X11305000Y-25385714D01*
X11314524Y-25366667D01*
X11333571Y-25357143D01*
X11362143Y-25357143D01*
X11381190Y-25366667D01*
X11457381Y-25566667D02*
X11466905Y-25557143D01*
X11485952Y-25528571D01*
X11495476Y-25509524D01*
X11505000Y-25480952D01*
X11514524Y-25433333D01*
X11514524Y-25395238D01*
X11505000Y-25347619D01*
X11495476Y-25319048D01*
X11485952Y-25300000D01*
X11466905Y-25271428D01*
X11457381Y-25261905D01*
X11819286Y-25566667D02*
X11809762Y-25557143D01*
X11790714Y-25528571D01*
X11781190Y-25509524D01*
X11771667Y-25480952D01*
X11762143Y-25433333D01*
X11762143Y-25395238D01*
X11771667Y-25347619D01*
X11781190Y-25319048D01*
X11790714Y-25300000D01*
X11809762Y-25271428D01*
X11819286Y-25261905D01*
X11895476Y-25357143D02*
X11895476Y-25490476D01*
X11895476Y-25376190D02*
X11905000Y-25366667D01*
X11924048Y-25357143D01*
X11952619Y-25357143D01*
X11971667Y-25366667D01*
X11981190Y-25385714D01*
X11981190Y-25490476D01*
X12105000Y-25490476D02*
X12085952Y-25480952D01*
X12076428Y-25471428D01*
X12066905Y-25452381D01*
X12066905Y-25395238D01*
X12076428Y-25376190D01*
X12085952Y-25366667D01*
X12105000Y-25357143D01*
X12133571Y-25357143D01*
X12152619Y-25366667D01*
X12162143Y-25376190D01*
X12171667Y-25395238D01*
X12171667Y-25452381D01*
X12162143Y-25471428D01*
X12152619Y-25480952D01*
X12133571Y-25490476D01*
X12105000Y-25490476D01*
X12228809Y-25357143D02*
X12305000Y-25357143D01*
X12257381Y-25290476D02*
X12257381Y-25461905D01*
X12266905Y-25480952D01*
X12285952Y-25490476D01*
X12305000Y-25490476D01*
X12524048Y-25357143D02*
X12524048Y-25557143D01*
X12524048Y-25366667D02*
X12543095Y-25357143D01*
X12581190Y-25357143D01*
X12600238Y-25366667D01*
X12609762Y-25376190D01*
X12619286Y-25395238D01*
X12619286Y-25452381D01*
X12609762Y-25471428D01*
X12600238Y-25480952D01*
X12581190Y-25490476D01*
X12543095Y-25490476D01*
X12524048Y-25480952D01*
X12733571Y-25490476D02*
X12714524Y-25480952D01*
X12705000Y-25461905D01*
X12705000Y-25290476D01*
X12895476Y-25490476D02*
X12895476Y-25385714D01*
X12885952Y-25366667D01*
X12866905Y-25357143D01*
X12828809Y-25357143D01*
X12809762Y-25366667D01*
X12895476Y-25480952D02*
X12876428Y-25490476D01*
X12828809Y-25490476D01*
X12809762Y-25480952D01*
X12800238Y-25461905D01*
X12800238Y-25442857D01*
X12809762Y-25423809D01*
X12828809Y-25414286D01*
X12876428Y-25414286D01*
X12895476Y-25404762D01*
X12962143Y-25357143D02*
X13038333Y-25357143D01*
X12990714Y-25290476D02*
X12990714Y-25461905D01*
X13000238Y-25480952D01*
X13019286Y-25490476D01*
X13038333Y-25490476D01*
X13181190Y-25480952D02*
X13162143Y-25490476D01*
X13124048Y-25490476D01*
X13105000Y-25480952D01*
X13095476Y-25461905D01*
X13095476Y-25385714D01*
X13105000Y-25366667D01*
X13124048Y-25357143D01*
X13162143Y-25357143D01*
X13181190Y-25366667D01*
X13190714Y-25385714D01*
X13190714Y-25404762D01*
X13095476Y-25423809D01*
X13362143Y-25490476D02*
X13362143Y-25290476D01*
X13362143Y-25480952D02*
X13343095Y-25490476D01*
X13305000Y-25490476D01*
X13285952Y-25480952D01*
X13276428Y-25471428D01*
X13266905Y-25452381D01*
X13266905Y-25395238D01*
X13276428Y-25376190D01*
X13285952Y-25366667D01*
X13305000Y-25357143D01*
X13343095Y-25357143D01*
X13362143Y-25366667D01*
X13438333Y-25566667D02*
X13447857Y-25557143D01*
X13466905Y-25528571D01*
X13476428Y-25509524D01*
X13485952Y-25480952D01*
X13495476Y-25433333D01*
X13495476Y-25395238D01*
X13485952Y-25347619D01*
X13476428Y-25319048D01*
X13466905Y-25300000D01*
X13447857Y-25271428D01*
X13438333Y-25261905D01*
M02*
