%TF.GenerationSoftware,KiCad,Pcbnew,(6.0.7-1)-1*%
%TF.CreationDate,2022-10-01T18:19:12+02:00*%
%TF.ProjectId,staggered-keyboard,73746167-6765-4726-9564-2d6b6579626f,rev?*%
%TF.SameCoordinates,Original*%
%TF.FileFunction,Legend,Top*%
%TF.FilePolarity,Positive*%
%FSLAX46Y46*%
G04 Gerber Fmt 4.6, Leading zero omitted, Abs format (unit mm)*
G04 Created by KiCad (PCBNEW (6.0.7-1)-1) date 2022-10-01 18:19:12*
%MOMM*%
%LPD*%
G01*
G04 APERTURE LIST*
%ADD10C,0.500000*%
%ADD11C,0.150000*%
%ADD12R,1.600000X1.600000*%
%ADD13C,1.600000*%
G04 APERTURE END LIST*
D10*
X69955267Y-232578571D02*
X69830267Y-232435714D01*
X69562410Y-232292857D01*
X69276696Y-232292857D01*
X68973125Y-232435714D01*
X68812410Y-232578571D01*
X68633839Y-232864285D01*
X68598125Y-233150000D01*
X68705267Y-233435714D01*
X68830267Y-233578571D01*
X69098125Y-233721428D01*
X69383839Y-233721428D01*
X69687410Y-233578571D01*
X69848125Y-233435714D01*
X69990982Y-232292857D02*
X69848125Y-233435714D01*
X69973125Y-233578571D01*
X70115982Y-233578571D01*
X70419553Y-233435714D01*
X70598125Y-233150000D01*
X70687410Y-232435714D01*
X70455267Y-232007142D01*
X70062410Y-231721428D01*
X69508839Y-231578571D01*
X68919553Y-231721428D01*
X68455267Y-232007142D01*
X68115982Y-232435714D01*
X67901696Y-233007142D01*
X67973125Y-233578571D01*
X68205267Y-234007142D01*
X68598125Y-234292857D01*
X69151696Y-234435714D01*
X69740982Y-234292857D01*
X70205267Y-234007142D01*
X71776696Y-234007142D02*
X72151696Y-231007142D01*
X73294553Y-231007142D01*
X73562410Y-231150000D01*
X73687410Y-231292857D01*
X73794553Y-231578571D01*
X73740982Y-232007142D01*
X73562410Y-232292857D01*
X73401696Y-232435714D01*
X73098125Y-232578571D01*
X71955267Y-232578571D01*
X75937410Y-233864285D02*
X75633839Y-234007142D01*
X75062410Y-234007142D01*
X74794553Y-233864285D01*
X74687410Y-233578571D01*
X74830267Y-232435714D01*
X75008839Y-232150000D01*
X75312410Y-232007142D01*
X75883839Y-232007142D01*
X76151696Y-232150000D01*
X76258839Y-232435714D01*
X76223125Y-232721428D01*
X74758839Y-233007142D01*
X78883839Y-232007142D02*
X78633839Y-234007142D01*
X77598125Y-232007142D02*
X77401696Y-233578571D01*
X77508839Y-233864285D01*
X77776696Y-234007142D01*
X78205267Y-234007142D01*
X78508839Y-233864285D01*
X78669553Y-233721428D01*
X80008839Y-231007142D02*
X81723125Y-231007142D01*
X80490982Y-234007142D02*
X80865982Y-231007142D01*
X82348125Y-234007142D02*
X82598125Y-232007142D01*
X82723125Y-231007142D02*
X82562410Y-231150000D01*
X82687410Y-231292857D01*
X82848125Y-231150000D01*
X82723125Y-231007142D01*
X82687410Y-231292857D01*
X83598125Y-232007142D02*
X84740982Y-232007142D01*
X84151696Y-231007142D02*
X83830267Y-233578571D01*
X83937410Y-233864285D01*
X84205267Y-234007142D01*
X84490982Y-234007142D01*
D11*
%TO.C,U1*%
X71870000Y-138130000D02*
X79490000Y-138130000D01*
X66790000Y-140670000D02*
X66790000Y-171150000D01*
X66790000Y-140670000D02*
X71870000Y-140670000D01*
X79490000Y-140670000D02*
X84570000Y-140670000D01*
X71870000Y-140670000D02*
X71870000Y-138130000D01*
X84570000Y-140670000D02*
X84570000Y-171150000D01*
X84570000Y-171150000D02*
X66790000Y-171150000D01*
X79490000Y-138130000D02*
X79490000Y-140670000D01*
%TD*%
D12*
%TO.C,U1*%
X68060000Y-141940000D03*
D13*
X68060000Y-144480000D03*
X68060000Y-147020000D03*
X68060000Y-149560000D03*
X68060000Y-152100000D03*
X68060000Y-154640000D03*
X68060000Y-157180000D03*
X68060000Y-159720000D03*
X68060000Y-162260000D03*
X68060000Y-164800000D03*
X68060000Y-167340000D03*
X68060000Y-169880000D03*
X83300000Y-169880000D03*
X83300000Y-167340000D03*
X83300000Y-164800000D03*
X83300000Y-162260000D03*
X83300000Y-159720000D03*
X83300000Y-157180000D03*
X83300000Y-154640000D03*
X83300000Y-152100000D03*
X83300000Y-149560000D03*
X83300000Y-147020000D03*
X83300000Y-144480000D03*
X83300000Y-141940000D03*
%TD*%
M02*
