%TF.GenerationSoftware,KiCad,Pcbnew,(6.0.7-1)-1*%
%TF.CreationDate,2022-10-01T18:19:12+02:00*%
%TF.ProjectId,staggered-keyboard,73746167-6765-4726-9564-2d6b6579626f,rev?*%
%TF.SameCoordinates,Original*%
%TF.FileFunction,Paste,Bot*%
%TF.FilePolarity,Positive*%
%FSLAX46Y46*%
G04 Gerber Fmt 4.6, Leading zero omitted, Abs format (unit mm)*
G04 Created by KiCad (PCBNEW (6.0.7-1)-1) date 2022-10-01 18:19:12*
%MOMM*%
%LPD*%
G01*
G04 APERTURE LIST*
%ADD10R,2.550000X2.500000*%
%ADD11R,1.200000X0.900000*%
%ADD12R,0.900000X1.200000*%
G04 APERTURE END LIST*
D10*
%TO.C,MX54*%
X338196250Y-203835000D03*
X351123250Y-201295000D03*
%TD*%
%TO.C,MX60*%
X247708750Y-222885000D03*
X260635750Y-220345000D03*
%TD*%
%TO.C,MX59*%
X195321250Y-222885000D03*
X208248250Y-220345000D03*
%TD*%
%TO.C,MX61*%
X285808750Y-222885000D03*
X298735750Y-220345000D03*
%TD*%
%TO.C,MX56*%
X109596250Y-222885000D03*
X122523250Y-220345000D03*
%TD*%
%TO.C,MX58*%
X157221250Y-222885000D03*
X170148250Y-220345000D03*
%TD*%
%TO.C,MX57*%
X133408750Y-222885000D03*
X146335750Y-220345000D03*
%TD*%
%TO.C,MX62*%
X309621250Y-222885000D03*
X322548250Y-220345000D03*
%TD*%
%TO.C,MX42*%
X90546250Y-203835000D03*
X103473250Y-201295000D03*
%TD*%
%TO.C,MX63*%
X333433750Y-222885000D03*
X346360750Y-220345000D03*
%TD*%
%TO.C,MX29*%
X95308750Y-184785000D03*
X108235750Y-182245000D03*
%TD*%
%TO.C,MX15*%
X105817000Y-163170000D03*
X92890000Y-165710000D03*
%TD*%
%TO.C,MX28*%
X352436250Y-175242500D03*
X365363250Y-172702500D03*
%TD*%
%TO.C,MX14*%
X345277500Y-146672500D03*
X358204500Y-144132500D03*
%TD*%
%TO.C,MX1*%
X88125000Y-146680000D03*
X101052000Y-144140000D03*
%TD*%
%TO.C,MX20*%
X192892500Y-165717500D03*
X205819500Y-163177500D03*
%TD*%
%TO.C,MX50*%
X245280000Y-203817500D03*
X258207000Y-201277500D03*
%TD*%
%TO.C,MX53*%
X302430000Y-203817500D03*
X315357000Y-201277500D03*
%TD*%
%TO.C,MX27*%
X326242500Y-165717500D03*
X339169500Y-163177500D03*
%TD*%
%TO.C,MX39*%
X292905000Y-184767500D03*
X305832000Y-182227500D03*
%TD*%
%TO.C,MX21*%
X211942500Y-165717500D03*
X224869500Y-163177500D03*
%TD*%
%TO.C,MX64*%
X354865000Y-222885000D03*
X367792000Y-220345000D03*
%TD*%
%TO.C,MX7*%
X202417500Y-146667500D03*
X215344500Y-144127500D03*
%TD*%
%TO.C,MX10*%
X259567500Y-146667500D03*
X272494500Y-144127500D03*
%TD*%
%TO.C,MX51*%
X264330000Y-203817500D03*
X277257000Y-201277500D03*
%TD*%
%TO.C,MX17*%
X135742500Y-165717500D03*
X148669500Y-163177500D03*
%TD*%
%TO.C,MX25*%
X288142500Y-165717500D03*
X301069500Y-163177500D03*
%TD*%
%TO.C,MX22*%
X230992500Y-165717500D03*
X243919500Y-163177500D03*
%TD*%
%TO.C,MX8*%
X221467500Y-146667500D03*
X234394500Y-144127500D03*
%TD*%
%TO.C,MX44*%
X130980000Y-203817500D03*
X143907000Y-201277500D03*
%TD*%
%TO.C,MX43*%
X111995000Y-203850000D03*
X124922000Y-201310000D03*
%TD*%
%TO.C,MX55*%
X88165000Y-222885000D03*
X101092000Y-220345000D03*
%TD*%
%TO.C,MX3*%
X126217500Y-146667500D03*
X139144500Y-144127500D03*
%TD*%
%TO.C,MX23*%
X250042500Y-165717500D03*
X262969500Y-163177500D03*
%TD*%
%TO.C,MX4*%
X145267500Y-146667500D03*
X158194500Y-144127500D03*
%TD*%
%TO.C,MX49*%
X226230000Y-203817500D03*
X239157000Y-201277500D03*
%TD*%
%TO.C,MX11*%
X278617500Y-146667500D03*
X291544500Y-144127500D03*
%TD*%
%TO.C,MX35*%
X216705000Y-184767500D03*
X229632000Y-182227500D03*
%TD*%
%TO.C,MX13*%
X316717500Y-146667500D03*
X329644500Y-144127500D03*
%TD*%
%TO.C,MX41*%
X331005000Y-184767500D03*
X343932000Y-182227500D03*
%TD*%
%TO.C,MX36*%
X235755000Y-184767500D03*
X248682000Y-182227500D03*
%TD*%
%TO.C,MX5*%
X164317500Y-146667500D03*
X177244500Y-144127500D03*
%TD*%
%TO.C,MX32*%
X159555000Y-184767500D03*
X172482000Y-182227500D03*
%TD*%
%TO.C,MX40*%
X311955000Y-184767500D03*
X324882000Y-182227500D03*
%TD*%
%TO.C,MX2*%
X107135000Y-146670000D03*
X120062000Y-144130000D03*
%TD*%
%TO.C,MX26*%
X307192500Y-165717500D03*
X320119500Y-163177500D03*
%TD*%
%TO.C,MX9*%
X240517500Y-146667500D03*
X253444500Y-144127500D03*
%TD*%
%TO.C,MX34*%
X197655000Y-184767500D03*
X210582000Y-182227500D03*
%TD*%
%TO.C,MX18*%
X154792500Y-165717500D03*
X167719500Y-163177500D03*
%TD*%
%TO.C,MX46*%
X169080000Y-203817500D03*
X182007000Y-201277500D03*
%TD*%
%TO.C,MX33*%
X178605000Y-184767500D03*
X191532000Y-182227500D03*
%TD*%
%TO.C,MX12*%
X297667500Y-146667500D03*
X310594500Y-144127500D03*
%TD*%
%TO.C,MX48*%
X207180000Y-203817500D03*
X220107000Y-201277500D03*
%TD*%
%TO.C,MX37*%
X254805000Y-184767500D03*
X267732000Y-182227500D03*
%TD*%
%TO.C,MX52*%
X283380000Y-203817500D03*
X296307000Y-201277500D03*
%TD*%
%TO.C,MX6*%
X183367500Y-146667500D03*
X196294500Y-144127500D03*
%TD*%
%TO.C,MX24*%
X269092500Y-165717500D03*
X282019500Y-163177500D03*
%TD*%
%TO.C,MX30*%
X121455000Y-184767500D03*
X134382000Y-182227500D03*
%TD*%
%TO.C,MX47*%
X188130000Y-203817500D03*
X201057000Y-201277500D03*
%TD*%
%TO.C,MX45*%
X150030000Y-203817500D03*
X162957000Y-201277500D03*
%TD*%
%TO.C,MX19*%
X173842500Y-165717500D03*
X186769500Y-163177500D03*
%TD*%
%TO.C,MX38*%
X273855000Y-184767500D03*
X286782000Y-182227500D03*
%TD*%
%TO.C,MX16*%
X116692500Y-165717500D03*
X129619500Y-163177500D03*
%TD*%
%TO.C,MX31*%
X140505000Y-184767500D03*
X153432000Y-182227500D03*
%TD*%
D11*
%TO.C,D18*%
X170070000Y-172490000D03*
X170070000Y-169190000D03*
%TD*%
%TO.C,D40*%
X327190000Y-191520000D03*
X327190000Y-188220000D03*
%TD*%
%TO.C,D13*%
X331950000Y-153500000D03*
X331950000Y-150200000D03*
%TD*%
D12*
%TO.C,D28*%
X365010000Y-169000000D03*
X361710000Y-169000000D03*
%TD*%
D11*
%TO.C,D36*%
X251050000Y-191600000D03*
X251050000Y-188300000D03*
%TD*%
%TO.C,D59*%
X210880000Y-229570000D03*
X210880000Y-226270000D03*
%TD*%
%TO.C,D53*%
X317760000Y-210490000D03*
X317760000Y-207190000D03*
%TD*%
%TO.C,D10*%
X274860000Y-153450000D03*
X274860000Y-150150000D03*
%TD*%
%TO.C,D50*%
X260550000Y-210550000D03*
X260550000Y-207250000D03*
%TD*%
%TO.C,D35*%
X231990000Y-191550000D03*
X231990000Y-188250000D03*
%TD*%
%TO.C,D26*%
X322420000Y-172520000D03*
X322420000Y-169220000D03*
%TD*%
%TO.C,D21*%
X227180000Y-172420000D03*
X227180000Y-169120000D03*
%TD*%
%TO.C,D45*%
X165330000Y-210580000D03*
X165330000Y-207280000D03*
%TD*%
%TO.C,D23*%
X265330000Y-172450000D03*
X265330000Y-169150000D03*
%TD*%
%TO.C,D24*%
X284400000Y-172520000D03*
X284400000Y-169220000D03*
%TD*%
%TO.C,D15*%
X108210000Y-172550000D03*
X108210000Y-169250000D03*
%TD*%
%TO.C,D22*%
X246250000Y-172500000D03*
X246250000Y-169200000D03*
%TD*%
%TO.C,D32*%
X174900000Y-191550000D03*
X174900000Y-188250000D03*
%TD*%
%TO.C,D12*%
X312950000Y-153460000D03*
X312950000Y-150160000D03*
%TD*%
%TO.C,D2*%
X122430000Y-153420000D03*
X122430000Y-150120000D03*
%TD*%
%TO.C,D7*%
X217680000Y-153430000D03*
X217680000Y-150130000D03*
%TD*%
%TO.C,D4*%
X160570000Y-153530000D03*
X160570000Y-150230000D03*
%TD*%
%TO.C,D25*%
X303530000Y-172490000D03*
X303530000Y-169190000D03*
%TD*%
%TO.C,D55*%
X103480000Y-229730000D03*
X103480000Y-226430000D03*
%TD*%
%TO.C,D61*%
X301440000Y-229630000D03*
X301440000Y-226330000D03*
%TD*%
%TO.C,D8*%
X236760000Y-153400000D03*
X236760000Y-150100000D03*
%TD*%
%TO.C,D42*%
X105800000Y-210580000D03*
X105800000Y-207280000D03*
%TD*%
%TO.C,D16*%
X131950000Y-172490000D03*
X131950000Y-169190000D03*
%TD*%
%TO.C,D6*%
X198600000Y-153430000D03*
X198600000Y-150130000D03*
%TD*%
%TO.C,D33*%
X193810000Y-191550000D03*
X193810000Y-188250000D03*
%TD*%
%TO.C,D60*%
X263130000Y-229700000D03*
X263130000Y-226400000D03*
%TD*%
%TO.C,D57*%
X148950000Y-229660000D03*
X148950000Y-226360000D03*
%TD*%
%TO.C,D1*%
X103470000Y-153450000D03*
X103470000Y-150150000D03*
%TD*%
%TO.C,D34*%
X212850000Y-191550000D03*
X212850000Y-188250000D03*
%TD*%
%TO.C,D38*%
X289130000Y-191400000D03*
X289130000Y-188100000D03*
%TD*%
%TO.C,D43*%
X127220000Y-210630000D03*
X127220000Y-207330000D03*
%TD*%
%TO.C,D56*%
X125040000Y-229440000D03*
X125040000Y-226140000D03*
%TD*%
%TO.C,D51*%
X279730000Y-210550000D03*
X279730000Y-207250000D03*
%TD*%
%TO.C,D27*%
X341530000Y-172520000D03*
X341530000Y-169220000D03*
%TD*%
%TO.C,D14*%
X360610000Y-153300000D03*
X360610000Y-150000000D03*
%TD*%
%TO.C,D46*%
X184410000Y-210580000D03*
X184410000Y-207280000D03*
%TD*%
%TO.C,D49*%
X241570000Y-210610000D03*
X241570000Y-207310000D03*
%TD*%
%TO.C,D5*%
X179620000Y-153490000D03*
X179620000Y-150190000D03*
%TD*%
%TO.C,D30*%
X136770000Y-191600000D03*
X136770000Y-188300000D03*
%TD*%
%TO.C,D17*%
X151010000Y-172490000D03*
X151010000Y-169190000D03*
%TD*%
%TO.C,D29*%
X110650000Y-191600000D03*
X110650000Y-188300000D03*
%TD*%
%TO.C,D20*%
X208190000Y-172550000D03*
X208190000Y-169250000D03*
%TD*%
%TO.C,D9*%
X255760000Y-153470000D03*
X255760000Y-150170000D03*
%TD*%
%TO.C,D62*%
X325130000Y-229780000D03*
X325130000Y-226480000D03*
%TD*%
%TO.C,D58*%
X172500000Y-229440000D03*
X172500000Y-226140000D03*
%TD*%
%TO.C,D54*%
X353560000Y-210540000D03*
X353560000Y-207240000D03*
%TD*%
%TO.C,D3*%
X141460000Y-153450000D03*
X141460000Y-150150000D03*
%TD*%
%TO.C,D63*%
X348840000Y-229700000D03*
X348840000Y-226400000D03*
%TD*%
%TO.C,D44*%
X146310000Y-210580000D03*
X146310000Y-207280000D03*
%TD*%
%TO.C,D52*%
X298600000Y-210490000D03*
X298600000Y-207190000D03*
%TD*%
%TO.C,D39*%
X308150000Y-191520000D03*
X308150000Y-188220000D03*
%TD*%
%TO.C,D47*%
X203480000Y-210610000D03*
X203480000Y-207310000D03*
%TD*%
%TO.C,D37*%
X270120000Y-191500000D03*
X270120000Y-188200000D03*
%TD*%
%TO.C,D41*%
X346280000Y-191570000D03*
X346280000Y-188270000D03*
%TD*%
%TO.C,D48*%
X222490000Y-210500000D03*
X222490000Y-207200000D03*
%TD*%
%TO.C,D19*%
X189130000Y-172450000D03*
X189130000Y-169150000D03*
%TD*%
%TO.C,D31*%
X155880000Y-191600000D03*
X155880000Y-188300000D03*
%TD*%
D12*
%TO.C,D64*%
X361180000Y-215580000D03*
X364480000Y-215580000D03*
%TD*%
D11*
%TO.C,D11*%
X293930000Y-153430000D03*
X293930000Y-150130000D03*
%TD*%
M02*
