%TF.GenerationSoftware,KiCad,Pcbnew,(6.0.7-1)-1*%
%TF.CreationDate,2022-09-29T18:34:29+02:00*%
%TF.ProjectId,staggered-keyboard,73746167-6765-4726-9564-2d6b6579626f,rev?*%
%TF.SameCoordinates,Original*%
%TF.FileFunction,Paste,Bot*%
%TF.FilePolarity,Positive*%
%FSLAX46Y46*%
G04 Gerber Fmt 4.6, Leading zero omitted, Abs format (unit mm)*
G04 Created by KiCad (PCBNEW (6.0.7-1)-1) date 2022-09-29 18:34:29*
%MOMM*%
%LPD*%
G01*
G04 APERTURE LIST*
%ADD10R,1.200000X0.900000*%
%ADD11R,0.900000X1.200000*%
G04 APERTURE END LIST*
D10*
%TO.C,D18*%
X170070000Y-172490000D03*
X170070000Y-169190000D03*
%TD*%
%TO.C,D40*%
X327190000Y-191520000D03*
X327190000Y-188220000D03*
%TD*%
%TO.C,D13*%
X331950000Y-153500000D03*
X331950000Y-150200000D03*
%TD*%
D11*
%TO.C,D28*%
X365330000Y-169400000D03*
X362030000Y-169400000D03*
%TD*%
D10*
%TO.C,D36*%
X251050000Y-191600000D03*
X251050000Y-188300000D03*
%TD*%
%TO.C,D59*%
X210880000Y-229570000D03*
X210880000Y-226270000D03*
%TD*%
%TO.C,D53*%
X317760000Y-210490000D03*
X317760000Y-207190000D03*
%TD*%
%TO.C,D10*%
X274860000Y-153450000D03*
X274860000Y-150150000D03*
%TD*%
%TO.C,D50*%
X260550000Y-210550000D03*
X260550000Y-207250000D03*
%TD*%
%TO.C,D35*%
X231990000Y-191550000D03*
X231990000Y-188250000D03*
%TD*%
%TO.C,D26*%
X322420000Y-172520000D03*
X322420000Y-169220000D03*
%TD*%
%TO.C,D21*%
X227180000Y-172420000D03*
X227180000Y-169120000D03*
%TD*%
%TO.C,D45*%
X165330000Y-210580000D03*
X165330000Y-207280000D03*
%TD*%
%TO.C,D23*%
X265330000Y-172450000D03*
X265330000Y-169150000D03*
%TD*%
%TO.C,D24*%
X284400000Y-172520000D03*
X284400000Y-169220000D03*
%TD*%
%TO.C,D15*%
X108210000Y-172550000D03*
X108210000Y-169250000D03*
%TD*%
%TO.C,D22*%
X246250000Y-172500000D03*
X246250000Y-169200000D03*
%TD*%
%TO.C,D32*%
X174900000Y-191550000D03*
X174900000Y-188250000D03*
%TD*%
%TO.C,D12*%
X312950000Y-153460000D03*
X312950000Y-150160000D03*
%TD*%
%TO.C,D2*%
X122430000Y-153420000D03*
X122430000Y-150120000D03*
%TD*%
%TO.C,D7*%
X217680000Y-153430000D03*
X217680000Y-150130000D03*
%TD*%
%TO.C,D4*%
X160570000Y-153530000D03*
X160570000Y-150230000D03*
%TD*%
%TO.C,D25*%
X303530000Y-172490000D03*
X303530000Y-169190000D03*
%TD*%
%TO.C,D55*%
X103480000Y-229730000D03*
X103480000Y-226430000D03*
%TD*%
%TO.C,D61*%
X301440000Y-229630000D03*
X301440000Y-226330000D03*
%TD*%
%TO.C,D8*%
X236760000Y-153400000D03*
X236760000Y-150100000D03*
%TD*%
%TO.C,D42*%
X105800000Y-210580000D03*
X105800000Y-207280000D03*
%TD*%
%TO.C,D16*%
X131950000Y-172490000D03*
X131950000Y-169190000D03*
%TD*%
%TO.C,D6*%
X198600000Y-153430000D03*
X198600000Y-150130000D03*
%TD*%
%TO.C,D33*%
X193810000Y-191550000D03*
X193810000Y-188250000D03*
%TD*%
%TO.C,D60*%
X263130000Y-229700000D03*
X263130000Y-226400000D03*
%TD*%
%TO.C,D57*%
X148950000Y-229660000D03*
X148950000Y-226360000D03*
%TD*%
%TO.C,D1*%
X103470000Y-153450000D03*
X103470000Y-150150000D03*
%TD*%
%TO.C,D34*%
X212850000Y-191550000D03*
X212850000Y-188250000D03*
%TD*%
%TO.C,D38*%
X289130000Y-191400000D03*
X289130000Y-188100000D03*
%TD*%
%TO.C,D43*%
X127220000Y-210630000D03*
X127220000Y-207330000D03*
%TD*%
%TO.C,D56*%
X125040000Y-229440000D03*
X125040000Y-226140000D03*
%TD*%
%TO.C,D51*%
X279730000Y-210550000D03*
X279730000Y-207250000D03*
%TD*%
%TO.C,D27*%
X341530000Y-172520000D03*
X341530000Y-169220000D03*
%TD*%
%TO.C,D14*%
X355070000Y-157570000D03*
X355070000Y-154270000D03*
%TD*%
%TO.C,D46*%
X184410000Y-210580000D03*
X184410000Y-207280000D03*
%TD*%
%TO.C,D49*%
X241570000Y-210610000D03*
X241570000Y-207310000D03*
%TD*%
%TO.C,D5*%
X179620000Y-153490000D03*
X179620000Y-150190000D03*
%TD*%
%TO.C,D30*%
X136770000Y-191600000D03*
X136770000Y-188300000D03*
%TD*%
%TO.C,D17*%
X151010000Y-172490000D03*
X151010000Y-169190000D03*
%TD*%
%TO.C,D29*%
X110650000Y-191600000D03*
X110650000Y-188300000D03*
%TD*%
%TO.C,D20*%
X208190000Y-172550000D03*
X208190000Y-169250000D03*
%TD*%
%TO.C,D9*%
X255760000Y-153470000D03*
X255760000Y-150170000D03*
%TD*%
%TO.C,D62*%
X325130000Y-229780000D03*
X325130000Y-226480000D03*
%TD*%
%TO.C,D58*%
X172500000Y-229440000D03*
X172500000Y-226140000D03*
%TD*%
%TO.C,D54*%
X353560000Y-210540000D03*
X353560000Y-207240000D03*
%TD*%
%TO.C,D3*%
X141460000Y-153450000D03*
X141460000Y-150150000D03*
%TD*%
%TO.C,D63*%
X348840000Y-229700000D03*
X348840000Y-226400000D03*
%TD*%
%TO.C,D44*%
X146310000Y-210580000D03*
X146310000Y-207280000D03*
%TD*%
%TO.C,D52*%
X298600000Y-210490000D03*
X298600000Y-207190000D03*
%TD*%
%TO.C,D39*%
X308150000Y-191520000D03*
X308150000Y-188220000D03*
%TD*%
%TO.C,D47*%
X203480000Y-210610000D03*
X203480000Y-207310000D03*
%TD*%
%TO.C,D37*%
X270120000Y-191500000D03*
X270120000Y-188200000D03*
%TD*%
%TO.C,D41*%
X346280000Y-191570000D03*
X346280000Y-188270000D03*
%TD*%
%TO.C,D48*%
X222490000Y-210500000D03*
X222490000Y-207200000D03*
%TD*%
%TO.C,D19*%
X189130000Y-172450000D03*
X189130000Y-169150000D03*
%TD*%
%TO.C,D31*%
X155880000Y-191600000D03*
X155880000Y-188300000D03*
%TD*%
D11*
%TO.C,D64*%
X361180000Y-215580000D03*
X364480000Y-215580000D03*
%TD*%
D10*
%TO.C,D11*%
X293930000Y-153430000D03*
X293930000Y-150130000D03*
%TD*%
M02*
