%TF.GenerationSoftware,KiCad,Pcbnew,(6.0.7-1)-1*%
%TF.CreationDate,2022-09-29T18:34:29+02:00*%
%TF.ProjectId,staggered-keyboard,73746167-6765-4726-9564-2d6b6579626f,rev?*%
%TF.SameCoordinates,Original*%
%TF.FileFunction,Legend,Top*%
%TF.FilePolarity,Positive*%
%FSLAX46Y46*%
G04 Gerber Fmt 4.6, Leading zero omitted, Abs format (unit mm)*
G04 Created by KiCad (PCBNEW (6.0.7-1)-1) date 2022-09-29 18:34:29*
%MOMM*%
%LPD*%
G01*
G04 APERTURE LIST*
%ADD10C,0.150000*%
%ADD11C,1.600000*%
%ADD12R,1.600000X1.600000*%
G04 APERTURE END LIST*
D10*
%TO.C,U1*%
X79490000Y-138130000D02*
X79490000Y-140670000D01*
X84570000Y-171150000D02*
X66790000Y-171150000D01*
X84570000Y-140670000D02*
X84570000Y-171150000D01*
X71870000Y-140670000D02*
X71870000Y-138130000D01*
X79490000Y-140670000D02*
X84570000Y-140670000D01*
X66790000Y-140670000D02*
X71870000Y-140670000D01*
X66790000Y-140670000D02*
X66790000Y-171150000D01*
X71870000Y-138130000D02*
X79490000Y-138130000D01*
%TD*%
D11*
%TO.C,U1*%
X83300000Y-141940000D03*
X83300000Y-144480000D03*
X83300000Y-147020000D03*
X83300000Y-149560000D03*
X83300000Y-152100000D03*
X83300000Y-154640000D03*
X83300000Y-157180000D03*
X83300000Y-159720000D03*
X83300000Y-162260000D03*
X83300000Y-164800000D03*
X83300000Y-167340000D03*
X83300000Y-169880000D03*
X68060000Y-169880000D03*
X68060000Y-167340000D03*
X68060000Y-164800000D03*
X68060000Y-162260000D03*
X68060000Y-159720000D03*
X68060000Y-157180000D03*
X68060000Y-154640000D03*
X68060000Y-152100000D03*
X68060000Y-149560000D03*
X68060000Y-147020000D03*
X68060000Y-144480000D03*
D12*
X68060000Y-141940000D03*
%TD*%
M02*
