%TF.GenerationSoftware,KiCad,Pcbnew,(6.0.7-1)-1*%
%TF.CreationDate,2022-09-29T18:34:29+02:00*%
%TF.ProjectId,staggered-keyboard,73746167-6765-4726-9564-2d6b6579626f,rev?*%
%TF.SameCoordinates,Original*%
%TF.FileFunction,Copper,L1,Top*%
%TF.FilePolarity,Positive*%
%FSLAX46Y46*%
G04 Gerber Fmt 4.6, Leading zero omitted, Abs format (unit mm)*
G04 Created by KiCad (PCBNEW (6.0.7-1)-1) date 2022-09-29 18:34:29*
%MOMM*%
%LPD*%
G01*
G04 APERTURE LIST*
%TA.AperFunction,ComponentPad*%
%ADD10C,2.250000*%
%TD*%
%TA.AperFunction,ComponentPad*%
%ADD11C,1.600000*%
%TD*%
%TA.AperFunction,ComponentPad*%
%ADD12R,1.600000X1.600000*%
%TD*%
%TA.AperFunction,ViaPad*%
%ADD13C,0.800000*%
%TD*%
%TA.AperFunction,Conductor*%
%ADD14C,0.250000*%
%TD*%
G04 APERTURE END LIST*
D10*
%TO.P,MX20,1,COL*%
%TO.N,Col 5*%
X196167500Y-165717500D03*
%TO.P,MX20,2,ROW*%
%TO.N,Net-(D20-Pad2)*%
X202517500Y-163177500D03*
%TD*%
%TO.P,MX50,1,COL*%
%TO.N,Col 8*%
X248555000Y-203817500D03*
%TO.P,MX50,2,ROW*%
%TO.N,Net-(D50-Pad2)*%
X254905000Y-201277500D03*
%TD*%
%TO.P,MX53,1,COL*%
%TO.N,Col 11*%
X305705000Y-203817500D03*
%TO.P,MX53,2,ROW*%
%TO.N,Net-(D53-Pad2)*%
X312055000Y-201277500D03*
%TD*%
%TO.P,MX27,1,COL*%
%TO.N,Col 12*%
X329517500Y-165717500D03*
%TO.P,MX27,2,ROW*%
%TO.N,Net-(D27-Pad2)*%
X335867500Y-163177500D03*
%TD*%
%TO.P,MX39,1,COL*%
%TO.N,Col 10*%
X296180000Y-184767500D03*
%TO.P,MX39,2,ROW*%
%TO.N,Net-(D39-Pad2)*%
X302530000Y-182227500D03*
%TD*%
%TO.P,MX14,1,COL*%
%TO.N,Col 9*%
X348552500Y-146672500D03*
%TO.P,MX14,2,ROW*%
%TO.N,Net-(D14-Pad2)*%
X354902500Y-144132500D03*
%TD*%
%TO.P,MX21,1,COL*%
%TO.N,Col 6*%
X215217500Y-165717500D03*
%TO.P,MX21,2,ROW*%
%TO.N,Net-(D21-Pad2)*%
X221567500Y-163177500D03*
%TD*%
%TO.P,MX64,1,COL*%
%TO.N,Col 6*%
X358140000Y-222885000D03*
%TO.P,MX64,2,ROW*%
%TO.N,Net-(D64-Pad2)*%
X364490000Y-220345000D03*
%TD*%
%TO.P,MX1,1,COL*%
%TO.N,Col 0*%
X91400000Y-146680000D03*
%TO.P,MX1,2,ROW*%
%TO.N,Net-(D1-Pad2)*%
X97750000Y-144140000D03*
%TD*%
%TO.P,MX7,1,COL*%
%TO.N,Col 6*%
X205692500Y-146667500D03*
%TO.P,MX7,2,ROW*%
%TO.N,Net-(D7-Pad2)*%
X212042500Y-144127500D03*
%TD*%
%TO.P,MX10,1,COL*%
%TO.N,Col 9*%
X262842500Y-146667500D03*
%TO.P,MX10,2,ROW*%
%TO.N,Net-(D10-Pad2)*%
X269192500Y-144127500D03*
%TD*%
%TO.P,MX51,1,COL*%
%TO.N,Col 9*%
X267605000Y-203817500D03*
%TO.P,MX51,2,ROW*%
%TO.N,Net-(D51-Pad2)*%
X273955000Y-201277500D03*
%TD*%
%TO.P,MX17,1,COL*%
%TO.N,Col 2*%
X139017500Y-165717500D03*
%TO.P,MX17,2,ROW*%
%TO.N,Net-(D17-Pad2)*%
X145367500Y-163177500D03*
%TD*%
%TO.P,MX25,1,COL*%
%TO.N,Col 10*%
X291417500Y-165717500D03*
%TO.P,MX25,2,ROW*%
%TO.N,Net-(D25-Pad2)*%
X297767500Y-163177500D03*
%TD*%
%TO.P,MX22,1,COL*%
%TO.N,Col 7*%
X234267500Y-165717500D03*
%TO.P,MX22,2,ROW*%
%TO.N,Net-(D22-Pad2)*%
X240617500Y-163177500D03*
%TD*%
%TO.P,MX8,1,COL*%
%TO.N,Col 7*%
X224742500Y-146667500D03*
%TO.P,MX8,2,ROW*%
%TO.N,Net-(D8-Pad2)*%
X231092500Y-144127500D03*
%TD*%
%TO.P,MX44,1,COL*%
%TO.N,Col 2*%
X134255000Y-203817500D03*
%TO.P,MX44,2,ROW*%
%TO.N,Net-(D44-Pad2)*%
X140605000Y-201277500D03*
%TD*%
%TO.P,MX43,1,COL*%
%TO.N,Col 1*%
X115270000Y-203850000D03*
%TO.P,MX43,2,ROW*%
%TO.N,Net-(D43-Pad2)*%
X121620000Y-201310000D03*
%TD*%
%TO.P,MX55,1,COL*%
%TO.N,Col 0*%
X91440000Y-222885000D03*
%TO.P,MX55,2,ROW*%
%TO.N,Net-(D55-Pad2)*%
X97790000Y-220345000D03*
%TD*%
%TO.P,MX3,1,COL*%
%TO.N,Col 2*%
X129492500Y-146667500D03*
%TO.P,MX3,2,ROW*%
%TO.N,Net-(D3-Pad2)*%
X135842500Y-144127500D03*
%TD*%
%TO.P,MX23,1,COL*%
%TO.N,Col 8*%
X253317500Y-165717500D03*
%TO.P,MX23,2,ROW*%
%TO.N,Net-(D23-Pad2)*%
X259667500Y-163177500D03*
%TD*%
%TO.P,MX4,1,COL*%
%TO.N,Col 3*%
X148542500Y-146667500D03*
%TO.P,MX4,2,ROW*%
%TO.N,Net-(D4-Pad2)*%
X154892500Y-144127500D03*
%TD*%
%TO.P,MX49,1,COL*%
%TO.N,Col 7*%
X229505000Y-203817500D03*
%TO.P,MX49,2,ROW*%
%TO.N,Net-(D49-Pad2)*%
X235855000Y-201277500D03*
%TD*%
%TO.P,MX61,1,COL*%
%TO.N,Col 10*%
X289083750Y-222885000D03*
%TO.P,MX61,2,ROW*%
%TO.N,Net-(D61-Pad2)*%
X295433750Y-220345000D03*
%TD*%
%TO.P,MX54,1,COL*%
%TO.N,Col 12*%
X341471250Y-203835000D03*
%TO.P,MX54,2,ROW*%
%TO.N,Net-(D54-Pad2)*%
X347821250Y-201295000D03*
%TD*%
%TO.P,MX56,1,COL*%
%TO.N,Col 1*%
X112871250Y-222885000D03*
%TO.P,MX56,2,ROW*%
%TO.N,Net-(D56-Pad2)*%
X119221250Y-220345000D03*
%TD*%
%TO.P,MX60,1,COL*%
%TO.N,Col 8*%
X250983750Y-222885000D03*
%TO.P,MX60,2,ROW*%
%TO.N,Net-(D60-Pad2)*%
X257333750Y-220345000D03*
%TD*%
%TO.P,MX11,1,COL*%
%TO.N,Col 10*%
X281892500Y-146667500D03*
%TO.P,MX11,2,ROW*%
%TO.N,Net-(D11-Pad2)*%
X288242500Y-144127500D03*
%TD*%
%TO.P,MX35,1,COL*%
%TO.N,Col 6*%
X219980000Y-184767500D03*
%TO.P,MX35,2,ROW*%
%TO.N,Net-(D35-Pad2)*%
X226330000Y-182227500D03*
%TD*%
%TO.P,MX13,1,COL*%
%TO.N,Col 12*%
X319992500Y-146667500D03*
%TO.P,MX13,2,ROW*%
%TO.N,Net-(D13-Pad2)*%
X326342500Y-144127500D03*
%TD*%
%TO.P,MX41,1,COL*%
%TO.N,Col 12*%
X334280000Y-184767500D03*
%TO.P,MX41,2,ROW*%
%TO.N,Net-(D41-Pad2)*%
X340630000Y-182227500D03*
%TD*%
%TO.P,MX36,1,COL*%
%TO.N,Col 7*%
X239030000Y-184767500D03*
%TO.P,MX36,2,ROW*%
%TO.N,Net-(D36-Pad2)*%
X245380000Y-182227500D03*
%TD*%
%TO.P,MX28,1,COL*%
%TO.N,Col 7*%
X355711250Y-175242500D03*
%TO.P,MX28,2,ROW*%
%TO.N,Net-(D28-Pad2)*%
X362061250Y-172702500D03*
%TD*%
%TO.P,MX5,1,COL*%
%TO.N,Col 4*%
X167592500Y-146667500D03*
%TO.P,MX5,2,ROW*%
%TO.N,Net-(D5-Pad2)*%
X173942500Y-144127500D03*
%TD*%
%TO.P,MX32,1,COL*%
%TO.N,Col 3*%
X162830000Y-184767500D03*
%TO.P,MX32,2,ROW*%
%TO.N,Net-(D32-Pad2)*%
X169180000Y-182227500D03*
%TD*%
%TO.P,MX40,1,COL*%
%TO.N,Col 11*%
X315230000Y-184767500D03*
%TO.P,MX40,2,ROW*%
%TO.N,Net-(D40-Pad2)*%
X321580000Y-182227500D03*
%TD*%
%TO.P,MX2,1,COL*%
%TO.N,Col 1*%
X110410000Y-146670000D03*
%TO.P,MX2,2,ROW*%
%TO.N,Net-(D2-Pad2)*%
X116760000Y-144130000D03*
%TD*%
%TO.P,MX58,1,COL*%
%TO.N,Col 3*%
X160496250Y-222885000D03*
%TO.P,MX58,2,ROW*%
%TO.N,Net-(D58-Pad2)*%
X166846250Y-220345000D03*
%TD*%
%TO.P,MX15,1,COL*%
%TO.N,Col 0*%
X96165000Y-165710000D03*
%TO.P,MX15,2,ROW*%
%TO.N,Net-(D15-Pad2)*%
X102515000Y-163170000D03*
%TD*%
%TO.P,MX57,1,COL*%
%TO.N,Col 2*%
X136683750Y-222885000D03*
%TO.P,MX57,2,ROW*%
%TO.N,Net-(D57-Pad2)*%
X143033750Y-220345000D03*
%TD*%
%TO.P,MX26,1,COL*%
%TO.N,Col 11*%
X310467500Y-165717500D03*
%TO.P,MX26,2,ROW*%
%TO.N,Net-(D26-Pad2)*%
X316817500Y-163177500D03*
%TD*%
%TO.P,MX62,1,COL*%
%TO.N,Col 11*%
X312896250Y-222885000D03*
%TO.P,MX62,2,ROW*%
%TO.N,Net-(D62-Pad2)*%
X319246250Y-220345000D03*
%TD*%
%TO.P,MX9,1,COL*%
%TO.N,Col 8*%
X243792500Y-146667500D03*
%TO.P,MX9,2,ROW*%
%TO.N,Net-(D9-Pad2)*%
X250142500Y-144127500D03*
%TD*%
%TO.P,MX34,1,COL*%
%TO.N,Col 5*%
X200930000Y-184767500D03*
%TO.P,MX34,2,ROW*%
%TO.N,Net-(D34-Pad2)*%
X207280000Y-182227500D03*
%TD*%
%TO.P,MX29,1,COL*%
%TO.N,Col 0*%
X98583750Y-184785000D03*
%TO.P,MX29,2,ROW*%
%TO.N,Net-(D29-Pad2)*%
X104933750Y-182245000D03*
%TD*%
%TO.P,MX18,1,COL*%
%TO.N,Col 3*%
X158067500Y-165717500D03*
%TO.P,MX18,2,ROW*%
%TO.N,Net-(D18-Pad2)*%
X164417500Y-163177500D03*
%TD*%
%TO.P,MX46,1,COL*%
%TO.N,Col 4*%
X172355000Y-203817500D03*
%TO.P,MX46,2,ROW*%
%TO.N,Net-(D46-Pad2)*%
X178705000Y-201277500D03*
%TD*%
%TO.P,MX33,1,COL*%
%TO.N,Col 4*%
X181880000Y-184767500D03*
%TO.P,MX33,2,ROW*%
%TO.N,Net-(D33-Pad2)*%
X188230000Y-182227500D03*
%TD*%
%TO.P,MX12,1,COL*%
%TO.N,Col 11*%
X300942500Y-146667500D03*
%TO.P,MX12,2,ROW*%
%TO.N,Net-(D12-Pad2)*%
X307292500Y-144127500D03*
%TD*%
%TO.P,MX48,1,COL*%
%TO.N,Col 6*%
X210455000Y-203817500D03*
%TO.P,MX48,2,ROW*%
%TO.N,Net-(D48-Pad2)*%
X216805000Y-201277500D03*
%TD*%
%TO.P,MX42,1,COL*%
%TO.N,Col 0*%
X93821250Y-203835000D03*
%TO.P,MX42,2,ROW*%
%TO.N,Net-(D42-Pad2)*%
X100171250Y-201295000D03*
%TD*%
%TO.P,MX63,1,COL*%
%TO.N,Col 12*%
X336708750Y-222885000D03*
%TO.P,MX63,2,ROW*%
%TO.N,Net-(D63-Pad2)*%
X343058750Y-220345000D03*
%TD*%
%TO.P,MX37,1,COL*%
%TO.N,Col 8*%
X258080000Y-184767500D03*
%TO.P,MX37,2,ROW*%
%TO.N,Net-(D37-Pad2)*%
X264430000Y-182227500D03*
%TD*%
%TO.P,MX52,1,COL*%
%TO.N,Col 10*%
X286655000Y-203817500D03*
%TO.P,MX52,2,ROW*%
%TO.N,Net-(D52-Pad2)*%
X293005000Y-201277500D03*
%TD*%
%TO.P,MX6,1,COL*%
%TO.N,Col 5*%
X186642500Y-146667500D03*
%TO.P,MX6,2,ROW*%
%TO.N,Net-(D6-Pad2)*%
X192992500Y-144127500D03*
%TD*%
%TO.P,MX24,1,COL*%
%TO.N,Col 9*%
X272367500Y-165717500D03*
%TO.P,MX24,2,ROW*%
%TO.N,Net-(D24-Pad2)*%
X278717500Y-163177500D03*
%TD*%
%TO.P,MX30,1,COL*%
%TO.N,Col 1*%
X124730000Y-184767500D03*
%TO.P,MX30,2,ROW*%
%TO.N,Net-(D30-Pad2)*%
X131080000Y-182227500D03*
%TD*%
%TO.P,MX47,1,COL*%
%TO.N,Col 5*%
X191405000Y-203817500D03*
%TO.P,MX47,2,ROW*%
%TO.N,Net-(D47-Pad2)*%
X197755000Y-201277500D03*
%TD*%
%TO.P,MX45,1,COL*%
%TO.N,Col 3*%
X153305000Y-203817500D03*
%TO.P,MX45,2,ROW*%
%TO.N,Net-(D45-Pad2)*%
X159655000Y-201277500D03*
%TD*%
%TO.P,MX19,1,COL*%
%TO.N,Col 4*%
X177117500Y-165717500D03*
%TO.P,MX19,2,ROW*%
%TO.N,Net-(D19-Pad2)*%
X183467500Y-163177500D03*
%TD*%
%TO.P,MX38,1,COL*%
%TO.N,Col 9*%
X277130000Y-184767500D03*
%TO.P,MX38,2,ROW*%
%TO.N,Net-(D38-Pad2)*%
X283480000Y-182227500D03*
%TD*%
%TO.P,MX16,1,COL*%
%TO.N,Col 1*%
X119967500Y-165717500D03*
%TO.P,MX16,2,ROW*%
%TO.N,Net-(D16-Pad2)*%
X126317500Y-163177500D03*
%TD*%
%TO.P,MX59,1,COL*%
%TO.N,Col 5*%
X198596250Y-222885000D03*
%TO.P,MX59,2,ROW*%
%TO.N,Net-(D59-Pad2)*%
X204946250Y-220345000D03*
%TD*%
%TO.P,MX31,1,COL*%
%TO.N,Col 2*%
X143780000Y-184767500D03*
%TO.P,MX31,2,ROW*%
%TO.N,Net-(D31-Pad2)*%
X150130000Y-182227500D03*
%TD*%
D11*
%TO.P,U1,24,RAW*%
%TO.N,unconnected-(U1-Pad24)*%
X83300000Y-141940000D03*
%TO.P,U1,23,GND*%
%TO.N,unconnected-(U1-Pad23)*%
X83300000Y-144480000D03*
%TO.P,U1,22,RST*%
%TO.N,unconnected-(U1-Pad22)*%
X83300000Y-147020000D03*
%TO.P,U1,21,VCC*%
%TO.N,unconnected-(U1-Pad21)*%
X83300000Y-149560000D03*
%TO.P,U1,20,F4*%
%TO.N,Row 0*%
X83300000Y-152100000D03*
%TO.P,U1,19,F5*%
%TO.N,Row 1*%
X83300000Y-154640000D03*
%TO.P,U1,18,F6*%
%TO.N,Row 2*%
X83300000Y-157180000D03*
%TO.P,U1,17,F7*%
%TO.N,Row 3*%
X83300000Y-159720000D03*
%TO.P,U1,16,B1*%
%TO.N,Row 4*%
X83300000Y-162260000D03*
%TO.P,U1,15,B3*%
%TO.N,Col 0*%
X83300000Y-164800000D03*
%TO.P,U1,14,B2*%
%TO.N,Col 1*%
X83300000Y-167340000D03*
%TO.P,U1,13,B6*%
%TO.N,Col 2*%
X83300000Y-169880000D03*
%TO.P,U1,12,B5*%
%TO.N,Col 12*%
X68060000Y-169880000D03*
%TO.P,U1,11,B4*%
%TO.N,Col 11*%
X68060000Y-167340000D03*
%TO.P,U1,10,E6*%
%TO.N,Col 10*%
X68060000Y-164800000D03*
%TO.P,U1,9,D7*%
%TO.N,Col 9*%
X68060000Y-162260000D03*
%TO.P,U1,8,C6*%
%TO.N,Col 8*%
X68060000Y-159720000D03*
%TO.P,U1,7,D4*%
%TO.N,Col 7*%
X68060000Y-157180000D03*
%TO.P,U1,6,SCL*%
%TO.N,Col 6*%
X68060000Y-154640000D03*
%TO.P,U1,5,SDA*%
%TO.N,Col 5*%
X68060000Y-152100000D03*
%TO.P,U1,4,GND*%
%TO.N,unconnected-(U1-Pad4)*%
X68060000Y-149560000D03*
%TO.P,U1,3,GND*%
%TO.N,unconnected-(U1-Pad3)*%
X68060000Y-147020000D03*
%TO.P,U1,2,RX*%
%TO.N,Col 4*%
X68060000Y-144480000D03*
D12*
%TO.P,U1,1,TX*%
%TO.N,Col 3*%
X68060000Y-141940000D03*
%TD*%
D13*
%TO.N,Row 1*%
X79625500Y-172550000D03*
%TO.N,Row 2*%
X80355500Y-191600000D03*
%TO.N,Row 3*%
X81070000Y-210570000D03*
%TO.N,Row 4*%
X81800000Y-229650000D03*
%TO.N,Col 0*%
X92740000Y-158690000D03*
%TO.N,Col 1*%
X112975000Y-158725000D03*
%TO.N,Col 2*%
X131995000Y-158695000D03*
%TO.N,Col 5*%
X77200000Y-177610000D03*
X197608599Y-177571401D03*
%TO.N,Col 6*%
X228780000Y-230580000D03*
X215217500Y-176262500D03*
X75750000Y-176270000D03*
%TO.N,Col 7*%
X74410000Y-174930000D03*
X234267500Y-174927500D03*
%TO.N,Col 8*%
X73210000Y-173680000D03*
X253317500Y-173677500D03*
%TO.N,Col 9*%
X267610000Y-212430000D03*
X335140000Y-158720000D03*
X73030000Y-211640000D03*
X274000000Y-158700000D03*
%TO.N,Col 10*%
X286690000Y-213860000D03*
X71710000Y-213050000D03*
%TO.N,Col 11*%
X70300000Y-214260000D03*
X305705000Y-215693750D03*
%TO.N,Col 12*%
X68840000Y-215450000D03*
%TD*%
D14*
%TO.N,Row 2*%
X80355500Y-191600000D02*
X80350000Y-191594500D01*
X80350000Y-191594500D02*
X80350000Y-160130000D01*
X80350000Y-160130000D02*
X83300000Y-157180000D01*
%TO.N,Row 3*%
X81070000Y-210560000D02*
X81070000Y-191910805D01*
X81070000Y-191910805D02*
X81080500Y-191900305D01*
X81080500Y-191299695D02*
X81070000Y-191289195D01*
X81080500Y-191900305D02*
X81080500Y-191299695D01*
X81070000Y-191289195D02*
X81070000Y-161950000D01*
X81070000Y-161950000D02*
X83300000Y-159720000D01*
%TO.N,Row 1*%
X79625500Y-172550000D02*
X79625500Y-158314500D01*
X79625500Y-158314500D02*
X83300000Y-154640000D01*
%TO.N,Row 4*%
X81800000Y-163760000D02*
X83300000Y-162260000D01*
X81800000Y-180989054D02*
X81800000Y-229650000D01*
X81800000Y-180989054D02*
X81800000Y-163760000D01*
%TO.N,Col 0*%
X96165000Y-165710000D02*
X96165000Y-182366250D01*
X92770000Y-158660000D02*
X92770000Y-148050000D01*
X93821250Y-220503750D02*
X91440000Y-222885000D01*
X98583750Y-184785000D02*
X98583750Y-199072500D01*
X92770000Y-148050000D02*
X91400000Y-146680000D01*
X98583750Y-199072500D02*
X93821250Y-203835000D01*
X92740000Y-158690000D02*
X92770000Y-158660000D01*
X92740000Y-162285000D02*
X96165000Y-165710000D01*
X92740000Y-158690000D02*
X92740000Y-162285000D01*
X96165000Y-182366250D02*
X98583750Y-184785000D01*
X93821250Y-203835000D02*
X93821250Y-220503750D01*
%TO.N,Col 1*%
X119967500Y-165717500D02*
X112975000Y-158725000D01*
X120460000Y-180497500D02*
X120460000Y-167960000D01*
X110410000Y-156160000D02*
X110410000Y-146841099D01*
X115670000Y-220086250D02*
X115670000Y-204990000D01*
X112871250Y-222885000D02*
X115670000Y-220086250D01*
X115270000Y-191961964D02*
X122464464Y-184767500D01*
X120460000Y-167960000D02*
X119967500Y-167467500D01*
X124730000Y-184767500D02*
X120460000Y-180497500D01*
X119967500Y-167467500D02*
X119967500Y-165717500D01*
X112975000Y-158725000D02*
X110410000Y-156160000D01*
X115270000Y-203850000D02*
X115270000Y-191961964D01*
X122464464Y-184767500D02*
X124730000Y-184767500D01*
%TO.N,Col 2*%
X129492500Y-156192500D02*
X131995000Y-158695000D01*
X143780000Y-194292500D02*
X134255000Y-203817500D01*
X134255000Y-220456250D02*
X136683750Y-222885000D01*
X131995000Y-158695000D02*
X139017500Y-165717500D01*
X129492500Y-146667500D02*
X129492500Y-156192500D01*
X139017500Y-165717500D02*
X139017500Y-180005000D01*
X143780000Y-184767500D02*
X143780000Y-194292500D01*
X134255000Y-203817500D02*
X134255000Y-220456250D01*
X139017500Y-180005000D02*
X143780000Y-184767500D01*
%TO.N,Col 3*%
X162830000Y-194292500D02*
X162830000Y-184767500D01*
X153305000Y-203817500D02*
X162830000Y-194292500D01*
X158067500Y-180005000D02*
X162830000Y-184767500D01*
X148542500Y-156192500D02*
X148542500Y-146667500D01*
X160496250Y-222885000D02*
X153305000Y-215693750D01*
X158067500Y-165717500D02*
X158067500Y-180005000D01*
X158067500Y-165717500D02*
X148542500Y-156192500D01*
X153305000Y-215693750D02*
X153305000Y-203988599D01*
%TO.N,Col 4*%
X167592500Y-146667500D02*
X167592500Y-156192500D01*
X182134465Y-194038035D02*
X172355000Y-203817500D01*
X167592500Y-156192500D02*
X177117500Y-165717500D01*
X177117500Y-180005000D02*
X181880000Y-184767500D01*
X182134465Y-185021965D02*
X182134465Y-194038035D01*
X177117500Y-165717500D02*
X177117500Y-180005000D01*
X181880000Y-184767500D02*
X182134465Y-185021965D01*
%TO.N,Col 5*%
X197608599Y-177571401D02*
X197608599Y-167158599D01*
X68060000Y-152100000D02*
X77200000Y-161240000D01*
X197608599Y-181446099D02*
X197608599Y-177571401D01*
X200970000Y-191680000D02*
X200930000Y-191640000D01*
X198596250Y-222885000D02*
X191405000Y-215693750D01*
X196167500Y-165717500D02*
X186642500Y-156192500D01*
X200930000Y-184767500D02*
X197608599Y-181446099D01*
X191405000Y-203817500D02*
X191405000Y-201245000D01*
X197608599Y-167158599D02*
X196167500Y-165717500D01*
X77200000Y-161240000D02*
X77200000Y-177610000D01*
X191405000Y-215693750D02*
X191405000Y-203817500D01*
X191405000Y-201245000D02*
X200970000Y-191680000D01*
X186642500Y-156192500D02*
X186642500Y-146838599D01*
X200930000Y-191640000D02*
X200930000Y-184767500D01*
%TO.N,Col 6*%
X68060000Y-154640000D02*
X75750000Y-162330000D01*
X219980000Y-194292500D02*
X210455000Y-203817500D01*
X228790000Y-227546315D02*
X228790000Y-230570000D01*
X215217500Y-176262500D02*
X215217500Y-180005000D01*
X219980000Y-184767500D02*
X219980000Y-194292500D01*
X228790000Y-230570000D02*
X228780000Y-230580000D01*
X210455000Y-209211315D02*
X228790000Y-227546315D01*
X75750000Y-162330000D02*
X75750000Y-176270000D01*
X205692500Y-156192500D02*
X215217500Y-165717500D01*
X210455000Y-203817500D02*
X210455000Y-209211315D01*
X205692500Y-146667500D02*
X205692500Y-156192500D01*
X215217500Y-165717500D02*
X215217500Y-176262500D01*
X215217500Y-180005000D02*
X219980000Y-184767500D01*
%TO.N,Col 7*%
X234267500Y-165717500D02*
X224742500Y-156192500D01*
X239030000Y-192770000D02*
X239030000Y-184767500D01*
X229505000Y-203817500D02*
X239050000Y-194272500D01*
X239030000Y-184767500D02*
X234420000Y-180157500D01*
X68060000Y-157180000D02*
X74410000Y-163530000D01*
X74410000Y-163530000D02*
X74410000Y-174930000D01*
X234267500Y-174927500D02*
X234267500Y-165717500D01*
X234420000Y-180130000D02*
X234267500Y-179977500D01*
X234267500Y-179977500D02*
X234267500Y-174927500D01*
X239050000Y-192790000D02*
X239030000Y-192770000D01*
X239050000Y-194272500D02*
X239050000Y-192790000D01*
X234420000Y-180157500D02*
X234420000Y-180130000D01*
X224742500Y-156192500D02*
X224742500Y-146667500D01*
%TO.N,Col 8*%
X253317500Y-165717500D02*
X253317500Y-173677500D01*
X248555000Y-203817500D02*
X248555000Y-220456250D01*
X258080000Y-194292500D02*
X248555000Y-203817500D01*
X248555000Y-220456250D02*
X250983750Y-222885000D01*
X243792500Y-156192500D02*
X253317500Y-165717500D01*
X258080000Y-184767500D02*
X258080000Y-194292500D01*
X68060000Y-159720000D02*
X73210000Y-164870000D01*
X253317500Y-173677500D02*
X253317500Y-180005000D01*
X73210000Y-164870000D02*
X73210000Y-173680000D01*
X253317500Y-180005000D02*
X258080000Y-184767500D01*
X243792500Y-146667500D02*
X243792500Y-156192500D01*
%TO.N,Col 9*%
X262842500Y-156192500D02*
X262842500Y-146667500D01*
X72240000Y-210850000D02*
X72240000Y-166440000D01*
X277130000Y-194292500D02*
X267605000Y-203817500D01*
X347187500Y-146672500D02*
X348552500Y-146672500D01*
X272367500Y-160332500D02*
X274000000Y-158700000D01*
X335140000Y-158720000D02*
X347187500Y-146672500D01*
X272367500Y-165717500D02*
X272367500Y-180005000D01*
X277130000Y-184767500D02*
X277130000Y-194292500D01*
X267610000Y-212430000D02*
X267605000Y-212425000D01*
X272367500Y-165717500D02*
X272367500Y-160332500D01*
X272367500Y-180005000D02*
X277130000Y-184767500D01*
X73030000Y-211640000D02*
X72240000Y-210850000D01*
X72240000Y-166440000D02*
X68060000Y-162260000D01*
X272367500Y-165717500D02*
X262842500Y-156192500D01*
X267605000Y-212425000D02*
X267605000Y-203817500D01*
%TO.N,Col 10*%
X71710000Y-213050000D02*
X70920000Y-212260000D01*
X296180000Y-184767500D02*
X296180000Y-194292500D01*
X286690000Y-213860000D02*
X286655000Y-213895000D01*
X281892500Y-156192500D02*
X291417500Y-165717500D01*
X281892500Y-146667500D02*
X281892500Y-156192500D01*
X70920000Y-212260000D02*
X70920000Y-167660000D01*
X286655000Y-203817500D02*
X286655000Y-213825000D01*
X70920000Y-167660000D02*
X68060000Y-164800000D01*
X286655000Y-213825000D02*
X286690000Y-213860000D01*
X291417500Y-180005000D02*
X296180000Y-184767500D01*
X286655000Y-220456250D02*
X289083750Y-222885000D01*
X296180000Y-194292500D02*
X286655000Y-203817500D01*
X291417500Y-165717500D02*
X291417500Y-180005000D01*
X286655000Y-213895000D02*
X286655000Y-220456250D01*
%TO.N,Col 11*%
X300942500Y-146667500D02*
X300942500Y-156192500D01*
X310467500Y-165717500D02*
X310467500Y-180005000D01*
X300942500Y-156192500D02*
X310467500Y-165717500D01*
X310467500Y-180005000D02*
X315230000Y-184767500D01*
X69520000Y-168800000D02*
X68060000Y-167340000D01*
X305705000Y-215693750D02*
X312896250Y-222885000D01*
X305705000Y-203817500D02*
X305705000Y-215693750D01*
X305705000Y-203817500D02*
X315230000Y-194292500D01*
X69520000Y-213480000D02*
X69520000Y-168800000D01*
X70300000Y-214260000D02*
X69520000Y-213480000D01*
X315230000Y-194292500D02*
X315230000Y-184767500D01*
%TO.N,Col 12*%
X68840000Y-215450000D02*
X68060000Y-214670000D01*
X319992500Y-146667500D02*
X319992500Y-156192500D01*
X341471250Y-218122500D02*
X336708750Y-222885000D01*
X329517500Y-180005000D02*
X334280000Y-184767500D01*
X329517500Y-165717500D02*
X329517500Y-180005000D01*
X68060000Y-214670000D02*
X68060000Y-169880000D01*
X334280000Y-184767500D02*
X334280000Y-196643750D01*
X319992500Y-156192500D02*
X329517500Y-165717500D01*
X334280000Y-196643750D02*
X341471250Y-203835000D01*
X341471250Y-203835000D02*
X341471250Y-218122500D01*
%TD*%
M02*
