G04 #@! TF.GenerationSoftware,KiCad,Pcbnew,(6.0.7-1)-1*
G04 #@! TF.CreationDate,2022-10-03T10:16:15+02:00*
G04 #@! TF.ProjectId,staggered-keyboard,73746167-6765-4726-9564-2d6b6579626f,rev?*
G04 #@! TF.SameCoordinates,Original*
G04 #@! TF.FileFunction,Legend,Top*
G04 #@! TF.FilePolarity,Positive*
%FSLAX46Y46*%
G04 Gerber Fmt 4.6, Leading zero omitted, Abs format (unit mm)*
G04 Created by KiCad (PCBNEW (6.0.7-1)-1) date 2022-10-03 10:16:15*
%MOMM*%
%LPD*%
G01*
G04 APERTURE LIST*
%ADD10C,0.500000*%
%ADD11C,0.150000*%
%ADD12R,1.600000X1.600000*%
%ADD13C,1.600000*%
%ADD14C,2.200000*%
%ADD15C,1.750000*%
%ADD16C,3.987800*%
%ADD17C,3.000000*%
%ADD18C,3.048000*%
G04 APERTURE END LIST*
D10*
X69955267Y-232578571D02*
X69830267Y-232435714D01*
X69562410Y-232292857D01*
X69276696Y-232292857D01*
X68973125Y-232435714D01*
X68812410Y-232578571D01*
X68633839Y-232864285D01*
X68598125Y-233150000D01*
X68705267Y-233435714D01*
X68830267Y-233578571D01*
X69098125Y-233721428D01*
X69383839Y-233721428D01*
X69687410Y-233578571D01*
X69848125Y-233435714D01*
X69990982Y-232292857D02*
X69848125Y-233435714D01*
X69973125Y-233578571D01*
X70115982Y-233578571D01*
X70419553Y-233435714D01*
X70598125Y-233150000D01*
X70687410Y-232435714D01*
X70455267Y-232007142D01*
X70062410Y-231721428D01*
X69508839Y-231578571D01*
X68919553Y-231721428D01*
X68455267Y-232007142D01*
X68115982Y-232435714D01*
X67901696Y-233007142D01*
X67973125Y-233578571D01*
X68205267Y-234007142D01*
X68598125Y-234292857D01*
X69151696Y-234435714D01*
X69740982Y-234292857D01*
X70205267Y-234007142D01*
X71776696Y-234007142D02*
X72151696Y-231007142D01*
X73294553Y-231007142D01*
X73562410Y-231150000D01*
X73687410Y-231292857D01*
X73794553Y-231578571D01*
X73740982Y-232007142D01*
X73562410Y-232292857D01*
X73401696Y-232435714D01*
X73098125Y-232578571D01*
X71955267Y-232578571D01*
X75937410Y-233864285D02*
X75633839Y-234007142D01*
X75062410Y-234007142D01*
X74794553Y-233864285D01*
X74687410Y-233578571D01*
X74830267Y-232435714D01*
X75008839Y-232150000D01*
X75312410Y-232007142D01*
X75883839Y-232007142D01*
X76151696Y-232150000D01*
X76258839Y-232435714D01*
X76223125Y-232721428D01*
X74758839Y-233007142D01*
X78883839Y-232007142D02*
X78633839Y-234007142D01*
X77598125Y-232007142D02*
X77401696Y-233578571D01*
X77508839Y-233864285D01*
X77776696Y-234007142D01*
X78205267Y-234007142D01*
X78508839Y-233864285D01*
X78669553Y-233721428D01*
X80008839Y-231007142D02*
X81723125Y-231007142D01*
X80490982Y-234007142D02*
X80865982Y-231007142D01*
X82348125Y-234007142D02*
X82598125Y-232007142D01*
X82723125Y-231007142D02*
X82562410Y-231150000D01*
X82687410Y-231292857D01*
X82848125Y-231150000D01*
X82723125Y-231007142D01*
X82687410Y-231292857D01*
X83598125Y-232007142D02*
X84740982Y-232007142D01*
X84151696Y-231007142D02*
X83830267Y-233578571D01*
X83937410Y-233864285D01*
X84205267Y-234007142D01*
X84490982Y-234007142D01*
D11*
X227552380Y-215652380D02*
X227219047Y-215176190D01*
X226980952Y-215652380D02*
X226980952Y-214652380D01*
X227361904Y-214652380D01*
X227457142Y-214700000D01*
X227504761Y-214747619D01*
X227552380Y-214842857D01*
X227552380Y-214985714D01*
X227504761Y-215080952D01*
X227457142Y-215128571D01*
X227361904Y-215176190D01*
X226980952Y-215176190D01*
X227980952Y-215128571D02*
X228314285Y-215128571D01*
X228457142Y-215652380D02*
X227980952Y-215652380D01*
X227980952Y-214652380D01*
X228457142Y-214652380D01*
X229219047Y-215128571D02*
X228885714Y-215128571D01*
X228885714Y-215652380D02*
X228885714Y-214652380D01*
X229361904Y-214652380D01*
X230219047Y-214652380D02*
X229742857Y-214652380D01*
X229695238Y-215128571D01*
X229742857Y-215080952D01*
X229838095Y-215033333D01*
X230076190Y-215033333D01*
X230171428Y-215080952D01*
X230219047Y-215128571D01*
X230266666Y-215223809D01*
X230266666Y-215461904D01*
X230219047Y-215557142D01*
X230171428Y-215604761D01*
X230076190Y-215652380D01*
X229838095Y-215652380D01*
X229742857Y-215604761D01*
X229695238Y-215557142D01*
X217952380Y-156302380D02*
X217619047Y-155826190D01*
X217380952Y-156302380D02*
X217380952Y-155302380D01*
X217761904Y-155302380D01*
X217857142Y-155350000D01*
X217904761Y-155397619D01*
X217952380Y-155492857D01*
X217952380Y-155635714D01*
X217904761Y-155730952D01*
X217857142Y-155778571D01*
X217761904Y-155826190D01*
X217380952Y-155826190D01*
X218380952Y-155778571D02*
X218714285Y-155778571D01*
X218857142Y-156302380D02*
X218380952Y-156302380D01*
X218380952Y-155302380D01*
X218857142Y-155302380D01*
X219619047Y-155778571D02*
X219285714Y-155778571D01*
X219285714Y-156302380D02*
X219285714Y-155302380D01*
X219761904Y-155302380D01*
X220095238Y-155397619D02*
X220142857Y-155350000D01*
X220238095Y-155302380D01*
X220476190Y-155302380D01*
X220571428Y-155350000D01*
X220619047Y-155397619D01*
X220666666Y-155492857D01*
X220666666Y-155588095D01*
X220619047Y-155730952D01*
X220047619Y-156302380D01*
X220666666Y-156302380D01*
X350202380Y-157352380D02*
X349869047Y-156876190D01*
X349630952Y-157352380D02*
X349630952Y-156352380D01*
X350011904Y-156352380D01*
X350107142Y-156400000D01*
X350154761Y-156447619D01*
X350202380Y-156542857D01*
X350202380Y-156685714D01*
X350154761Y-156780952D01*
X350107142Y-156828571D01*
X350011904Y-156876190D01*
X349630952Y-156876190D01*
X350630952Y-156828571D02*
X350964285Y-156828571D01*
X351107142Y-157352380D02*
X350630952Y-157352380D01*
X350630952Y-156352380D01*
X351107142Y-156352380D01*
X351869047Y-156828571D02*
X351535714Y-156828571D01*
X351535714Y-157352380D02*
X351535714Y-156352380D01*
X352011904Y-156352380D01*
X352297619Y-156352380D02*
X352916666Y-156352380D01*
X352583333Y-156733333D01*
X352726190Y-156733333D01*
X352821428Y-156780952D01*
X352869047Y-156828571D01*
X352916666Y-156923809D01*
X352916666Y-157161904D01*
X352869047Y-157257142D01*
X352821428Y-157304761D01*
X352726190Y-157352380D01*
X352440476Y-157352380D01*
X352345238Y-157304761D01*
X352297619Y-157257142D01*
X350152380Y-214702380D02*
X349819047Y-214226190D01*
X349580952Y-214702380D02*
X349580952Y-213702380D01*
X349961904Y-213702380D01*
X350057142Y-213750000D01*
X350104761Y-213797619D01*
X350152380Y-213892857D01*
X350152380Y-214035714D01*
X350104761Y-214130952D01*
X350057142Y-214178571D01*
X349961904Y-214226190D01*
X349580952Y-214226190D01*
X350580952Y-214178571D02*
X350914285Y-214178571D01*
X351057142Y-214702380D02*
X350580952Y-214702380D01*
X350580952Y-213702380D01*
X351057142Y-213702380D01*
X351819047Y-214178571D02*
X351485714Y-214178571D01*
X351485714Y-214702380D02*
X351485714Y-213702380D01*
X351961904Y-213702380D01*
X352771428Y-213702380D02*
X352580952Y-213702380D01*
X352485714Y-213750000D01*
X352438095Y-213797619D01*
X352342857Y-213940476D01*
X352295238Y-214130952D01*
X352295238Y-214511904D01*
X352342857Y-214607142D01*
X352390476Y-214654761D01*
X352485714Y-214702380D01*
X352676190Y-214702380D01*
X352771428Y-214654761D01*
X352819047Y-214607142D01*
X352866666Y-214511904D01*
X352866666Y-214273809D01*
X352819047Y-214178571D01*
X352771428Y-214130952D01*
X352676190Y-214083333D01*
X352485714Y-214083333D01*
X352390476Y-214130952D01*
X352342857Y-214178571D01*
X352295238Y-214273809D01*
X76052380Y-149752380D02*
X75719047Y-149276190D01*
X75480952Y-149752380D02*
X75480952Y-148752380D01*
X75861904Y-148752380D01*
X75957142Y-148800000D01*
X76004761Y-148847619D01*
X76052380Y-148942857D01*
X76052380Y-149085714D01*
X76004761Y-149180952D01*
X75957142Y-149228571D01*
X75861904Y-149276190D01*
X75480952Y-149276190D01*
X76480952Y-149228571D02*
X76814285Y-149228571D01*
X76957142Y-149752380D02*
X76480952Y-149752380D01*
X76480952Y-148752380D01*
X76957142Y-148752380D01*
X77719047Y-149228571D02*
X77385714Y-149228571D01*
X77385714Y-149752380D02*
X77385714Y-148752380D01*
X77861904Y-148752380D01*
X78766666Y-149752380D02*
X78195238Y-149752380D01*
X78480952Y-149752380D02*
X78480952Y-148752380D01*
X78385714Y-148895238D01*
X78290476Y-148990476D01*
X78195238Y-149038095D01*
X76202380Y-222002380D02*
X75869047Y-221526190D01*
X75630952Y-222002380D02*
X75630952Y-221002380D01*
X76011904Y-221002380D01*
X76107142Y-221050000D01*
X76154761Y-221097619D01*
X76202380Y-221192857D01*
X76202380Y-221335714D01*
X76154761Y-221430952D01*
X76107142Y-221478571D01*
X76011904Y-221526190D01*
X75630952Y-221526190D01*
X76630952Y-221478571D02*
X76964285Y-221478571D01*
X77107142Y-222002380D02*
X76630952Y-222002380D01*
X76630952Y-221002380D01*
X77107142Y-221002380D01*
X77869047Y-221478571D02*
X77535714Y-221478571D01*
X77535714Y-222002380D02*
X77535714Y-221002380D01*
X78011904Y-221002380D01*
X78821428Y-221335714D02*
X78821428Y-222002380D01*
X78583333Y-220954761D02*
X78345238Y-221669047D01*
X78964285Y-221669047D01*
X71870000Y-138130000D02*
X79490000Y-138130000D01*
X66790000Y-140670000D02*
X66790000Y-171150000D01*
X66790000Y-140670000D02*
X71870000Y-140670000D01*
X79490000Y-140670000D02*
X84570000Y-140670000D01*
X71870000Y-140670000D02*
X71870000Y-138130000D01*
X84570000Y-140670000D02*
X84570000Y-171150000D01*
X84570000Y-171150000D02*
X66790000Y-171150000D01*
X79490000Y-138130000D02*
X79490000Y-140670000D01*
D12*
X68060000Y-141940000D03*
D13*
X68060000Y-144480000D03*
X68060000Y-147020000D03*
X68060000Y-149560000D03*
X68060000Y-152100000D03*
X68060000Y-154640000D03*
X68060000Y-157180000D03*
X68060000Y-159720000D03*
X68060000Y-162260000D03*
X68060000Y-164800000D03*
X68060000Y-167340000D03*
X68060000Y-169880000D03*
X83300000Y-169880000D03*
X83300000Y-167340000D03*
X83300000Y-164800000D03*
X83300000Y-162260000D03*
X83300000Y-159720000D03*
X83300000Y-157180000D03*
X83300000Y-154640000D03*
X83300000Y-152100000D03*
X83300000Y-149560000D03*
X83300000Y-147020000D03*
X83300000Y-144480000D03*
X83300000Y-141940000D03*
%LPC*%
D14*
X228600000Y-217050000D03*
X219000000Y-157550000D03*
X351250000Y-158750000D03*
X351200000Y-215900000D03*
X77100000Y-151200000D03*
X77250000Y-223450000D03*
D15*
X194897500Y-168257500D03*
D16*
X199977500Y-168257500D03*
D15*
X205057500Y-168257500D03*
D17*
X202517500Y-163177500D03*
X196167500Y-165717500D03*
D15*
X257445000Y-206357500D03*
D17*
X254905000Y-201277500D03*
D16*
X252365000Y-206357500D03*
D15*
X247285000Y-206357500D03*
D17*
X248555000Y-203817500D03*
D15*
X314595000Y-206357500D03*
X304435000Y-206357500D03*
D17*
X312055000Y-201277500D03*
X305705000Y-203817500D03*
D16*
X309515000Y-206357500D03*
D15*
X328247500Y-168257500D03*
X338407500Y-168257500D03*
D17*
X335867500Y-163177500D03*
X329517500Y-165717500D03*
D16*
X333327500Y-168257500D03*
D15*
X294910000Y-187307500D03*
D16*
X299990000Y-187307500D03*
D15*
X305070000Y-187307500D03*
D17*
X302530000Y-182227500D03*
X296180000Y-184767500D03*
D16*
X352362500Y-149212500D03*
D18*
X340424500Y-142227500D03*
D17*
X354902500Y-144132500D03*
D16*
X340424500Y-157467500D03*
D17*
X348552500Y-146672500D03*
D16*
X364300500Y-157467500D03*
D15*
X347282500Y-149212500D03*
D18*
X364300500Y-142227500D03*
D15*
X357442500Y-149212500D03*
D17*
X215217500Y-165717500D03*
D16*
X219027500Y-168257500D03*
D15*
X224107500Y-168257500D03*
X213947500Y-168257500D03*
D17*
X221567500Y-163177500D03*
X358140000Y-222885000D03*
D16*
X361950000Y-225425000D03*
D17*
X364490000Y-220345000D03*
D15*
X356870000Y-225425000D03*
X367030000Y-225425000D03*
X100290000Y-149220000D03*
D16*
X95210000Y-149220000D03*
D17*
X97750000Y-144140000D03*
X91400000Y-146680000D03*
D15*
X90130000Y-149220000D03*
D17*
X205692500Y-146667500D03*
D16*
X209502500Y-149207500D03*
D15*
X204422500Y-149207500D03*
X214582500Y-149207500D03*
D17*
X212042500Y-144127500D03*
X269192500Y-144127500D03*
D15*
X261572500Y-149207500D03*
D16*
X266652500Y-149207500D03*
D17*
X262842500Y-146667500D03*
D15*
X271732500Y-149207500D03*
X266335000Y-206357500D03*
D16*
X271415000Y-206357500D03*
D17*
X273955000Y-201277500D03*
D15*
X276495000Y-206357500D03*
D17*
X267605000Y-203817500D03*
D15*
X147907500Y-168257500D03*
D16*
X142827500Y-168257500D03*
D17*
X139017500Y-165717500D03*
X145367500Y-163177500D03*
D15*
X137747500Y-168257500D03*
X290147500Y-168257500D03*
D17*
X291417500Y-165717500D03*
D15*
X300307500Y-168257500D03*
D17*
X297767500Y-163177500D03*
D16*
X295227500Y-168257500D03*
D17*
X240617500Y-163177500D03*
D15*
X243157500Y-168257500D03*
D16*
X238077500Y-168257500D03*
D15*
X232997500Y-168257500D03*
D17*
X234267500Y-165717500D03*
D15*
X223472500Y-149207500D03*
D17*
X231092500Y-144127500D03*
D15*
X233632500Y-149207500D03*
D17*
X224742500Y-146667500D03*
D16*
X228552500Y-149207500D03*
D17*
X140605000Y-201277500D03*
X134255000Y-203817500D03*
D15*
X143145000Y-206357500D03*
D16*
X138065000Y-206357500D03*
D15*
X132985000Y-206357500D03*
D17*
X115270000Y-203850000D03*
X121620000Y-201310000D03*
D15*
X124160000Y-206390000D03*
X114000000Y-206390000D03*
D16*
X119080000Y-206390000D03*
D17*
X97790000Y-220345000D03*
D15*
X90170000Y-225425000D03*
D16*
X95250000Y-225425000D03*
D17*
X91440000Y-222885000D03*
D15*
X100330000Y-225425000D03*
D16*
X133302500Y-149207500D03*
D15*
X128222500Y-149207500D03*
D17*
X129492500Y-146667500D03*
X135842500Y-144127500D03*
D15*
X138382500Y-149207500D03*
X262207500Y-168257500D03*
X252047500Y-168257500D03*
D17*
X259667500Y-163177500D03*
X253317500Y-165717500D03*
D16*
X257127500Y-168257500D03*
D15*
X157432500Y-149207500D03*
D17*
X154892500Y-144127500D03*
D16*
X152352500Y-149207500D03*
D15*
X147272500Y-149207500D03*
D17*
X148542500Y-146667500D03*
X235855000Y-201277500D03*
D16*
X233315000Y-206357500D03*
D15*
X228235000Y-206357500D03*
D17*
X229505000Y-203817500D03*
D15*
X238395000Y-206357500D03*
X287813750Y-225425000D03*
D17*
X295433750Y-220345000D03*
X289083750Y-222885000D03*
D16*
X292893750Y-225425000D03*
D15*
X297973750Y-225425000D03*
D16*
X333343250Y-214630000D03*
X345281250Y-206375000D03*
D18*
X357219250Y-199390000D03*
D17*
X341471250Y-203835000D03*
D18*
X333343250Y-199390000D03*
D17*
X347821250Y-201295000D03*
D15*
X340201250Y-206375000D03*
X350361250Y-206375000D03*
D16*
X357219250Y-214630000D03*
X116681250Y-225425000D03*
D17*
X119221250Y-220345000D03*
D15*
X121761250Y-225425000D03*
X111601250Y-225425000D03*
D17*
X112871250Y-222885000D03*
D15*
X249713750Y-225425000D03*
D17*
X250983750Y-222885000D03*
D15*
X259873750Y-225425000D03*
D16*
X242855750Y-217170000D03*
X254793750Y-225425000D03*
D17*
X257333750Y-220345000D03*
D16*
X266731750Y-217170000D03*
D18*
X242855750Y-232410000D03*
X266731750Y-232410000D03*
D17*
X288242500Y-144127500D03*
D15*
X290782500Y-149207500D03*
D17*
X281892500Y-146667500D03*
D16*
X285702500Y-149207500D03*
D15*
X280622500Y-149207500D03*
D17*
X226330000Y-182227500D03*
D16*
X223790000Y-187307500D03*
D15*
X228870000Y-187307500D03*
X218710000Y-187307500D03*
D17*
X219980000Y-184767500D03*
X319992500Y-146667500D03*
X326342500Y-144127500D03*
D15*
X318722500Y-149207500D03*
D16*
X323802500Y-149207500D03*
D15*
X328882500Y-149207500D03*
D17*
X340630000Y-182227500D03*
X334280000Y-184767500D03*
D15*
X333010000Y-187307500D03*
D16*
X338090000Y-187307500D03*
D15*
X343170000Y-187307500D03*
D17*
X245380000Y-182227500D03*
X239030000Y-184767500D03*
D15*
X247920000Y-187307500D03*
D16*
X242840000Y-187307500D03*
D15*
X237760000Y-187307500D03*
D17*
X355711250Y-175242500D03*
D16*
X351266250Y-165844500D03*
D15*
X364601250Y-177782500D03*
D18*
X366506250Y-189720500D03*
D15*
X354441250Y-177782500D03*
D18*
X366506250Y-165844500D03*
D16*
X359521250Y-177782500D03*
D17*
X362061250Y-172702500D03*
D16*
X351266250Y-189720500D03*
D17*
X167592500Y-146667500D03*
D15*
X176482500Y-149207500D03*
D17*
X173942500Y-144127500D03*
D16*
X171402500Y-149207500D03*
D15*
X166322500Y-149207500D03*
D16*
X166640000Y-187307500D03*
D17*
X162830000Y-184767500D03*
D15*
X171720000Y-187307500D03*
D17*
X169180000Y-182227500D03*
D15*
X161560000Y-187307500D03*
X324120000Y-187307500D03*
D17*
X315230000Y-184767500D03*
X321580000Y-182227500D03*
D15*
X313960000Y-187307500D03*
D16*
X319040000Y-187307500D03*
D17*
X116760000Y-144130000D03*
D16*
X114220000Y-149210000D03*
D15*
X119300000Y-149210000D03*
X109140000Y-149210000D03*
D17*
X110410000Y-146670000D03*
X160496250Y-222885000D03*
D15*
X169386250Y-225425000D03*
D17*
X166846250Y-220345000D03*
D16*
X164306250Y-225425000D03*
D15*
X159226250Y-225425000D03*
D17*
X96165000Y-165710000D03*
D16*
X99975000Y-168250000D03*
D15*
X94895000Y-168250000D03*
D17*
X102515000Y-163170000D03*
D15*
X105055000Y-168250000D03*
D16*
X140493750Y-225425000D03*
D17*
X136683750Y-222885000D03*
D15*
X135413750Y-225425000D03*
D17*
X143033750Y-220345000D03*
D15*
X145573750Y-225425000D03*
D16*
X314277500Y-168257500D03*
D15*
X319357500Y-168257500D03*
D17*
X310467500Y-165717500D03*
X316817500Y-163177500D03*
D15*
X309197500Y-168257500D03*
D17*
X312896250Y-222885000D03*
D15*
X311626250Y-225425000D03*
D16*
X316706250Y-225425000D03*
D17*
X319246250Y-220345000D03*
D15*
X321786250Y-225425000D03*
X252682500Y-149207500D03*
D16*
X247602500Y-149207500D03*
D17*
X243792500Y-146667500D03*
X250142500Y-144127500D03*
D15*
X242522500Y-149207500D03*
X199660000Y-187307500D03*
X209820000Y-187307500D03*
D17*
X207280000Y-182227500D03*
D16*
X204740000Y-187307500D03*
D17*
X200930000Y-184767500D03*
X98583750Y-184785000D03*
D15*
X97313750Y-187325000D03*
X107473750Y-187325000D03*
D17*
X104933750Y-182245000D03*
D16*
X102393750Y-187325000D03*
D17*
X158067500Y-165717500D03*
X164417500Y-163177500D03*
D15*
X166957500Y-168257500D03*
X156797500Y-168257500D03*
D16*
X161877500Y-168257500D03*
X176165000Y-206357500D03*
D15*
X171085000Y-206357500D03*
X181245000Y-206357500D03*
D17*
X172355000Y-203817500D03*
X178705000Y-201277500D03*
D16*
X185690000Y-187307500D03*
D17*
X188230000Y-182227500D03*
D15*
X190770000Y-187307500D03*
X180610000Y-187307500D03*
D17*
X181880000Y-184767500D03*
D16*
X304752500Y-149207500D03*
D15*
X309832500Y-149207500D03*
D17*
X307292500Y-144127500D03*
X300942500Y-146667500D03*
D15*
X299672500Y-149207500D03*
X209185000Y-206357500D03*
D16*
X214265000Y-206357500D03*
D17*
X216805000Y-201277500D03*
X210455000Y-203817500D03*
D15*
X219345000Y-206357500D03*
D17*
X100171250Y-201295000D03*
X93821250Y-203835000D03*
D16*
X97631250Y-206375000D03*
D15*
X102711250Y-206375000D03*
X92551250Y-206375000D03*
D17*
X343058750Y-220345000D03*
X336708750Y-222885000D03*
D15*
X345598750Y-225425000D03*
D16*
X340518750Y-225425000D03*
D15*
X335438750Y-225425000D03*
D16*
X261890000Y-187307500D03*
D15*
X266970000Y-187307500D03*
X256810000Y-187307500D03*
D17*
X264430000Y-182227500D03*
X258080000Y-184767500D03*
X293005000Y-201277500D03*
D16*
X290465000Y-206357500D03*
D17*
X286655000Y-203817500D03*
D15*
X285385000Y-206357500D03*
X295545000Y-206357500D03*
D17*
X186642500Y-146667500D03*
X192992500Y-144127500D03*
D15*
X195532500Y-149207500D03*
D16*
X190452500Y-149207500D03*
D15*
X185372500Y-149207500D03*
D16*
X276177500Y-168257500D03*
D17*
X272367500Y-165717500D03*
D15*
X271097500Y-168257500D03*
X281257500Y-168257500D03*
D17*
X278717500Y-163177500D03*
X131080000Y-182227500D03*
D15*
X133620000Y-187307500D03*
D17*
X124730000Y-184767500D03*
D16*
X128540000Y-187307500D03*
D15*
X123460000Y-187307500D03*
X190135000Y-206357500D03*
D17*
X191405000Y-203817500D03*
X197755000Y-201277500D03*
D15*
X200295000Y-206357500D03*
D16*
X195215000Y-206357500D03*
X157115000Y-206357500D03*
D15*
X162195000Y-206357500D03*
D17*
X159655000Y-201277500D03*
D15*
X152035000Y-206357500D03*
D17*
X153305000Y-203817500D03*
D15*
X186007500Y-168257500D03*
D16*
X180927500Y-168257500D03*
D17*
X177117500Y-165717500D03*
X183467500Y-163177500D03*
D15*
X175847500Y-168257500D03*
D17*
X277130000Y-184767500D03*
D15*
X286020000Y-187307500D03*
D16*
X280940000Y-187307500D03*
D17*
X283480000Y-182227500D03*
D15*
X275860000Y-187307500D03*
D17*
X126317500Y-163177500D03*
D15*
X118697500Y-168257500D03*
X128857500Y-168257500D03*
D17*
X119967500Y-165717500D03*
D16*
X123777500Y-168257500D03*
X202406250Y-225425000D03*
D15*
X207486250Y-225425000D03*
D16*
X190468250Y-217170000D03*
D18*
X214344250Y-232410000D03*
D15*
X197326250Y-225425000D03*
D18*
X190468250Y-232410000D03*
D17*
X198596250Y-222885000D03*
X204946250Y-220345000D03*
D16*
X214344250Y-217170000D03*
D15*
X142510000Y-187307500D03*
D17*
X150130000Y-182227500D03*
X143780000Y-184767500D03*
D16*
X147590000Y-187307500D03*
D15*
X152670000Y-187307500D03*
D12*
X68060000Y-141940000D03*
D13*
X68060000Y-144480000D03*
X68060000Y-147020000D03*
X68060000Y-149560000D03*
X68060000Y-152100000D03*
X68060000Y-154640000D03*
X68060000Y-157180000D03*
X68060000Y-159720000D03*
X68060000Y-162260000D03*
X68060000Y-164800000D03*
X68060000Y-167340000D03*
X68060000Y-169880000D03*
X83300000Y-169880000D03*
X83300000Y-167340000D03*
X83300000Y-164800000D03*
X83300000Y-162260000D03*
X83300000Y-159720000D03*
X83300000Y-157180000D03*
X83300000Y-154640000D03*
X83300000Y-152100000D03*
X83300000Y-149560000D03*
X83300000Y-147020000D03*
X83300000Y-144480000D03*
X83300000Y-141940000D03*
M02*
