%TF.GenerationSoftware,KiCad,Pcbnew,(6.0.7-1)-1*%
%TF.CreationDate,2022-10-01T18:19:12+02:00*%
%TF.ProjectId,staggered-keyboard,73746167-6765-4726-9564-2d6b6579626f,rev?*%
%TF.SameCoordinates,Original*%
%TF.FileFunction,Soldermask,Top*%
%TF.FilePolarity,Negative*%
%FSLAX46Y46*%
G04 Gerber Fmt 4.6, Leading zero omitted, Abs format (unit mm)*
G04 Created by KiCad (PCBNEW (6.0.7-1)-1) date 2022-10-01 18:19:12*
%MOMM*%
%LPD*%
G01*
G04 APERTURE LIST*
%ADD10C,3.000000*%
%ADD11C,3.987800*%
%ADD12C,1.750000*%
%ADD13C,3.048000*%
%ADD14R,1.600000X1.600000*%
%ADD15C,1.600000*%
G04 APERTURE END LIST*
D10*
%TO.C,MX54*%
X347821250Y-201295000D03*
D11*
X345281250Y-206375000D03*
D10*
X341471250Y-203835000D03*
D12*
X340201250Y-206375000D03*
X350361250Y-206375000D03*
D13*
X357219250Y-199390000D03*
X333343250Y-199390000D03*
D11*
X357219250Y-214630000D03*
X333343250Y-214630000D03*
%TD*%
D10*
%TO.C,MX60*%
X257333750Y-220345000D03*
D11*
X254793750Y-225425000D03*
D10*
X250983750Y-222885000D03*
D12*
X249713750Y-225425000D03*
X259873750Y-225425000D03*
D13*
X266731750Y-232410000D03*
X242855750Y-232410000D03*
D11*
X266731750Y-217170000D03*
X242855750Y-217170000D03*
%TD*%
D10*
%TO.C,MX59*%
X204946250Y-220345000D03*
D11*
X202406250Y-225425000D03*
D10*
X198596250Y-222885000D03*
D12*
X197326250Y-225425000D03*
X207486250Y-225425000D03*
D13*
X214344250Y-232410000D03*
X190468250Y-232410000D03*
D11*
X214344250Y-217170000D03*
X190468250Y-217170000D03*
%TD*%
D10*
%TO.C,MX61*%
X295433750Y-220345000D03*
D11*
X292893750Y-225425000D03*
D10*
X289083750Y-222885000D03*
D12*
X287813750Y-225425000D03*
X297973750Y-225425000D03*
%TD*%
D10*
%TO.C,MX56*%
X119221250Y-220345000D03*
D11*
X116681250Y-225425000D03*
D10*
X112871250Y-222885000D03*
D12*
X111601250Y-225425000D03*
X121761250Y-225425000D03*
%TD*%
D10*
%TO.C,MX58*%
X166846250Y-220345000D03*
D11*
X164306250Y-225425000D03*
D10*
X160496250Y-222885000D03*
D12*
X159226250Y-225425000D03*
X169386250Y-225425000D03*
%TD*%
D10*
%TO.C,MX57*%
X143033750Y-220345000D03*
D11*
X140493750Y-225425000D03*
D10*
X136683750Y-222885000D03*
D12*
X135413750Y-225425000D03*
X145573750Y-225425000D03*
%TD*%
D10*
%TO.C,MX62*%
X319246250Y-220345000D03*
D11*
X316706250Y-225425000D03*
D10*
X312896250Y-222885000D03*
D12*
X311626250Y-225425000D03*
X321786250Y-225425000D03*
%TD*%
D10*
%TO.C,MX42*%
X100171250Y-201295000D03*
D11*
X97631250Y-206375000D03*
D10*
X93821250Y-203835000D03*
D12*
X92551250Y-206375000D03*
X102711250Y-206375000D03*
%TD*%
D10*
%TO.C,MX63*%
X343058750Y-220345000D03*
D11*
X340518750Y-225425000D03*
D10*
X336708750Y-222885000D03*
D12*
X335438750Y-225425000D03*
X345598750Y-225425000D03*
%TD*%
D10*
%TO.C,MX29*%
X104933750Y-182245000D03*
D11*
X102393750Y-187325000D03*
D10*
X98583750Y-184785000D03*
D12*
X97313750Y-187325000D03*
X107473750Y-187325000D03*
%TD*%
%TO.C,MX15*%
X105055000Y-168250000D03*
X94895000Y-168250000D03*
D10*
X96165000Y-165710000D03*
D11*
X99975000Y-168250000D03*
D10*
X102515000Y-163170000D03*
%TD*%
D11*
%TO.C,MX28*%
X351266250Y-165844500D03*
X351266250Y-189720500D03*
D13*
X366506250Y-165844500D03*
X366506250Y-189720500D03*
D12*
X364601250Y-177782500D03*
X354441250Y-177782500D03*
D11*
X359521250Y-177782500D03*
D10*
X362061250Y-172702500D03*
X355711250Y-175242500D03*
%TD*%
%TO.C,MX14*%
X354902500Y-144132500D03*
D11*
X352362500Y-149212500D03*
D10*
X348552500Y-146672500D03*
D12*
X347282500Y-149212500D03*
X357442500Y-149212500D03*
D13*
X364300500Y-142227500D03*
X340424500Y-142227500D03*
D11*
X364300500Y-157467500D03*
X340424500Y-157467500D03*
%TD*%
D10*
%TO.C,MX1*%
X97750000Y-144140000D03*
D11*
X95210000Y-149220000D03*
D10*
X91400000Y-146680000D03*
D12*
X90130000Y-149220000D03*
X100290000Y-149220000D03*
%TD*%
D10*
%TO.C,MX20*%
X202517500Y-163177500D03*
D11*
X199977500Y-168257500D03*
D10*
X196167500Y-165717500D03*
D12*
X194897500Y-168257500D03*
X205057500Y-168257500D03*
%TD*%
D10*
%TO.C,MX50*%
X254905000Y-201277500D03*
D11*
X252365000Y-206357500D03*
D10*
X248555000Y-203817500D03*
D12*
X247285000Y-206357500D03*
X257445000Y-206357500D03*
%TD*%
D10*
%TO.C,MX53*%
X312055000Y-201277500D03*
D11*
X309515000Y-206357500D03*
D10*
X305705000Y-203817500D03*
D12*
X304435000Y-206357500D03*
X314595000Y-206357500D03*
%TD*%
D10*
%TO.C,MX27*%
X335867500Y-163177500D03*
D11*
X333327500Y-168257500D03*
D10*
X329517500Y-165717500D03*
D12*
X328247500Y-168257500D03*
X338407500Y-168257500D03*
%TD*%
D10*
%TO.C,MX39*%
X302530000Y-182227500D03*
D11*
X299990000Y-187307500D03*
D10*
X296180000Y-184767500D03*
D12*
X294910000Y-187307500D03*
X305070000Y-187307500D03*
%TD*%
D10*
%TO.C,MX21*%
X221567500Y-163177500D03*
D11*
X219027500Y-168257500D03*
D10*
X215217500Y-165717500D03*
D12*
X213947500Y-168257500D03*
X224107500Y-168257500D03*
%TD*%
D10*
%TO.C,MX64*%
X364490000Y-220345000D03*
D11*
X361950000Y-225425000D03*
D10*
X358140000Y-222885000D03*
D12*
X356870000Y-225425000D03*
X367030000Y-225425000D03*
%TD*%
D10*
%TO.C,MX7*%
X212042500Y-144127500D03*
D11*
X209502500Y-149207500D03*
D10*
X205692500Y-146667500D03*
D12*
X204422500Y-149207500D03*
X214582500Y-149207500D03*
%TD*%
D10*
%TO.C,MX10*%
X269192500Y-144127500D03*
D11*
X266652500Y-149207500D03*
D10*
X262842500Y-146667500D03*
D12*
X261572500Y-149207500D03*
X271732500Y-149207500D03*
%TD*%
D10*
%TO.C,MX51*%
X273955000Y-201277500D03*
D11*
X271415000Y-206357500D03*
D10*
X267605000Y-203817500D03*
D12*
X266335000Y-206357500D03*
X276495000Y-206357500D03*
%TD*%
D10*
%TO.C,MX17*%
X145367500Y-163177500D03*
D11*
X142827500Y-168257500D03*
D10*
X139017500Y-165717500D03*
D12*
X137747500Y-168257500D03*
X147907500Y-168257500D03*
%TD*%
D10*
%TO.C,MX25*%
X297767500Y-163177500D03*
D11*
X295227500Y-168257500D03*
D10*
X291417500Y-165717500D03*
D12*
X290147500Y-168257500D03*
X300307500Y-168257500D03*
%TD*%
D10*
%TO.C,MX22*%
X240617500Y-163177500D03*
D11*
X238077500Y-168257500D03*
D10*
X234267500Y-165717500D03*
D12*
X232997500Y-168257500D03*
X243157500Y-168257500D03*
%TD*%
D10*
%TO.C,MX8*%
X231092500Y-144127500D03*
D11*
X228552500Y-149207500D03*
D10*
X224742500Y-146667500D03*
D12*
X223472500Y-149207500D03*
X233632500Y-149207500D03*
%TD*%
D10*
%TO.C,MX44*%
X140605000Y-201277500D03*
D11*
X138065000Y-206357500D03*
D10*
X134255000Y-203817500D03*
D12*
X132985000Y-206357500D03*
X143145000Y-206357500D03*
%TD*%
D10*
%TO.C,MX43*%
X121620000Y-201310000D03*
D11*
X119080000Y-206390000D03*
D10*
X115270000Y-203850000D03*
D12*
X114000000Y-206390000D03*
X124160000Y-206390000D03*
%TD*%
D10*
%TO.C,MX55*%
X97790000Y-220345000D03*
D11*
X95250000Y-225425000D03*
D10*
X91440000Y-222885000D03*
D12*
X90170000Y-225425000D03*
X100330000Y-225425000D03*
%TD*%
D10*
%TO.C,MX3*%
X135842500Y-144127500D03*
D11*
X133302500Y-149207500D03*
D10*
X129492500Y-146667500D03*
D12*
X128222500Y-149207500D03*
X138382500Y-149207500D03*
%TD*%
D10*
%TO.C,MX23*%
X259667500Y-163177500D03*
D11*
X257127500Y-168257500D03*
D10*
X253317500Y-165717500D03*
D12*
X252047500Y-168257500D03*
X262207500Y-168257500D03*
%TD*%
D10*
%TO.C,MX4*%
X154892500Y-144127500D03*
D11*
X152352500Y-149207500D03*
D10*
X148542500Y-146667500D03*
D12*
X147272500Y-149207500D03*
X157432500Y-149207500D03*
%TD*%
D10*
%TO.C,MX49*%
X235855000Y-201277500D03*
D11*
X233315000Y-206357500D03*
D10*
X229505000Y-203817500D03*
D12*
X228235000Y-206357500D03*
X238395000Y-206357500D03*
%TD*%
D10*
%TO.C,MX11*%
X288242500Y-144127500D03*
D11*
X285702500Y-149207500D03*
D10*
X281892500Y-146667500D03*
D12*
X280622500Y-149207500D03*
X290782500Y-149207500D03*
%TD*%
D10*
%TO.C,MX35*%
X226330000Y-182227500D03*
D11*
X223790000Y-187307500D03*
D10*
X219980000Y-184767500D03*
D12*
X218710000Y-187307500D03*
X228870000Y-187307500D03*
%TD*%
D10*
%TO.C,MX13*%
X326342500Y-144127500D03*
D11*
X323802500Y-149207500D03*
D10*
X319992500Y-146667500D03*
D12*
X318722500Y-149207500D03*
X328882500Y-149207500D03*
%TD*%
D10*
%TO.C,MX41*%
X340630000Y-182227500D03*
D11*
X338090000Y-187307500D03*
D10*
X334280000Y-184767500D03*
D12*
X333010000Y-187307500D03*
X343170000Y-187307500D03*
%TD*%
D10*
%TO.C,MX36*%
X245380000Y-182227500D03*
D11*
X242840000Y-187307500D03*
D10*
X239030000Y-184767500D03*
D12*
X237760000Y-187307500D03*
X247920000Y-187307500D03*
%TD*%
D10*
%TO.C,MX5*%
X173942500Y-144127500D03*
D11*
X171402500Y-149207500D03*
D10*
X167592500Y-146667500D03*
D12*
X166322500Y-149207500D03*
X176482500Y-149207500D03*
%TD*%
D10*
%TO.C,MX32*%
X169180000Y-182227500D03*
D11*
X166640000Y-187307500D03*
D10*
X162830000Y-184767500D03*
D12*
X161560000Y-187307500D03*
X171720000Y-187307500D03*
%TD*%
D10*
%TO.C,MX40*%
X321580000Y-182227500D03*
D11*
X319040000Y-187307500D03*
D10*
X315230000Y-184767500D03*
D12*
X313960000Y-187307500D03*
X324120000Y-187307500D03*
%TD*%
D10*
%TO.C,MX2*%
X116760000Y-144130000D03*
D11*
X114220000Y-149210000D03*
D10*
X110410000Y-146670000D03*
D12*
X109140000Y-149210000D03*
X119300000Y-149210000D03*
%TD*%
D10*
%TO.C,MX26*%
X316817500Y-163177500D03*
D11*
X314277500Y-168257500D03*
D10*
X310467500Y-165717500D03*
D12*
X309197500Y-168257500D03*
X319357500Y-168257500D03*
%TD*%
D10*
%TO.C,MX9*%
X250142500Y-144127500D03*
D11*
X247602500Y-149207500D03*
D10*
X243792500Y-146667500D03*
D12*
X242522500Y-149207500D03*
X252682500Y-149207500D03*
%TD*%
D10*
%TO.C,MX34*%
X207280000Y-182227500D03*
D11*
X204740000Y-187307500D03*
D10*
X200930000Y-184767500D03*
D12*
X199660000Y-187307500D03*
X209820000Y-187307500D03*
%TD*%
D10*
%TO.C,MX18*%
X164417500Y-163177500D03*
D11*
X161877500Y-168257500D03*
D10*
X158067500Y-165717500D03*
D12*
X156797500Y-168257500D03*
X166957500Y-168257500D03*
%TD*%
D10*
%TO.C,MX46*%
X178705000Y-201277500D03*
D11*
X176165000Y-206357500D03*
D10*
X172355000Y-203817500D03*
D12*
X171085000Y-206357500D03*
X181245000Y-206357500D03*
%TD*%
D10*
%TO.C,MX33*%
X188230000Y-182227500D03*
D11*
X185690000Y-187307500D03*
D10*
X181880000Y-184767500D03*
D12*
X180610000Y-187307500D03*
X190770000Y-187307500D03*
%TD*%
D10*
%TO.C,MX12*%
X307292500Y-144127500D03*
D11*
X304752500Y-149207500D03*
D10*
X300942500Y-146667500D03*
D12*
X299672500Y-149207500D03*
X309832500Y-149207500D03*
%TD*%
D10*
%TO.C,MX48*%
X216805000Y-201277500D03*
D11*
X214265000Y-206357500D03*
D10*
X210455000Y-203817500D03*
D12*
X209185000Y-206357500D03*
X219345000Y-206357500D03*
%TD*%
D10*
%TO.C,MX37*%
X264430000Y-182227500D03*
D11*
X261890000Y-187307500D03*
D10*
X258080000Y-184767500D03*
D12*
X256810000Y-187307500D03*
X266970000Y-187307500D03*
%TD*%
D10*
%TO.C,MX52*%
X293005000Y-201277500D03*
D11*
X290465000Y-206357500D03*
D10*
X286655000Y-203817500D03*
D12*
X285385000Y-206357500D03*
X295545000Y-206357500D03*
%TD*%
D10*
%TO.C,MX6*%
X192992500Y-144127500D03*
D11*
X190452500Y-149207500D03*
D10*
X186642500Y-146667500D03*
D12*
X185372500Y-149207500D03*
X195532500Y-149207500D03*
%TD*%
D10*
%TO.C,MX24*%
X278717500Y-163177500D03*
D11*
X276177500Y-168257500D03*
D10*
X272367500Y-165717500D03*
D12*
X271097500Y-168257500D03*
X281257500Y-168257500D03*
%TD*%
D10*
%TO.C,MX30*%
X131080000Y-182227500D03*
D11*
X128540000Y-187307500D03*
D10*
X124730000Y-184767500D03*
D12*
X123460000Y-187307500D03*
X133620000Y-187307500D03*
%TD*%
D10*
%TO.C,MX47*%
X197755000Y-201277500D03*
D11*
X195215000Y-206357500D03*
D10*
X191405000Y-203817500D03*
D12*
X190135000Y-206357500D03*
X200295000Y-206357500D03*
%TD*%
D10*
%TO.C,MX45*%
X159655000Y-201277500D03*
D11*
X157115000Y-206357500D03*
D10*
X153305000Y-203817500D03*
D12*
X152035000Y-206357500D03*
X162195000Y-206357500D03*
%TD*%
D10*
%TO.C,MX19*%
X183467500Y-163177500D03*
D11*
X180927500Y-168257500D03*
D10*
X177117500Y-165717500D03*
D12*
X175847500Y-168257500D03*
X186007500Y-168257500D03*
%TD*%
D10*
%TO.C,MX38*%
X283480000Y-182227500D03*
D11*
X280940000Y-187307500D03*
D10*
X277130000Y-184767500D03*
D12*
X275860000Y-187307500D03*
X286020000Y-187307500D03*
%TD*%
D10*
%TO.C,MX16*%
X126317500Y-163177500D03*
D11*
X123777500Y-168257500D03*
D10*
X119967500Y-165717500D03*
D12*
X118697500Y-168257500D03*
X128857500Y-168257500D03*
%TD*%
D10*
%TO.C,MX31*%
X150130000Y-182227500D03*
D11*
X147590000Y-187307500D03*
D10*
X143780000Y-184767500D03*
D12*
X142510000Y-187307500D03*
X152670000Y-187307500D03*
%TD*%
D14*
%TO.C,U1*%
X68060000Y-141940000D03*
D15*
X68060000Y-144480000D03*
X68060000Y-147020000D03*
X68060000Y-149560000D03*
X68060000Y-152100000D03*
X68060000Y-154640000D03*
X68060000Y-157180000D03*
X68060000Y-159720000D03*
X68060000Y-162260000D03*
X68060000Y-164800000D03*
X68060000Y-167340000D03*
X68060000Y-169880000D03*
X83300000Y-169880000D03*
X83300000Y-167340000D03*
X83300000Y-164800000D03*
X83300000Y-162260000D03*
X83300000Y-159720000D03*
X83300000Y-157180000D03*
X83300000Y-154640000D03*
X83300000Y-152100000D03*
X83300000Y-149560000D03*
X83300000Y-147020000D03*
X83300000Y-144480000D03*
X83300000Y-141940000D03*
%TD*%
M02*
