%TF.GenerationSoftware,KiCad,Pcbnew,(6.0.7-1)-1*%
%TF.CreationDate,2022-09-29T18:34:29+02:00*%
%TF.ProjectId,staggered-keyboard,73746167-6765-4726-9564-2d6b6579626f,rev?*%
%TF.SameCoordinates,Original*%
%TF.FileFunction,Copper,L2,Bot*%
%TF.FilePolarity,Positive*%
%FSLAX46Y46*%
G04 Gerber Fmt 4.6, Leading zero omitted, Abs format (unit mm)*
G04 Created by KiCad (PCBNEW (6.0.7-1)-1) date 2022-09-29 18:34:29*
%MOMM*%
%LPD*%
G01*
G04 APERTURE LIST*
%TA.AperFunction,ComponentPad*%
%ADD10C,2.250000*%
%TD*%
%TA.AperFunction,ComponentPad*%
%ADD11C,1.600000*%
%TD*%
%TA.AperFunction,ComponentPad*%
%ADD12R,1.600000X1.600000*%
%TD*%
%TA.AperFunction,SMDPad,CuDef*%
%ADD13R,1.200000X0.900000*%
%TD*%
%TA.AperFunction,SMDPad,CuDef*%
%ADD14R,0.900000X1.200000*%
%TD*%
%TA.AperFunction,ViaPad*%
%ADD15C,0.800000*%
%TD*%
%TA.AperFunction,Conductor*%
%ADD16C,0.250000*%
%TD*%
G04 APERTURE END LIST*
D10*
%TO.P,MX20,1,COL*%
%TO.N,Col 5*%
X196167500Y-165717500D03*
%TO.P,MX20,2,ROW*%
%TO.N,Net-(D20-Pad2)*%
X202517500Y-163177500D03*
%TD*%
%TO.P,MX50,1,COL*%
%TO.N,Col 8*%
X248555000Y-203817500D03*
%TO.P,MX50,2,ROW*%
%TO.N,Net-(D50-Pad2)*%
X254905000Y-201277500D03*
%TD*%
%TO.P,MX53,1,COL*%
%TO.N,Col 11*%
X305705000Y-203817500D03*
%TO.P,MX53,2,ROW*%
%TO.N,Net-(D53-Pad2)*%
X312055000Y-201277500D03*
%TD*%
%TO.P,MX27,1,COL*%
%TO.N,Col 12*%
X329517500Y-165717500D03*
%TO.P,MX27,2,ROW*%
%TO.N,Net-(D27-Pad2)*%
X335867500Y-163177500D03*
%TD*%
%TO.P,MX39,1,COL*%
%TO.N,Col 10*%
X296180000Y-184767500D03*
%TO.P,MX39,2,ROW*%
%TO.N,Net-(D39-Pad2)*%
X302530000Y-182227500D03*
%TD*%
%TO.P,MX14,1,COL*%
%TO.N,Col 9*%
X348552500Y-146672500D03*
%TO.P,MX14,2,ROW*%
%TO.N,Net-(D14-Pad2)*%
X354902500Y-144132500D03*
%TD*%
%TO.P,MX21,1,COL*%
%TO.N,Col 6*%
X215217500Y-165717500D03*
%TO.P,MX21,2,ROW*%
%TO.N,Net-(D21-Pad2)*%
X221567500Y-163177500D03*
%TD*%
%TO.P,MX64,1,COL*%
%TO.N,Col 6*%
X358140000Y-222885000D03*
%TO.P,MX64,2,ROW*%
%TO.N,Net-(D64-Pad2)*%
X364490000Y-220345000D03*
%TD*%
%TO.P,MX1,1,COL*%
%TO.N,Col 0*%
X91400000Y-146680000D03*
%TO.P,MX1,2,ROW*%
%TO.N,Net-(D1-Pad2)*%
X97750000Y-144140000D03*
%TD*%
%TO.P,MX7,1,COL*%
%TO.N,Col 6*%
X205692500Y-146667500D03*
%TO.P,MX7,2,ROW*%
%TO.N,Net-(D7-Pad2)*%
X212042500Y-144127500D03*
%TD*%
%TO.P,MX10,1,COL*%
%TO.N,Col 9*%
X262842500Y-146667500D03*
%TO.P,MX10,2,ROW*%
%TO.N,Net-(D10-Pad2)*%
X269192500Y-144127500D03*
%TD*%
%TO.P,MX51,1,COL*%
%TO.N,Col 9*%
X267605000Y-203817500D03*
%TO.P,MX51,2,ROW*%
%TO.N,Net-(D51-Pad2)*%
X273955000Y-201277500D03*
%TD*%
%TO.P,MX17,1,COL*%
%TO.N,Col 2*%
X139017500Y-165717500D03*
%TO.P,MX17,2,ROW*%
%TO.N,Net-(D17-Pad2)*%
X145367500Y-163177500D03*
%TD*%
%TO.P,MX25,1,COL*%
%TO.N,Col 10*%
X291417500Y-165717500D03*
%TO.P,MX25,2,ROW*%
%TO.N,Net-(D25-Pad2)*%
X297767500Y-163177500D03*
%TD*%
%TO.P,MX22,1,COL*%
%TO.N,Col 7*%
X234267500Y-165717500D03*
%TO.P,MX22,2,ROW*%
%TO.N,Net-(D22-Pad2)*%
X240617500Y-163177500D03*
%TD*%
%TO.P,MX8,1,COL*%
%TO.N,Col 7*%
X224742500Y-146667500D03*
%TO.P,MX8,2,ROW*%
%TO.N,Net-(D8-Pad2)*%
X231092500Y-144127500D03*
%TD*%
%TO.P,MX44,1,COL*%
%TO.N,Col 2*%
X134255000Y-203817500D03*
%TO.P,MX44,2,ROW*%
%TO.N,Net-(D44-Pad2)*%
X140605000Y-201277500D03*
%TD*%
%TO.P,MX43,1,COL*%
%TO.N,Col 1*%
X115270000Y-203850000D03*
%TO.P,MX43,2,ROW*%
%TO.N,Net-(D43-Pad2)*%
X121620000Y-201310000D03*
%TD*%
%TO.P,MX55,1,COL*%
%TO.N,Col 0*%
X91440000Y-222885000D03*
%TO.P,MX55,2,ROW*%
%TO.N,Net-(D55-Pad2)*%
X97790000Y-220345000D03*
%TD*%
%TO.P,MX3,1,COL*%
%TO.N,Col 2*%
X129492500Y-146667500D03*
%TO.P,MX3,2,ROW*%
%TO.N,Net-(D3-Pad2)*%
X135842500Y-144127500D03*
%TD*%
%TO.P,MX23,1,COL*%
%TO.N,Col 8*%
X253317500Y-165717500D03*
%TO.P,MX23,2,ROW*%
%TO.N,Net-(D23-Pad2)*%
X259667500Y-163177500D03*
%TD*%
%TO.P,MX4,1,COL*%
%TO.N,Col 3*%
X148542500Y-146667500D03*
%TO.P,MX4,2,ROW*%
%TO.N,Net-(D4-Pad2)*%
X154892500Y-144127500D03*
%TD*%
%TO.P,MX49,1,COL*%
%TO.N,Col 7*%
X229505000Y-203817500D03*
%TO.P,MX49,2,ROW*%
%TO.N,Net-(D49-Pad2)*%
X235855000Y-201277500D03*
%TD*%
%TO.P,MX61,1,COL*%
%TO.N,Col 10*%
X289083750Y-222885000D03*
%TO.P,MX61,2,ROW*%
%TO.N,Net-(D61-Pad2)*%
X295433750Y-220345000D03*
%TD*%
%TO.P,MX54,1,COL*%
%TO.N,Col 12*%
X341471250Y-203835000D03*
%TO.P,MX54,2,ROW*%
%TO.N,Net-(D54-Pad2)*%
X347821250Y-201295000D03*
%TD*%
%TO.P,MX56,1,COL*%
%TO.N,Col 1*%
X112871250Y-222885000D03*
%TO.P,MX56,2,ROW*%
%TO.N,Net-(D56-Pad2)*%
X119221250Y-220345000D03*
%TD*%
%TO.P,MX60,1,COL*%
%TO.N,Col 8*%
X250983750Y-222885000D03*
%TO.P,MX60,2,ROW*%
%TO.N,Net-(D60-Pad2)*%
X257333750Y-220345000D03*
%TD*%
%TO.P,MX11,1,COL*%
%TO.N,Col 10*%
X281892500Y-146667500D03*
%TO.P,MX11,2,ROW*%
%TO.N,Net-(D11-Pad2)*%
X288242500Y-144127500D03*
%TD*%
%TO.P,MX35,1,COL*%
%TO.N,Col 6*%
X219980000Y-184767500D03*
%TO.P,MX35,2,ROW*%
%TO.N,Net-(D35-Pad2)*%
X226330000Y-182227500D03*
%TD*%
%TO.P,MX13,1,COL*%
%TO.N,Col 12*%
X319992500Y-146667500D03*
%TO.P,MX13,2,ROW*%
%TO.N,Net-(D13-Pad2)*%
X326342500Y-144127500D03*
%TD*%
%TO.P,MX41,1,COL*%
%TO.N,Col 12*%
X334280000Y-184767500D03*
%TO.P,MX41,2,ROW*%
%TO.N,Net-(D41-Pad2)*%
X340630000Y-182227500D03*
%TD*%
%TO.P,MX36,1,COL*%
%TO.N,Col 7*%
X239030000Y-184767500D03*
%TO.P,MX36,2,ROW*%
%TO.N,Net-(D36-Pad2)*%
X245380000Y-182227500D03*
%TD*%
%TO.P,MX28,1,COL*%
%TO.N,Col 7*%
X355711250Y-175242500D03*
%TO.P,MX28,2,ROW*%
%TO.N,Net-(D28-Pad2)*%
X362061250Y-172702500D03*
%TD*%
%TO.P,MX5,1,COL*%
%TO.N,Col 4*%
X167592500Y-146667500D03*
%TO.P,MX5,2,ROW*%
%TO.N,Net-(D5-Pad2)*%
X173942500Y-144127500D03*
%TD*%
%TO.P,MX32,1,COL*%
%TO.N,Col 3*%
X162830000Y-184767500D03*
%TO.P,MX32,2,ROW*%
%TO.N,Net-(D32-Pad2)*%
X169180000Y-182227500D03*
%TD*%
%TO.P,MX40,1,COL*%
%TO.N,Col 11*%
X315230000Y-184767500D03*
%TO.P,MX40,2,ROW*%
%TO.N,Net-(D40-Pad2)*%
X321580000Y-182227500D03*
%TD*%
%TO.P,MX2,1,COL*%
%TO.N,Col 1*%
X110410000Y-146670000D03*
%TO.P,MX2,2,ROW*%
%TO.N,Net-(D2-Pad2)*%
X116760000Y-144130000D03*
%TD*%
%TO.P,MX58,1,COL*%
%TO.N,Col 3*%
X160496250Y-222885000D03*
%TO.P,MX58,2,ROW*%
%TO.N,Net-(D58-Pad2)*%
X166846250Y-220345000D03*
%TD*%
%TO.P,MX15,1,COL*%
%TO.N,Col 0*%
X96165000Y-165710000D03*
%TO.P,MX15,2,ROW*%
%TO.N,Net-(D15-Pad2)*%
X102515000Y-163170000D03*
%TD*%
%TO.P,MX57,1,COL*%
%TO.N,Col 2*%
X136683750Y-222885000D03*
%TO.P,MX57,2,ROW*%
%TO.N,Net-(D57-Pad2)*%
X143033750Y-220345000D03*
%TD*%
%TO.P,MX26,1,COL*%
%TO.N,Col 11*%
X310467500Y-165717500D03*
%TO.P,MX26,2,ROW*%
%TO.N,Net-(D26-Pad2)*%
X316817500Y-163177500D03*
%TD*%
%TO.P,MX62,1,COL*%
%TO.N,Col 11*%
X312896250Y-222885000D03*
%TO.P,MX62,2,ROW*%
%TO.N,Net-(D62-Pad2)*%
X319246250Y-220345000D03*
%TD*%
%TO.P,MX9,1,COL*%
%TO.N,Col 8*%
X243792500Y-146667500D03*
%TO.P,MX9,2,ROW*%
%TO.N,Net-(D9-Pad2)*%
X250142500Y-144127500D03*
%TD*%
%TO.P,MX34,1,COL*%
%TO.N,Col 5*%
X200930000Y-184767500D03*
%TO.P,MX34,2,ROW*%
%TO.N,Net-(D34-Pad2)*%
X207280000Y-182227500D03*
%TD*%
%TO.P,MX29,1,COL*%
%TO.N,Col 0*%
X98583750Y-184785000D03*
%TO.P,MX29,2,ROW*%
%TO.N,Net-(D29-Pad2)*%
X104933750Y-182245000D03*
%TD*%
%TO.P,MX18,1,COL*%
%TO.N,Col 3*%
X158067500Y-165717500D03*
%TO.P,MX18,2,ROW*%
%TO.N,Net-(D18-Pad2)*%
X164417500Y-163177500D03*
%TD*%
%TO.P,MX46,1,COL*%
%TO.N,Col 4*%
X172355000Y-203817500D03*
%TO.P,MX46,2,ROW*%
%TO.N,Net-(D46-Pad2)*%
X178705000Y-201277500D03*
%TD*%
%TO.P,MX33,1,COL*%
%TO.N,Col 4*%
X181880000Y-184767500D03*
%TO.P,MX33,2,ROW*%
%TO.N,Net-(D33-Pad2)*%
X188230000Y-182227500D03*
%TD*%
%TO.P,MX12,1,COL*%
%TO.N,Col 11*%
X300942500Y-146667500D03*
%TO.P,MX12,2,ROW*%
%TO.N,Net-(D12-Pad2)*%
X307292500Y-144127500D03*
%TD*%
%TO.P,MX48,1,COL*%
%TO.N,Col 6*%
X210455000Y-203817500D03*
%TO.P,MX48,2,ROW*%
%TO.N,Net-(D48-Pad2)*%
X216805000Y-201277500D03*
%TD*%
%TO.P,MX42,1,COL*%
%TO.N,Col 0*%
X93821250Y-203835000D03*
%TO.P,MX42,2,ROW*%
%TO.N,Net-(D42-Pad2)*%
X100171250Y-201295000D03*
%TD*%
%TO.P,MX63,1,COL*%
%TO.N,Col 12*%
X336708750Y-222885000D03*
%TO.P,MX63,2,ROW*%
%TO.N,Net-(D63-Pad2)*%
X343058750Y-220345000D03*
%TD*%
%TO.P,MX37,1,COL*%
%TO.N,Col 8*%
X258080000Y-184767500D03*
%TO.P,MX37,2,ROW*%
%TO.N,Net-(D37-Pad2)*%
X264430000Y-182227500D03*
%TD*%
%TO.P,MX52,1,COL*%
%TO.N,Col 10*%
X286655000Y-203817500D03*
%TO.P,MX52,2,ROW*%
%TO.N,Net-(D52-Pad2)*%
X293005000Y-201277500D03*
%TD*%
%TO.P,MX6,1,COL*%
%TO.N,Col 5*%
X186642500Y-146667500D03*
%TO.P,MX6,2,ROW*%
%TO.N,Net-(D6-Pad2)*%
X192992500Y-144127500D03*
%TD*%
%TO.P,MX24,1,COL*%
%TO.N,Col 9*%
X272367500Y-165717500D03*
%TO.P,MX24,2,ROW*%
%TO.N,Net-(D24-Pad2)*%
X278717500Y-163177500D03*
%TD*%
%TO.P,MX30,1,COL*%
%TO.N,Col 1*%
X124730000Y-184767500D03*
%TO.P,MX30,2,ROW*%
%TO.N,Net-(D30-Pad2)*%
X131080000Y-182227500D03*
%TD*%
%TO.P,MX47,1,COL*%
%TO.N,Col 5*%
X191405000Y-203817500D03*
%TO.P,MX47,2,ROW*%
%TO.N,Net-(D47-Pad2)*%
X197755000Y-201277500D03*
%TD*%
%TO.P,MX45,1,COL*%
%TO.N,Col 3*%
X153305000Y-203817500D03*
%TO.P,MX45,2,ROW*%
%TO.N,Net-(D45-Pad2)*%
X159655000Y-201277500D03*
%TD*%
%TO.P,MX19,1,COL*%
%TO.N,Col 4*%
X177117500Y-165717500D03*
%TO.P,MX19,2,ROW*%
%TO.N,Net-(D19-Pad2)*%
X183467500Y-163177500D03*
%TD*%
%TO.P,MX38,1,COL*%
%TO.N,Col 9*%
X277130000Y-184767500D03*
%TO.P,MX38,2,ROW*%
%TO.N,Net-(D38-Pad2)*%
X283480000Y-182227500D03*
%TD*%
%TO.P,MX16,1,COL*%
%TO.N,Col 1*%
X119967500Y-165717500D03*
%TO.P,MX16,2,ROW*%
%TO.N,Net-(D16-Pad2)*%
X126317500Y-163177500D03*
%TD*%
%TO.P,MX59,1,COL*%
%TO.N,Col 5*%
X198596250Y-222885000D03*
%TO.P,MX59,2,ROW*%
%TO.N,Net-(D59-Pad2)*%
X204946250Y-220345000D03*
%TD*%
%TO.P,MX31,1,COL*%
%TO.N,Col 2*%
X143780000Y-184767500D03*
%TO.P,MX31,2,ROW*%
%TO.N,Net-(D31-Pad2)*%
X150130000Y-182227500D03*
%TD*%
D11*
%TO.P,U1,24,RAW*%
%TO.N,unconnected-(U1-Pad24)*%
X83300000Y-141940000D03*
%TO.P,U1,23,GND*%
%TO.N,unconnected-(U1-Pad23)*%
X83300000Y-144480000D03*
%TO.P,U1,22,RST*%
%TO.N,unconnected-(U1-Pad22)*%
X83300000Y-147020000D03*
%TO.P,U1,21,VCC*%
%TO.N,unconnected-(U1-Pad21)*%
X83300000Y-149560000D03*
%TO.P,U1,20,F4*%
%TO.N,Row 0*%
X83300000Y-152100000D03*
%TO.P,U1,19,F5*%
%TO.N,Row 1*%
X83300000Y-154640000D03*
%TO.P,U1,18,F6*%
%TO.N,Row 2*%
X83300000Y-157180000D03*
%TO.P,U1,17,F7*%
%TO.N,Row 3*%
X83300000Y-159720000D03*
%TO.P,U1,16,B1*%
%TO.N,Row 4*%
X83300000Y-162260000D03*
%TO.P,U1,15,B3*%
%TO.N,Col 0*%
X83300000Y-164800000D03*
%TO.P,U1,14,B2*%
%TO.N,Col 1*%
X83300000Y-167340000D03*
%TO.P,U1,13,B6*%
%TO.N,Col 2*%
X83300000Y-169880000D03*
%TO.P,U1,12,B5*%
%TO.N,Col 12*%
X68060000Y-169880000D03*
%TO.P,U1,11,B4*%
%TO.N,Col 11*%
X68060000Y-167340000D03*
%TO.P,U1,10,E6*%
%TO.N,Col 10*%
X68060000Y-164800000D03*
%TO.P,U1,9,D7*%
%TO.N,Col 9*%
X68060000Y-162260000D03*
%TO.P,U1,8,C6*%
%TO.N,Col 8*%
X68060000Y-159720000D03*
%TO.P,U1,7,D4*%
%TO.N,Col 7*%
X68060000Y-157180000D03*
%TO.P,U1,6,SCL*%
%TO.N,Col 6*%
X68060000Y-154640000D03*
%TO.P,U1,5,SDA*%
%TO.N,Col 5*%
X68060000Y-152100000D03*
%TO.P,U1,4,GND*%
%TO.N,unconnected-(U1-Pad4)*%
X68060000Y-149560000D03*
%TO.P,U1,3,GND*%
%TO.N,unconnected-(U1-Pad3)*%
X68060000Y-147020000D03*
%TO.P,U1,2,RX*%
%TO.N,Col 4*%
X68060000Y-144480000D03*
D12*
%TO.P,U1,1,TX*%
%TO.N,Col 3*%
X68060000Y-141940000D03*
%TD*%
D13*
%TO.P,D18,1,K*%
%TO.N,Row 1*%
X170070000Y-172490000D03*
%TO.P,D18,2,A*%
%TO.N,Net-(D18-Pad2)*%
X170070000Y-169190000D03*
%TD*%
%TO.P,D40,1,K*%
%TO.N,Row 2*%
X327190000Y-191520000D03*
%TO.P,D40,2,A*%
%TO.N,Net-(D40-Pad2)*%
X327190000Y-188220000D03*
%TD*%
%TO.P,D13,1,K*%
%TO.N,Row 0*%
X331950000Y-153500000D03*
%TO.P,D13,2,A*%
%TO.N,Net-(D13-Pad2)*%
X331950000Y-150200000D03*
%TD*%
D14*
%TO.P,D28,1,K*%
%TO.N,Row 4*%
X365330000Y-169400000D03*
%TO.P,D28,2,A*%
%TO.N,Net-(D28-Pad2)*%
X362030000Y-169400000D03*
%TD*%
D13*
%TO.P,D36,1,K*%
%TO.N,Row 2*%
X251050000Y-191600000D03*
%TO.P,D36,2,A*%
%TO.N,Net-(D36-Pad2)*%
X251050000Y-188300000D03*
%TD*%
%TO.P,D59,1,K*%
%TO.N,Row 4*%
X210880000Y-229570000D03*
%TO.P,D59,2,A*%
%TO.N,Net-(D59-Pad2)*%
X210880000Y-226270000D03*
%TD*%
%TO.P,D53,1,K*%
%TO.N,Row 3*%
X317760000Y-210490000D03*
%TO.P,D53,2,A*%
%TO.N,Net-(D53-Pad2)*%
X317760000Y-207190000D03*
%TD*%
%TO.P,D10,1,K*%
%TO.N,Row 0*%
X274860000Y-153450000D03*
%TO.P,D10,2,A*%
%TO.N,Net-(D10-Pad2)*%
X274860000Y-150150000D03*
%TD*%
%TO.P,D50,1,K*%
%TO.N,Row 3*%
X260550000Y-210550000D03*
%TO.P,D50,2,A*%
%TO.N,Net-(D50-Pad2)*%
X260550000Y-207250000D03*
%TD*%
%TO.P,D35,1,K*%
%TO.N,Row 2*%
X231990000Y-191550000D03*
%TO.P,D35,2,A*%
%TO.N,Net-(D35-Pad2)*%
X231990000Y-188250000D03*
%TD*%
%TO.P,D26,1,K*%
%TO.N,Row 1*%
X322420000Y-172520000D03*
%TO.P,D26,2,A*%
%TO.N,Net-(D26-Pad2)*%
X322420000Y-169220000D03*
%TD*%
%TO.P,D21,1,K*%
%TO.N,Row 1*%
X227180000Y-172420000D03*
%TO.P,D21,2,A*%
%TO.N,Net-(D21-Pad2)*%
X227180000Y-169120000D03*
%TD*%
%TO.P,D45,1,K*%
%TO.N,Row 3*%
X165330000Y-210580000D03*
%TO.P,D45,2,A*%
%TO.N,Net-(D45-Pad2)*%
X165330000Y-207280000D03*
%TD*%
%TO.P,D23,1,K*%
%TO.N,Row 1*%
X265330000Y-172450000D03*
%TO.P,D23,2,A*%
%TO.N,Net-(D23-Pad2)*%
X265330000Y-169150000D03*
%TD*%
%TO.P,D24,1,K*%
%TO.N,Row 1*%
X284400000Y-172520000D03*
%TO.P,D24,2,A*%
%TO.N,Net-(D24-Pad2)*%
X284400000Y-169220000D03*
%TD*%
%TO.P,D15,1,K*%
%TO.N,Row 1*%
X108210000Y-172550000D03*
%TO.P,D15,2,A*%
%TO.N,Net-(D15-Pad2)*%
X108210000Y-169250000D03*
%TD*%
%TO.P,D22,1,K*%
%TO.N,Row 1*%
X246250000Y-172500000D03*
%TO.P,D22,2,A*%
%TO.N,Net-(D22-Pad2)*%
X246250000Y-169200000D03*
%TD*%
%TO.P,D32,1,K*%
%TO.N,Row 2*%
X174900000Y-191550000D03*
%TO.P,D32,2,A*%
%TO.N,Net-(D32-Pad2)*%
X174900000Y-188250000D03*
%TD*%
%TO.P,D12,1,K*%
%TO.N,Row 0*%
X312950000Y-153460000D03*
%TO.P,D12,2,A*%
%TO.N,Net-(D12-Pad2)*%
X312950000Y-150160000D03*
%TD*%
%TO.P,D2,1,K*%
%TO.N,Row 0*%
X122430000Y-153420000D03*
%TO.P,D2,2,A*%
%TO.N,Net-(D2-Pad2)*%
X122430000Y-150120000D03*
%TD*%
%TO.P,D7,1,K*%
%TO.N,Row 0*%
X217680000Y-153430000D03*
%TO.P,D7,2,A*%
%TO.N,Net-(D7-Pad2)*%
X217680000Y-150130000D03*
%TD*%
%TO.P,D4,1,K*%
%TO.N,Row 0*%
X160570000Y-153530000D03*
%TO.P,D4,2,A*%
%TO.N,Net-(D4-Pad2)*%
X160570000Y-150230000D03*
%TD*%
%TO.P,D25,1,K*%
%TO.N,Row 1*%
X303530000Y-172490000D03*
%TO.P,D25,2,A*%
%TO.N,Net-(D25-Pad2)*%
X303530000Y-169190000D03*
%TD*%
%TO.P,D55,1,K*%
%TO.N,Row 4*%
X103480000Y-229730000D03*
%TO.P,D55,2,A*%
%TO.N,Net-(D55-Pad2)*%
X103480000Y-226430000D03*
%TD*%
%TO.P,D61,1,K*%
%TO.N,Row 4*%
X301440000Y-229630000D03*
%TO.P,D61,2,A*%
%TO.N,Net-(D61-Pad2)*%
X301440000Y-226330000D03*
%TD*%
%TO.P,D8,1,K*%
%TO.N,Row 0*%
X236760000Y-153400000D03*
%TO.P,D8,2,A*%
%TO.N,Net-(D8-Pad2)*%
X236760000Y-150100000D03*
%TD*%
%TO.P,D42,1,K*%
%TO.N,Row 3*%
X105800000Y-210580000D03*
%TO.P,D42,2,A*%
%TO.N,Net-(D42-Pad2)*%
X105800000Y-207280000D03*
%TD*%
%TO.P,D16,1,K*%
%TO.N,Row 1*%
X131950000Y-172490000D03*
%TO.P,D16,2,A*%
%TO.N,Net-(D16-Pad2)*%
X131950000Y-169190000D03*
%TD*%
%TO.P,D6,1,K*%
%TO.N,Row 0*%
X198600000Y-153430000D03*
%TO.P,D6,2,A*%
%TO.N,Net-(D6-Pad2)*%
X198600000Y-150130000D03*
%TD*%
%TO.P,D33,1,K*%
%TO.N,Row 2*%
X193810000Y-191550000D03*
%TO.P,D33,2,A*%
%TO.N,Net-(D33-Pad2)*%
X193810000Y-188250000D03*
%TD*%
%TO.P,D60,1,K*%
%TO.N,Row 4*%
X263130000Y-229700000D03*
%TO.P,D60,2,A*%
%TO.N,Net-(D60-Pad2)*%
X263130000Y-226400000D03*
%TD*%
%TO.P,D57,1,K*%
%TO.N,Row 4*%
X148950000Y-229660000D03*
%TO.P,D57,2,A*%
%TO.N,Net-(D57-Pad2)*%
X148950000Y-226360000D03*
%TD*%
%TO.P,D1,1,K*%
%TO.N,Row 0*%
X103470000Y-153450000D03*
%TO.P,D1,2,A*%
%TO.N,Net-(D1-Pad2)*%
X103470000Y-150150000D03*
%TD*%
%TO.P,D34,1,K*%
%TO.N,Row 2*%
X212850000Y-191550000D03*
%TO.P,D34,2,A*%
%TO.N,Net-(D34-Pad2)*%
X212850000Y-188250000D03*
%TD*%
%TO.P,D38,1,K*%
%TO.N,Row 2*%
X289130000Y-191400000D03*
%TO.P,D38,2,A*%
%TO.N,Net-(D38-Pad2)*%
X289130000Y-188100000D03*
%TD*%
%TO.P,D43,1,K*%
%TO.N,Row 3*%
X127220000Y-210630000D03*
%TO.P,D43,2,A*%
%TO.N,Net-(D43-Pad2)*%
X127220000Y-207330000D03*
%TD*%
%TO.P,D56,1,K*%
%TO.N,Row 4*%
X125040000Y-229440000D03*
%TO.P,D56,2,A*%
%TO.N,Net-(D56-Pad2)*%
X125040000Y-226140000D03*
%TD*%
%TO.P,D51,1,K*%
%TO.N,Row 3*%
X279730000Y-210550000D03*
%TO.P,D51,2,A*%
%TO.N,Net-(D51-Pad2)*%
X279730000Y-207250000D03*
%TD*%
%TO.P,D27,1,K*%
%TO.N,Row 1*%
X341530000Y-172520000D03*
%TO.P,D27,2,A*%
%TO.N,Net-(D27-Pad2)*%
X341530000Y-169220000D03*
%TD*%
%TO.P,D14,1,K*%
%TO.N,Row 4*%
X355070000Y-157570000D03*
%TO.P,D14,2,A*%
%TO.N,Net-(D14-Pad2)*%
X355070000Y-154270000D03*
%TD*%
%TO.P,D46,1,K*%
%TO.N,Row 3*%
X184410000Y-210580000D03*
%TO.P,D46,2,A*%
%TO.N,Net-(D46-Pad2)*%
X184410000Y-207280000D03*
%TD*%
%TO.P,D49,1,K*%
%TO.N,Row 3*%
X241570000Y-210610000D03*
%TO.P,D49,2,A*%
%TO.N,Net-(D49-Pad2)*%
X241570000Y-207310000D03*
%TD*%
%TO.P,D5,1,K*%
%TO.N,Row 0*%
X179620000Y-153490000D03*
%TO.P,D5,2,A*%
%TO.N,Net-(D5-Pad2)*%
X179620000Y-150190000D03*
%TD*%
%TO.P,D30,1,K*%
%TO.N,Row 2*%
X136770000Y-191600000D03*
%TO.P,D30,2,A*%
%TO.N,Net-(D30-Pad2)*%
X136770000Y-188300000D03*
%TD*%
%TO.P,D17,1,K*%
%TO.N,Row 1*%
X151010000Y-172490000D03*
%TO.P,D17,2,A*%
%TO.N,Net-(D17-Pad2)*%
X151010000Y-169190000D03*
%TD*%
%TO.P,D29,1,K*%
%TO.N,Row 2*%
X110650000Y-191600000D03*
%TO.P,D29,2,A*%
%TO.N,Net-(D29-Pad2)*%
X110650000Y-188300000D03*
%TD*%
%TO.P,D20,1,K*%
%TO.N,Row 1*%
X208190000Y-172550000D03*
%TO.P,D20,2,A*%
%TO.N,Net-(D20-Pad2)*%
X208190000Y-169250000D03*
%TD*%
%TO.P,D9,1,K*%
%TO.N,Row 0*%
X255760000Y-153470000D03*
%TO.P,D9,2,A*%
%TO.N,Net-(D9-Pad2)*%
X255760000Y-150170000D03*
%TD*%
%TO.P,D62,1,K*%
%TO.N,Row 4*%
X325130000Y-229780000D03*
%TO.P,D62,2,A*%
%TO.N,Net-(D62-Pad2)*%
X325130000Y-226480000D03*
%TD*%
%TO.P,D58,1,K*%
%TO.N,Row 4*%
X172500000Y-229440000D03*
%TO.P,D58,2,A*%
%TO.N,Net-(D58-Pad2)*%
X172500000Y-226140000D03*
%TD*%
%TO.P,D54,1,K*%
%TO.N,Row 3*%
X353560000Y-210540000D03*
%TO.P,D54,2,A*%
%TO.N,Net-(D54-Pad2)*%
X353560000Y-207240000D03*
%TD*%
%TO.P,D3,1,K*%
%TO.N,Row 0*%
X141460000Y-153450000D03*
%TO.P,D3,2,A*%
%TO.N,Net-(D3-Pad2)*%
X141460000Y-150150000D03*
%TD*%
%TO.P,D63,1,K*%
%TO.N,Row 4*%
X348840000Y-229700000D03*
%TO.P,D63,2,A*%
%TO.N,Net-(D63-Pad2)*%
X348840000Y-226400000D03*
%TD*%
%TO.P,D44,1,K*%
%TO.N,Row 3*%
X146310000Y-210580000D03*
%TO.P,D44,2,A*%
%TO.N,Net-(D44-Pad2)*%
X146310000Y-207280000D03*
%TD*%
%TO.P,D52,1,K*%
%TO.N,Row 3*%
X298600000Y-210490000D03*
%TO.P,D52,2,A*%
%TO.N,Net-(D52-Pad2)*%
X298600000Y-207190000D03*
%TD*%
%TO.P,D39,1,K*%
%TO.N,Row 2*%
X308150000Y-191520000D03*
%TO.P,D39,2,A*%
%TO.N,Net-(D39-Pad2)*%
X308150000Y-188220000D03*
%TD*%
%TO.P,D47,1,K*%
%TO.N,Row 3*%
X203480000Y-210610000D03*
%TO.P,D47,2,A*%
%TO.N,Net-(D47-Pad2)*%
X203480000Y-207310000D03*
%TD*%
%TO.P,D37,1,K*%
%TO.N,Row 2*%
X270120000Y-191500000D03*
%TO.P,D37,2,A*%
%TO.N,Net-(D37-Pad2)*%
X270120000Y-188200000D03*
%TD*%
%TO.P,D41,1,K*%
%TO.N,Row 2*%
X346280000Y-191570000D03*
%TO.P,D41,2,A*%
%TO.N,Net-(D41-Pad2)*%
X346280000Y-188270000D03*
%TD*%
%TO.P,D48,1,K*%
%TO.N,Row 3*%
X222490000Y-210500000D03*
%TO.P,D48,2,A*%
%TO.N,Net-(D48-Pad2)*%
X222490000Y-207200000D03*
%TD*%
%TO.P,D19,1,K*%
%TO.N,Row 1*%
X189130000Y-172450000D03*
%TO.P,D19,2,A*%
%TO.N,Net-(D19-Pad2)*%
X189130000Y-169150000D03*
%TD*%
%TO.P,D31,1,K*%
%TO.N,Row 2*%
X155880000Y-191600000D03*
%TO.P,D31,2,A*%
%TO.N,Net-(D31-Pad2)*%
X155880000Y-188300000D03*
%TD*%
D14*
%TO.P,D64,1,K*%
%TO.N,Row 4*%
X361180000Y-215580000D03*
%TO.P,D64,2,A*%
%TO.N,Net-(D64-Pad2)*%
X364480000Y-215580000D03*
%TD*%
D13*
%TO.P,D11,1,K*%
%TO.N,Row 0*%
X293930000Y-153430000D03*
%TO.P,D11,2,A*%
%TO.N,Net-(D11-Pad2)*%
X293930000Y-150130000D03*
%TD*%
D15*
%TO.N,Row 1*%
X79625500Y-172550000D03*
%TO.N,Row 2*%
X80355500Y-191600000D03*
%TO.N,Row 3*%
X81070000Y-210570000D03*
%TO.N,Row 4*%
X81800000Y-229650000D03*
%TO.N,Col 0*%
X92740000Y-158690000D03*
%TO.N,Col 1*%
X112975000Y-158725000D03*
%TO.N,Col 2*%
X131995000Y-158695000D03*
%TO.N,Col 5*%
X77200000Y-177610000D03*
X197608599Y-177571401D03*
%TO.N,Col 6*%
X228780000Y-230580000D03*
X215217500Y-176262500D03*
X75750000Y-176270000D03*
%TO.N,Col 7*%
X74410000Y-174930000D03*
X234267500Y-174927500D03*
%TO.N,Col 8*%
X73210000Y-173680000D03*
X253317500Y-173677500D03*
%TO.N,Col 9*%
X267610000Y-212430000D03*
X335140000Y-158720000D03*
X73030000Y-211640000D03*
X274000000Y-158700000D03*
%TO.N,Col 10*%
X286690000Y-213860000D03*
X71710000Y-213050000D03*
%TO.N,Col 11*%
X70300000Y-214260000D03*
X305705000Y-215693750D03*
%TO.N,Col 12*%
X68840000Y-215450000D03*
%TD*%
D16*
%TO.N,Row 3*%
X81070000Y-210570000D02*
X81080000Y-210580000D01*
X81080000Y-210580000D02*
X105800000Y-210580000D01*
%TO.N,Row 0*%
X141460000Y-153450000D02*
X331900000Y-153450000D01*
X103470000Y-153450000D02*
X141460000Y-153450000D01*
X331900000Y-153450000D02*
X331950000Y-153500000D01*
X84650000Y-153450000D02*
X83300000Y-152100000D01*
X103470000Y-153450000D02*
X84650000Y-153450000D01*
%TO.N,Net-(D1-Pad2)*%
X97750000Y-144140000D02*
X103470000Y-149860000D01*
X103470000Y-149860000D02*
X103470000Y-150150000D01*
%TO.N,Net-(D2-Pad2)*%
X122430000Y-149800000D02*
X122430000Y-150120000D01*
X116760000Y-144130000D02*
X122430000Y-149800000D01*
%TO.N,Net-(D3-Pad2)*%
X135842500Y-144127500D02*
X141460000Y-149745000D01*
X141460000Y-149745000D02*
X141460000Y-150150000D01*
%TO.N,Net-(D4-Pad2)*%
X160570000Y-149805000D02*
X160570000Y-150230000D01*
X154892500Y-144127500D02*
X160570000Y-149805000D01*
%TO.N,Net-(D5-Pad2)*%
X179620000Y-149805000D02*
X179620000Y-150190000D01*
X173942500Y-144127500D02*
X179620000Y-149805000D01*
%TO.N,Net-(D6-Pad2)*%
X198600000Y-149735000D02*
X198600000Y-150130000D01*
X192992500Y-144127500D02*
X198600000Y-149735000D01*
%TO.N,Net-(D7-Pad2)*%
X212042500Y-144127500D02*
X217680000Y-149765000D01*
X217680000Y-149765000D02*
X217680000Y-150130000D01*
%TO.N,Net-(D8-Pad2)*%
X236760000Y-149795000D02*
X236760000Y-150100000D01*
X231092500Y-144127500D02*
X236760000Y-149795000D01*
%TO.N,Net-(D9-Pad2)*%
X250142500Y-144127500D02*
X255760000Y-149745000D01*
X255760000Y-149745000D02*
X255760000Y-150170000D01*
%TO.N,Net-(D10-Pad2)*%
X269192500Y-144127500D02*
X274860000Y-149795000D01*
X274860000Y-149795000D02*
X274860000Y-150150000D01*
%TO.N,Net-(D11-Pad2)*%
X293930000Y-149815000D02*
X293930000Y-150130000D01*
X288242500Y-144127500D02*
X293930000Y-149815000D01*
%TO.N,Net-(D12-Pad2)*%
X312950000Y-149785000D02*
X312950000Y-150160000D01*
X307292500Y-144127500D02*
X312950000Y-149785000D01*
%TO.N,Net-(D13-Pad2)*%
X331950000Y-149735000D02*
X331950000Y-150200000D01*
X326342500Y-144127500D02*
X331950000Y-149735000D01*
%TO.N,Net-(D14-Pad2)*%
X354902500Y-144132500D02*
X354902500Y-154102500D01*
X354902500Y-154102500D02*
X355070000Y-154270000D01*
%TO.N,Row 1*%
X79625500Y-172550000D02*
X108210000Y-172550000D01*
X341380000Y-172670000D02*
X108330000Y-172670000D01*
X341530000Y-172520000D02*
X341380000Y-172670000D01*
X108330000Y-172670000D02*
X108210000Y-172550000D01*
%TO.N,Net-(D15-Pad2)*%
X108210000Y-168865000D02*
X108210000Y-169250000D01*
X102515000Y-163170000D02*
X108210000Y-168865000D01*
%TO.N,Net-(D16-Pad2)*%
X131950000Y-168810000D02*
X131950000Y-169190000D01*
X126317500Y-163177500D02*
X131950000Y-168810000D01*
%TO.N,Net-(D17-Pad2)*%
X145367500Y-163177500D02*
X151010000Y-168820000D01*
X151010000Y-168820000D02*
X151010000Y-169190000D01*
%TO.N,Net-(D18-Pad2)*%
X164417500Y-163177500D02*
X170070000Y-168830000D01*
X170070000Y-168830000D02*
X170070000Y-169190000D01*
%TO.N,Net-(D19-Pad2)*%
X189130000Y-168840000D02*
X189130000Y-169150000D01*
X183467500Y-163177500D02*
X189130000Y-168840000D01*
%TO.N,Net-(D20-Pad2)*%
X208190000Y-168850000D02*
X208190000Y-169250000D01*
X202517500Y-163177500D02*
X208190000Y-168850000D01*
%TO.N,Net-(D21-Pad2)*%
X221567500Y-163177500D02*
X227180000Y-168790000D01*
X227180000Y-168790000D02*
X227180000Y-169120000D01*
%TO.N,Net-(D22-Pad2)*%
X246250000Y-168810000D02*
X246250000Y-169200000D01*
X240617500Y-163177500D02*
X246250000Y-168810000D01*
%TO.N,Net-(D23-Pad2)*%
X259667500Y-163177500D02*
X265330000Y-168840000D01*
X265330000Y-168840000D02*
X265330000Y-169150000D01*
%TO.N,Net-(D24-Pad2)*%
X278717500Y-163177500D02*
X284400000Y-168860000D01*
X284400000Y-168860000D02*
X284400000Y-169220000D01*
%TO.N,Net-(D25-Pad2)*%
X303530000Y-168940000D02*
X303530000Y-169190000D01*
X297767500Y-163177500D02*
X303530000Y-168940000D01*
%TO.N,Net-(D26-Pad2)*%
X322420000Y-168780000D02*
X322420000Y-169220000D01*
X316817500Y-163177500D02*
X322420000Y-168780000D01*
%TO.N,Net-(D27-Pad2)*%
X341530000Y-168840000D02*
X341530000Y-169220000D01*
X335867500Y-163177500D02*
X341530000Y-168840000D01*
%TO.N,Net-(D28-Pad2)*%
X362030000Y-172671250D02*
X362061250Y-172702500D01*
X362030000Y-169400000D02*
X362030000Y-172671250D01*
%TO.N,Row 2*%
X80355500Y-191600000D02*
X110650000Y-191600000D01*
X110650000Y-191600000D02*
X346250000Y-191600000D01*
X346250000Y-191600000D02*
X346280000Y-191570000D01*
%TO.N,Net-(D29-Pad2)*%
X104933750Y-182245000D02*
X110650000Y-187961250D01*
X110650000Y-187961250D02*
X110650000Y-188300000D01*
%TO.N,Net-(D30-Pad2)*%
X131080000Y-182227500D02*
X136770000Y-187917500D01*
X136770000Y-187917500D02*
X136770000Y-188300000D01*
%TO.N,Net-(D31-Pad2)*%
X150130000Y-182227500D02*
X155880000Y-187977500D01*
X155880000Y-187977500D02*
X155880000Y-188300000D01*
%TO.N,Net-(D32-Pad2)*%
X174900000Y-187947500D02*
X174900000Y-188250000D01*
X169180000Y-182227500D02*
X174900000Y-187947500D01*
%TO.N,Net-(D33-Pad2)*%
X193810000Y-187807500D02*
X193810000Y-188250000D01*
X188230000Y-182227500D02*
X193810000Y-187807500D01*
%TO.N,Net-(D34-Pad2)*%
X212850000Y-187797500D02*
X212850000Y-188250000D01*
X207280000Y-182227500D02*
X212850000Y-187797500D01*
%TO.N,Net-(D35-Pad2)*%
X226330000Y-182227500D02*
X231990000Y-187887500D01*
X231990000Y-187887500D02*
X231990000Y-188250000D01*
%TO.N,Net-(D36-Pad2)*%
X245380000Y-182227500D02*
X251050000Y-187897500D01*
X251050000Y-187897500D02*
X251050000Y-188300000D01*
%TO.N,Net-(D37-Pad2)*%
X270120000Y-187917500D02*
X270120000Y-188200000D01*
X264430000Y-182227500D02*
X270120000Y-187917500D01*
%TO.N,Net-(D38-Pad2)*%
X289130000Y-187877500D02*
X289130000Y-188100000D01*
X283480000Y-182227500D02*
X289130000Y-187877500D01*
%TO.N,Net-(D39-Pad2)*%
X308150000Y-187847500D02*
X308150000Y-188220000D01*
X302530000Y-182227500D02*
X308150000Y-187847500D01*
%TO.N,Net-(D40-Pad2)*%
X321580000Y-182227500D02*
X327190000Y-187837500D01*
X327190000Y-187837500D02*
X327190000Y-188220000D01*
%TO.N,Net-(D41-Pad2)*%
X346280000Y-187877500D02*
X346280000Y-188270000D01*
X340630000Y-182227500D02*
X346280000Y-187877500D01*
%TO.N,Row 3*%
X353520000Y-210580000D02*
X353560000Y-210540000D01*
X105800000Y-210580000D02*
X353520000Y-210580000D01*
%TO.N,Net-(D42-Pad2)*%
X100171250Y-201295000D02*
X105800000Y-206923750D01*
X105800000Y-206923750D02*
X105800000Y-207280000D01*
%TO.N,Net-(D43-Pad2)*%
X121620000Y-201310000D02*
X127220000Y-206910000D01*
X127220000Y-206910000D02*
X127220000Y-207330000D01*
%TO.N,Net-(D44-Pad2)*%
X140605000Y-201277500D02*
X146310000Y-206982500D01*
X146310000Y-206982500D02*
X146310000Y-207280000D01*
%TO.N,Net-(D45-Pad2)*%
X165330000Y-206952500D02*
X165330000Y-207280000D01*
X159655000Y-201277500D02*
X165330000Y-206952500D01*
%TO.N,Net-(D46-Pad2)*%
X178705000Y-201277500D02*
X184410000Y-206982500D01*
X184410000Y-206982500D02*
X184410000Y-207280000D01*
%TO.N,Net-(D47-Pad2)*%
X203480000Y-207002500D02*
X203480000Y-207310000D01*
X197755000Y-201277500D02*
X203480000Y-207002500D01*
%TO.N,Net-(D48-Pad2)*%
X216805000Y-201277500D02*
X222490000Y-206962500D01*
X222490000Y-206962500D02*
X222490000Y-207200000D01*
%TO.N,Net-(D49-Pad2)*%
X235855000Y-201277500D02*
X241570000Y-206992500D01*
X241570000Y-206992500D02*
X241570000Y-207310000D01*
%TO.N,Net-(D50-Pad2)*%
X254905000Y-201277500D02*
X260550000Y-206922500D01*
X260550000Y-206922500D02*
X260550000Y-207250000D01*
%TO.N,Net-(D51-Pad2)*%
X273955000Y-201277500D02*
X279730000Y-207052500D01*
X279730000Y-207052500D02*
X279730000Y-207250000D01*
%TO.N,Net-(D52-Pad2)*%
X293005000Y-201277500D02*
X298600000Y-206872500D01*
X298600000Y-206872500D02*
X298600000Y-207190000D01*
%TO.N,Net-(D53-Pad2)*%
X312055000Y-201277500D02*
X317760000Y-206982500D01*
X317760000Y-206982500D02*
X317760000Y-207190000D01*
%TO.N,Net-(D54-Pad2)*%
X353560000Y-207033750D02*
X353560000Y-207240000D01*
X347821250Y-201295000D02*
X353560000Y-207033750D01*
%TO.N,Row 4*%
X348840000Y-229700000D02*
X351370000Y-229700000D01*
X354750000Y-220380000D02*
X356770000Y-218360000D01*
X366670000Y-184070000D02*
X366670000Y-170740000D01*
X348810000Y-229730000D02*
X348840000Y-229700000D01*
X81800000Y-229650000D02*
X81880000Y-229730000D01*
X356770000Y-218360000D02*
X360650000Y-218360000D01*
X361180000Y-217830000D02*
X361180000Y-215580000D01*
X366670000Y-170740000D02*
X365330000Y-169400000D01*
X355070000Y-159140000D02*
X365330000Y-169400000D01*
X81880000Y-229730000D02*
X103480000Y-229730000D01*
X360650000Y-218360000D02*
X361180000Y-217830000D01*
X361180000Y-215580000D02*
X361180000Y-189560000D01*
X361180000Y-189560000D02*
X366670000Y-184070000D01*
X355070000Y-157570000D02*
X355070000Y-159140000D01*
X351370000Y-229700000D02*
X354750000Y-226320000D01*
X354750000Y-226320000D02*
X354750000Y-220380000D01*
X103480000Y-229730000D02*
X348810000Y-229730000D01*
%TO.N,Net-(D55-Pad2)*%
X103480000Y-226035000D02*
X103480000Y-226430000D01*
X97790000Y-220345000D02*
X103480000Y-226035000D01*
%TO.N,Net-(D56-Pad2)*%
X125016250Y-226140000D02*
X125040000Y-226140000D01*
X119221250Y-220345000D02*
X125016250Y-226140000D01*
%TO.N,Net-(D57-Pad2)*%
X148950000Y-226261250D02*
X148950000Y-226360000D01*
X143033750Y-220345000D02*
X148950000Y-226261250D01*
%TO.N,Net-(D58-Pad2)*%
X166846250Y-220345000D02*
X172500000Y-225998750D01*
X172500000Y-225998750D02*
X172500000Y-226140000D01*
%TO.N,Net-(D59-Pad2)*%
X204946250Y-220345000D02*
X210871250Y-226270000D01*
X210871250Y-226270000D02*
X210880000Y-226270000D01*
%TO.N,Net-(D60-Pad2)*%
X263130000Y-226141250D02*
X263130000Y-226400000D01*
X257333750Y-220345000D02*
X263130000Y-226141250D01*
%TO.N,Net-(D61-Pad2)*%
X301418750Y-226330000D02*
X295433750Y-220345000D01*
X301440000Y-226330000D02*
X301418750Y-226330000D01*
%TO.N,Net-(D62-Pad2)*%
X325130000Y-226228750D02*
X325130000Y-226480000D01*
X319246250Y-220345000D02*
X325130000Y-226228750D01*
%TO.N,Net-(D63-Pad2)*%
X348840000Y-226126250D02*
X348840000Y-226400000D01*
X343058750Y-220345000D02*
X348840000Y-226126250D01*
%TO.N,Net-(D64-Pad2)*%
X364480000Y-220335000D02*
X364490000Y-220345000D01*
X364480000Y-215580000D02*
X364480000Y-220335000D01*
%TO.N,Col 0*%
X89410000Y-158690000D02*
X92740000Y-158690000D01*
X83300000Y-164800000D02*
X89410000Y-158690000D01*
%TO.N,Col 1*%
X95465000Y-158725000D02*
X112975000Y-158725000D01*
X91160000Y-159480000D02*
X94710000Y-159480000D01*
X83300000Y-167340000D02*
X91160000Y-159480000D01*
X94710000Y-159480000D02*
X95465000Y-158725000D01*
%TO.N,Col 2*%
X114505000Y-158695000D02*
X131995000Y-158695000D01*
X92960000Y-160220000D02*
X95760000Y-160220000D01*
X96530000Y-159450000D02*
X113750000Y-159450000D01*
X95760000Y-160220000D02*
X96530000Y-159450000D01*
X113750000Y-159450000D02*
X114505000Y-158695000D01*
X83300000Y-169880000D02*
X92960000Y-160220000D01*
%TO.N,Col 3*%
X69240000Y-143120000D02*
X68060000Y-141940000D01*
X85000000Y-143120000D02*
X69240000Y-143120000D01*
X148542500Y-146667500D02*
X144280991Y-142405991D01*
X144280991Y-142405991D02*
X85714009Y-142405991D01*
X85714009Y-142405991D02*
X85000000Y-143120000D01*
%TO.N,Col 4*%
X161545000Y-140620000D02*
X167592500Y-146667500D01*
X67320000Y-140620000D02*
X161545000Y-140620000D01*
X68060000Y-144480000D02*
X66935000Y-143355000D01*
X66935000Y-141005000D02*
X67320000Y-140620000D01*
X66935000Y-143355000D02*
X66935000Y-141005000D01*
%TO.N,Col 5*%
X197570000Y-177610000D02*
X197608599Y-177571401D01*
X77200000Y-177610000D02*
X197570000Y-177610000D01*
%TO.N,Col 6*%
X75750000Y-176270000D02*
X215210000Y-176270000D01*
X358140000Y-227690536D02*
X358140000Y-222885000D01*
X215210000Y-176270000D02*
X215217500Y-176262500D01*
X228780000Y-230580000D02*
X355250536Y-230580000D01*
X355250536Y-230580000D02*
X358140000Y-227690536D01*
%TO.N,Col 7*%
X234265000Y-174930000D02*
X234267500Y-174927500D01*
X74410000Y-174930000D02*
X234265000Y-174930000D01*
X348510000Y-171540000D02*
X352212500Y-175242500D01*
X342790000Y-161200000D02*
X348510000Y-166920000D01*
X352212500Y-175242500D02*
X355711250Y-175242500D01*
X348510000Y-166920000D02*
X348510000Y-171540000D01*
X234267500Y-165717500D02*
X238785000Y-161200000D01*
X238785000Y-161200000D02*
X342790000Y-161200000D01*
%TO.N,Col 8*%
X73210000Y-173680000D02*
X253315000Y-173680000D01*
X253315000Y-173680000D02*
X253317500Y-173677500D01*
%TO.N,Col 9*%
X267610000Y-212430000D02*
X73820000Y-212430000D01*
X73820000Y-212430000D02*
X73030000Y-211640000D01*
X335120000Y-158700000D02*
X335140000Y-158720000D01*
X274000000Y-158700000D02*
X335120000Y-158700000D01*
%TO.N,Col 10*%
X72520000Y-213860000D02*
X286690000Y-213860000D01*
X71710000Y-213050000D02*
X72520000Y-213860000D01*
%TO.N,Col 11*%
X71100000Y-215060000D02*
X305071250Y-215060000D01*
X70300000Y-214260000D02*
X71100000Y-215060000D01*
X305071250Y-215060000D02*
X305705000Y-215693750D01*
%TO.N,Col 12*%
X69808750Y-216418750D02*
X330242500Y-216418750D01*
X68840000Y-215450000D02*
X69808750Y-216418750D01*
X330242500Y-216418750D02*
X336708750Y-222885000D01*
%TD*%
M02*
