%TF.GenerationSoftware,KiCad,Pcbnew,(6.0.7-1)-1*%
%TF.CreationDate,2022-10-01T18:19:12+02:00*%
%TF.ProjectId,staggered-keyboard,73746167-6765-4726-9564-2d6b6579626f,rev?*%
%TF.SameCoordinates,Original*%
%TF.FileFunction,Copper,L2,Bot*%
%TF.FilePolarity,Positive*%
%FSLAX46Y46*%
G04 Gerber Fmt 4.6, Leading zero omitted, Abs format (unit mm)*
G04 Created by KiCad (PCBNEW (6.0.7-1)-1) date 2022-10-01 18:19:12*
%MOMM*%
%LPD*%
G01*
G04 APERTURE LIST*
%TA.AperFunction,SMDPad,CuDef*%
%ADD10R,2.550000X2.500000*%
%TD*%
%TA.AperFunction,ComponentPad*%
%ADD11R,1.600000X1.600000*%
%TD*%
%TA.AperFunction,ComponentPad*%
%ADD12C,1.600000*%
%TD*%
%TA.AperFunction,SMDPad,CuDef*%
%ADD13R,1.200000X0.900000*%
%TD*%
%TA.AperFunction,SMDPad,CuDef*%
%ADD14R,0.900000X1.200000*%
%TD*%
%TA.AperFunction,ViaPad*%
%ADD15C,0.800000*%
%TD*%
%TA.AperFunction,Conductor*%
%ADD16C,0.250000*%
%TD*%
G04 APERTURE END LIST*
D10*
%TO.P,MX54,1,COL*%
%TO.N,Col 12*%
X338196250Y-203835000D03*
%TO.P,MX54,2,ROW*%
%TO.N,Net-(D54-Pad2)*%
X351123250Y-201295000D03*
%TD*%
%TO.P,MX60,1,COL*%
%TO.N,Col 8*%
X247708750Y-222885000D03*
%TO.P,MX60,2,ROW*%
%TO.N,Net-(D60-Pad2)*%
X260635750Y-220345000D03*
%TD*%
%TO.P,MX59,1,COL*%
%TO.N,Col 5*%
X195321250Y-222885000D03*
%TO.P,MX59,2,ROW*%
%TO.N,Net-(D59-Pad2)*%
X208248250Y-220345000D03*
%TD*%
%TO.P,MX61,1,COL*%
%TO.N,Col 10*%
X285808750Y-222885000D03*
%TO.P,MX61,2,ROW*%
%TO.N,Net-(D61-Pad2)*%
X298735750Y-220345000D03*
%TD*%
%TO.P,MX56,1,COL*%
%TO.N,Col 1*%
X109596250Y-222885000D03*
%TO.P,MX56,2,ROW*%
%TO.N,Net-(D56-Pad2)*%
X122523250Y-220345000D03*
%TD*%
%TO.P,MX58,1,COL*%
%TO.N,Col 3*%
X157221250Y-222885000D03*
%TO.P,MX58,2,ROW*%
%TO.N,Net-(D58-Pad2)*%
X170148250Y-220345000D03*
%TD*%
%TO.P,MX57,1,COL*%
%TO.N,Col 2*%
X133408750Y-222885000D03*
%TO.P,MX57,2,ROW*%
%TO.N,Net-(D57-Pad2)*%
X146335750Y-220345000D03*
%TD*%
%TO.P,MX62,1,COL*%
%TO.N,Col 11*%
X309621250Y-222885000D03*
%TO.P,MX62,2,ROW*%
%TO.N,Net-(D62-Pad2)*%
X322548250Y-220345000D03*
%TD*%
%TO.P,MX42,1,COL*%
%TO.N,Col 0*%
X90546250Y-203835000D03*
%TO.P,MX42,2,ROW*%
%TO.N,Net-(D42-Pad2)*%
X103473250Y-201295000D03*
%TD*%
%TO.P,MX63,1,COL*%
%TO.N,Col 12*%
X333433750Y-222885000D03*
%TO.P,MX63,2,ROW*%
%TO.N,Net-(D63-Pad2)*%
X346360750Y-220345000D03*
%TD*%
%TO.P,MX29,1,COL*%
%TO.N,Col 0*%
X95308750Y-184785000D03*
%TO.P,MX29,2,ROW*%
%TO.N,Net-(D29-Pad2)*%
X108235750Y-182245000D03*
%TD*%
%TO.P,MX15,2,ROW*%
%TO.N,Net-(D15-Pad2)*%
X105817000Y-163170000D03*
%TO.P,MX15,1,COL*%
%TO.N,Col 0*%
X92890000Y-165710000D03*
%TD*%
%TO.P,MX28,1,COL*%
%TO.N,Col 7*%
X352436250Y-175242500D03*
%TO.P,MX28,2,ROW*%
%TO.N,Net-(D28-Pad2)*%
X365363250Y-172702500D03*
%TD*%
%TO.P,MX14,1,COL*%
%TO.N,Col 9*%
X345277500Y-146672500D03*
%TO.P,MX14,2,ROW*%
%TO.N,Net-(D14-Pad2)*%
X358204500Y-144132500D03*
%TD*%
%TO.P,MX1,1,COL*%
%TO.N,Col 0*%
X88125000Y-146680000D03*
%TO.P,MX1,2,ROW*%
%TO.N,Net-(D1-Pad2)*%
X101052000Y-144140000D03*
%TD*%
%TO.P,MX20,1,COL*%
%TO.N,Col 5*%
X192892500Y-165717500D03*
%TO.P,MX20,2,ROW*%
%TO.N,Net-(D20-Pad2)*%
X205819500Y-163177500D03*
%TD*%
%TO.P,MX50,1,COL*%
%TO.N,Col 8*%
X245280000Y-203817500D03*
%TO.P,MX50,2,ROW*%
%TO.N,Net-(D50-Pad2)*%
X258207000Y-201277500D03*
%TD*%
%TO.P,MX53,1,COL*%
%TO.N,Col 11*%
X302430000Y-203817500D03*
%TO.P,MX53,2,ROW*%
%TO.N,Net-(D53-Pad2)*%
X315357000Y-201277500D03*
%TD*%
%TO.P,MX27,1,COL*%
%TO.N,Col 12*%
X326242500Y-165717500D03*
%TO.P,MX27,2,ROW*%
%TO.N,Net-(D27-Pad2)*%
X339169500Y-163177500D03*
%TD*%
%TO.P,MX39,1,COL*%
%TO.N,Col 10*%
X292905000Y-184767500D03*
%TO.P,MX39,2,ROW*%
%TO.N,Net-(D39-Pad2)*%
X305832000Y-182227500D03*
%TD*%
%TO.P,MX21,1,COL*%
%TO.N,Col 6*%
X211942500Y-165717500D03*
%TO.P,MX21,2,ROW*%
%TO.N,Net-(D21-Pad2)*%
X224869500Y-163177500D03*
%TD*%
%TO.P,MX64,1,COL*%
%TO.N,Col 6*%
X354865000Y-222885000D03*
%TO.P,MX64,2,ROW*%
%TO.N,Net-(D64-Pad2)*%
X367792000Y-220345000D03*
%TD*%
%TO.P,MX7,1,COL*%
%TO.N,Col 6*%
X202417500Y-146667500D03*
%TO.P,MX7,2,ROW*%
%TO.N,Net-(D7-Pad2)*%
X215344500Y-144127500D03*
%TD*%
%TO.P,MX10,1,COL*%
%TO.N,Col 9*%
X259567500Y-146667500D03*
%TO.P,MX10,2,ROW*%
%TO.N,Net-(D10-Pad2)*%
X272494500Y-144127500D03*
%TD*%
%TO.P,MX51,1,COL*%
%TO.N,Col 9*%
X264330000Y-203817500D03*
%TO.P,MX51,2,ROW*%
%TO.N,Net-(D51-Pad2)*%
X277257000Y-201277500D03*
%TD*%
%TO.P,MX17,1,COL*%
%TO.N,Col 2*%
X135742500Y-165717500D03*
%TO.P,MX17,2,ROW*%
%TO.N,Net-(D17-Pad2)*%
X148669500Y-163177500D03*
%TD*%
%TO.P,MX25,1,COL*%
%TO.N,Col 10*%
X288142500Y-165717500D03*
%TO.P,MX25,2,ROW*%
%TO.N,Net-(D25-Pad2)*%
X301069500Y-163177500D03*
%TD*%
%TO.P,MX22,1,COL*%
%TO.N,Col 7*%
X230992500Y-165717500D03*
%TO.P,MX22,2,ROW*%
%TO.N,Net-(D22-Pad2)*%
X243919500Y-163177500D03*
%TD*%
%TO.P,MX8,1,COL*%
%TO.N,Col 7*%
X221467500Y-146667500D03*
%TO.P,MX8,2,ROW*%
%TO.N,Net-(D8-Pad2)*%
X234394500Y-144127500D03*
%TD*%
%TO.P,MX44,1,COL*%
%TO.N,Col 2*%
X130980000Y-203817500D03*
%TO.P,MX44,2,ROW*%
%TO.N,Net-(D44-Pad2)*%
X143907000Y-201277500D03*
%TD*%
%TO.P,MX43,1,COL*%
%TO.N,Col 1*%
X111995000Y-203850000D03*
%TO.P,MX43,2,ROW*%
%TO.N,Net-(D43-Pad2)*%
X124922000Y-201310000D03*
%TD*%
%TO.P,MX55,1,COL*%
%TO.N,Col 0*%
X88165000Y-222885000D03*
%TO.P,MX55,2,ROW*%
%TO.N,Net-(D55-Pad2)*%
X101092000Y-220345000D03*
%TD*%
%TO.P,MX3,1,COL*%
%TO.N,Col 2*%
X126217500Y-146667500D03*
%TO.P,MX3,2,ROW*%
%TO.N,Net-(D3-Pad2)*%
X139144500Y-144127500D03*
%TD*%
%TO.P,MX23,1,COL*%
%TO.N,Col 8*%
X250042500Y-165717500D03*
%TO.P,MX23,2,ROW*%
%TO.N,Net-(D23-Pad2)*%
X262969500Y-163177500D03*
%TD*%
%TO.P,MX4,1,COL*%
%TO.N,Col 3*%
X145267500Y-146667500D03*
%TO.P,MX4,2,ROW*%
%TO.N,Net-(D4-Pad2)*%
X158194500Y-144127500D03*
%TD*%
%TO.P,MX49,1,COL*%
%TO.N,Col 7*%
X226230000Y-203817500D03*
%TO.P,MX49,2,ROW*%
%TO.N,Net-(D49-Pad2)*%
X239157000Y-201277500D03*
%TD*%
%TO.P,MX11,1,COL*%
%TO.N,Col 10*%
X278617500Y-146667500D03*
%TO.P,MX11,2,ROW*%
%TO.N,Net-(D11-Pad2)*%
X291544500Y-144127500D03*
%TD*%
%TO.P,MX35,1,COL*%
%TO.N,Col 6*%
X216705000Y-184767500D03*
%TO.P,MX35,2,ROW*%
%TO.N,Net-(D35-Pad2)*%
X229632000Y-182227500D03*
%TD*%
%TO.P,MX13,1,COL*%
%TO.N,Col 12*%
X316717500Y-146667500D03*
%TO.P,MX13,2,ROW*%
%TO.N,Net-(D13-Pad2)*%
X329644500Y-144127500D03*
%TD*%
%TO.P,MX41,1,COL*%
%TO.N,Col 12*%
X331005000Y-184767500D03*
%TO.P,MX41,2,ROW*%
%TO.N,Net-(D41-Pad2)*%
X343932000Y-182227500D03*
%TD*%
%TO.P,MX36,1,COL*%
%TO.N,Col 7*%
X235755000Y-184767500D03*
%TO.P,MX36,2,ROW*%
%TO.N,Net-(D36-Pad2)*%
X248682000Y-182227500D03*
%TD*%
%TO.P,MX5,1,COL*%
%TO.N,Col 4*%
X164317500Y-146667500D03*
%TO.P,MX5,2,ROW*%
%TO.N,Net-(D5-Pad2)*%
X177244500Y-144127500D03*
%TD*%
%TO.P,MX32,1,COL*%
%TO.N,Col 3*%
X159555000Y-184767500D03*
%TO.P,MX32,2,ROW*%
%TO.N,Net-(D32-Pad2)*%
X172482000Y-182227500D03*
%TD*%
%TO.P,MX40,1,COL*%
%TO.N,Col 11*%
X311955000Y-184767500D03*
%TO.P,MX40,2,ROW*%
%TO.N,Net-(D40-Pad2)*%
X324882000Y-182227500D03*
%TD*%
%TO.P,MX2,1,COL*%
%TO.N,Col 1*%
X107135000Y-146670000D03*
%TO.P,MX2,2,ROW*%
%TO.N,Net-(D2-Pad2)*%
X120062000Y-144130000D03*
%TD*%
%TO.P,MX26,1,COL*%
%TO.N,Col 11*%
X307192500Y-165717500D03*
%TO.P,MX26,2,ROW*%
%TO.N,Net-(D26-Pad2)*%
X320119500Y-163177500D03*
%TD*%
%TO.P,MX9,1,COL*%
%TO.N,Col 8*%
X240517500Y-146667500D03*
%TO.P,MX9,2,ROW*%
%TO.N,Net-(D9-Pad2)*%
X253444500Y-144127500D03*
%TD*%
%TO.P,MX34,1,COL*%
%TO.N,Col 5*%
X197655000Y-184767500D03*
%TO.P,MX34,2,ROW*%
%TO.N,Net-(D34-Pad2)*%
X210582000Y-182227500D03*
%TD*%
%TO.P,MX18,1,COL*%
%TO.N,Col 3*%
X154792500Y-165717500D03*
%TO.P,MX18,2,ROW*%
%TO.N,Net-(D18-Pad2)*%
X167719500Y-163177500D03*
%TD*%
%TO.P,MX46,1,COL*%
%TO.N,Col 4*%
X169080000Y-203817500D03*
%TO.P,MX46,2,ROW*%
%TO.N,Net-(D46-Pad2)*%
X182007000Y-201277500D03*
%TD*%
%TO.P,MX33,1,COL*%
%TO.N,Col 4*%
X178605000Y-184767500D03*
%TO.P,MX33,2,ROW*%
%TO.N,Net-(D33-Pad2)*%
X191532000Y-182227500D03*
%TD*%
%TO.P,MX12,1,COL*%
%TO.N,Col 11*%
X297667500Y-146667500D03*
%TO.P,MX12,2,ROW*%
%TO.N,Net-(D12-Pad2)*%
X310594500Y-144127500D03*
%TD*%
%TO.P,MX48,1,COL*%
%TO.N,Col 6*%
X207180000Y-203817500D03*
%TO.P,MX48,2,ROW*%
%TO.N,Net-(D48-Pad2)*%
X220107000Y-201277500D03*
%TD*%
%TO.P,MX37,1,COL*%
%TO.N,Col 8*%
X254805000Y-184767500D03*
%TO.P,MX37,2,ROW*%
%TO.N,Net-(D37-Pad2)*%
X267732000Y-182227500D03*
%TD*%
%TO.P,MX52,1,COL*%
%TO.N,Col 10*%
X283380000Y-203817500D03*
%TO.P,MX52,2,ROW*%
%TO.N,Net-(D52-Pad2)*%
X296307000Y-201277500D03*
%TD*%
%TO.P,MX6,1,COL*%
%TO.N,Col 5*%
X183367500Y-146667500D03*
%TO.P,MX6,2,ROW*%
%TO.N,Net-(D6-Pad2)*%
X196294500Y-144127500D03*
%TD*%
%TO.P,MX24,1,COL*%
%TO.N,Col 9*%
X269092500Y-165717500D03*
%TO.P,MX24,2,ROW*%
%TO.N,Net-(D24-Pad2)*%
X282019500Y-163177500D03*
%TD*%
%TO.P,MX30,1,COL*%
%TO.N,Col 1*%
X121455000Y-184767500D03*
%TO.P,MX30,2,ROW*%
%TO.N,Net-(D30-Pad2)*%
X134382000Y-182227500D03*
%TD*%
%TO.P,MX47,1,COL*%
%TO.N,Col 5*%
X188130000Y-203817500D03*
%TO.P,MX47,2,ROW*%
%TO.N,Net-(D47-Pad2)*%
X201057000Y-201277500D03*
%TD*%
%TO.P,MX45,1,COL*%
%TO.N,Col 3*%
X150030000Y-203817500D03*
%TO.P,MX45,2,ROW*%
%TO.N,Net-(D45-Pad2)*%
X162957000Y-201277500D03*
%TD*%
%TO.P,MX19,1,COL*%
%TO.N,Col 4*%
X173842500Y-165717500D03*
%TO.P,MX19,2,ROW*%
%TO.N,Net-(D19-Pad2)*%
X186769500Y-163177500D03*
%TD*%
%TO.P,MX38,1,COL*%
%TO.N,Col 9*%
X273855000Y-184767500D03*
%TO.P,MX38,2,ROW*%
%TO.N,Net-(D38-Pad2)*%
X286782000Y-182227500D03*
%TD*%
%TO.P,MX16,1,COL*%
%TO.N,Col 1*%
X116692500Y-165717500D03*
%TO.P,MX16,2,ROW*%
%TO.N,Net-(D16-Pad2)*%
X129619500Y-163177500D03*
%TD*%
%TO.P,MX31,1,COL*%
%TO.N,Col 2*%
X140505000Y-184767500D03*
%TO.P,MX31,2,ROW*%
%TO.N,Net-(D31-Pad2)*%
X153432000Y-182227500D03*
%TD*%
D11*
%TO.P,U1,1,TX*%
%TO.N,Col 3*%
X68060000Y-141940000D03*
D12*
%TO.P,U1,2,RX*%
%TO.N,Col 4*%
X68060000Y-144480000D03*
%TO.P,U1,3,GND*%
%TO.N,unconnected-(U1-Pad3)*%
X68060000Y-147020000D03*
%TO.P,U1,4,GND*%
%TO.N,unconnected-(U1-Pad4)*%
X68060000Y-149560000D03*
%TO.P,U1,5,SDA*%
%TO.N,Col 5*%
X68060000Y-152100000D03*
%TO.P,U1,6,SCL*%
%TO.N,Col 6*%
X68060000Y-154640000D03*
%TO.P,U1,7,D4*%
%TO.N,Col 7*%
X68060000Y-157180000D03*
%TO.P,U1,8,C6*%
%TO.N,Col 8*%
X68060000Y-159720000D03*
%TO.P,U1,9,D7*%
%TO.N,Col 9*%
X68060000Y-162260000D03*
%TO.P,U1,10,E6*%
%TO.N,Col 10*%
X68060000Y-164800000D03*
%TO.P,U1,11,B4*%
%TO.N,Col 11*%
X68060000Y-167340000D03*
%TO.P,U1,12,B5*%
%TO.N,Col 12*%
X68060000Y-169880000D03*
%TO.P,U1,13,B6*%
%TO.N,Col 2*%
X83300000Y-169880000D03*
%TO.P,U1,14,B2*%
%TO.N,Col 1*%
X83300000Y-167340000D03*
%TO.P,U1,15,B3*%
%TO.N,Col 0*%
X83300000Y-164800000D03*
%TO.P,U1,16,B1*%
%TO.N,Row 4*%
X83300000Y-162260000D03*
%TO.P,U1,17,F7*%
%TO.N,Row 3*%
X83300000Y-159720000D03*
%TO.P,U1,18,F6*%
%TO.N,Row 2*%
X83300000Y-157180000D03*
%TO.P,U1,19,F5*%
%TO.N,Row 1*%
X83300000Y-154640000D03*
%TO.P,U1,20,F4*%
%TO.N,Row 0*%
X83300000Y-152100000D03*
%TO.P,U1,21,VCC*%
%TO.N,unconnected-(U1-Pad21)*%
X83300000Y-149560000D03*
%TO.P,U1,22,RST*%
%TO.N,unconnected-(U1-Pad22)*%
X83300000Y-147020000D03*
%TO.P,U1,23,GND*%
%TO.N,unconnected-(U1-Pad23)*%
X83300000Y-144480000D03*
%TO.P,U1,24,RAW*%
%TO.N,unconnected-(U1-Pad24)*%
X83300000Y-141940000D03*
%TD*%
D13*
%TO.P,D18,1,K*%
%TO.N,Row 1*%
X170070000Y-172490000D03*
%TO.P,D18,2,A*%
%TO.N,Net-(D18-Pad2)*%
X170070000Y-169190000D03*
%TD*%
%TO.P,D40,1,K*%
%TO.N,Row 2*%
X327190000Y-191520000D03*
%TO.P,D40,2,A*%
%TO.N,Net-(D40-Pad2)*%
X327190000Y-188220000D03*
%TD*%
%TO.P,D13,1,K*%
%TO.N,Row 0*%
X331950000Y-153500000D03*
%TO.P,D13,2,A*%
%TO.N,Net-(D13-Pad2)*%
X331950000Y-150200000D03*
%TD*%
D14*
%TO.P,D28,1,K*%
%TO.N,Row 4*%
X365010000Y-169000000D03*
%TO.P,D28,2,A*%
%TO.N,Net-(D28-Pad2)*%
X361710000Y-169000000D03*
%TD*%
D13*
%TO.P,D36,1,K*%
%TO.N,Row 2*%
X251050000Y-191600000D03*
%TO.P,D36,2,A*%
%TO.N,Net-(D36-Pad2)*%
X251050000Y-188300000D03*
%TD*%
%TO.P,D59,1,K*%
%TO.N,Row 4*%
X210880000Y-229570000D03*
%TO.P,D59,2,A*%
%TO.N,Net-(D59-Pad2)*%
X210880000Y-226270000D03*
%TD*%
%TO.P,D53,1,K*%
%TO.N,Row 3*%
X317760000Y-210490000D03*
%TO.P,D53,2,A*%
%TO.N,Net-(D53-Pad2)*%
X317760000Y-207190000D03*
%TD*%
%TO.P,D10,1,K*%
%TO.N,Row 0*%
X274860000Y-153450000D03*
%TO.P,D10,2,A*%
%TO.N,Net-(D10-Pad2)*%
X274860000Y-150150000D03*
%TD*%
%TO.P,D50,1,K*%
%TO.N,Row 3*%
X260550000Y-210550000D03*
%TO.P,D50,2,A*%
%TO.N,Net-(D50-Pad2)*%
X260550000Y-207250000D03*
%TD*%
%TO.P,D35,1,K*%
%TO.N,Row 2*%
X231990000Y-191550000D03*
%TO.P,D35,2,A*%
%TO.N,Net-(D35-Pad2)*%
X231990000Y-188250000D03*
%TD*%
%TO.P,D26,1,K*%
%TO.N,Row 1*%
X322420000Y-172520000D03*
%TO.P,D26,2,A*%
%TO.N,Net-(D26-Pad2)*%
X322420000Y-169220000D03*
%TD*%
%TO.P,D21,1,K*%
%TO.N,Row 1*%
X227180000Y-172420000D03*
%TO.P,D21,2,A*%
%TO.N,Net-(D21-Pad2)*%
X227180000Y-169120000D03*
%TD*%
%TO.P,D45,1,K*%
%TO.N,Row 3*%
X165330000Y-210580000D03*
%TO.P,D45,2,A*%
%TO.N,Net-(D45-Pad2)*%
X165330000Y-207280000D03*
%TD*%
%TO.P,D23,1,K*%
%TO.N,Row 1*%
X265330000Y-172450000D03*
%TO.P,D23,2,A*%
%TO.N,Net-(D23-Pad2)*%
X265330000Y-169150000D03*
%TD*%
%TO.P,D24,1,K*%
%TO.N,Row 1*%
X284400000Y-172520000D03*
%TO.P,D24,2,A*%
%TO.N,Net-(D24-Pad2)*%
X284400000Y-169220000D03*
%TD*%
%TO.P,D15,1,K*%
%TO.N,Row 1*%
X108210000Y-172550000D03*
%TO.P,D15,2,A*%
%TO.N,Net-(D15-Pad2)*%
X108210000Y-169250000D03*
%TD*%
%TO.P,D22,1,K*%
%TO.N,Row 1*%
X246250000Y-172500000D03*
%TO.P,D22,2,A*%
%TO.N,Net-(D22-Pad2)*%
X246250000Y-169200000D03*
%TD*%
%TO.P,D32,1,K*%
%TO.N,Row 2*%
X174900000Y-191550000D03*
%TO.P,D32,2,A*%
%TO.N,Net-(D32-Pad2)*%
X174900000Y-188250000D03*
%TD*%
%TO.P,D12,1,K*%
%TO.N,Row 0*%
X312950000Y-153460000D03*
%TO.P,D12,2,A*%
%TO.N,Net-(D12-Pad2)*%
X312950000Y-150160000D03*
%TD*%
%TO.P,D2,1,K*%
%TO.N,Row 0*%
X122430000Y-153420000D03*
%TO.P,D2,2,A*%
%TO.N,Net-(D2-Pad2)*%
X122430000Y-150120000D03*
%TD*%
%TO.P,D7,1,K*%
%TO.N,Row 0*%
X217680000Y-153430000D03*
%TO.P,D7,2,A*%
%TO.N,Net-(D7-Pad2)*%
X217680000Y-150130000D03*
%TD*%
%TO.P,D4,1,K*%
%TO.N,Row 0*%
X160570000Y-153530000D03*
%TO.P,D4,2,A*%
%TO.N,Net-(D4-Pad2)*%
X160570000Y-150230000D03*
%TD*%
%TO.P,D25,1,K*%
%TO.N,Row 1*%
X303530000Y-172490000D03*
%TO.P,D25,2,A*%
%TO.N,Net-(D25-Pad2)*%
X303530000Y-169190000D03*
%TD*%
%TO.P,D55,1,K*%
%TO.N,Row 4*%
X103480000Y-229730000D03*
%TO.P,D55,2,A*%
%TO.N,Net-(D55-Pad2)*%
X103480000Y-226430000D03*
%TD*%
%TO.P,D61,1,K*%
%TO.N,Row 4*%
X301440000Y-229630000D03*
%TO.P,D61,2,A*%
%TO.N,Net-(D61-Pad2)*%
X301440000Y-226330000D03*
%TD*%
%TO.P,D8,1,K*%
%TO.N,Row 0*%
X236760000Y-153400000D03*
%TO.P,D8,2,A*%
%TO.N,Net-(D8-Pad2)*%
X236760000Y-150100000D03*
%TD*%
%TO.P,D42,1,K*%
%TO.N,Row 3*%
X105800000Y-210580000D03*
%TO.P,D42,2,A*%
%TO.N,Net-(D42-Pad2)*%
X105800000Y-207280000D03*
%TD*%
%TO.P,D16,1,K*%
%TO.N,Row 1*%
X131950000Y-172490000D03*
%TO.P,D16,2,A*%
%TO.N,Net-(D16-Pad2)*%
X131950000Y-169190000D03*
%TD*%
%TO.P,D6,1,K*%
%TO.N,Row 0*%
X198600000Y-153430000D03*
%TO.P,D6,2,A*%
%TO.N,Net-(D6-Pad2)*%
X198600000Y-150130000D03*
%TD*%
%TO.P,D33,1,K*%
%TO.N,Row 2*%
X193810000Y-191550000D03*
%TO.P,D33,2,A*%
%TO.N,Net-(D33-Pad2)*%
X193810000Y-188250000D03*
%TD*%
%TO.P,D60,1,K*%
%TO.N,Row 4*%
X263130000Y-229700000D03*
%TO.P,D60,2,A*%
%TO.N,Net-(D60-Pad2)*%
X263130000Y-226400000D03*
%TD*%
%TO.P,D57,1,K*%
%TO.N,Row 4*%
X148950000Y-229660000D03*
%TO.P,D57,2,A*%
%TO.N,Net-(D57-Pad2)*%
X148950000Y-226360000D03*
%TD*%
%TO.P,D1,1,K*%
%TO.N,Row 0*%
X103470000Y-153450000D03*
%TO.P,D1,2,A*%
%TO.N,Net-(D1-Pad2)*%
X103470000Y-150150000D03*
%TD*%
%TO.P,D34,1,K*%
%TO.N,Row 2*%
X212850000Y-191550000D03*
%TO.P,D34,2,A*%
%TO.N,Net-(D34-Pad2)*%
X212850000Y-188250000D03*
%TD*%
%TO.P,D38,1,K*%
%TO.N,Row 2*%
X289130000Y-191400000D03*
%TO.P,D38,2,A*%
%TO.N,Net-(D38-Pad2)*%
X289130000Y-188100000D03*
%TD*%
%TO.P,D43,1,K*%
%TO.N,Row 3*%
X127220000Y-210630000D03*
%TO.P,D43,2,A*%
%TO.N,Net-(D43-Pad2)*%
X127220000Y-207330000D03*
%TD*%
%TO.P,D56,1,K*%
%TO.N,Row 4*%
X125040000Y-229440000D03*
%TO.P,D56,2,A*%
%TO.N,Net-(D56-Pad2)*%
X125040000Y-226140000D03*
%TD*%
%TO.P,D51,1,K*%
%TO.N,Row 3*%
X279730000Y-210550000D03*
%TO.P,D51,2,A*%
%TO.N,Net-(D51-Pad2)*%
X279730000Y-207250000D03*
%TD*%
%TO.P,D27,1,K*%
%TO.N,Row 1*%
X341530000Y-172520000D03*
%TO.P,D27,2,A*%
%TO.N,Net-(D27-Pad2)*%
X341530000Y-169220000D03*
%TD*%
%TO.P,D14,1,K*%
%TO.N,Row 4*%
X360610000Y-153300000D03*
%TO.P,D14,2,A*%
%TO.N,Net-(D14-Pad2)*%
X360610000Y-150000000D03*
%TD*%
%TO.P,D46,1,K*%
%TO.N,Row 3*%
X184410000Y-210580000D03*
%TO.P,D46,2,A*%
%TO.N,Net-(D46-Pad2)*%
X184410000Y-207280000D03*
%TD*%
%TO.P,D49,1,K*%
%TO.N,Row 3*%
X241570000Y-210610000D03*
%TO.P,D49,2,A*%
%TO.N,Net-(D49-Pad2)*%
X241570000Y-207310000D03*
%TD*%
%TO.P,D5,1,K*%
%TO.N,Row 0*%
X179620000Y-153490000D03*
%TO.P,D5,2,A*%
%TO.N,Net-(D5-Pad2)*%
X179620000Y-150190000D03*
%TD*%
%TO.P,D30,1,K*%
%TO.N,Row 2*%
X136770000Y-191600000D03*
%TO.P,D30,2,A*%
%TO.N,Net-(D30-Pad2)*%
X136770000Y-188300000D03*
%TD*%
%TO.P,D17,1,K*%
%TO.N,Row 1*%
X151010000Y-172490000D03*
%TO.P,D17,2,A*%
%TO.N,Net-(D17-Pad2)*%
X151010000Y-169190000D03*
%TD*%
%TO.P,D29,1,K*%
%TO.N,Row 2*%
X110650000Y-191600000D03*
%TO.P,D29,2,A*%
%TO.N,Net-(D29-Pad2)*%
X110650000Y-188300000D03*
%TD*%
%TO.P,D20,1,K*%
%TO.N,Row 1*%
X208190000Y-172550000D03*
%TO.P,D20,2,A*%
%TO.N,Net-(D20-Pad2)*%
X208190000Y-169250000D03*
%TD*%
%TO.P,D9,1,K*%
%TO.N,Row 0*%
X255760000Y-153470000D03*
%TO.P,D9,2,A*%
%TO.N,Net-(D9-Pad2)*%
X255760000Y-150170000D03*
%TD*%
%TO.P,D62,1,K*%
%TO.N,Row 4*%
X325130000Y-229780000D03*
%TO.P,D62,2,A*%
%TO.N,Net-(D62-Pad2)*%
X325130000Y-226480000D03*
%TD*%
%TO.P,D58,1,K*%
%TO.N,Row 4*%
X172500000Y-229440000D03*
%TO.P,D58,2,A*%
%TO.N,Net-(D58-Pad2)*%
X172500000Y-226140000D03*
%TD*%
%TO.P,D54,1,K*%
%TO.N,Row 3*%
X353560000Y-210540000D03*
%TO.P,D54,2,A*%
%TO.N,Net-(D54-Pad2)*%
X353560000Y-207240000D03*
%TD*%
%TO.P,D3,1,K*%
%TO.N,Row 0*%
X141460000Y-153450000D03*
%TO.P,D3,2,A*%
%TO.N,Net-(D3-Pad2)*%
X141460000Y-150150000D03*
%TD*%
%TO.P,D63,1,K*%
%TO.N,Row 4*%
X348840000Y-229700000D03*
%TO.P,D63,2,A*%
%TO.N,Net-(D63-Pad2)*%
X348840000Y-226400000D03*
%TD*%
%TO.P,D44,1,K*%
%TO.N,Row 3*%
X146310000Y-210580000D03*
%TO.P,D44,2,A*%
%TO.N,Net-(D44-Pad2)*%
X146310000Y-207280000D03*
%TD*%
%TO.P,D52,1,K*%
%TO.N,Row 3*%
X298600000Y-210490000D03*
%TO.P,D52,2,A*%
%TO.N,Net-(D52-Pad2)*%
X298600000Y-207190000D03*
%TD*%
%TO.P,D39,1,K*%
%TO.N,Row 2*%
X308150000Y-191520000D03*
%TO.P,D39,2,A*%
%TO.N,Net-(D39-Pad2)*%
X308150000Y-188220000D03*
%TD*%
%TO.P,D47,1,K*%
%TO.N,Row 3*%
X203480000Y-210610000D03*
%TO.P,D47,2,A*%
%TO.N,Net-(D47-Pad2)*%
X203480000Y-207310000D03*
%TD*%
%TO.P,D37,1,K*%
%TO.N,Row 2*%
X270120000Y-191500000D03*
%TO.P,D37,2,A*%
%TO.N,Net-(D37-Pad2)*%
X270120000Y-188200000D03*
%TD*%
%TO.P,D41,1,K*%
%TO.N,Row 2*%
X346280000Y-191570000D03*
%TO.P,D41,2,A*%
%TO.N,Net-(D41-Pad2)*%
X346280000Y-188270000D03*
%TD*%
%TO.P,D48,1,K*%
%TO.N,Row 3*%
X222490000Y-210500000D03*
%TO.P,D48,2,A*%
%TO.N,Net-(D48-Pad2)*%
X222490000Y-207200000D03*
%TD*%
%TO.P,D19,1,K*%
%TO.N,Row 1*%
X189130000Y-172450000D03*
%TO.P,D19,2,A*%
%TO.N,Net-(D19-Pad2)*%
X189130000Y-169150000D03*
%TD*%
%TO.P,D31,1,K*%
%TO.N,Row 2*%
X155880000Y-191600000D03*
%TO.P,D31,2,A*%
%TO.N,Net-(D31-Pad2)*%
X155880000Y-188300000D03*
%TD*%
D14*
%TO.P,D64,1,K*%
%TO.N,Row 4*%
X361180000Y-215580000D03*
%TO.P,D64,2,A*%
%TO.N,Net-(D64-Pad2)*%
X364480000Y-215580000D03*
%TD*%
D13*
%TO.P,D11,1,K*%
%TO.N,Row 0*%
X293930000Y-153430000D03*
%TO.P,D11,2,A*%
%TO.N,Net-(D11-Pad2)*%
X293930000Y-150130000D03*
%TD*%
D15*
%TO.N,Col 12*%
X328575000Y-203850000D03*
X328575000Y-184775000D03*
X323825000Y-165725000D03*
X328625000Y-215900000D03*
X328625000Y-222900000D03*
%TO.N,Col 11*%
X304800000Y-222875000D03*
X300000000Y-214250000D03*
X300000000Y-203825000D03*
X309525000Y-184775000D03*
X304750000Y-165725000D03*
%TO.N,Col 10*%
X280925000Y-212650000D03*
X280925000Y-222900000D03*
X280925000Y-203825000D03*
X290475000Y-184775000D03*
X285725000Y-165725000D03*
%TO.N,Col 9*%
X261900000Y-211900000D03*
X261900000Y-203825000D03*
X271425000Y-184775000D03*
X266650000Y-165725000D03*
%TO.N,Col 8*%
X237750000Y-222875000D03*
X242850000Y-203825000D03*
X252375000Y-177800000D03*
X252375000Y-184825000D03*
X247600000Y-165725000D03*
%TO.N,Col 7*%
X223800000Y-203825000D03*
X233325000Y-177800000D03*
X233325000Y-184775000D03*
X228550000Y-165700000D03*
%TO.N,Col 6*%
X204750000Y-203825000D03*
X214275000Y-184775000D03*
X214275000Y-177800000D03*
X209500000Y-165725000D03*
%TO.N,Col 5*%
X185700000Y-222875000D03*
X185700000Y-203825000D03*
X195225000Y-184850000D03*
X190450000Y-165725000D03*
%TO.N,Col 4*%
X166625000Y-203850000D03*
X176175000Y-184775000D03*
X171400000Y-165700000D03*
%TO.N,Col 3*%
X152400000Y-222875000D03*
X147600000Y-203825000D03*
X157125000Y-184775000D03*
X152375000Y-165725000D03*
%TO.N,Col 2*%
X128550000Y-222875000D03*
X128550000Y-203825000D03*
X138075000Y-184775000D03*
X133325000Y-165725000D03*
%TO.N,Col 1*%
X106700000Y-222875000D03*
X109500000Y-203850000D03*
X114250000Y-184775000D03*
%TO.N,Col 0*%
X88125000Y-217800000D03*
X88125000Y-203850000D03*
X88125000Y-184800000D03*
X88125000Y-165725000D03*
%TO.N,Col 12*%
X316720000Y-152360000D03*
%TO.N,Col 11*%
X297670000Y-152330000D03*
%TO.N,Col 9*%
X266650000Y-158750000D03*
X259580000Y-152290000D03*
%TO.N,Col 10*%
X278680000Y-152280000D03*
%TO.N,Col 8*%
X240550000Y-152230000D03*
%TO.N,Col 7*%
X221500000Y-152180000D03*
%TO.N,Col 6*%
X202420000Y-152160000D03*
%TO.N,Col 5*%
X183370000Y-152170000D03*
%TO.N,Col 4*%
X164350000Y-152130000D03*
%TO.N,Col 1*%
X114250000Y-165725000D03*
%TO.N,Col 3*%
X145270000Y-152150000D03*
%TO.N,Col 2*%
X126220000Y-152150000D03*
%TO.N,Col 1*%
X107130000Y-152110000D03*
%TO.N,Col 0*%
X88100000Y-152140000D03*
%TO.N,Row 1*%
X79625500Y-172550000D03*
%TO.N,Row 2*%
X80355500Y-191600000D03*
%TO.N,Row 3*%
X81070000Y-210570000D03*
%TO.N,Row 4*%
X81800000Y-229650000D03*
%TO.N,Col 0*%
X88125000Y-158680000D03*
%TO.N,Col 1*%
X114250000Y-158725000D03*
%TO.N,Col 2*%
X133325000Y-158725000D03*
%TO.N,Col 5*%
X77200000Y-177800000D03*
X195225000Y-177800000D03*
%TO.N,Col 6*%
X228780000Y-230580000D03*
X75750000Y-176270000D03*
%TO.N,Col 7*%
X74410000Y-175225000D03*
%TO.N,Col 8*%
X73210000Y-173680000D03*
%TO.N,Col 9*%
X74900000Y-210075000D03*
%TO.N,Col 10*%
X74000000Y-211025000D03*
%TO.N,Col 11*%
X73100000Y-212000000D03*
%TO.N,Col 12*%
X72150000Y-213050000D03*
%TD*%
D16*
%TO.N,Col 6*%
X260730000Y-230180000D02*
X261325000Y-230775000D01*
X229180000Y-230180000D02*
X260730000Y-230180000D01*
X228780000Y-230580000D02*
X229180000Y-230180000D01*
X261325000Y-230775000D02*
X264832749Y-230775000D01*
X264832749Y-230775000D02*
X265427749Y-230180000D01*
X265427749Y-230180000D02*
X300290000Y-230180000D01*
X300290000Y-230180000D02*
X300665000Y-230555000D01*
X354865000Y-228425000D02*
X354865000Y-222885000D01*
X300665000Y-230555000D02*
X352735000Y-230555000D01*
X352735000Y-230555000D02*
X354865000Y-228425000D01*
%TO.N,Col 3*%
X68060000Y-141940000D02*
X69215000Y-141940000D01*
X69215000Y-141940000D02*
X70450000Y-143175000D01*
X87000000Y-141850000D02*
X142825000Y-141850000D01*
X70450000Y-143175000D02*
X85675000Y-143175000D01*
X85675000Y-143175000D02*
X87000000Y-141850000D01*
X142825000Y-141850000D02*
X145267500Y-144292500D01*
X145267500Y-144292500D02*
X145267500Y-146667500D01*
%TO.N,Row 1*%
X341530000Y-172520000D02*
X79655500Y-172520000D01*
X79655500Y-172520000D02*
X79625500Y-172550000D01*
%TO.N,Net-(D8-Pad2)*%
X234394500Y-144127500D02*
X234394500Y-147734500D01*
X234394500Y-147734500D02*
X236760000Y-150100000D01*
%TO.N,Col 12*%
X328575000Y-203850000D02*
X328590000Y-203835000D01*
X328590000Y-203835000D02*
X338196250Y-203835000D01*
X328575000Y-184775000D02*
X330997500Y-184775000D01*
X330997500Y-184775000D02*
X331005000Y-184767500D01*
X323825000Y-165725000D02*
X326235000Y-165725000D01*
X326235000Y-165725000D02*
X326242500Y-165717500D01*
X72150000Y-213050000D02*
X73850000Y-214750000D01*
X268013604Y-214750000D02*
X269163604Y-215900000D01*
X73850000Y-214750000D02*
X268013604Y-214750000D01*
X269163604Y-215900000D02*
X328625000Y-215900000D01*
%TO.N,Col 11*%
X300000000Y-214250000D02*
X299950000Y-214300000D01*
X262103299Y-214300000D02*
X261503299Y-213700000D01*
X299950000Y-214300000D02*
X262103299Y-214300000D01*
X261503299Y-213700000D02*
X74800000Y-213700000D01*
X74800000Y-213700000D02*
X73100000Y-212000000D01*
%TO.N,Col 10*%
X280925000Y-212650000D02*
X280900000Y-212675000D01*
X280900000Y-212675000D02*
X75650000Y-212675000D01*
X75650000Y-212675000D02*
X74000000Y-211025000D01*
%TO.N,Col 9*%
X261900000Y-211900000D02*
X76725000Y-211900000D01*
X76725000Y-211900000D02*
X74900000Y-210075000D01*
%TO.N,Col 12*%
X328640000Y-222885000D02*
X333433750Y-222885000D01*
X328625000Y-222900000D02*
X328640000Y-222885000D01*
%TO.N,Col 11*%
X304800000Y-222875000D02*
X304810000Y-222885000D01*
X304810000Y-222885000D02*
X309621250Y-222885000D01*
X300000000Y-203825000D02*
X302422500Y-203825000D01*
X302422500Y-203825000D02*
X302430000Y-203817500D01*
X309525000Y-184775000D02*
X311947500Y-184775000D01*
X311947500Y-184775000D02*
X311955000Y-184767500D01*
X307185000Y-165725000D02*
X307192500Y-165717500D01*
X304750000Y-165725000D02*
X307185000Y-165725000D01*
%TO.N,Col 10*%
X280925000Y-222900000D02*
X280940000Y-222885000D01*
X280940000Y-222885000D02*
X285808750Y-222885000D01*
X283372500Y-203825000D02*
X283380000Y-203817500D01*
X280925000Y-203825000D02*
X283372500Y-203825000D01*
X290475000Y-184775000D02*
X292897500Y-184775000D01*
X292897500Y-184775000D02*
X292905000Y-184767500D01*
X285725000Y-165725000D02*
X288135000Y-165725000D01*
X288135000Y-165725000D02*
X288142500Y-165717500D01*
%TO.N,Col 9*%
X261900000Y-203825000D02*
X264322500Y-203825000D01*
X264322500Y-203825000D02*
X264330000Y-203817500D01*
X271425000Y-184775000D02*
X273847500Y-184775000D01*
X273847500Y-184775000D02*
X273855000Y-184767500D01*
X266650000Y-165725000D02*
X269085000Y-165725000D01*
X269085000Y-165725000D02*
X269092500Y-165717500D01*
X266650000Y-158750000D02*
X267800000Y-157600000D01*
X345277500Y-146697500D02*
X345277500Y-146672500D01*
X267800000Y-157600000D02*
X334375000Y-157600000D01*
X334375000Y-157600000D02*
X345277500Y-146697500D01*
%TO.N,Col 8*%
X237750000Y-222875000D02*
X237760000Y-222885000D01*
X237760000Y-222885000D02*
X247708750Y-222885000D01*
X242850000Y-203825000D02*
X245272500Y-203825000D01*
X245272500Y-203825000D02*
X245280000Y-203817500D01*
X76684695Y-178525000D02*
X73210000Y-175050305D01*
X251650000Y-178525000D02*
X76684695Y-178525000D01*
X73210000Y-175050305D02*
X73210000Y-173680000D01*
X252375000Y-177800000D02*
X251650000Y-178525000D01*
X252375000Y-184825000D02*
X254747500Y-184825000D01*
X254747500Y-184825000D02*
X254805000Y-184767500D01*
%TO.N,Col 7*%
X233325000Y-177800000D02*
X234625000Y-176500000D01*
X234625000Y-176500000D02*
X351178750Y-176500000D01*
X351178750Y-176500000D02*
X352436250Y-175242500D01*
%TO.N,Col 8*%
X247600000Y-165725000D02*
X250035000Y-165725000D01*
X250035000Y-165725000D02*
X250042500Y-165717500D01*
%TO.N,Col 7*%
X223800000Y-203825000D02*
X226222500Y-203825000D01*
X226222500Y-203825000D02*
X226230000Y-203817500D01*
X212725305Y-175225000D02*
X212812652Y-175312348D01*
X212812652Y-175312348D02*
X215300305Y-177800000D01*
X233325000Y-177800000D02*
X215300304Y-177800000D01*
X215300304Y-177800000D02*
X212812652Y-175312348D01*
X74410000Y-175225000D02*
X212725305Y-175225000D01*
X233325000Y-184775000D02*
X235747500Y-184775000D01*
X235747500Y-184775000D02*
X235755000Y-184767500D01*
X228550000Y-165700000D02*
X230975000Y-165700000D01*
X230975000Y-165700000D02*
X230992500Y-165717500D01*
%TO.N,Col 6*%
X204750000Y-203825000D02*
X207172500Y-203825000D01*
X207172500Y-203825000D02*
X207180000Y-203817500D01*
X216697500Y-184775000D02*
X216705000Y-184767500D01*
X214275000Y-184775000D02*
X216697500Y-184775000D01*
X75750000Y-176270000D02*
X76030000Y-176550000D01*
X76030000Y-176550000D02*
X213025000Y-176550000D01*
X213025000Y-176550000D02*
X214275000Y-177800000D01*
X209500000Y-165725000D02*
X211935000Y-165725000D01*
X211935000Y-165725000D02*
X211942500Y-165717500D01*
%TO.N,Col 5*%
X185700000Y-222875000D02*
X185710000Y-222885000D01*
X185710000Y-222885000D02*
X195321250Y-222885000D01*
X185700000Y-203825000D02*
X188122500Y-203825000D01*
X188122500Y-203825000D02*
X188130000Y-203817500D01*
X195225000Y-177800000D02*
X77200000Y-177800000D01*
X195225000Y-184850000D02*
X197572500Y-184850000D01*
X197572500Y-184850000D02*
X197655000Y-184767500D01*
X190450000Y-165725000D02*
X192885000Y-165725000D01*
X192885000Y-165725000D02*
X192892500Y-165717500D01*
%TO.N,Col 4*%
X166625000Y-203850000D02*
X169047500Y-203850000D01*
X169047500Y-203850000D02*
X169080000Y-203817500D01*
X178605000Y-184767500D02*
X176182500Y-184767500D01*
X176182500Y-184767500D02*
X176175000Y-184775000D01*
X173825000Y-165700000D02*
X173842500Y-165717500D01*
X171400000Y-165700000D02*
X173825000Y-165700000D01*
%TO.N,Col 3*%
X152400000Y-222875000D02*
X152410000Y-222885000D01*
X152410000Y-222885000D02*
X157221250Y-222885000D01*
X150030000Y-203817500D02*
X147607500Y-203817500D01*
X147607500Y-203817500D02*
X147600000Y-203825000D01*
X157125000Y-184775000D02*
X159547500Y-184775000D01*
X159547500Y-184775000D02*
X159555000Y-184767500D01*
X154792500Y-165717500D02*
X152382500Y-165717500D01*
X152382500Y-165717500D02*
X152375000Y-165725000D01*
%TO.N,Col 2*%
X128550000Y-222875000D02*
X128560000Y-222885000D01*
X128560000Y-222885000D02*
X133408750Y-222885000D01*
X128550000Y-203825000D02*
X130972500Y-203825000D01*
X130972500Y-203825000D02*
X130980000Y-203817500D01*
X138075000Y-184775000D02*
X140497500Y-184775000D01*
X140497500Y-184775000D02*
X140505000Y-184767500D01*
X135742500Y-165717500D02*
X133332500Y-165717500D01*
X133332500Y-165717500D02*
X133325000Y-165725000D01*
X115850000Y-158725000D02*
X115125000Y-159450000D01*
X83300000Y-169125000D02*
X83300000Y-169880000D01*
X115125000Y-159450000D02*
X96530000Y-159450000D01*
X133325000Y-158725000D02*
X115850000Y-158725000D01*
X92205000Y-160220000D02*
X83300000Y-169125000D01*
X95760000Y-160220000D02*
X92205000Y-160220000D01*
X96530000Y-159450000D02*
X95760000Y-160220000D01*
%TO.N,Col 1*%
X114250000Y-158725000D02*
X95465000Y-158725000D01*
X83310000Y-167340000D02*
X83300000Y-167340000D01*
X95465000Y-158725000D02*
X94710000Y-159480000D01*
X94710000Y-159480000D02*
X91170000Y-159480000D01*
X91170000Y-159480000D02*
X83310000Y-167340000D01*
X106700000Y-222875000D02*
X106710000Y-222885000D01*
X106710000Y-222885000D02*
X109596250Y-222885000D01*
X109500000Y-203850000D02*
X111995000Y-203850000D01*
X114250000Y-184775000D02*
X114257500Y-184767500D01*
X114257500Y-184767500D02*
X121455000Y-184767500D01*
X114250000Y-165725000D02*
X116685000Y-165725000D01*
X116685000Y-165725000D02*
X116692500Y-165717500D01*
%TO.N,Net-(D14-Pad2)*%
X358204500Y-144132500D02*
X358204500Y-147594500D01*
X358204500Y-147594500D02*
X360610000Y-150000000D01*
%TO.N,Row 0*%
X103470000Y-153450000D02*
X141460000Y-153450000D01*
%TO.N,Col 0*%
X88165000Y-217840000D02*
X88165000Y-222885000D01*
X88125000Y-217800000D02*
X88165000Y-217840000D01*
X88125000Y-203850000D02*
X90531250Y-203850000D01*
X90531250Y-203850000D02*
X90546250Y-203835000D01*
X88140000Y-184785000D02*
X95308750Y-184785000D01*
X88125000Y-184800000D02*
X88140000Y-184785000D01*
X88125000Y-165725000D02*
X88140000Y-165710000D01*
X88140000Y-165710000D02*
X92890000Y-165710000D01*
X83300000Y-164800000D02*
X85625000Y-162475000D01*
X85625000Y-162475000D02*
X85625000Y-159600000D01*
X86525000Y-158700000D02*
X85625000Y-159600000D01*
X88125000Y-158680000D02*
X88105000Y-158700000D01*
X88105000Y-158700000D02*
X86525000Y-158700000D01*
%TO.N,Net-(D64-Pad2)*%
X364480000Y-215580000D02*
X364480000Y-217033000D01*
X364480000Y-217033000D02*
X367792000Y-220345000D01*
%TO.N,Net-(D63-Pad2)*%
X346360750Y-220345000D02*
X346360750Y-223920750D01*
X346360750Y-223920750D02*
X348840000Y-226400000D01*
%TO.N,Net-(D54-Pad2)*%
X351123250Y-201295000D02*
X351123250Y-204803250D01*
X351123250Y-204803250D02*
X353560000Y-207240000D01*
%TO.N,Net-(D62-Pad2)*%
X322548250Y-220345000D02*
X322548250Y-223898250D01*
X322548250Y-223898250D02*
X325130000Y-226480000D01*
%TO.N,Net-(D53-Pad2)*%
X315357000Y-201277500D02*
X315357000Y-204787000D01*
X315357000Y-204787000D02*
X317760000Y-207190000D01*
%TO.N,Net-(D61-Pad2)*%
X298735750Y-220345000D02*
X298735750Y-223625750D01*
X298735750Y-223625750D02*
X301440000Y-226330000D01*
%TO.N,Net-(D52-Pad2)*%
X296307000Y-201277500D02*
X296307000Y-204897000D01*
X296307000Y-204897000D02*
X298600000Y-207190000D01*
%TO.N,Net-(D51-Pad2)*%
X277257000Y-201277500D02*
X277257000Y-204777000D01*
X277257000Y-204777000D02*
X279730000Y-207250000D01*
%TO.N,Net-(D50-Pad2)*%
X258207000Y-201277500D02*
X258207000Y-204907000D01*
X258207000Y-204907000D02*
X260550000Y-207250000D01*
%TO.N,Net-(D49-Pad2)*%
X239157000Y-201277500D02*
X239157000Y-204897000D01*
X239157000Y-204897000D02*
X241570000Y-207310000D01*
%TO.N,Net-(D48-Pad2)*%
X220107000Y-201277500D02*
X220107000Y-204817000D01*
X220107000Y-204817000D02*
X222490000Y-207200000D01*
%TO.N,Net-(D60-Pad2)*%
X260635750Y-220345000D02*
X260635750Y-223905750D01*
X260635750Y-223905750D02*
X263130000Y-226400000D01*
%TO.N,Net-(D59-Pad2)*%
X208248250Y-220345000D02*
X208248250Y-223638250D01*
X208248250Y-223638250D02*
X210880000Y-226270000D01*
%TO.N,Net-(D47-Pad2)*%
X201057000Y-201277500D02*
X201057000Y-204887000D01*
X201057000Y-204887000D02*
X203480000Y-207310000D01*
%TO.N,Net-(D46-Pad2)*%
X182007000Y-201277500D02*
X182007000Y-204877000D01*
X182007000Y-204877000D02*
X184410000Y-207280000D01*
%TO.N,Net-(D58-Pad2)*%
X170148250Y-220345000D02*
X170148250Y-223788250D01*
X170148250Y-223788250D02*
X172500000Y-226140000D01*
%TO.N,Net-(D45-Pad2)*%
X162957000Y-201277500D02*
X162957000Y-204907000D01*
X162957000Y-204907000D02*
X165330000Y-207280000D01*
%TO.N,Net-(D44-Pad2)*%
X143907000Y-201277500D02*
X143907000Y-204877000D01*
X143907000Y-204877000D02*
X146310000Y-207280000D01*
%TO.N,Net-(D57-Pad2)*%
X146335750Y-220345000D02*
X146335750Y-223745750D01*
X146335750Y-223745750D02*
X148950000Y-226360000D01*
%TO.N,Net-(D56-Pad2)*%
X122523250Y-220345000D02*
X122523250Y-223623250D01*
X122523250Y-223623250D02*
X125040000Y-226140000D01*
%TO.N,Net-(D43-Pad2)*%
X124922000Y-201310000D02*
X124922000Y-205032000D01*
X124922000Y-205032000D02*
X127220000Y-207330000D01*
%TO.N,Net-(D55-Pad2)*%
X101092000Y-220345000D02*
X101092000Y-224042000D01*
X101092000Y-224042000D02*
X103480000Y-226430000D01*
%TO.N,Net-(D42-Pad2)*%
X103473250Y-201295000D02*
X103473250Y-204953250D01*
X103473250Y-204953250D02*
X105800000Y-207280000D01*
%TO.N,Net-(D29-Pad2)*%
X108235750Y-182245000D02*
X108235750Y-185885750D01*
X108235750Y-185885750D02*
X110650000Y-188300000D01*
%TO.N,Net-(D15-Pad2)*%
X105817000Y-163170000D02*
X105817000Y-166857000D01*
X105817000Y-166857000D02*
X108210000Y-169250000D01*
%TO.N,Net-(D16-Pad2)*%
X129619500Y-163177500D02*
X129619500Y-166859500D01*
X129619500Y-166859500D02*
X131950000Y-169190000D01*
%TO.N,Net-(D17-Pad2)*%
X148669500Y-163177500D02*
X148669500Y-166849500D01*
X148669500Y-166849500D02*
X151010000Y-169190000D01*
%TO.N,Net-(D30-Pad2)*%
X134382000Y-182227500D02*
X134382000Y-185912000D01*
X134382000Y-185912000D02*
X136770000Y-188300000D01*
%TO.N,Net-(D31-Pad2)*%
X153432000Y-182227500D02*
X153432000Y-185852000D01*
X153432000Y-185852000D02*
X155880000Y-188300000D01*
%TO.N,Net-(D18-Pad2)*%
X167719500Y-163177500D02*
X167719500Y-166839500D01*
X167719500Y-166839500D02*
X170070000Y-169190000D01*
%TO.N,Net-(D32-Pad2)*%
X172482000Y-182227500D02*
X172482000Y-185832000D01*
X172482000Y-185832000D02*
X174900000Y-188250000D01*
%TO.N,Net-(D19-Pad2)*%
X186769500Y-163177500D02*
X186769500Y-166789500D01*
X186769500Y-166789500D02*
X189130000Y-169150000D01*
%TO.N,Net-(D33-Pad2)*%
X191532000Y-182227500D02*
X191532000Y-185972000D01*
X191532000Y-185972000D02*
X193810000Y-188250000D01*
%TO.N,Net-(D34-Pad2)*%
X210582000Y-182227500D02*
X210582000Y-185982000D01*
X210582000Y-185982000D02*
X212850000Y-188250000D01*
%TO.N,Net-(D6-Pad2)*%
X196294500Y-144127500D02*
X196294500Y-147824500D01*
X196294500Y-147824500D02*
X198600000Y-150130000D01*
%TO.N,Net-(D20-Pad2)*%
X205819500Y-163177500D02*
X205819500Y-166879500D01*
X205819500Y-166879500D02*
X208190000Y-169250000D01*
%TO.N,Net-(D21-Pad2)*%
X224869500Y-163177500D02*
X224869500Y-166809500D01*
X224869500Y-166809500D02*
X227180000Y-169120000D01*
%TO.N,Net-(D35-Pad2)*%
X229632000Y-182227500D02*
X229632000Y-185892000D01*
X229632000Y-185892000D02*
X231990000Y-188250000D01*
%TO.N,Net-(D36-Pad2)*%
X248682000Y-182227500D02*
X248682000Y-185932000D01*
X248682000Y-185932000D02*
X251050000Y-188300000D01*
%TO.N,Net-(D22-Pad2)*%
X243919500Y-163177500D02*
X243919500Y-166869500D01*
X243919500Y-166869500D02*
X246250000Y-169200000D01*
%TO.N,Net-(D37-Pad2)*%
X267732000Y-182227500D02*
X267732000Y-185812000D01*
X267732000Y-185812000D02*
X270120000Y-188200000D01*
%TO.N,Net-(D23-Pad2)*%
X262969500Y-163177500D02*
X262969500Y-166789500D01*
X262969500Y-166789500D02*
X265330000Y-169150000D01*
%TO.N,Net-(D24-Pad2)*%
X282019500Y-163177500D02*
X282019500Y-166839500D01*
X282019500Y-166839500D02*
X284400000Y-169220000D01*
%TO.N,Net-(D38-Pad2)*%
X286782000Y-182227500D02*
X286782000Y-185752000D01*
X286782000Y-185752000D02*
X289130000Y-188100000D01*
%TO.N,Net-(D25-Pad2)*%
X301069500Y-163177500D02*
X301069500Y-166729500D01*
X301069500Y-166729500D02*
X303530000Y-169190000D01*
%TO.N,Net-(D39-Pad2)*%
X305832000Y-182227500D02*
X305832000Y-185902000D01*
X305832000Y-185902000D02*
X308150000Y-188220000D01*
%TO.N,Net-(D26-Pad2)*%
X320119500Y-163177500D02*
X320119500Y-166919500D01*
X320119500Y-166919500D02*
X322420000Y-169220000D01*
%TO.N,Net-(D40-Pad2)*%
X324882000Y-182227500D02*
X324882000Y-185912000D01*
X324882000Y-185912000D02*
X327190000Y-188220000D01*
%TO.N,Net-(D41-Pad2)*%
X343932000Y-182227500D02*
X343932000Y-185922000D01*
X343932000Y-185922000D02*
X346280000Y-188270000D01*
%TO.N,Net-(D27-Pad2)*%
X339169500Y-163177500D02*
X339169500Y-166859500D01*
X339169500Y-166859500D02*
X341530000Y-169220000D01*
%TO.N,Row 4*%
X351370000Y-229700000D02*
X352415000Y-228655000D01*
X361180000Y-215580000D02*
X360670000Y-215580000D01*
X360670000Y-215580000D02*
X358490000Y-217760000D01*
X358490000Y-217760000D02*
X354940000Y-217760000D01*
X354940000Y-217760000D02*
X352415000Y-220285000D01*
X352415000Y-220285000D02*
X352415000Y-228655000D01*
X365010000Y-169000000D02*
X366440000Y-169000000D01*
X366440000Y-169000000D02*
X367490000Y-170050000D01*
X367490000Y-170050000D02*
X367490000Y-184870000D01*
X367490000Y-184870000D02*
X361180000Y-191180000D01*
X361180000Y-191180000D02*
X361180000Y-215580000D01*
X360610000Y-153300000D02*
X360610000Y-164600000D01*
X360610000Y-164600000D02*
X365010000Y-169000000D01*
%TO.N,Net-(D28-Pad2)*%
X361710000Y-169000000D02*
X365363250Y-172653250D01*
X365363250Y-172653250D02*
X365363250Y-172702500D01*
%TO.N,Net-(D13-Pad2)*%
X329644500Y-144127500D02*
X329644500Y-147894500D01*
X329644500Y-147894500D02*
X331950000Y-150200000D01*
%TO.N,Col 12*%
X316717500Y-146667500D02*
X316717500Y-152357500D01*
X316717500Y-152357500D02*
X316720000Y-152360000D01*
%TO.N,Net-(D12-Pad2)*%
X310594500Y-144127500D02*
X310594500Y-147804500D01*
X310594500Y-147804500D02*
X312950000Y-150160000D01*
%TO.N,Net-(D11-Pad2)*%
X291544500Y-144127500D02*
X291544500Y-147744500D01*
X291544500Y-147744500D02*
X293930000Y-150130000D01*
%TO.N,Net-(D10-Pad2)*%
X272494500Y-144127500D02*
X272494500Y-147784500D01*
X272494500Y-147784500D02*
X274860000Y-150150000D01*
%TO.N,Net-(D9-Pad2)*%
X253444500Y-144127500D02*
X253444500Y-147854500D01*
X253444500Y-147854500D02*
X255760000Y-150170000D01*
%TO.N,Net-(D7-Pad2)*%
X215344500Y-144127500D02*
X215344500Y-147794500D01*
X215344500Y-147794500D02*
X217680000Y-150130000D01*
%TO.N,Col 11*%
X297670000Y-152330000D02*
X297667500Y-152327500D01*
X297667500Y-152327500D02*
X297667500Y-146667500D01*
%TO.N,Col 9*%
X259567500Y-152277500D02*
X259580000Y-152290000D01*
X259567500Y-146667500D02*
X259567500Y-152277500D01*
%TO.N,Col 10*%
X278617500Y-152217500D02*
X278680000Y-152280000D01*
X278617500Y-146667500D02*
X278617500Y-152217500D01*
%TO.N,Col 8*%
X240517500Y-146667500D02*
X240517500Y-152197500D01*
X240517500Y-152197500D02*
X240550000Y-152230000D01*
%TO.N,Col 7*%
X221467500Y-146667500D02*
X221467500Y-152147500D01*
X221467500Y-152147500D02*
X221500000Y-152180000D01*
%TO.N,Col 6*%
X202417500Y-152167500D02*
X202420000Y-152165000D01*
X202420000Y-152165000D02*
X202420000Y-152160000D01*
X202417500Y-146667500D02*
X202417500Y-152167500D01*
%TO.N,Col 5*%
X183367500Y-152167500D02*
X183370000Y-152170000D01*
X183367500Y-146667500D02*
X183367500Y-152167500D01*
%TO.N,Net-(D5-Pad2)*%
X177244500Y-144127500D02*
X177244500Y-147814500D01*
X177244500Y-147814500D02*
X179620000Y-150190000D01*
%TO.N,Col 4*%
X164317500Y-152097500D02*
X164350000Y-152130000D01*
X164317500Y-146667500D02*
X164317500Y-152097500D01*
X68060000Y-144480000D02*
X66935000Y-143355000D01*
X67320000Y-140620000D02*
X161550000Y-140620000D01*
X66935000Y-143355000D02*
X66935000Y-141005000D01*
X66935000Y-141005000D02*
X67320000Y-140620000D01*
X161550000Y-140620000D02*
X164317500Y-143387500D01*
X164317500Y-143387500D02*
X164317500Y-146667500D01*
%TO.N,Col 3*%
X145267500Y-152147500D02*
X145270000Y-152150000D01*
X145267500Y-146667500D02*
X145267500Y-152147500D01*
%TO.N,Net-(D4-Pad2)*%
X158194500Y-144127500D02*
X158194500Y-147854500D01*
X158194500Y-147854500D02*
X160570000Y-150230000D01*
%TO.N,Net-(D2-Pad2)*%
X120062000Y-144130000D02*
X120062000Y-147752000D01*
X120062000Y-147752000D02*
X122430000Y-150120000D01*
%TO.N,Net-(D3-Pad2)*%
X139144500Y-144127500D02*
X139144500Y-147834500D01*
X139144500Y-147834500D02*
X141460000Y-150150000D01*
%TO.N,Col 2*%
X126217500Y-152147500D02*
X126217500Y-146667500D01*
X126220000Y-152150000D02*
X126217500Y-152147500D01*
%TO.N,Col 0*%
X88125000Y-152115000D02*
X88125000Y-146680000D01*
X88100000Y-152140000D02*
X88125000Y-152115000D01*
%TO.N,Col 1*%
X107135000Y-152105000D02*
X107130000Y-152110000D01*
X107135000Y-146670000D02*
X107135000Y-152105000D01*
%TO.N,Net-(D1-Pad2)*%
X101052000Y-144140000D02*
X101052000Y-147732000D01*
X101052000Y-147732000D02*
X103470000Y-150150000D01*
%TO.N,Row 0*%
X141460000Y-153450000D02*
X331900000Y-153450000D01*
X331900000Y-153450000D02*
X331950000Y-153500000D01*
X84650000Y-153450000D02*
X83300000Y-152100000D01*
X103470000Y-153450000D02*
X84650000Y-153450000D01*
%TO.N,Row 2*%
X80355500Y-191600000D02*
X110650000Y-191600000D01*
X110650000Y-191600000D02*
X346250000Y-191600000D01*
X346250000Y-191600000D02*
X346280000Y-191570000D01*
%TO.N,Row 3*%
X353520000Y-210580000D02*
X353560000Y-210540000D01*
X81070000Y-210570000D02*
X81080000Y-210580000D01*
X81080000Y-210580000D02*
X105800000Y-210580000D01*
X105800000Y-210580000D02*
X353520000Y-210580000D01*
%TO.N,Row 4*%
X348840000Y-229700000D02*
X351370000Y-229700000D01*
X348810000Y-229730000D02*
X348840000Y-229700000D01*
X81800000Y-229650000D02*
X81880000Y-229730000D01*
X81880000Y-229730000D02*
X103480000Y-229730000D01*
X103480000Y-229730000D02*
X348810000Y-229730000D01*
%TD*%
M02*
