M48
; DRILL file {KiCad (6.0.7-1)-1} date 2022 October 03, Monday 10:16:18
; FORMAT={-:-/ absolute / metric / decimal}
; #@! TF.CreationDate,2022-10-03T10:16:18+02:00
; #@! TF.GenerationSoftware,Kicad,Pcbnew,(6.0.7-1)-1
; #@! TF.FileFunction,Plated,1,2,PTH
FMAT,2
METRIC
; #@! TA.AperFunction,Plated,PTH,ViaDrill
T1C0.400
; #@! TA.AperFunction,Plated,PTH,ComponentDrill
T2C1.100
%
G90
G05
T1
X79.626Y-172.55
X80.355Y-191.6
X81.07Y-210.57
X81.8Y-229.65
X88.1Y-152.14
X88.125Y-158.68
X88.125Y-165.725
X88.125Y-184.8
X88.125Y-203.85
X88.125Y-217.8
X106.7Y-222.875
X107.13Y-152.11
X109.5Y-203.85
X114.25Y-158.725
X114.25Y-165.725
X114.25Y-184.775
X126.22Y-152.15
X128.55Y-203.825
X128.55Y-222.875
X133.325Y-158.725
X133.325Y-165.725
X138.075Y-184.775
X145.27Y-152.15
X147.6Y-203.825
X152.375Y-165.725
X152.4Y-222.875
X157.125Y-184.775
X164.35Y-152.13
X166.625Y-203.85
X171.4Y-165.7
X176.175Y-184.775
X183.37Y-152.17
X185.7Y-203.825
X185.7Y-222.875
X190.45Y-157.95
X190.45Y-165.725
X195.225Y-184.85
X202.42Y-152.16
X204.75Y-203.825
X209.5Y-158.75
X209.5Y-165.725
X214.275Y-184.775
X221.5Y-152.18
X223.8Y-203.825
X228.55Y-165.7
X228.78Y-230.58
X233.325Y-177.8
X233.325Y-184.775
X237.75Y-222.875
X240.55Y-152.23
X242.85Y-203.825
X247.6Y-165.725
X252.375Y-177.8
X252.375Y-184.825
X259.58Y-152.29
X261.9Y-203.825
X261.9Y-211.9
X266.65Y-158.75
X266.65Y-165.725
X271.425Y-184.775
X278.68Y-152.28
X280.925Y-203.825
X280.925Y-212.65
X280.925Y-222.9
X285.725Y-165.725
X290.475Y-184.775
X297.67Y-152.33
X300.0Y-203.825
X300.0Y-214.25
X304.75Y-165.725
X304.8Y-222.875
X309.525Y-184.775
X316.72Y-152.36
X323.825Y-165.725
X328.575Y-184.775
X328.575Y-203.85
X328.625Y-215.9
X328.625Y-222.9
T2
X68.06Y-141.94
X68.06Y-144.48
X68.06Y-147.02
X68.06Y-149.56
X68.06Y-152.1
X68.06Y-154.64
X68.06Y-157.18
X68.06Y-159.72
X68.06Y-162.26
X68.06Y-164.8
X68.06Y-167.34
X68.06Y-169.88
X83.3Y-141.94
X83.3Y-144.48
X83.3Y-147.02
X83.3Y-149.56
X83.3Y-152.1
X83.3Y-154.64
X83.3Y-157.18
X83.3Y-159.72
X83.3Y-162.26
X83.3Y-164.8
X83.3Y-167.34
X83.3Y-169.88
T0
M30
